<svg width="74" height="74" viewBox="0 0 74 74" fill="none" xmlns="http://www.w3.org/2000/svg">
<path d="M37.8034 14.6381C37.5882 14.4323 37.3019 14.3174 37.0041 14.3174C36.7064 14.3174 36.4201 14.4323 36.2049 14.6381L9.59668 40.0568C9.48368 40.1649 9.39378 40.2948 9.33242 40.4386C9.27106 40.5825 9.23951 40.7373 9.23969 40.8937L9.23535 64.75C9.23535 65.9766 9.72263 67.153 10.59 68.0203C11.4573 68.8877 12.6337 69.375 13.8604 69.375H27.7498C28.3631 69.375 28.9513 69.1313 29.385 68.6977C29.8187 68.264 30.0623 67.6758 30.0623 67.0625V47.4062C30.0623 47.0996 30.1841 46.8055 30.401 46.5886C30.6178 46.3718 30.9119 46.25 31.2186 46.25H42.7811C43.0877 46.25 43.3818 46.3718 43.5987 46.5886C43.8155 46.8055 43.9373 47.0996 43.9373 47.4062V67.0625C43.9373 67.6758 44.1809 68.264 44.6146 68.6977C45.0483 69.1313 45.6365 69.375 46.2498 69.375H60.1335C61.3601 69.375 62.5365 68.8877 63.4039 68.0203C64.2712 67.153 64.7585 65.9766 64.7585 64.75V40.8937C64.7587 40.7373 64.7271 40.5825 64.6658 40.4386C64.6044 40.2948 64.5145 40.1649 64.4015 40.0568L37.8034 14.6381Z" fill="#9A95AE"/>
<path d="M70.9519 35.2873L60.1409 24.9446V9.25C60.1409 8.63669 59.8973 8.04849 59.4636 7.61482C59.03 7.18114 58.4418 6.9375 57.8284 6.9375H50.8909C50.2776 6.9375 49.6894 7.18114 49.2558 7.61482C48.8221 8.04849 48.5784 8.63669 48.5784 9.25V13.875L40.2072 5.87086C39.4238 5.07883 38.2589 4.625 37.0001 4.625C35.7455 4.625 34.5835 5.07883 33.8001 5.8723L3.05834 35.2844C2.15935 36.1516 2.04662 37.5781 2.86466 38.5176C3.07009 38.7547 3.32162 38.9476 3.60394 39.0844C3.88626 39.2212 4.19348 39.2992 4.50689 39.3135C4.8203 39.3279 5.13334 39.2783 5.42698 39.1678C5.72061 39.0573 5.98869 38.8882 6.2149 38.6708L36.2051 10.0131C36.4203 9.80728 36.7066 9.6924 37.0044 9.6924C37.3022 9.6924 37.5885 9.80728 37.8036 10.0131L67.7968 38.6708C68.2386 39.0945 68.8304 39.3257 69.4424 39.3138C70.0544 39.3019 70.6367 39.0478 71.0617 38.6072C71.9491 37.688 71.8754 36.1704 70.9519 35.2873Z" fill="#9A95AE"/>
</svg>
