<svg width="2787" height="2074" viewBox="0 0 2787 2074" fill="none" xmlns="http://www.w3.org/2000/svg">
<path d="M2347.26 1557.69C2373.04 1457.09 2377.75 1352.24 2361.09 1249.73C2344.44 1147.22 2306.77 1049.25 2250.47 961.987C2221.27 917.406 2186.22 874.888 2140.08 848.084C2093.94 821.28 2034.98 812.253 1986.72 834.989C1931.83 860.845 1902.3 919.58 1870.14 971.014C1837.99 1022.45 1790.12 1074.77 1729.49 1072.43C1693.38 1071.04 1661.28 1050.14 1632.14 1028.75C1333.62 810.024 1120.86 471.046 780.879 324.879C705.65 292.503 617.158 271.271 543.545 307.214C462.855 346.612 426.132 442.571 417.94 532.01C404.956 671.323 443.239 811.807 508.772 935.238C574.305 1058.67 666.252 1166.22 765.109 1265.08C1020.89 1521.41 1339.08 1729.6 1695.72 1789.56C1815.2 1809.62 1939.46 1812.58 2056.15 1779.81C2172.84 1747.05 2281.45 1675.77 2343.58 1571.68C2343.08 1580.59 2347.26 1557.69 2347.26 1557.69Z" fill="#407BFF"/>
<g opacity="0.9">
<path d="M2347.26 1557.69C2373.04 1457.09 2377.75 1352.24 2361.09 1249.73C2344.44 1147.22 2306.77 1049.25 2250.47 961.987C2221.27 917.406 2186.22 874.888 2140.08 848.084C2093.94 821.28 2034.98 812.253 1986.72 834.989C1931.83 860.845 1902.3 919.58 1870.14 971.014C1837.99 1022.45 1790.12 1074.77 1729.49 1072.43C1693.38 1071.04 1661.28 1050.14 1632.14 1028.75C1333.62 810.024 1120.86 471.046 780.879 324.879C705.65 292.503 617.158 271.271 543.545 307.214C462.855 346.612 426.132 442.571 417.94 532.01C404.956 671.323 443.239 811.807 508.772 935.238C574.305 1058.67 666.252 1166.22 765.109 1265.08C1020.89 1521.41 1339.08 1729.6 1695.72 1789.56C1815.2 1809.62 1939.46 1812.58 2056.15 1779.81C2172.84 1747.05 2281.45 1675.77 2343.58 1571.68C2343.08 1580.59 2347.26 1557.69 2347.26 1557.69Z" fill="white"/>
</g>
<path d="M1393.13 2073.04C1989.85 2073.04 2473.59 2044.8 2473.59 2009.96C2473.59 1975.12 1989.85 1946.88 1393.13 1946.88C796.413 1946.88 312.675 1975.12 312.675 2009.96C312.675 2044.8 796.413 2073.04 1393.13 2073.04Z" fill="#F5F5F5"/>
<path d="M1939.24 1740.53C1939.24 1740.53 1961.53 1745.65 1971.9 1773.4C1982.26 1801.15 2013.8 1818.37 2034.14 1817.37C2042.33 1816.98 2050.02 1820.83 2059.05 1826.06L2066.91 1830.58C2066.57 1827.85 2066.3 1825 2066.13 1822.05C2063.95 1820.38 2061.78 1818.54 2059.66 1816.48C2059.21 1815.99 2058.73 1815.52 2058.22 1815.09C2033.7 1791.51 2033.03 1766.72 2004.44 1744.43C1975.85 1722.14 1939.24 1740.53 1939.24 1740.53Z" fill="#407BFF"/>
<path d="M2177.19 1715.89C2169.93 1719.43 2163.61 1724.65 2158.77 1731.11C2153.92 1737.58 2150.69 1745.1 2149.33 1753.06C2143.03 1781.98 2114.16 1803.49 2093.6 1805.33C2085.47 1806.11 2078.39 1810.91 2070.2 1817.48C2067.91 1819.21 2065.57 1821.1 2063.06 1823.05C2063.06 1820.27 2063.06 1817.48 2062.62 1814.47C2064.57 1812.47 2066.41 1810.4 2068.19 1808.18C2068.58 1807.62 2069.03 1807.12 2069.42 1806.62C2090.37 1779.81 2087.58 1755.18 2112.71 1729.05C2137.85 1702.91 2177.19 1715.89 2177.19 1715.89Z" fill="#407BFF"/>
<path d="M2070.64 1817.48C2071.31 1833 2069.7 1848.52 2065.85 1863.57C2052.09 1917.06 2050.69 1897.28 2050.69 1897.28C2050.69 1897.28 2063.95 1847.13 2063.51 1823.11C2063.51 1820.32 2063.51 1817.54 2063.06 1814.53C2062.26 1803.88 2060.1 1793.37 2056.65 1783.27C2042.11 1741.25 2013.08 1728.27 2001.6 1682.96C1990.12 1637.66 2029.91 1605.73 2029.91 1605.73C2029.91 1605.73 2024.33 1634.03 2051.31 1660C2078.28 1685.97 2081.9 1731.11 2070.42 1754.07C2063.73 1767.44 2067.97 1784.21 2069.92 1806.5C2070.25 1810.13 2070.47 1813.75 2070.64 1817.48Z" fill="#407BFF"/>
<path d="M2095.27 2045.79H2006.11C2001.52 2045.79 1997.07 2044.13 1993.61 2041.1C1990.15 2038.08 1987.9 2033.9 1987.28 2029.35L1963.54 1853.2H2137.68L2113.88 2029.35C2113.27 2033.87 2111.05 2038.01 2107.64 2041.03C2104.22 2044.05 2099.83 2045.74 2095.27 2045.79Z" fill="#407BFF"/>
<path d="M2152.22 1852.59V1884.97H2133.44L2113.94 2029.29C2113.34 2033.85 2111.11 2038.03 2107.65 2041.06C2104.2 2044.08 2099.76 2045.74 2095.16 2045.73H2006.11C2001.53 2045.72 1997.1 2044.05 1993.65 2041.03C1990.19 2038.01 1987.95 2033.84 1987.33 2029.29L1967.83 1884.97H1946.21V1852.59H2152.22Z" fill="#407BFF"/>
<path opacity="0.5" d="M2152.22 1852.59V1884.97H2133.44L2113.94 2029.29C2113.34 2033.85 2111.11 2038.03 2107.65 2041.06C2104.2 2044.08 2099.76 2045.74 2095.16 2045.73H2006.11C2001.53 2045.72 1997.1 2044.05 1993.65 2041.03C1990.19 2038.01 1987.95 2033.84 1987.33 2029.29L1967.83 1884.97H1946.21V1852.59H2152.22Z" fill="black"/>
<path d="M1094.72 1487.25C1094.19 1492.6 1091.71 1497.57 1087.76 1501.2C1083.8 1504.84 1078.64 1506.9 1073.27 1506.98C1070.74 1507.03 1068.24 1506.53 1065.91 1505.54C1063.59 1504.54 1061.51 1503.06 1059.81 1501.19C1058.1 1499.32 1056.82 1497.11 1056.04 1494.71C1055.25 1492.31 1054.99 1489.77 1055.27 1487.25C1055.88 1481.94 1058.39 1477.02 1062.33 1473.4C1066.27 1469.78 1071.38 1467.69 1076.73 1467.53C1079.25 1467.48 1081.76 1467.97 1084.08 1468.97C1086.4 1469.97 1088.48 1471.45 1090.19 1473.32C1091.89 1475.18 1093.18 1477.39 1093.96 1479.8C1094.74 1482.2 1095 1484.74 1094.72 1487.25Z" fill="#407BFF"/>
<path d="M1107.65 1473.82C1107.1 1473.8 1106.55 1473.66 1106.05 1473.41C1105.56 1473.16 1105.12 1472.81 1104.76 1472.37C1104.41 1471.94 1104.15 1471.44 1104.01 1470.9C1103.86 1470.37 1103.83 1469.8 1103.92 1469.25C1104.92 1458.11 1093.39 1449.03 1077.67 1449.03C1061.96 1449.03 1048.47 1462.51 1047.91 1469.25C1047.84 1470.44 1047.33 1471.56 1046.49 1472.4C1045.65 1473.24 1044.53 1473.75 1043.35 1473.82C1042.79 1473.8 1042.24 1473.66 1041.75 1473.41C1041.25 1473.16 1040.81 1472.81 1040.46 1472.37C1040.1 1471.94 1039.85 1471.44 1039.7 1470.9C1039.56 1470.37 1039.53 1469.8 1039.61 1469.25C1040.78 1455.99 1058.95 1439.83 1078.62 1439.83C1098.29 1439.83 1113.78 1452.76 1112.33 1469.25C1112.25 1470.46 1111.73 1471.59 1110.87 1472.43C1110 1473.28 1108.86 1473.77 1107.65 1473.82Z" fill="#407BFF"/>
<path d="M1118.63 1447.97C1118.07 1447.94 1117.53 1447.8 1117.03 1447.55C1116.53 1447.3 1116.09 1446.95 1115.74 1446.52C1115.39 1446.09 1115.13 1445.59 1114.99 1445.05C1114.84 1444.51 1114.81 1443.95 1114.9 1443.4C1115.84 1432.25 1099.96 1423.17 1079.46 1423.17C1057.95 1423.17 1041.01 1437.32 1040.45 1443.4C1040.37 1444.58 1039.86 1445.7 1039.02 1446.54C1038.18 1447.38 1037.06 1447.89 1035.88 1447.97C1035.32 1447.94 1034.78 1447.8 1034.28 1447.55C1033.78 1447.3 1033.34 1446.95 1032.99 1446.52C1032.64 1446.09 1032.38 1445.59 1032.23 1445.05C1032.09 1444.51 1032.06 1443.95 1032.15 1443.4C1033.32 1430.13 1055.72 1413.97 1080.24 1413.97C1106.15 1413.97 1124.82 1426.62 1123.14 1443.4C1123.07 1444.57 1122.57 1445.68 1121.74 1446.52C1120.91 1447.36 1119.81 1447.88 1118.63 1447.97Z" fill="#407BFF"/>
<path d="M1129.39 1424.34C1128.82 1424.32 1128.27 1424.17 1127.77 1423.92C1127.27 1423.67 1126.83 1423.31 1126.47 1422.87C1126.12 1422.43 1125.86 1421.93 1125.72 1421.38C1125.58 1420.84 1125.56 1420.27 1125.65 1419.71C1126.49 1409.96 1108.93 1399.54 1081.07 1399.54C1053.21 1399.54 1033.37 1414.53 1032.93 1419.71C1032.87 1420.91 1032.38 1422.04 1031.55 1422.89C1030.72 1423.74 1029.6 1424.26 1028.41 1424.34C1027.85 1424.32 1027.3 1424.17 1026.79 1423.92C1026.29 1423.67 1025.84 1423.31 1025.48 1422.87C1025.13 1422.44 1024.86 1421.93 1024.72 1421.39C1024.57 1420.84 1024.54 1420.27 1024.62 1419.71C1025.79 1406.51 1052.48 1390.35 1081.91 1390.35C1113.56 1390.35 1135.52 1402.72 1134.01 1419.71C1133.94 1420.92 1133.44 1422.06 1132.58 1422.91C1131.73 1423.76 1130.59 1424.27 1129.39 1424.34Z" fill="#407BFF"/>
<path d="M2087.47 1209.02H608.186L690.214 271.215H2169.5L2087.47 1209.02Z" fill="#407BFF"/>
<path d="M2067.41 1282.41H609.356C599.767 1282.57 590.253 1280.7 581.445 1276.9C572.637 1273.11 564.739 1267.48 558.276 1260.39C551.813 1253.31 546.932 1244.93 543.96 1235.81C540.988 1226.69 539.991 1217.05 541.037 1207.51L622.563 275.617C624.653 255.328 634.09 236.502 649.096 222.687C664.102 208.872 683.641 201.02 704.034 200.611H2161.75C2171.34 200.443 2180.86 202.319 2189.66 206.115C2198.47 209.91 2206.37 215.538 2212.83 222.623C2219.3 229.708 2224.18 238.089 2227.15 247.207C2230.12 256.326 2231.12 265.972 2230.07 275.506L2148.55 1207.51C2146.44 1227.73 2137.04 1246.48 2122.1 1260.26C2107.17 1274.05 2087.73 1281.92 2067.41 1282.41Z" fill="#263238"/>
<path d="M2067.35 1209.02H670.042L752.125 271.215H2149.38L2067.35 1209.02Z" fill="#407BFF"/>
<path d="M2067.08 1209.35H669.93L751.957 271.605H2149.1L2067.08 1209.35Z" fill="white"/>
<path d="M2138.74 390.467H741.537L751.958 271.605H2149.1L2138.74 390.467Z" fill="#407BFF"/>
<path d="M1376.22 705.547C1393.92 688.607 1395.68 661.735 1380.17 645.528C1364.66 629.322 1337.73 629.916 1320.04 646.857C1302.34 663.798 1300.57 690.669 1316.09 706.876C1331.6 723.083 1358.52 722.488 1376.22 705.547Z" fill="#407BFF"/>
<path d="M822.077 881.443C839.715 864.54 841.464 837.742 825.984 821.588C810.503 805.434 783.654 806.042 766.016 822.945C748.377 839.849 746.628 866.647 762.109 882.801C777.59 898.955 804.438 898.347 822.077 881.443Z" fill="#263238"/>
<path d="M1247.63 940.922C1246.45 952.422 1241.1 963.09 1232.59 970.913C1224.08 978.737 1213 983.173 1201.44 983.385C1196 983.48 1190.61 982.417 1185.61 980.265C1180.62 978.114 1176.14 974.923 1172.48 970.905C1168.81 966.888 1166.05 962.136 1164.36 956.966C1162.68 951.796 1162.11 946.327 1162.71 940.922C1163.89 929.422 1169.24 918.753 1177.75 910.93C1186.27 903.107 1197.35 898.671 1208.91 898.459C1214.34 898.363 1219.74 899.427 1224.73 901.578C1229.72 903.73 1234.2 906.921 1237.87 910.938C1241.53 914.956 1244.3 919.707 1245.98 924.877C1247.67 930.047 1248.23 935.517 1247.63 940.922Z" fill="#407BFF"/>
<path d="M795.479 606.18L799.436 598.768C802.744 600.969 806.608 602.186 810.581 602.279C814.76 602.279 816.487 601.109 816.655 599.381C817.156 593.809 796.538 597.821 797.708 584.614C798.265 578.261 803.893 573.023 814.426 573.023C818.841 572.949 823.201 574.024 827.075 576.144L823.342 583.667C820.421 581.925 817.101 580.965 813.701 580.88C809.466 580.88 807.794 582.329 807.627 584.113C807.181 589.685 827.744 585.45 826.629 598.601C826.072 604.842 820.388 610.136 809.912 610.136C804.818 610.252 799.801 608.877 795.479 606.18Z" fill="#263238"/>
<path d="M965.386 609.412L966.89 590.521L956.414 605.901H951.9L944.098 591.023L942.482 609.412H933.176L936.185 573.971H944.489L955.188 594.589L969.621 573.971H977.924L974.914 609.635L965.386 609.412Z" fill="#263238"/>
<path d="M1083.19 581.772H1072.04L1072.77 573.748H1104.7L1104.03 581.772H1092.89L1090.43 609.635H1080.35L1083.19 581.772Z" fill="#263238"/>
<path d="M1265.41 573.971L1250.76 609.635H1239.94L1235.04 587.958L1225.96 609.412H1215.15L1206.68 573.748H1217.1L1222.28 596.54L1231.81 573.748H1241.06L1246.24 596.707L1255.77 573.748L1265.41 573.971Z" fill="#263238"/>
<path d="M1349.61 581.772H1338.47L1339.19 573.748H1371.12L1370.84 581.772H1359.7L1357.25 609.635H1347.16L1349.61 581.772Z" fill="#263238"/>
<path d="M1485.3 581.55L1484.63 589.407H1500.4L1499.68 597.208H1483.97L1482.91 609.412H1472.82L1475.94 573.748H1503.8L1503.08 581.55H1485.3Z" fill="#263238"/>
<path d="M1603.77 606.18L1607.79 598.768C1611.17 601.02 1615.14 602.239 1619.21 602.279C1623.39 602.279 1625.12 601.109 1625.28 599.381C1625.79 593.809 1605.17 597.821 1606.28 584.614C1606.84 578.261 1612.52 573.023 1623 573.023C1627.42 572.949 1631.78 574.024 1635.65 576.144L1631.92 583.667C1628.99 581.932 1625.67 580.973 1622.28 580.88C1618.04 580.88 1616.37 582.329 1616.2 584.113C1615.76 589.685 1636.32 585.45 1635.15 598.601C1634.65 604.842 1628.96 610.136 1618.43 610.136C1613.26 610.273 1608.17 608.898 1603.77 606.18Z" fill="#263238"/>
<path d="M1082.07 661.571L1078.95 697.235H1068.87L1071.32 669.372H1064.69L1065.36 661.571H1082.07Z" fill="#263238"/>
<path d="M1225.12 689.21L1224.4 697.235H1196.53L1197.09 690.882L1211.52 678.4C1214.64 675.781 1215.2 674.165 1215.31 672.827C1215.43 671.49 1214.09 669.149 1211.02 669.149C1209.72 669.144 1208.44 669.455 1207.28 670.057C1206.12 670.659 1205.13 671.533 1204.39 672.604L1197.26 668.425C1199.01 666.005 1201.34 664.06 1204.04 662.766C1206.73 661.472 1209.71 660.87 1212.69 661.013C1220.89 661.013 1226.18 665.249 1225.57 671.88C1225.27 674.134 1224.49 676.297 1223.28 678.221C1222.06 680.144 1220.45 681.783 1218.55 683.025L1211.25 689.21H1225.12Z" fill="#263238"/>
<path d="M1358.53 686.034C1357.97 692.108 1352.96 697.904 1341.81 697.904C1337.06 698.006 1332.37 696.791 1328.27 694.393L1332.62 686.814C1335.45 688.768 1338.82 689.799 1342.26 689.768C1345.66 689.768 1347.83 688.43 1348.22 686.034C1348.61 683.638 1346.94 682.579 1343.09 682.579H1338.86L1339.41 676.227L1346.38 669.372H1332.39L1333.12 661.571H1358.86L1358.3 667.868L1350.22 675.836C1351.44 675.955 1352.62 676.313 1353.7 676.891C1354.78 677.469 1355.73 678.255 1356.5 679.203C1357.28 680.151 1357.85 681.243 1358.2 682.416C1358.55 683.588 1358.66 684.818 1358.53 686.034Z" fill="#263238"/>
<path d="M1497.51 690.381H1491.93L1491.32 697.235H1481.51L1482.07 690.381H1463.24L1463.85 683.805L1481.79 661.515H1492.21L1475.89 682.356H1483.13L1483.63 676.282H1493.44L1492.88 682.356H1498.45L1497.51 690.381Z" fill="#263238"/>
<path d="M1625.51 685.756C1624.95 692.108 1619.66 697.904 1608.79 697.904C1604.06 698.013 1599.38 696.797 1595.3 694.393L1599.6 686.814C1602.43 688.768 1605.8 689.799 1609.24 689.768C1612.64 689.768 1614.81 688.375 1615.25 686.034C1615.7 683.694 1614.08 682.412 1608.62 682.412H1599.32L1602.88 661.571H1625.62L1624.95 669.372H1610.46L1609.57 674.555H1611.97C1622.39 674.555 1626.07 679.459 1625.51 685.756Z" fill="#263238"/>
<path d="M811.974 773.579C811.5 777.156 809.666 780.414 806.855 782.676C804.043 784.938 800.468 786.03 796.872 785.727C786.897 785.727 780.879 779.709 781.882 768.173C781.924 765.525 782.497 762.911 783.565 760.487C784.634 758.063 786.177 755.878 788.104 754.06C790.031 752.242 792.303 750.828 794.785 749.903C797.267 748.977 799.909 748.558 802.556 748.67C806.148 748.531 809.705 749.42 812.81 751.233L808.519 758.477C806.638 757.186 804.389 756.541 802.11 756.638C799.731 756.511 797.393 757.301 795.579 758.845C793.764 760.39 792.612 762.572 792.358 764.941C794.734 763.122 797.672 762.195 800.661 762.322C802.181 762.166 803.715 762.35 805.155 762.86C806.594 763.37 807.903 764.193 808.985 765.27C810.067 766.347 810.897 767.651 811.414 769.088C811.931 770.525 812.122 772.059 811.974 773.579ZM802.166 774.025C802.239 773.417 802.173 772.8 801.971 772.222C801.769 771.644 801.438 771.119 801.002 770.689C800.566 770.259 800.038 769.934 799.457 769.739C798.877 769.545 798.259 769.486 797.652 769.567C796.354 769.474 795.072 769.895 794.081 770.739C793.091 771.584 792.472 772.784 792.358 774.08C792.08 776.699 793.863 778.538 796.928 778.538C797.59 778.623 798.262 778.573 798.903 778.389C799.545 778.205 800.142 777.892 800.659 777.47C801.175 777.047 801.6 776.524 801.907 775.931C802.214 775.339 802.397 774.69 802.445 774.025H802.166Z" fill="#263238"/>
<path d="M948.055 749.394L947.498 755.691L932.396 785.002H921.251L935.684 757.14H926.322L925.82 762.712H917.239L918.409 749.227L948.055 749.394Z" fill="#263238"/>
<path d="M1087.65 774.582C1087.09 781.436 1080.4 785.727 1070.93 785.727C1061.46 785.727 1055.83 781.381 1056.44 774.582C1056.57 772.835 1057.16 771.151 1058.13 769.696C1059.11 768.241 1060.45 767.064 1062.01 766.279C1060.89 765.473 1060 764.382 1059.45 763.118C1058.89 761.854 1058.68 760.463 1058.84 759.091C1059.39 752.794 1065.52 748.726 1073.94 748.726C1082.35 748.726 1087.81 752.794 1087.26 759.091C1087.11 760.55 1086.64 761.957 1085.86 763.203C1085.09 764.449 1084.04 765.502 1082.8 766.279C1084.37 766.989 1085.68 768.17 1086.55 769.657C1087.42 771.145 1087.8 772.866 1087.65 774.582ZM1077.56 774.303C1077.56 771.517 1075.78 769.845 1072.6 769.845C1071.27 769.704 1069.94 770.094 1068.9 770.928C1067.85 771.763 1067.18 772.976 1067.03 774.303C1067.03 777.034 1068.76 778.706 1071.99 778.706C1073.31 778.832 1074.64 778.438 1075.68 777.606C1076.72 776.773 1077.39 775.569 1077.56 774.248V774.303ZM1069.26 759.536C1069.26 761.877 1070.6 763.27 1073.16 763.27C1073.71 763.332 1074.26 763.284 1074.79 763.129C1075.33 762.974 1075.82 762.716 1076.25 762.369C1076.68 762.021 1077.04 761.592 1077.3 761.106C1077.56 760.62 1077.73 760.086 1077.78 759.536C1077.78 757.196 1076.33 755.803 1073.83 755.803C1072.74 755.693 1071.64 756.017 1070.79 756.705C1069.93 757.393 1069.38 758.39 1069.26 759.481V759.536Z" fill="#263238"/>
<path d="M1220.38 766.223C1220.34 768.877 1219.77 771.495 1218.7 773.923C1217.62 776.351 1216.08 778.539 1214.14 780.357C1212.21 782.176 1209.93 783.588 1207.44 784.511C1204.95 785.433 1202.31 785.847 1199.65 785.727C1196.08 785.858 1192.54 784.969 1189.46 783.164L1193.75 775.919C1195.63 777.21 1197.88 777.855 1200.16 777.758C1202.51 777.859 1204.82 777.065 1206.62 775.536C1208.42 774.007 1209.57 771.855 1209.85 769.511C1207.48 771.286 1204.57 772.191 1201.61 772.074C1200.11 772.201 1198.6 772 1197.19 771.485C1195.78 770.97 1194.5 770.153 1193.44 769.092C1192.38 768.03 1191.56 766.75 1191.05 765.34C1190.53 763.93 1190.33 762.425 1190.46 760.929C1190.93 757.373 1192.75 754.132 1195.54 751.873C1198.33 749.614 1201.87 748.508 1205.45 748.781C1215.43 748.67 1221.44 754.688 1220.38 766.223ZM1209.96 760.316C1209.96 757.697 1208.46 755.858 1205.39 755.858C1204.1 755.766 1202.83 756.189 1201.84 757.035C1200.86 757.881 1200.26 759.08 1200.16 760.372C1200.08 760.98 1200.15 761.597 1200.35 762.175C1200.55 762.753 1200.88 763.277 1201.32 763.708C1201.76 764.138 1202.28 764.463 1202.86 764.657C1203.45 764.852 1204.06 764.911 1204.67 764.83C1205.98 764.938 1207.27 764.524 1208.28 763.678C1209.28 762.832 1209.91 761.623 1210.02 760.316H1209.96Z" fill="#263238"/>
<path d="M1340.81 749.394L1337.69 785.003H1327.6L1330.05 757.14H1323.42L1324.09 749.394H1340.81Z" fill="#263238"/>
<path d="M1344.6 767.17C1345.6 755.412 1352.84 748.669 1361.98 748.669C1371.12 748.669 1377.03 755.412 1376.03 767.17C1375.02 778.928 1367.78 785.727 1358.69 785.727C1349.61 785.727 1343.59 778.984 1344.6 767.17ZM1365.88 767.17C1366.55 759.703 1364.43 756.917 1361.26 756.917C1358.08 756.917 1355.41 759.703 1354.74 767.17C1354.07 774.637 1356.19 777.479 1359.42 777.479C1362.65 777.479 1365.27 774.582 1365.88 767.17Z" fill="#263238"/>
<path d="M1473.99 749.394L1470.87 785.003H1460.78L1463.24 757.14H1456.6L1457.33 749.394H1473.99Z" fill="#263238"/>
<path d="M1494.66 749.394L1491.54 785.003H1481.46L1483.91 757.14H1477.28L1477.95 749.394H1494.66Z" fill="#263238"/>
<path d="M1607.23 749.394L1604.11 785.003H1594.02L1596.48 757.14H1589.84L1590.51 749.394H1607.23Z" fill="#263238"/>
<path d="M1637.71 777.034L1636.99 785.002H1609.12L1609.68 778.705L1624.11 766.223C1627.24 763.604 1627.79 761.932 1627.9 760.65C1627.9 758.366 1626.68 756.973 1623.61 756.973C1622.31 756.967 1621.03 757.278 1619.87 757.88C1618.72 758.482 1617.72 759.357 1616.98 760.428L1609.85 756.248C1611.6 753.828 1613.93 751.883 1616.63 750.589C1619.32 749.295 1622.3 748.693 1625.28 748.837C1633.48 748.837 1638.77 753.072 1638.16 759.647C1637.86 761.903 1637.08 764.067 1635.87 765.991C1634.66 767.915 1633.04 769.554 1631.14 770.793L1623.84 777.034H1637.71Z" fill="#263238"/>
<path d="M791.3 837.161L788.179 872.825H778.093L780.545 844.963H773.914L774.582 837.161H791.3Z" fill="white"/>
<path d="M821.837 861.68C821.335 867.699 816.264 873.55 805.119 873.55C800.359 873.668 795.663 872.431 791.578 869.983L795.925 862.405C798.742 864.347 802.088 865.378 805.509 865.358C808.964 865.358 811.082 864.077 811.528 861.68C811.974 859.284 810.246 858.17 806.345 858.17H802.445L803.002 851.817L809.968 844.963H795.758L796.426 837.161H822.227L821.67 843.458L813.59 851.427C814.81 851.544 815.995 851.905 817.074 852.487C818.153 853.069 819.105 853.861 819.873 854.816C820.642 855.772 821.211 856.871 821.548 858.05C821.886 859.229 821.984 860.463 821.837 861.68Z" fill="white"/>
<path d="M926.712 837.161L923.591 872.825H913.505L915.901 844.963H909.326L909.994 837.161H926.712Z" fill="#263238"/>
<path d="M963.157 865.971H957.584L956.971 872.825H947.331L947.888 865.971H929.053L929.61 859.396L947.554 837.105H958.03L941.758 858.17H948.947L949.504 852.096H959.033L958.476 858.17H964.048L963.157 865.971Z" fill="#263238"/>
<path d="M1066.69 837.161L1063.57 872.825H1053.49L1055.94 844.963H1049.31L1049.98 837.161H1066.69Z" fill="#263238"/>
<path d="M1097.79 861.346C1097.23 867.699 1091.94 873.55 1081.07 873.55C1076.33 873.676 1071.65 872.438 1067.59 869.984L1071.88 862.405C1074.69 864.347 1078.04 865.378 1081.46 865.358C1084.92 865.358 1087.03 864.021 1087.54 861.625C1088.04 859.229 1086.64 858.17 1081.07 858.17H1071.38L1075 837.329H1097.79L1097.06 845.13H1082.74L1081.8 850.313H1084.19C1094.84 850.145 1098.51 855.049 1097.79 861.346Z" fill="#263238"/>
<path d="M1199.88 837.161L1196.76 872.825H1186.95L1189.35 844.963H1182.49L1183.22 837.161H1199.88Z" fill="#263238"/>
<path d="M1233.65 861.346C1233.17 864.918 1231.35 868.172 1228.55 870.442C1225.75 872.711 1222.19 873.824 1218.6 873.55C1208.63 873.55 1202.61 867.532 1203.61 855.941C1203.65 853.292 1204.23 850.679 1205.29 848.255C1206.36 845.831 1207.91 843.645 1209.83 841.827C1211.76 840.01 1214.03 838.596 1216.51 837.67C1219 836.744 1221.64 836.325 1224.29 836.437C1227.88 836.315 1231.44 837.224 1234.54 839.056L1230.25 846.3C1228.38 844.991 1226.12 844.344 1223.84 844.462C1221.46 844.334 1219.12 845.124 1217.31 846.669C1215.49 848.213 1214.34 850.395 1214.09 852.765C1216.46 850.93 1219.4 849.983 1222.39 850.09C1223.9 849.953 1225.43 850.15 1226.86 850.668C1228.28 851.185 1229.58 852.01 1230.65 853.084C1231.73 854.157 1232.55 855.454 1233.07 856.882C1233.59 858.31 1233.78 859.834 1233.65 861.346ZM1223.84 861.792C1223.91 861.184 1223.85 860.567 1223.64 859.989C1223.44 859.411 1223.11 858.887 1222.68 858.456C1222.24 858.026 1221.71 857.701 1221.13 857.507C1220.55 857.312 1219.93 857.253 1219.33 857.334C1217.99 857.194 1216.65 857.59 1215.61 858.437C1214.56 859.283 1213.89 860.51 1213.75 861.848C1213.68 862.468 1213.75 863.098 1213.96 863.688C1214.16 864.277 1214.5 864.811 1214.95 865.248C1215.4 865.684 1215.94 866.012 1216.53 866.205C1217.13 866.398 1217.76 866.452 1218.38 866.362C1219.04 866.439 1219.71 866.38 1220.35 866.189C1220.99 865.998 1221.58 865.679 1222.09 865.252C1222.6 864.824 1223.02 864.297 1223.32 863.702C1223.62 863.107 1223.8 862.457 1223.84 861.792Z" fill="#263238"/>
<path d="M1333.12 837.161L1330 872.825H1319.91L1322.36 844.963H1315.73L1316.4 837.161H1333.12Z" fill="#263238"/>
<path d="M1367.44 837.161L1366.89 843.458L1351.79 872.825H1340.64L1355.07 844.963H1345.71L1345.21 850.535H1336.63L1337.8 837.05L1367.44 837.161Z" fill="#263238"/>
<path d="M1466.3 837.161L1463.24 872.825H1453.15L1455.55 844.963H1448.86L1449.58 837.161H1466.3Z" fill="#263238"/>
<path d="M1500.24 862.294C1499.68 869.148 1492.99 873.439 1483.52 873.439C1474.05 873.439 1468.42 869.036 1469.03 862.294C1469.18 860.55 1469.77 858.874 1470.74 857.421C1471.72 855.969 1473.05 854.788 1474.6 853.99C1473.49 853.193 1472.6 852.112 1472.04 850.857C1471.48 849.603 1471.27 848.222 1471.43 846.858C1471.98 840.505 1478.11 836.437 1486.53 836.437C1494.94 836.437 1500.4 840.505 1499.85 846.858C1499.7 848.307 1499.22 849.703 1498.44 850.939C1497.67 852.175 1496.63 853.219 1495.39 853.99C1496.95 854.707 1498.26 855.889 1499.13 857.375C1499.99 858.861 1500.38 860.579 1500.24 862.294ZM1490.15 862.015C1490.15 859.284 1488.37 857.613 1485.19 857.613C1483.87 857.471 1482.55 857.852 1481.51 858.675C1480.46 859.499 1479.79 860.698 1479.62 862.015C1479.62 864.745 1481.35 866.473 1484.58 866.473C1485.9 866.585 1487.22 866.185 1488.25 865.356C1489.29 864.526 1489.97 863.33 1490.15 862.015ZM1481.85 847.303C1481.85 849.644 1483.19 851.037 1485.75 851.037C1486.3 851.099 1486.85 851.051 1487.39 850.896C1487.92 850.742 1488.41 850.483 1488.84 850.136C1489.27 849.789 1489.63 849.359 1489.89 848.873C1490.15 848.387 1490.32 847.853 1490.37 847.303C1490.37 844.907 1488.93 843.514 1486.42 843.514C1485.87 843.46 1485.31 843.516 1484.79 843.678C1484.26 843.84 1483.77 844.104 1483.34 844.457C1482.92 844.809 1482.57 845.242 1482.31 845.73C1482.05 846.219 1481.9 846.754 1481.85 847.303Z" fill="#263238"/>
<path d="M1599.32 837.161L1596.2 872.825H1586.11L1588.56 844.963H1581.93L1582.6 837.161H1599.32Z" fill="#263238"/>
<path d="M1633.03 853.991C1633 856.649 1632.43 859.273 1631.36 861.708C1630.29 864.142 1628.74 866.337 1626.81 868.161C1624.88 869.986 1622.59 871.403 1620.1 872.329C1617.61 873.255 1614.96 873.67 1612.3 873.55C1608.72 873.664 1605.18 872.756 1602.1 870.931L1606.39 863.687C1608.26 865.005 1610.52 865.653 1612.8 865.526C1615.16 865.64 1617.48 864.851 1619.28 863.319C1621.08 861.787 1622.23 859.628 1622.5 857.278C1620.13 859.073 1617.22 859.998 1614.25 859.898C1612.76 860.015 1611.26 859.807 1609.85 859.289C1608.45 858.77 1607.17 857.953 1606.11 856.894C1605.05 855.834 1604.23 854.558 1603.72 853.153C1603.2 851.747 1602.99 850.246 1603.11 848.752C1603.57 845.186 1605.38 841.932 1608.17 839.661C1610.96 837.39 1614.51 836.276 1618.1 836.549C1628.02 836.437 1634.03 842.456 1633.03 853.991ZM1622.61 848.139C1622.89 845.465 1621.11 843.626 1618.04 843.626C1616.75 843.534 1615.47 843.957 1614.49 844.802C1613.51 845.648 1612.9 846.848 1612.8 848.139C1612.72 848.752 1612.78 849.375 1612.98 849.96C1613.17 850.546 1613.5 851.077 1613.94 851.514C1614.38 851.951 1614.91 852.281 1615.5 852.479C1616.08 852.676 1616.7 852.736 1617.32 852.653C1618.61 852.746 1619.9 852.325 1620.89 851.48C1621.88 850.636 1622.5 849.436 1622.61 848.139Z" fill="#263238"/>
<path d="M793.361 952.903L792.693 960.872H764.83L765.387 954.575L780.155 941.758C783.275 939.083 783.832 937.467 783.944 936.185C784.055 934.904 782.718 932.507 779.653 932.507C778.35 932.502 777.066 932.813 775.91 933.415C774.755 934.017 773.764 934.891 773.022 935.962L765.889 931.783C767.647 929.367 769.978 927.424 772.672 926.131C775.366 924.837 778.339 924.233 781.325 924.371C789.516 924.371 794.81 928.607 794.197 935.182C793.9 937.436 793.118 939.599 791.906 941.523C790.694 943.447 789.08 945.086 787.176 946.327L779.597 952.903H793.361Z" fill="#263238"/>
<path d="M797.151 942.761C798.154 931.003 805.398 924.26 814.537 924.26C823.676 924.26 829.583 931.003 828.58 942.761C827.577 954.519 820.333 961.318 811.249 961.318C802.166 961.318 796.148 954.519 797.151 942.761ZM818.438 942.761C819.107 935.294 816.989 932.508 813.813 932.508C810.636 932.508 808.24 935.294 807.293 942.761C806.346 950.228 808.742 953.07 811.974 953.07C815.206 953.07 817.769 950.284 818.438 942.761Z" fill="#263238"/>
<path d="M928.885 952.903L928.161 960.872H900.298L900.856 954.575L915.288 942.092C918.353 939.418 918.911 937.802 919.022 936.52C919.134 935.238 917.852 932.842 914.787 932.842C913.475 932.827 912.179 933.134 911.013 933.737C909.847 934.339 908.847 935.218 908.1 936.297L900.967 932.118C902.729 929.705 905.061 927.766 907.754 926.472C910.447 925.179 913.418 924.572 916.403 924.706C924.595 924.706 929.889 928.941 929.331 935.517C929.02 937.773 928.227 939.937 927.006 941.86C925.785 943.783 924.164 945.42 922.254 946.662L915.01 952.903H928.885Z" fill="#263238"/>
<path d="M949.559 925.04L946.439 960.704H936.185L938.581 932.842H932.006L932.675 925.04H949.559Z" fill="#263238"/>
<path d="M1068.87 952.903L1068.14 960.872H1040.28L1040.84 954.575L1055.27 942.092C1058.39 939.417 1058.95 937.801 1059.06 936.52C1059.17 935.238 1057.83 932.842 1054.77 932.842C1053.47 932.836 1052.18 933.148 1051.03 933.75C1049.87 934.352 1048.88 935.226 1048.14 936.297L1041 932.117C1042.76 929.701 1045.09 927.759 1047.79 926.465C1050.48 925.172 1053.46 924.567 1056.44 924.706C1064.63 924.706 1069.93 928.941 1069.31 935.517C1069.02 937.771 1068.23 939.934 1067.02 941.857C1065.81 943.781 1064.2 945.42 1062.29 946.662L1055.1 952.903H1068.87Z" fill="#263238"/>
<path d="M1099.4 952.903L1098.68 960.872H1070.82L1071.38 954.575L1085.81 942.092C1088.87 939.418 1089.43 937.802 1089.6 936.52C1089.76 935.238 1088.37 932.842 1085.31 932.842C1084 932.841 1082.71 933.155 1081.54 933.756C1080.38 934.357 1079.38 935.229 1078.62 936.297L1071.54 932.118C1073.29 929.702 1075.61 927.759 1078.29 926.465C1080.98 925.171 1083.94 924.567 1086.92 924.706C1095.17 924.706 1100.41 928.941 1099.85 935.517C1099.55 937.777 1098.76 939.944 1097.54 941.869C1096.32 943.793 1094.69 945.429 1092.77 946.662L1085.53 952.903H1099.4Z" fill="#263238"/>
<path d="M1202.05 952.903L1201.38 960.872H1173.52L1174.08 954.575L1188.62 941.758C1191.69 939.083 1192.24 937.467 1192.35 936.185C1192.47 934.904 1191.18 932.508 1188.12 932.508C1186.81 932.493 1185.51 932.8 1184.35 933.402C1183.18 934.005 1182.18 934.884 1181.43 935.963L1174.3 931.783C1176.06 929.37 1178.39 927.431 1181.09 926.138C1183.78 924.845 1186.75 924.238 1189.74 924.372C1197.93 924.372 1203.22 928.607 1202.66 935.182C1202.35 937.439 1201.56 939.602 1200.34 941.525C1199.12 943.448 1197.5 945.086 1195.59 946.327L1188.34 952.569L1202.05 952.903Z" fill="#263238"/>
<path d="M1232.76 949.448C1232.25 955.522 1227.18 961.317 1216.04 961.317C1211.29 961.425 1206.6 960.21 1202.5 957.807L1206.84 950.228C1209.66 952.17 1213.01 953.201 1216.43 953.181C1219.88 953.181 1222 951.844 1222.45 949.448C1222.89 947.052 1221.17 945.993 1217.26 945.993H1213.03L1213.59 939.64L1220.55 932.73H1206.51L1207.18 924.929H1232.98L1232.42 931.281L1224.34 939.194C1225.57 939.298 1226.77 939.648 1227.87 940.224C1228.96 940.799 1229.93 941.588 1230.71 942.544C1231.5 943.5 1232.08 944.603 1232.43 945.789C1232.79 946.975 1232.89 948.219 1232.76 949.448Z" fill="#263238"/>
<path d="M1335.29 952.903L1334.57 960.871H1306.7L1307.26 954.575L1321.8 941.758C1324.93 939.083 1325.48 937.467 1325.59 936.185C1325.71 934.903 1324.37 932.507 1321.3 932.507C1320 932.502 1318.72 932.813 1317.56 933.415C1316.41 934.017 1315.41 934.891 1314.67 935.962L1307.54 931.783C1309.29 929.363 1311.62 927.418 1314.32 926.124C1317.01 924.83 1319.99 924.228 1322.97 924.371C1331.17 924.371 1336.46 928.607 1335.85 935.182C1335.55 937.436 1334.77 939.599 1333.56 941.523C1332.34 943.446 1330.73 945.085 1328.83 946.327L1321.53 952.903H1335.29Z" fill="#263238"/>
<path d="M1371.51 953.794H1365.94L1365.33 960.593H1355.8L1356.41 953.794H1337.41L1337.97 947.219L1355.91 924.929H1366.33L1350 945.77H1357.25L1357.75 939.752H1367.28L1366.77 945.77H1372.07L1371.51 953.794Z" fill="#263238"/>
<path d="M1468.47 952.903L1467.81 960.872H1439.94L1440.5 954.575L1454.93 942.092C1458 939.418 1458.55 937.802 1458.67 936.52C1458.78 935.238 1457.5 932.842 1454.43 932.842C1453.12 932.827 1451.82 933.134 1450.66 933.737C1449.49 934.339 1448.49 935.218 1447.74 936.297L1440.61 932.118C1442.37 929.705 1444.7 927.766 1447.4 926.472C1450.09 925.179 1453.06 924.572 1456.05 924.706C1464.24 924.706 1469.53 928.941 1468.98 935.517C1468.66 937.773 1467.87 939.937 1466.65 941.86C1465.43 943.783 1463.81 945.42 1461.9 946.662L1454.65 952.903H1468.47Z" fill="#263238"/>
<path d="M1499.79 949.169C1499.23 955.522 1493.94 961.317 1483.07 961.317C1478.34 961.432 1473.67 960.216 1469.59 957.807L1473.88 950.228C1476.7 952.17 1480.04 953.201 1483.46 953.181C1486.92 953.181 1489.04 951.788 1489.54 949.392C1490.04 946.996 1488.37 945.77 1482.91 945.77H1473.21L1476.72 925.04H1499.46L1498.73 932.842H1484.41L1483.46 938.08H1485.86C1496.67 937.968 1500.35 942.816 1499.79 949.169Z" fill="#263238"/>
<path d="M1601.71 952.903L1600.99 960.871H1573.13L1573.68 954.575L1588.17 941.758C1591.29 939.083 1591.79 937.467 1591.96 936.185C1592.13 934.903 1590.74 932.507 1587.67 932.507C1586.37 932.502 1585.08 932.813 1583.93 933.415C1582.77 934.017 1581.78 934.891 1581.04 935.962L1573.91 931.783C1575.66 929.363 1577.99 927.418 1580.69 926.124C1583.38 924.83 1586.36 924.228 1589.34 924.371C1597.53 924.371 1602.83 928.607 1602.21 935.182C1601.92 937.436 1601.14 939.599 1599.92 941.523C1598.71 943.446 1597.1 945.085 1595.19 946.327L1588.17 952.903H1601.71Z" fill="#263238"/>
<path d="M1635.43 949.169C1634.95 952.736 1633.13 955.985 1630.33 958.246C1627.53 960.506 1623.97 961.606 1620.38 961.317C1610.41 961.317 1604.39 955.299 1605.39 943.764C1605.43 941.115 1606.01 938.501 1607.07 936.077C1608.14 933.653 1609.69 931.468 1611.61 929.65C1613.54 927.832 1615.81 926.419 1618.29 925.493C1620.78 924.567 1623.42 924.148 1626.06 924.26C1629.66 924.121 1633.21 925.011 1636.32 926.823L1632.03 934.068C1630.15 932.777 1627.9 932.131 1625.62 932.229C1623.24 932.101 1620.9 932.891 1619.09 934.436C1617.27 935.98 1616.12 938.162 1615.87 940.532C1618.25 938.721 1621.18 937.795 1624.17 937.913C1625.68 937.766 1627.21 937.956 1628.65 938.47C1630.08 938.983 1631.38 939.808 1632.46 940.884C1633.53 941.96 1634.36 943.261 1634.87 944.693C1635.38 946.126 1635.57 947.654 1635.43 949.169ZM1625.62 949.615C1625.7 949.003 1625.64 948.38 1625.44 947.794C1625.25 947.209 1624.92 946.677 1624.48 946.24C1624.04 945.803 1623.51 945.473 1622.93 945.276C1622.34 945.078 1621.72 945.018 1621.11 945.101C1620.44 945.016 1619.76 945.068 1619.11 945.255C1618.46 945.442 1617.86 945.758 1617.34 946.186C1616.81 946.614 1616.38 947.143 1616.07 947.743C1615.76 948.342 1615.58 948.998 1615.53 949.671C1615.53 952.29 1617.04 954.129 1620.1 954.129C1620.76 954.214 1621.44 954.163 1622.08 953.979C1622.72 953.795 1623.32 953.483 1623.83 953.06C1624.35 952.638 1624.77 952.114 1625.08 951.522C1625.39 950.929 1625.57 950.281 1625.62 949.615Z" fill="#263238"/>
<path d="M785.727 1040.39L785.058 1048.42H757.196L757.864 1042.06L772.297 1029.64C775.362 1026.96 775.919 1025.35 776.031 1024.06C776.142 1022.78 774.805 1020.44 771.796 1020.44C770.482 1020.42 769.183 1020.72 768.015 1021.32C766.848 1021.93 765.849 1022.81 765.109 1023.9L757.864 1019.77C759.613 1017.34 761.941 1015.39 764.636 1014.08C767.331 1012.78 770.309 1012.17 773.3 1012.31C781.492 1012.31 786.786 1016.54 786.173 1023.17C785.886 1025.43 785.109 1027.6 783.896 1029.52C782.683 1031.45 781.064 1033.08 779.152 1034.32L771.852 1040.5L785.727 1040.39Z" fill="#263238"/>
<path d="M819.998 1012.75L819.441 1019.05L804.284 1048.42H793.139L807.572 1020.55H798.21L797.708 1026.13H789.126L790.297 1012.64L819.998 1012.75Z" fill="#263238"/>
<path d="M921.196 1040.39L920.471 1048.42H892.608L893.166 1042.06L907.599 1029.64C910.663 1026.96 911.221 1025.35 911.388 1024.06C911.555 1022.78 910.162 1020.44 907.097 1020.44C905.785 1020.43 904.489 1020.73 903.323 1021.34C902.157 1021.94 901.157 1022.82 900.41 1023.9L893.333 1019.72C895.066 1017.28 897.382 1015.33 900.07 1014.02C902.757 1012.72 905.729 1012.11 908.713 1012.25C916.96 1012.25 922.199 1016.49 921.641 1023.12C921.33 1025.37 920.537 1027.54 919.316 1029.46C918.095 1031.38 916.474 1033.02 914.564 1034.26L907.32 1040.45L921.196 1040.39Z" fill="#263238"/>
<path d="M955.132 1037.94C954.519 1044.74 947.888 1049.08 938.415 1049.08C928.941 1049.08 923.313 1044.68 923.87 1037.94C924.013 1036.2 924.6 1034.52 925.576 1033.06C926.551 1031.61 927.883 1030.43 929.443 1029.64C928.316 1028.83 927.426 1027.74 926.867 1026.48C926.308 1025.21 926.101 1023.82 926.267 1022.45C926.768 1016.1 932.954 1012.03 941.368 1012.03C949.783 1012.03 955.188 1016.1 954.687 1022.45C954.539 1023.91 954.06 1025.31 953.288 1026.56C952.516 1027.8 951.469 1028.86 950.229 1029.64C951.803 1030.34 953.12 1031.52 953.998 1033.01C954.877 1034.5 955.273 1036.22 955.132 1037.94ZM945.046 1037.61C945.046 1034.87 943.263 1033.2 940.086 1033.2C938.766 1033.06 937.443 1033.44 936.401 1034.27C935.359 1035.09 934.681 1036.29 934.514 1037.61C934.514 1040.34 936.241 1042.06 939.473 1042.06C940.797 1042.18 942.112 1041.78 943.149 1040.95C944.186 1040.12 944.865 1038.92 945.046 1037.61ZM936.743 1022.89C936.743 1025.23 938.08 1026.63 940.644 1026.63C941.193 1026.69 941.749 1026.64 942.28 1026.49C942.811 1026.33 943.306 1026.07 943.736 1025.73C944.166 1025.38 944.523 1024.95 944.786 1024.46C945.049 1023.98 945.213 1023.44 945.269 1022.89C945.269 1020.5 943.764 1019.1 941.312 1019.1C940.763 1019.05 940.209 1019.11 939.681 1019.27C939.153 1019.43 938.663 1019.69 938.238 1020.05C937.813 1020.4 937.462 1020.83 937.206 1021.32C936.949 1021.81 936.792 1022.34 936.743 1022.89Z" fill="#263238"/>
<path d="M1061.18 1040.39L1060.51 1048.42H1032.65L1033.15 1042.06L1047.64 1029.64C1050.7 1026.96 1051.26 1025.35 1051.37 1024.06C1051.48 1022.78 1050.14 1020.44 1047.13 1020.44C1045.82 1020.42 1044.52 1020.72 1043.35 1021.32C1042.19 1021.93 1041.19 1022.81 1040.45 1023.9L1033.31 1019.72C1035.06 1017.29 1037.39 1015.33 1040.09 1014.03C1042.78 1012.72 1045.76 1012.11 1048.75 1012.25C1056.94 1012.25 1062.24 1016.49 1061.62 1023.12C1061.34 1025.37 1060.56 1027.54 1059.35 1029.47C1058.13 1031.39 1056.51 1033.03 1054.6 1034.26L1047.64 1040.39H1061.18Z" fill="#263238"/>
<path d="M1094.72 1029.64C1094.68 1032.29 1094.11 1034.91 1093.04 1037.34C1091.96 1039.76 1090.42 1041.95 1088.48 1043.77C1086.55 1045.59 1084.27 1047 1081.78 1047.92C1079.29 1048.85 1076.65 1049.26 1073.99 1049.14C1070.42 1049.25 1066.88 1048.35 1063.8 1046.52L1068.09 1039.28C1069.96 1040.59 1072.21 1041.24 1074.5 1041.12C1076.86 1041.23 1079.17 1040.44 1080.97 1038.91C1082.78 1037.38 1083.93 1035.22 1084.19 1032.87C1081.82 1034.65 1078.91 1035.57 1075.94 1035.49C1074.45 1035.61 1072.94 1035.41 1071.53 1034.9C1070.12 1034.38 1068.84 1033.57 1067.78 1032.51C1066.72 1031.44 1065.9 1030.16 1065.39 1028.75C1064.87 1027.34 1064.67 1025.84 1064.8 1024.34C1065.26 1020.78 1067.07 1017.52 1069.86 1015.25C1072.65 1012.98 1076.2 1011.87 1079.79 1012.14C1089.71 1012.03 1095.73 1018.05 1094.72 1029.64ZM1084.3 1023.73C1084.38 1023.11 1084.31 1022.49 1084.1 1021.91C1083.9 1021.32 1083.56 1020.79 1083.12 1020.36C1082.68 1019.92 1082.15 1019.59 1081.56 1019.39C1080.97 1019.2 1080.35 1019.14 1079.73 1019.22C1078.44 1019.12 1077.17 1019.55 1076.18 1020.39C1075.2 1021.24 1074.6 1022.44 1074.5 1023.73C1074.4 1024.34 1074.45 1024.96 1074.64 1025.55C1074.83 1026.13 1075.16 1026.67 1075.59 1027.11C1076.03 1027.54 1076.55 1027.87 1077.14 1028.07C1077.72 1028.27 1078.34 1028.33 1078.95 1028.24C1080.26 1028.34 1081.55 1027.92 1082.55 1027.07C1083.55 1026.23 1084.18 1025.03 1084.3 1023.73Z" fill="#263238"/>
<path d="M1194.58 1037.27C1194.03 1043.29 1188.73 1049.14 1177.87 1049.14C1173.12 1049.23 1168.43 1048.02 1164.33 1045.63L1168.67 1038C1171.5 1039.95 1174.87 1040.98 1178.31 1040.95C1181.71 1040.95 1183.88 1039.67 1184.27 1037.27C1184.66 1034.87 1182.99 1033.82 1179.15 1033.82H1174.91L1175.47 1027.41L1182.44 1020.55H1168.39L1169.06 1012.75H1194.81L1194.25 1019.05L1186.17 1027.02C1187.4 1027.12 1188.6 1027.47 1189.7 1028.05C1190.79 1028.62 1191.76 1029.41 1192.54 1030.37C1193.33 1031.32 1193.91 1032.43 1194.26 1033.61C1194.61 1034.8 1194.72 1036.04 1194.58 1037.27Z" fill="#263238"/>
<path d="M1198.43 1030.58C1199.49 1018.83 1206.68 1012.03 1215.82 1012.03C1224.95 1012.03 1230.86 1018.83 1229.86 1030.58C1228.85 1042.34 1221.61 1049.14 1212.53 1049.14C1203.44 1049.14 1197.43 1042.34 1198.43 1030.58ZM1219.72 1030.58C1220.38 1023.12 1218.27 1020.27 1215.09 1020.27C1211.91 1020.27 1209.24 1023.12 1208.57 1030.58C1207.9 1038.05 1210.02 1040.89 1213.25 1040.89C1216.48 1040.89 1219.05 1038.05 1219.72 1030.58Z" fill="#263238"/>
<path d="M825.849 442.905L807.014 462.074L822.283 483.25L825.849 442.905Z" fill="#263238"/>
<path d="M1652.87 442.905L1668.31 462.074L1649.3 483.25L1652.87 442.905Z" fill="#263238"/>
<path d="M1405.62 483.25H1067.53L1071.04 442.905H1409.13L1405.62 483.25Z" fill="#263238"/>
<path d="M2067.08 1209.35H1683.41L1755.07 390.467H2138.74L2067.08 1209.35Z" fill="#407BFF"/>
<path d="M2067.08 1209.35H1683.41L1755.07 390.467H2138.74L2067.08 1209.35Z" fill="black"/>
<path d="M1822.22 718.856H1784.88C1782.73 718.898 1780.59 718.483 1778.61 717.641C1776.63 716.799 1774.85 715.547 1773.39 713.969C1771.93 712.39 1770.82 710.52 1770.13 708.481C1769.44 706.443 1769.19 704.281 1769.39 702.139L1781.32 566.169C1781.82 561.62 1783.96 557.411 1787.35 554.333C1790.74 551.255 1795.13 549.519 1799.71 549.451H1837.1C1839.25 549.419 1841.38 549.839 1843.35 550.684C1845.33 551.53 1847.11 552.781 1848.57 554.358C1850.03 555.935 1851.14 557.801 1851.83 559.836C1852.53 561.871 1852.78 564.028 1852.59 566.169L1840.72 702.139C1840.2 706.702 1838.04 710.919 1834.63 713.997C1831.22 717.076 1826.81 718.804 1822.22 718.856Z" fill="white"/>
<path d="M1822.22 647.138C1821.66 653.212 1816.65 659.007 1805.5 659.007C1800.75 659.109 1796.06 657.894 1791.96 655.497L1796.31 647.918C1799.14 649.871 1802.51 650.903 1805.95 650.871C1809.35 650.871 1811.52 649.534 1811.91 647.138C1812.3 644.742 1810.63 643.683 1806.78 643.683H1802.55L1803.1 637.33L1810.07 630.42H1795.97L1796.7 622.619H1822.44L1821.88 628.971L1813.8 636.884C1815.04 636.988 1816.23 637.338 1817.33 637.914C1818.42 638.489 1819.39 639.278 1820.18 640.234C1820.96 641.19 1821.55 642.293 1821.9 643.479C1822.25 644.665 1822.36 645.909 1822.22 647.138Z" fill="#263238"/>
<path d="M2053.76 718.857H1871.14C1868.99 718.898 1866.86 718.484 1864.88 717.641C1862.9 716.799 1861.12 715.547 1859.65 713.969C1858.19 712.39 1857.08 710.52 1856.39 708.481C1855.7 706.443 1855.45 704.281 1855.65 702.139L1867.52 566.169C1868.05 561.62 1870.21 557.417 1873.6 554.342C1877 551.267 1881.39 549.529 1885.97 549.452H2068.64C2070.78 549.418 2072.91 549.838 2074.89 550.684C2076.86 551.53 2078.63 552.783 2080.09 554.36C2081.55 555.938 2082.65 557.805 2083.34 559.84C2084.03 561.875 2084.28 564.032 2084.07 566.169L2072.2 702.139C2071.68 706.688 2069.52 710.89 2066.12 713.966C2062.73 717.041 2058.34 718.779 2053.76 718.857Z" fill="#407BFF"/>
<path d="M2035.65 925.542H1853.03C1850.89 925.574 1848.75 925.154 1846.78 924.309C1844.8 923.464 1843.02 922.212 1841.56 920.635C1840.1 919.059 1838.99 917.192 1838.3 915.157C1837.6 913.123 1837.35 910.965 1837.54 908.824L1849.47 772.855C1849.99 768.306 1852.15 764.103 1855.55 761.028C1858.94 757.953 1863.33 756.215 1867.91 756.137H2050.69C2052.84 756.105 2054.97 756.525 2056.95 757.37C2058.93 758.215 2060.7 759.467 2062.16 761.044C2063.62 762.62 2064.74 764.487 2065.43 766.521C2066.12 768.556 2066.38 770.714 2066.18 772.855L2054.26 908.824C2053.73 913.401 2051.54 917.627 2048.12 920.706C2044.69 923.785 2040.25 925.505 2035.65 925.542Z" fill="#263238"/>
<path d="M2017.59 1132.28H1834.92C1832.78 1132.32 1830.65 1131.9 1828.67 1131.05C1826.7 1130.2 1824.93 1128.95 1823.47 1127.37C1822.01 1125.8 1820.91 1123.93 1820.22 1121.89C1819.53 1119.86 1819.28 1117.7 1819.49 1115.57L1831.36 979.595C1831.88 975.047 1834.04 970.844 1837.44 967.769C1840.83 964.694 1845.22 962.956 1849.8 962.878H2032.41C2034.57 962.837 2036.7 963.251 2038.68 964.093C2040.66 964.936 2042.44 966.187 2043.91 967.766C2045.37 969.344 2046.48 971.214 2047.17 973.253C2047.86 975.292 2048.11 977.453 2047.91 979.595L2035.98 1115.57C2035.48 1120.11 2033.33 1124.32 2029.95 1127.4C2026.56 1130.48 2022.17 1132.22 2017.59 1132.28Z" fill="#407BFF"/>
<path d="M1804.22 925.542H1766.83C1764.68 925.575 1762.55 925.155 1760.58 924.309C1758.6 923.463 1756.83 922.21 1755.37 920.633C1753.92 919.055 1752.81 917.188 1752.12 915.153C1751.44 913.118 1751.19 910.962 1751.39 908.824L1763.26 772.854C1763.79 768.305 1765.95 764.103 1769.34 761.028C1772.73 757.952 1777.13 756.214 1781.71 756.137H1819.1C1821.24 756.103 1823.37 756.523 1825.35 757.369C1827.32 758.215 1829.1 759.468 1830.55 761.045C1832.01 762.623 1833.12 764.49 1833.8 766.525C1834.49 768.56 1834.74 770.717 1834.53 772.854L1822.66 908.824C1822.14 913.373 1819.98 917.576 1816.58 920.651C1813.19 923.726 1808.8 925.464 1804.22 925.542Z" fill="white"/>
<path d="M1785.22 818.104L1782.1 853.768H1772.07L1774.52 825.905H1767.89L1768.55 818.104H1785.22Z" fill="#263238"/>
<path d="M1815.87 842.623C1815.36 848.697 1810.29 854.492 1799.15 854.492C1794.4 854.6 1789.71 853.385 1785.61 850.982L1789.9 843.403C1792.75 845.318 1796.1 846.346 1799.54 846.356C1802.94 846.356 1805.11 845.019 1805.5 842.623C1805.89 840.227 1804.27 839.168 1800.37 839.168H1796.14L1796.7 832.815L1803.66 825.905H1789.62L1790.29 818.104H1816.09L1815.53 824.456L1807.45 832.369C1808.69 832.466 1809.89 832.811 1810.99 833.384C1812.09 833.956 1813.06 834.745 1813.84 835.703C1814.63 836.661 1815.21 837.767 1815.56 838.956C1815.91 840.145 1816.01 841.393 1815.87 842.623Z" fill="#263238"/>
<path d="M1786.11 1132.28H1748.77C1746.62 1132.32 1744.48 1131.91 1742.5 1131.07C1740.52 1130.23 1738.74 1128.97 1737.28 1127.39C1735.82 1125.82 1734.71 1123.95 1734.02 1121.91C1733.33 1119.87 1733.08 1117.71 1733.28 1115.57L1745.15 979.595C1745.68 975.047 1747.84 970.844 1751.23 967.769C1754.62 964.694 1759.02 962.955 1763.6 962.878H1800.99C1803.14 962.845 1805.27 963.265 1807.24 964.111C1809.22 964.956 1811 966.208 1812.46 967.784C1813.92 969.361 1815.03 971.227 1815.72 973.262C1816.42 975.297 1816.67 977.455 1816.48 979.595L1804.55 1115.57C1804.03 1120.11 1801.87 1124.32 1798.47 1127.39C1795.08 1130.47 1790.69 1132.21 1786.11 1132.28Z" fill="white"/>
<path d="M2058.77 486.092H1828.18L1831.97 442.905H2062.51L2058.77 486.092Z" fill="white"/>
<path d="M1259.39 333.126C1259.99 326.85 1262.96 321.041 1267.71 316.894C1272.46 312.748 1278.62 310.579 1284.92 310.836C1288.31 310.628 1291.71 311.256 1294.81 312.665C1297.91 314.074 1300.61 316.22 1302.69 318.916L1294.33 325.937C1293.26 324.37 1291.83 323.092 1290.14 322.216C1288.46 321.341 1286.59 320.896 1284.69 320.922C1281.34 320.846 1278.1 322.089 1275.66 324.382C1273.22 326.676 1271.78 329.836 1271.65 333.181C1271.37 334.734 1271.45 336.329 1271.87 337.848C1272.3 339.367 1273.06 340.77 1274.11 341.95C1275.15 343.131 1276.45 344.058 1277.91 344.663C1279.37 345.268 1280.94 345.534 1282.52 345.441C1284.55 345.413 1286.54 344.946 1288.37 344.07C1290.2 343.194 1291.81 341.932 1293.11 340.37L1300.18 347.391C1297.76 350.037 1294.79 352.129 1291.48 353.523C1288.17 354.918 1284.6 355.582 1281.01 355.472C1278.05 355.734 1275.06 355.33 1272.26 354.289C1269.47 353.248 1266.95 351.597 1264.87 349.455C1262.8 347.313 1261.23 344.736 1260.29 341.91C1259.34 339.085 1259.03 336.084 1259.39 333.126Z" fill="white"/>
<path d="M1333.62 346.221H1315.51L1311.38 354.58H1299.01L1321.69 311.671H1333.67L1348.89 354.58H1336.29L1333.62 346.221ZM1330.89 337.249L1326.54 323.541L1319.85 337.249H1330.89Z" fill="white"/>
<path d="M1356.08 311.671H1368.22L1365.33 345.107H1385.78L1384.94 354.747H1352.34L1356.08 311.671Z" fill="white"/>
<path d="M1425.01 345.162L1424.17 354.58H1389.73L1393.47 311.671H1426.9L1426.07 321.033H1404.45L1403.83 328.278H1422.89L1422.11 337.305H1403.05L1402.33 345.162H1425.01Z" fill="white"/>
<path d="M1475.5 311.671L1471.76 354.58H1461.73L1445.01 331.677L1443.01 354.58H1431.14L1434.87 311.671H1444.9L1461.62 334.519L1463.63 311.671H1475.5Z" fill="white"/>
<path d="M1484.08 311.671H1504.58C1518.79 311.671 1527.82 319.919 1526.87 333.126C1525.93 346.333 1515.23 354.58 1501.02 354.58H1480.73L1484.08 311.671ZM1500.79 345.107C1502.44 345.227 1504.1 345.017 1505.66 344.488C1507.23 343.959 1508.67 343.122 1509.91 342.026C1511.14 340.93 1512.15 339.597 1512.86 338.107C1513.57 336.617 1513.98 334.999 1514.06 333.349C1514.32 331.797 1514.21 330.207 1513.75 328.703C1513.29 327.199 1512.49 325.821 1511.42 324.677C1510.34 323.533 1509.01 322.654 1507.53 322.109C1506.06 321.564 1504.48 321.367 1502.91 321.535H1495.28L1493.22 345.107H1500.79Z" fill="white"/>
<path d="M1559.81 346.221H1541.7L1537.57 354.58H1525.2L1547.88 311.671H1559.86L1575.08 354.58H1562.48L1559.81 346.221ZM1557.08 337.249L1552.73 323.541L1546.04 337.249H1557.08Z" fill="white"/>
<path d="M1598.26 343.157H1591.68L1590.68 354.302H1578.53L1582.26 311.393H1601.88C1613.58 311.393 1620.44 317.411 1619.55 327.275C1619.36 330.198 1618.36 333.011 1616.67 335.402C1614.98 337.793 1612.65 339.667 1609.96 340.816L1618.04 354.302H1604.89L1598.26 343.157ZM1600.32 321.201H1593.74L1592.63 333.795H1599.32C1604.39 333.795 1607.06 331.454 1607.4 327.553C1607.73 323.653 1605.34 321.201 1600.32 321.201Z" fill="white"/>
<path d="M819.162 347.113H813.59C812.453 347.135 811.324 346.915 810.278 346.468C809.232 346.02 808.293 345.355 807.524 344.517C806.755 343.68 806.172 342.688 805.815 341.608C805.458 340.528 805.335 339.384 805.454 338.253L805.956 332.68C806.201 330.28 807.317 328.052 809.094 326.42C810.87 324.787 813.183 323.862 815.596 323.82H821.169C822.306 323.798 823.435 324.018 824.481 324.465C825.526 324.913 826.465 325.578 827.234 326.415C828.004 327.253 828.586 328.245 828.943 329.325C829.3 330.405 829.423 331.549 829.304 332.68L828.803 338.253C828.558 340.653 827.441 342.88 825.665 344.513C823.888 346.146 821.575 347.071 819.162 347.113Z" fill="white"/>
<path d="M854.269 347.113H848.697C847.562 347.136 846.435 346.916 845.391 346.468C844.348 346.02 843.412 345.354 842.647 344.515C841.882 343.676 841.305 342.683 840.955 341.603C840.605 340.523 840.489 339.381 840.617 338.252L841.118 332.68C841.363 330.279 842.48 328.052 844.256 326.419C846.033 324.786 848.346 323.862 850.759 323.82H856.331C857.466 323.796 858.593 324.016 859.637 324.464C860.68 324.912 861.616 325.578 862.381 326.417C863.146 327.256 863.723 328.249 864.073 329.329C864.423 330.409 864.539 331.552 864.411 332.68L863.965 338.252C863.708 340.658 862.58 342.886 860.794 344.517C859.008 346.149 856.688 347.072 854.269 347.113Z" fill="white"/>
<path d="M889.209 347.113H883.636C882.501 347.136 881.374 346.916 880.331 346.468C879.287 346.02 878.352 345.354 877.587 344.515C876.821 343.676 876.245 342.683 875.894 341.603C875.544 340.523 875.429 339.381 875.556 338.252L876.058 332.68C876.29 330.284 877.395 328.058 879.162 326.424C880.929 324.79 883.236 323.863 885.642 323.82H891.215C892.35 323.796 893.477 324.016 894.521 324.464C895.564 324.912 896.499 325.578 897.265 326.417C898.03 327.256 898.607 328.249 898.957 329.329C899.307 330.409 899.422 331.552 899.295 332.68L898.794 338.252C898.561 340.648 897.457 342.875 895.689 344.509C893.922 346.142 891.615 347.069 889.209 347.113Z" fill="white"/>
<path d="M1771.62 1062.96L1770.9 1070.93H1743.03L1743.59 1064.63L1758.02 1052.15C1761.09 1049.47 1761.64 1047.86 1761.81 1046.58C1761.81 1044.24 1760.59 1042.9 1757.52 1042.9C1756.21 1042.89 1754.92 1043.21 1753.75 1043.81C1752.59 1044.41 1751.59 1045.28 1750.83 1046.35L1743.76 1042.17C1745.49 1039.74 1747.81 1037.78 1750.49 1036.48C1753.18 1035.17 1756.15 1034.56 1759.14 1034.71C1767.33 1034.71 1772.62 1038.94 1772.07 1045.57C1771.75 1047.83 1770.96 1049.99 1769.74 1051.92C1768.52 1053.84 1766.9 1055.48 1764.99 1056.72L1757.74 1062.96H1771.62Z" fill="#263238"/>
<path d="M1802.32 1059.78C1801.77 1065.86 1796.47 1071.65 1785.61 1071.65C1780.86 1071.76 1776.17 1070.54 1772.07 1068.14L1776.41 1060.56C1779.26 1062.5 1782.62 1063.52 1786.05 1063.52C1789.45 1063.52 1791.62 1062.18 1792.02 1059.78C1792.41 1057.39 1790.73 1056.33 1786.89 1056.33H1782.65L1783.21 1049.92L1790.18 1043.07H1776.08L1776.8 1035.27H1802.55L1801.99 1041.62L1793.91 1049.53C1795.14 1049.63 1796.34 1049.98 1797.44 1050.56C1798.53 1051.14 1799.5 1051.92 1800.28 1052.88C1801.07 1053.84 1801.65 1054.94 1802 1056.13C1802.35 1057.31 1802.46 1058.56 1802.32 1059.78Z" fill="#263238"/>
<path d="M2044.95 618.384H1894.38L1894.88 612.811H2045.45L2044.95 618.384Z" fill="white"/>
<path d="M1967.44 643.516H1892.21L1892.66 637.943H1967.94L1967.44 643.516Z" fill="white"/>
<path d="M2008.79 1031.59H1858.22L1858.72 1026.01H2009.29L2008.79 1031.59Z" fill="white"/>
<path d="M1931.33 1056.77H1856.04L1856.49 1051.2H1931.77L1931.33 1056.77Z" fill="white"/>
<path d="M2027.01 823.62H1876.44L1876.88 818.048H2027.45L2027.01 823.62Z" fill="white"/>
<path d="M1949.49 848.752H1874.21L1874.71 843.18H1950L1949.49 848.752Z" fill="white"/>
<path d="M2046.4 577.983C2049.69 570.07 2047.57 564.33 2055.37 564.33C2063.17 564.33 2059.22 569.903 2062 577.983C2063.45 581.939 2058.21 581.215 2053.92 581.215C2049.63 581.215 2044.67 582.051 2046.4 577.983Z" fill="white"/>
<path d="M2055.15 566.894C2054.82 566.895 2054.5 566.828 2054.2 566.697C2053.9 566.565 2053.63 566.373 2053.41 566.131C2053.19 565.89 2053.02 565.605 2052.92 565.294C2052.82 564.984 2052.78 564.656 2052.81 564.33C2052.89 563.64 2053.21 563.001 2053.73 562.531C2054.24 562.06 2054.9 561.789 2055.6 561.767C2055.93 561.756 2056.25 561.817 2056.56 561.946C2056.86 562.074 2057.13 562.266 2057.36 562.51C2057.58 562.753 2057.75 563.042 2057.85 563.356C2057.95 563.671 2057.98 564.003 2057.94 564.33C2057.88 565.03 2057.56 565.683 2057.05 566.158C2056.53 566.633 2055.85 566.896 2055.15 566.894ZM2055.48 563.104C2055.15 563.115 2054.83 563.245 2054.59 563.47C2054.34 563.694 2054.19 564 2054.15 564.33C2054.13 564.486 2054.15 564.643 2054.2 564.791C2054.25 564.939 2054.33 565.076 2054.43 565.191C2054.54 565.307 2054.66 565.399 2054.81 565.462C2054.95 565.525 2055.11 565.557 2055.26 565.556C2055.59 565.545 2055.91 565.416 2056.16 565.191C2056.4 564.966 2056.56 564.661 2056.6 564.33C2056.61 564.175 2056.6 564.018 2056.55 563.869C2056.5 563.721 2056.42 563.585 2056.31 563.469C2056.21 563.353 2056.08 563.261 2055.94 563.198C2055.8 563.136 2055.64 563.103 2055.48 563.104Z" fill="white"/>
<path d="M2028.4 785.727C2031.69 777.814 2029.57 772.13 2037.37 772.13C2045.18 772.13 2041.22 777.702 2044.01 785.727C2045.45 789.683 2040.22 789.015 2035.93 789.015C2031.63 789.015 2026.51 789.683 2028.4 785.727Z" fill="white"/>
<path d="M2036.98 774.582C2036.66 774.583 2036.33 774.516 2036.03 774.385C2035.73 774.254 2035.47 774.061 2035.24 773.82C2035.02 773.578 2034.86 773.293 2034.75 772.983C2034.65 772.673 2034.61 772.344 2034.64 772.019C2034.71 771.324 2035.03 770.678 2035.55 770.205C2036.06 769.733 2036.73 769.466 2037.43 769.455C2037.76 769.445 2038.09 769.506 2038.39 769.634C2038.7 769.762 2038.97 769.955 2039.19 770.198C2039.41 770.442 2039.58 770.731 2039.68 771.045C2039.78 771.359 2039.81 771.691 2039.77 772.019C2039.7 772.714 2039.38 773.359 2038.87 773.832C2038.35 774.305 2037.68 774.572 2036.98 774.582ZM2037.32 770.793C2036.99 770.804 2036.67 770.933 2036.42 771.158C2036.18 771.383 2036.02 771.688 2035.98 772.019C2035.97 772.174 2035.98 772.331 2036.03 772.479C2036.08 772.628 2036.16 772.764 2036.27 772.88C2036.37 772.995 2036.5 773.088 2036.64 773.15C2036.78 773.213 2036.94 773.245 2037.1 773.245C2037.43 773.234 2037.75 773.104 2037.99 772.879C2038.24 772.654 2038.39 772.349 2038.43 772.019C2038.46 771.859 2038.45 771.696 2038.4 771.541C2038.36 771.385 2038.28 771.242 2038.17 771.12C2038.07 770.998 2037.93 770.901 2037.79 770.835C2037.64 770.768 2037.48 770.735 2037.32 770.737V770.793Z" fill="white"/>
<path d="M2010.07 993.192C2013.36 985.279 2011.24 979.54 2019.04 979.54C2026.84 979.54 2022.89 985.112 2025.67 993.192C2027.12 997.093 2021.88 996.424 2017.59 996.424C2013.3 996.424 2008.34 997.483 2010.07 993.192Z" fill="white"/>
<path d="M2018.82 982.103C2018.49 982.104 2018.17 982.037 2017.87 981.906C2017.57 981.775 2017.3 981.582 2017.08 981.341C2016.86 981.099 2016.69 980.814 2016.59 980.504C2016.48 980.194 2016.45 979.865 2016.48 979.54C2016.56 978.849 2016.88 978.21 2017.39 977.74C2017.91 977.269 2018.57 976.998 2019.26 976.976C2019.59 976.966 2019.92 977.027 2020.22 977.155C2020.53 977.283 2020.8 977.476 2021.02 977.719C2021.25 977.963 2021.41 978.252 2021.51 978.566C2021.61 978.88 2021.64 979.212 2021.6 979.54C2021.54 980.235 2021.21 980.88 2020.7 981.353C2020.19 981.826 2019.52 982.093 2018.82 982.103ZM2019.15 978.314C2018.82 978.325 2018.5 978.454 2018.26 978.679C2018.01 978.904 2017.85 979.209 2017.81 979.54C2017.8 979.695 2017.82 979.852 2017.86 980C2017.91 980.149 2017.99 980.285 2018.1 980.401C2018.2 980.516 2018.33 980.609 2018.47 980.671C2018.62 980.734 2018.77 980.766 2018.93 980.766C2019.27 980.767 2019.59 980.641 2019.84 980.414C2020.09 980.187 2020.24 979.875 2020.27 979.54C2020.28 979.384 2020.26 979.227 2020.22 979.079C2020.17 978.93 2020.09 978.794 2019.98 978.678C2019.88 978.563 2019.75 978.471 2019.61 978.408C2019.46 978.345 2019.31 978.313 2019.15 978.314Z" fill="white"/>
<path opacity="0.2" d="M873.996 201.224L585.06 1281.91H682.301L968.06 201.224H873.996Z" fill="white"/>
<path opacity="0.2" d="M1024.01 201.224L735.073 1281.91H927.882L1213.64 201.224H1024.01Z" fill="white"/>
<path opacity="0.4" d="M689.681 730.338C694.919 708.143 681.173 685.903 658.978 680.665C636.782 675.426 614.543 689.172 609.304 711.368C604.066 733.563 617.812 755.803 640.007 761.041C662.202 766.28 684.442 752.534 689.681 730.338Z" fill="white"/>
<path opacity="0.4" d="M2170.11 720.918C2170.11 725.01 2168.9 729.009 2166.62 732.41C2164.35 735.811 2161.12 738.461 2157.34 740.024C2153.56 741.587 2149.4 741.993 2145.38 741.191C2141.37 740.389 2137.69 738.414 2134.8 735.517C2131.91 732.62 2129.95 728.931 2129.15 724.917C2128.36 720.903 2128.78 716.745 2130.35 712.968C2131.93 709.191 2134.59 705.966 2137.99 703.701C2141.4 701.436 2145.4 700.233 2149.49 700.244C2152.21 700.244 2154.89 700.779 2157.4 701.819C2159.9 702.859 2162.18 704.382 2164.09 706.303C2166.01 708.223 2167.53 710.503 2168.56 713.011C2169.59 715.519 2170.12 718.206 2170.11 720.918Z" fill="white"/>
<path d="M1881.84 354.97C1881.64 356.942 1880.72 358.772 1879.27 360.116C1877.81 361.46 1875.91 362.226 1873.93 362.27C1873 362.284 1872.07 362.099 1871.22 361.728C1870.36 361.356 1869.6 360.807 1868.97 360.117C1868.34 359.426 1867.87 358.61 1867.58 357.723C1867.29 356.836 1867.2 355.897 1867.3 354.97C1867.5 353.004 1868.42 351.18 1869.88 349.845C1871.34 348.51 1873.24 347.756 1875.21 347.726C1876.14 347.704 1877.07 347.882 1877.92 348.247C1878.78 348.612 1879.55 349.155 1880.17 349.842C1880.8 350.528 1881.28 351.341 1881.56 352.225C1881.85 353.11 1881.95 354.046 1881.84 354.97Z" fill="white"/>
<path d="M1889.87 333.349L1886.36 339.311C1882.33 337.572 1877.98 336.717 1873.6 336.804C1869.63 336.794 1865.71 337.67 1862.12 339.367L1859.28 333.404C1864.07 331.18 1869.29 330.027 1874.57 330.027C1879.86 330.027 1885.08 331.18 1889.87 333.404V333.349Z" fill="white"/>
<path d="M1899.73 316.52L1896.17 322.538C1889.5 319.405 1882.19 317.878 1874.82 318.08C1867.69 318.085 1860.66 319.724 1854.26 322.873L1851.47 316.966C1858.92 313.266 1867.12 311.358 1875.44 311.393C1883.83 311.134 1892.16 312.892 1899.73 316.52Z" fill="white"/>
<path d="M1909.65 299.412L1906.08 305.597C1896.75 301.032 1886.43 298.886 1876.05 299.356C1865.72 299.263 1855.51 301.591 1846.24 306.155L1843.51 300.582C1853.81 295.466 1865.16 292.814 1876.66 292.836C1888.03 292.284 1899.36 294.543 1909.65 299.412Z" fill="white"/>
<path d="M2008.12 363.441C2003.53 363.514 1998.98 362.612 1994.77 360.795C1990.56 358.977 1986.78 356.285 1983.69 352.897C1980.59 349.509 1978.26 345.503 1976.83 341.143C1975.4 336.783 1974.92 332.17 1975.41 327.609C1976.41 317.904 1980.93 308.902 1988.12 302.301C1995.31 295.7 2004.66 291.957 2014.41 291.778V293.338C2005.09 293.509 1996.16 297.091 1989.3 303.406C1982.44 309.722 1978.13 318.332 1977.19 327.609C1976.72 331.971 1977.17 336.384 1978.54 340.554C1979.9 344.725 1982.13 348.559 1985.09 351.8C1988.04 355.041 1991.66 357.617 1995.68 359.355C1999.71 361.093 2004.07 361.954 2008.45 361.88L2008.12 363.441Z" fill="white"/>
<path d="M2009.4 364.833H2008.01C2003.23 364.944 1998.49 364.03 1994.1 362.153C1989.7 360.276 1985.76 357.48 1982.54 353.953C1979.32 350.426 1976.89 346.25 1975.42 341.705C1973.95 337.161 1973.47 332.354 1974.01 327.609C1975.07 317.533 1979.77 308.191 1987.23 301.336C1994.69 294.481 2004.4 290.587 2014.53 290.384H2015.92L2015.53 294.731H2014.14C2005.19 294.902 1996.62 298.341 1990.04 304.398C1983.46 310.455 1979.33 318.711 1978.42 327.609C1977.96 331.793 1978.39 336.027 1979.7 340.029C1981 344.031 1983.14 347.71 1985.98 350.82C1988.82 353.931 1992.28 356.402 1996.15 358.068C2000.01 359.735 2004.19 360.559 2008.4 360.487H2009.79L2009.4 364.833Z" fill="white"/>
<path d="M2008.12 363.441V361.88C2017.44 361.71 2026.38 358.128 2033.24 351.812C2040.1 345.497 2044.4 336.886 2045.34 327.609C2045.82 323.248 2045.36 318.835 2044 314.664C2042.64 310.493 2040.4 306.66 2037.45 303.418C2034.49 300.177 2030.88 297.602 2026.85 295.864C2022.82 294.126 2018.47 293.265 2014.08 293.338V291.778C2018.67 291.694 2023.22 292.59 2027.43 294.405C2031.65 296.22 2035.43 298.913 2038.52 302.304C2041.61 305.695 2043.94 309.706 2045.36 314.07C2046.77 318.434 2047.24 323.049 2046.74 327.609C2045.75 337.254 2041.29 346.21 2034.18 352.804C2027.07 359.398 2017.81 363.179 2008.12 363.441Z" fill="white"/>
<path d="M2008.01 364.834H2006.61L2007 360.487H2008.4C2017.34 360.316 2025.91 356.877 2032.49 350.82C2039.07 344.763 2043.21 336.507 2044.12 327.609C2044.58 323.425 2044.14 319.191 2042.84 315.189C2041.53 311.187 2039.39 307.508 2036.55 304.397C2033.72 301.287 2030.25 298.816 2026.39 297.15C2022.52 295.483 2018.34 294.659 2014.14 294.731H2012.74L2013.13 290.385H2014.53C2019.3 290.282 2024.03 291.202 2028.42 293.082C2032.81 294.963 2036.74 297.76 2039.95 301.286C2043.17 304.812 2045.59 308.986 2047.06 313.526C2048.53 318.066 2049 322.868 2048.46 327.609C2047.43 337.685 2042.75 347.033 2035.29 353.891C2027.84 360.749 2018.13 364.641 2008.01 364.834Z" fill="white"/>
<path d="M2029.57 327.609H2028.01C2029.02 316.018 2024.5 300.471 2013.86 293.227L2014.81 291.889C2025.89 299.468 2030.63 315.572 2029.57 327.609Z" fill="white"/>
<path d="M2030.85 328.779H2026.51V327.386C2027.45 316.241 2023.11 301.14 2012.85 293.951L2011.8 293.227L2014.47 289.549L2015.53 290.273C2027.01 298.075 2032.25 314.737 2030.85 327.163V328.779Z" fill="white"/>
<path d="M2008.68 362.215L2007.9 360.877C2013.54 356.94 2018.26 351.829 2021.75 345.894C2025.23 339.959 2027.38 333.341 2028.07 326.495H2029.68C2028.95 333.608 2026.7 340.481 2023.07 346.645C2019.45 352.81 2014.54 358.12 2008.68 362.215Z" fill="white"/>
<path d="M2008.06 364.165L2006.06 360.487L2007.28 359.762C2012.75 355.928 2017.31 350.952 2020.66 345.179C2024.01 339.406 2026.06 332.973 2026.67 326.327V324.934H2031.02V326.327C2030.26 333.683 2027.92 340.788 2024.16 347.155C2020.4 353.522 2015.31 359.001 2009.23 363.217L2008.06 364.165Z" fill="white"/>
<path d="M1994.52 327.609H1992.96C1993.68 320.492 1995.93 313.615 1999.56 307.45C2003.18 301.284 2008.1 295.976 2013.97 291.889L2014.69 293.227C2009.06 297.174 2004.34 302.288 2000.86 308.221C1997.38 314.154 1995.22 320.766 1994.52 327.609Z" fill="white"/>
<path d="M1995.8 328.779H1991.46V327.386C1992.21 320.034 1994.54 312.931 1998.29 306.564C2002.04 300.196 2007.12 294.715 2013.19 290.496L2014.41 289.771L2016.48 293.449L2015.25 294.174C2009.78 298.007 2005.21 302.982 2001.85 308.755C1998.5 314.528 1996.43 320.96 1995.8 327.609V328.779Z" fill="white"/>
<path d="M2007.78 362.215C1996.64 354.636 1992.01 338.531 1993.02 326.495H1994.63C1993.63 338.085 1998.14 353.633 2008.79 360.877L2007.78 362.215Z" fill="white"/>
<path d="M2008.06 364.165L2006.95 363.441C1995.47 355.639 1990.56 338.977 1991.62 326.55V325.157H1995.97V326.55C1994.97 337.695 1999.31 352.797 2009.57 359.986L2010.68 360.71L2008.06 364.165Z" fill="white"/>
<path d="M2008.95 362.66H2007.39L2013.52 292.558H2015.14L2008.95 362.66Z" fill="white"/>
<path d="M2010.24 364.053H2005.89L2012.3 291.165H2016.64L2010.24 364.053Z" fill="white"/>
<path d="M2042.5 309.721H1983.15L1983.32 308.161H2042.61L2042.5 309.721Z" fill="white"/>
<path d="M2043.78 311.114H1981.65L1982.04 306.768H2044.12L2043.78 311.114Z" fill="white"/>
<path d="M2046.18 329.002H1976.13L1976.24 327.442H2046.29L2046.18 329.002Z" fill="white"/>
<path d="M2047.46 330.395H1974.57L1974.96 326.049H2047.85L2047.46 330.395Z" fill="white"/>
<path d="M2038.32 348.227H1980.59L1980.7 346.667H2038.49L2038.32 348.227Z" fill="white"/>
<path d="M2039.6 349.62H1979.03L1979.42 345.274H2039.99L2039.6 349.62Z" fill="white"/>
<path d="M1379.42 1982.6L1419.05 1949.72L1319.07 1854.82L1276.39 1891.26L1379.42 1982.6Z" fill="#CB7A63"/>
<path d="M1451.25 1937.01C1446.73 1935.65 1441.87 1935.88 1437.49 1937.68C1434.82 1938.46 1431.92 1939.35 1429.58 1940.3C1427.24 1941.25 1425.84 1941.69 1424.4 1942.31L1419.94 1944.26C1419.7 1944.35 1419.49 1944.51 1419.34 1944.71C1419.19 1944.92 1419.11 1945.17 1419.1 1945.43C1419.04 1945.61 1419.04 1945.8 1419.1 1945.98C1419.3 1946.28 1419.6 1946.49 1419.94 1946.6C1425.58 1948.09 1431.34 1949.06 1437.16 1949.49C1439.99 1949.88 1442.88 1949.67 1445.63 1948.88H1446.02C1447.59 1948.38 1449.1 1947.7 1450.53 1946.88C1451.44 1946.14 1452.15 1945.19 1452.61 1944.11C1453.06 1943.03 1453.25 1941.86 1453.15 1940.69C1453.17 1939.97 1453.01 1939.25 1452.68 1938.6C1452.35 1937.96 1451.86 1937.41 1451.25 1937.01ZM1450.7 1940.63C1450.82 1941.42 1450.73 1942.23 1450.42 1942.97C1450.12 1943.7 1449.61 1944.34 1448.97 1944.81C1447.64 1945.79 1446.09 1946.42 1444.46 1946.65C1442.21 1947.06 1439.93 1947.17 1437.66 1946.99C1434.12 1946.81 1430.6 1946.38 1427.13 1945.71L1424.51 1945.15C1429.22 1942.9 1434.18 1941.18 1439.27 1940.02C1441.99 1939.36 1444.74 1938.9 1447.52 1938.63C1448.36 1938.61 1449.19 1938.82 1449.92 1939.24C1450.15 1939.39 1450.35 1939.6 1450.48 1939.84C1450.62 1940.08 1450.69 1940.36 1450.7 1940.63Z" fill="#407BFF"/>
<path d="M1433.03 1916.12C1431.76 1916.32 1430.54 1916.79 1429.46 1917.49C1428.37 1918.19 1427.45 1919.11 1426.74 1920.18C1426.29 1920.85 1425.92 1921.56 1425.62 1922.3C1423.45 1928.74 1423.02 1935.65 1424.4 1942.31C1424.4 1942.31 1424.4 1942.58 1424.4 1942.58C1424.43 1942.81 1424.52 1943.03 1424.67 1943.21C1424.82 1943.38 1425.01 1943.52 1425.23 1943.59C1425.35 1943.64 1425.49 1943.67 1425.62 1943.67C1425.76 1943.67 1425.89 1943.64 1426.01 1943.59C1426.21 1943.56 1426.39 1943.46 1426.51 1943.31C1427.58 1942.36 1428.59 1941.33 1429.52 1940.24C1431.29 1938.15 1432.87 1935.92 1434.26 1933.56C1437.71 1927.98 1440.17 1921.63 1438.66 1918.34C1438.1 1916.95 1436.66 1915.5 1433.03 1916.12ZM1436.38 1919.4C1437.32 1921.58 1435.43 1926.54 1432.64 1931.44C1430.95 1934.44 1428.93 1937.24 1426.62 1939.8C1425.86 1934.76 1426.12 1929.63 1427.4 1924.7C1427.73 1923.62 1428.22 1922.61 1428.85 1921.69C1429.76 1920.32 1431.12 1919.31 1432.7 1918.85H1433.48C1435.82 1918.29 1436.27 1919.18 1436.38 1919.4Z" fill="#407BFF"/>
<path d="M1413.92 1947.32L1364.1 1972.68C1363.15 1973.13 1362.39 1973.9 1361.96 1974.86C1361.53 1975.82 1361.46 1976.91 1361.76 1977.91L1376.47 2024.56C1376.82 2025.66 1377.39 2026.69 1378.15 2027.57C1378.9 2028.45 1379.83 2029.18 1380.87 2029.7C1381.91 2030.22 1383.04 2030.52 1384.2 2030.6C1385.36 2030.67 1386.52 2030.51 1387.62 2030.13L1388.51 2029.8C1473.82 1999.76 1499.96 1978.53 1508.93 1973.68C1534.34 1959.8 1520.08 1941.8 1510.55 1944.03C1467.97 1954.23 1453.71 1951.61 1435.26 1946.88C1428.21 1945.33 1420.9 1945.48 1413.92 1947.32Z" fill="#263238"/>
<path opacity="0.2" d="M1319.07 1854.87L1369.73 1899.73L1327.04 1936.18L1276.39 1891.32L1319.07 1854.87Z" fill="black"/>
<path d="M1303.36 1935.84L1367 1877.11L1353.01 1852.48L1279.34 1915.73L1303.36 1935.84Z" fill="#407BFF"/>
<path d="M1342.98 1861.23L1334.45 1868.58L1321.75 1879.73L1314.12 1886.25L1291.83 1905.3L1287.53 1908.98C1287.53 1908.98 1196.81 1857.88 1146.33 1814.25C1111.72 1784.33 1108.6 1773.24 1104.92 1776.02C1056.16 1813.14 911.834 1941.41 829.973 2008.17C827.354 2008.51 824.68 2008.73 822.005 2008.95C778.316 2012.13 743.989 2007.39 717.241 1997.2C716.963 1961.7 747.277 1878.84 749.785 1870.81C749.785 1870.81 870.486 1750.78 1066.14 1649.25C1068.03 1648.3 1070.04 1647.46 1072.04 1646.63C1074.05 1645.79 1077.12 1644.45 1079.68 1643.56C1089.25 1639.74 1099.37 1637.45 1109.66 1636.76C1118.33 1636.42 1126.98 1637.78 1135.13 1640.78C1139.78 1642.42 1144.31 1644.41 1148.67 1646.74C1152.49 1648.73 1156.22 1650.93 1159.81 1653.31C1165.83 1657.16 1171.68 1661.45 1177.25 1665.69C1189.74 1675.33 1284.25 1797.03 1335.07 1853.2C1338.02 1855.65 1340.53 1858.61 1342.98 1861.23Z" fill="#407BFF"/>
<path d="M1342.98 1861.23L1334.45 1868.58L1321.75 1879.73L1314.12 1886.25L1291.83 1905.3L1287.53 1908.98C1287.53 1908.98 1196.81 1857.88 1146.33 1814.25C1111.72 1784.33 1108.6 1773.24 1104.92 1776.02C1056.16 1813.14 911.834 1941.41 829.973 2008.17C827.354 2008.51 824.68 2008.73 822.005 2008.95C778.316 2012.13 743.989 2007.39 717.241 1997.2C716.963 1961.7 747.277 1878.84 749.785 1870.81C749.785 1870.81 870.486 1750.78 1066.14 1649.25C1068.03 1648.3 1070.04 1647.46 1072.04 1646.63C1074.05 1645.79 1077.12 1644.45 1079.68 1643.56C1089.25 1639.74 1099.37 1637.45 1109.66 1636.76C1118.33 1636.42 1126.98 1637.78 1135.13 1640.78C1139.78 1642.42 1144.31 1644.41 1148.67 1646.74C1152.49 1648.73 1156.22 1650.93 1159.81 1653.31C1165.83 1657.16 1171.68 1661.45 1177.25 1665.69C1189.74 1675.33 1284.25 1797.03 1335.07 1853.2C1338.02 1855.65 1340.53 1858.61 1342.98 1861.23Z" fill="black"/>
<path d="M1402.27 2007.56L1445.24 1965.66L1362.09 1861.23L1310.16 1891.88L1402.27 2007.56Z" fill="#CB7A63"/>
<path d="M1489.09 1952.78C1484.3 1951.11 1474.55 1956.46 1466.8 1961.2L1461.84 1964.48L1461.06 1965.04L1457.72 1967.44C1457.47 1967.58 1457.28 1967.8 1457.16 1968.06C1457.05 1968.32 1457.03 1968.61 1457.11 1968.89C1457.18 1969.16 1457.33 1969.41 1457.55 1969.59C1457.78 1969.77 1458.05 1969.88 1458.33 1969.89C1463.46 1970.09 1468.6 1969.92 1473.71 1969.39L1477.06 1969C1480.76 1968.73 1484.33 1967.5 1487.42 1965.43C1488.5 1964.71 1489.53 1963.91 1490.49 1963.04C1491.29 1962.07 1491.84 1960.91 1492.09 1959.68C1492.33 1958.44 1492.26 1957.16 1491.88 1955.96C1491.68 1955.25 1491.33 1954.6 1490.85 1954.05C1490.37 1953.5 1489.77 1953.07 1489.09 1952.78ZM1489.09 1956.74C1489.38 1957.55 1489.45 1958.41 1489.29 1959.26C1489.14 1960.1 1488.76 1960.88 1488.2 1961.53C1485.9 1963.81 1482.93 1965.29 1479.73 1965.77C1475.96 1966.65 1472.12 1967.17 1468.25 1967.33C1466.47 1967.33 1464.57 1967.33 1462.68 1967.33L1464.52 1965.88L1465.86 1964.93C1471.83 1960.73 1478.41 1957.47 1485.36 1955.23C1486.21 1954.99 1487.12 1954.99 1487.98 1955.23C1488.35 1955.29 1488.69 1955.46 1488.94 1955.74C1489.2 1956.01 1489.35 1956.37 1489.37 1956.74H1489.09Z" fill="#407BFF"/>
<path d="M1465.24 1935.06C1463.98 1935.56 1462.84 1936.31 1461.88 1937.27C1460.92 1938.23 1460.17 1939.37 1459.67 1940.63C1456.16 1949.22 1461.34 1962.37 1462.23 1964.43C1462.33 1964.65 1462.48 1964.85 1462.68 1965C1462.87 1965.14 1463.1 1965.24 1463.35 1965.27C1463.62 1965.35 1463.91 1965.35 1464.18 1965.27C1464.28 1965.25 1464.37 1965.22 1464.45 1965.16C1464.53 1965.1 1464.59 1965.02 1464.63 1964.93C1465.53 1963.74 1466.31 1962.48 1466.97 1961.14C1471.09 1953.4 1474.94 1940.47 1471.59 1936.01C1470.7 1934.78 1468.86 1933.67 1465.24 1935.06ZM1463.85 1961.31C1462.34 1956.91 1459.67 1947.6 1462.12 1941.8C1462.74 1940.15 1463.95 1938.78 1465.52 1937.96L1466.24 1937.57C1468.64 1936.62 1469.25 1937.57 1469.48 1937.57C1471.87 1941.02 1468.2 1954.18 1463.85 1961.53V1961.31Z" fill="#407BFF"/>
<path opacity="0.2" d="M1357.75 1854.82L1396.87 1904.91L1343.93 1934.39L1304.2 1885.63L1357.75 1854.82Z" fill="black"/>
<path d="M1390.57 1877.22L1379.7 1883.35L1361.04 1893.88L1344.32 1903.24L1327.1 1912.94L1320.69 1916.95L1316.57 1913.94L1313.06 1911.38C1308.93 1908.31 1303.25 1904.02 1296.34 1898.78C1261.73 1871.42 1200.16 1817.7 1181.82 1768.83C1169.95 1782.99 1156.13 1801.04 1139.53 1820.27C1010.36 1970.22 872.38 2075.94 682.914 2030.41C600.608 2010.63 603.728 1896.67 603.728 1896.67C603.728 1853.59 635.659 1809.29 635.659 1809.29L887.705 1828.85C922.589 1786.5 992.468 1720.19 1063.96 1678.39C1065.64 1677.33 1067.36 1676.33 1069.09 1675.44C1070.82 1674.55 1073.38 1672.99 1075.5 1671.82C1097.05 1659.61 1120.09 1650.25 1144.04 1643.95C1148.95 1642.78 1153.79 1641.72 1158.53 1641.06C1163.44 1640.3 1168.39 1639.82 1173.35 1639.61C1207.23 1638.05 1236.66 1650.75 1256.61 1684.47L1386.84 1872.15L1390.57 1877.22Z" fill="#407BFF"/>
<path opacity="0.5" d="M1390.57 1877.22L1379.7 1883.35L1361.04 1893.88L1344.32 1903.24L1327.1 1912.94L1320.69 1916.95L1316.57 1913.94L1313.06 1911.38C1308.93 1908.31 1303.25 1904.02 1296.34 1898.78C1261.73 1871.42 1200.16 1817.7 1181.82 1768.83C1169.95 1782.99 1156.13 1801.04 1139.53 1820.27C1010.36 1970.22 872.38 2075.94 682.914 2030.41C600.608 2010.63 603.728 1896.67 603.728 1896.67C603.728 1853.59 635.659 1809.29 635.659 1809.29L887.705 1828.85C922.589 1786.5 992.468 1720.19 1063.96 1678.39C1065.64 1677.33 1067.36 1676.33 1069.09 1675.44C1070.82 1674.55 1073.38 1672.99 1075.5 1671.82C1097.05 1659.61 1120.09 1650.25 1144.04 1643.95C1148.95 1642.78 1153.79 1641.72 1158.53 1641.06C1163.44 1640.3 1168.39 1639.82 1173.35 1639.61C1207.23 1638.05 1236.66 1650.75 1256.61 1684.47L1386.84 1872.15L1390.57 1877.22Z" fill="black"/>
<path d="M1309.99 1928.65L1393.24 1887.03L1386.11 1857.44L1291.21 1900.74L1309.99 1928.65Z" fill="#407BFF"/>
<path d="M1441.89 1961.14L1384.5 1978.53C1383.41 1978.84 1382.46 1979.52 1381.83 1980.46C1381.2 1981.4 1380.92 1982.53 1381.04 1983.65L1388.01 2035.7C1388.43 2038.13 1389.79 2040.3 1391.78 2041.75C1393.78 2043.19 1396.27 2043.8 1398.71 2043.45H1399.71C1495.56 2027.45 1527.21 2010.01 1537.52 2006.33C1567 1996.36 1555.18 1974.68 1544.76 1975.3C1497.79 1978.19 1483.19 1972.79 1464.57 1964.15C1457.38 1961.3 1449.59 1960.26 1441.89 1961.14Z" fill="#263238"/>
<path d="M1153.85 1689.03H975.528C974.356 1689.06 973.193 1688.83 972.116 1688.37C971.039 1687.91 970.073 1687.22 969.282 1686.36C968.491 1685.49 967.894 1684.47 967.529 1683.35C967.165 1682.24 967.042 1681.06 967.169 1679.9L977.088 1565.88C977.334 1563.41 978.48 1561.11 980.308 1559.42C982.137 1557.74 984.521 1556.79 987.007 1556.74H1165.33C1166.5 1556.72 1167.66 1556.95 1168.74 1557.41C1169.82 1557.87 1170.78 1558.56 1171.57 1559.42C1172.37 1560.29 1172.96 1561.31 1173.33 1562.42C1173.69 1563.54 1173.81 1564.72 1173.69 1565.88L1163.71 1679.95C1163.44 1682.4 1162.3 1684.67 1160.48 1686.34C1158.67 1688.01 1156.31 1688.97 1153.85 1689.03Z" fill="#263238"/>
<path opacity="0.9" d="M1153.9 1680.06H982.884L992.97 1565.27H1163.94L1153.9 1680.06Z" fill="white"/>
<path opacity="0.4" d="M985.391 1617.82C985.391 1618.82 985.092 1619.81 984.532 1620.64C983.973 1621.48 983.177 1622.13 982.248 1622.51C981.318 1622.89 980.295 1622.99 979.31 1622.79C978.325 1622.59 977.422 1622.1 976.715 1621.38C976.008 1620.67 975.529 1619.76 975.34 1618.77C975.15 1617.79 975.259 1616.76 975.651 1615.84C976.044 1614.91 976.702 1614.12 977.543 1613.57C978.385 1613.02 979.371 1612.74 980.376 1612.75C981.039 1612.75 981.696 1612.88 982.308 1613.13C982.92 1613.39 983.476 1613.76 983.942 1614.24C984.408 1614.71 984.777 1615.27 985.025 1615.88C985.274 1616.5 985.398 1617.15 985.391 1617.82Z" fill="black"/>
<path opacity="0.4" d="M1166.89 1615.25C1166.89 1615.75 1166.74 1616.24 1166.47 1616.65C1166.19 1617.06 1165.8 1617.38 1165.34 1617.57C1164.88 1617.76 1164.38 1617.81 1163.89 1617.71C1163.41 1617.62 1162.96 1617.38 1162.61 1617.03C1162.26 1616.68 1162.02 1616.23 1161.92 1615.74C1161.82 1615.26 1161.87 1614.75 1162.06 1614.29C1162.25 1613.84 1162.58 1613.44 1162.99 1613.17C1163.4 1612.89 1163.89 1612.75 1164.38 1612.75C1165.05 1612.75 1165.68 1613.01 1166.15 1613.48C1166.62 1613.95 1166.89 1614.59 1166.89 1615.25Z" fill="black"/>
<path d="M733.011 1359.7C739.364 1394.58 730.113 1441.34 705.539 1464.24C733.401 1517.18 775.028 1568.44 814.091 1613.58C869.371 1524.87 821.949 1467.19 821.949 1467.19C783.22 1457.44 784.39 1441.73 791.467 1414.87L733.011 1359.7Z" fill="#CB7A63"/>
<path d="M707.377 1449.14C711.433 1440.18 718.38 1432.84 727.104 1428.3C735.574 1423.34 816.265 1432.64 836.047 1442.12C847.765 1447.53 857.099 1457.05 862.294 1468.86L707.377 1449.14Z" fill="#407BFF"/>
<path d="M934.681 1330.72L970.568 1347.44C973.492 1356.82 974.515 1366.69 973.578 1376.47C971.516 1388.73 965.999 1392.8 945.715 1384.33C927.66 1361.48 934.681 1330.72 934.681 1330.72Z" fill="#CB7A63"/>
<path d="M958.476 1308.04L962.488 1316.62L969.621 1320.69C971.465 1321.83 972.904 1323.51 973.735 1325.52C974.565 1327.52 974.744 1329.73 974.246 1331.84L970.513 1347.22L934.681 1330.5L941.48 1316.96C947.721 1307.43 952.625 1304.7 957.863 1307.2L958.476 1308.04Z" fill="#CB7A63"/>
<path d="M920.415 1532C940.978 1486.92 949.615 1465.8 972.017 1382.38L942.26 1379.03C912.447 1458.78 878.231 1492.6 878.231 1492.6C878.231 1492.6 710.387 1464.35 689.545 1474.21C655.776 1490.15 673.831 1524.98 695.118 1533.78C716.405 1542.59 836.605 1562.37 892.218 1555.52C898.54 1554.34 904.454 1551.56 909.391 1547.45C914.329 1543.33 918.125 1538.01 920.415 1532Z" fill="#CB7A63"/>
<path d="M1049.7 1344.43L1049.59 1344.54L1049.53 1344.48L1049.7 1344.43Z" fill="black"/>
<path d="M922.923 1532.78C956.693 1641.95 844.295 1657.66 872.77 1833.25L635.882 1809.01C648.977 1718.51 678.735 1742.14 657.838 1566.1C656.054 1551.23 655.33 1508.99 675.503 1473.21C683.277 1459.2 695.662 1448.31 710.554 1442.39C729.166 1435.21 805.287 1452.26 839.837 1459.11C878.287 1458.5 917.629 1519.02 922.923 1532.78Z" fill="#407BFF"/>
<path d="M873.272 1322.86C871.043 1326.88 871.489 1331 873.996 1332.39C876.504 1333.79 880.293 1331.84 882.467 1327.93C884.64 1324.03 884.25 1319.8 881.742 1318.41C879.235 1317.01 875.39 1319.02 873.272 1322.86Z" fill="#263238"/>
<path d="M880.46 1318.02L891.215 1320.47C891.215 1320.47 882.467 1325.09 880.46 1318.02Z" fill="#263238"/>
<path d="M873.941 1331.06C876 1341.65 879.526 1351.91 884.417 1361.54C881.903 1362.7 879.164 1363.31 876.393 1363.31C873.621 1363.31 870.882 1362.7 868.368 1361.54L873.941 1331.06Z" fill="#A02724"/>
<path d="M890.212 1295C890.632 1294.84 891.005 1294.58 891.298 1294.24C891.59 1293.9 891.791 1293.49 891.884 1293.05C892.015 1292.37 891.872 1291.67 891.485 1291.09C891.099 1290.52 890.501 1290.12 889.822 1289.99C885.788 1289.13 881.608 1289.26 877.633 1290.36C873.658 1291.45 870.003 1293.48 866.975 1296.28C866.678 1296.49 866.429 1296.76 866.242 1297.08C866.056 1297.39 865.937 1297.74 865.893 1298.1C865.849 1298.46 865.881 1298.83 865.986 1299.18C866.092 1299.53 866.269 1299.85 866.506 1300.12C866.743 1300.4 867.036 1300.62 867.364 1300.78C867.693 1300.94 868.051 1301.02 868.415 1301.03C868.779 1301.05 869.141 1300.98 869.478 1300.84C869.816 1300.71 870.121 1300.5 870.374 1300.24L870.708 1299.9C873.139 1297.74 876.045 1296.18 879.192 1295.35C882.338 1294.51 885.636 1294.43 888.819 1295.11C889.284 1295.22 889.77 1295.18 890.212 1295Z" fill="#263238"/>
<path d="M730.671 1283.97C724.262 1337.97 720.361 1360.7 742.373 1393.02C775.474 1441.61 843.347 1437.6 865.693 1386.72C885.866 1340.75 892.999 1260.17 844.573 1229.41C833.928 1222.56 821.706 1218.55 809.07 1217.75C796.435 1216.96 783.807 1219.42 772.389 1224.89C760.971 1230.35 751.143 1238.66 743.84 1249C736.538 1259.34 732.004 1271.38 730.671 1283.97Z" fill="#CB7A63"/>
<path d="M867.03 1383.49C863.023 1379.81 860.078 1375.11 858.504 1369.9C858.452 1369.61 858.509 1369.31 858.663 1369.07C858.818 1368.82 859.059 1368.64 859.34 1368.56C859.62 1368.5 859.91 1368.55 860.156 1368.7C860.403 1368.84 860.588 1369.07 860.678 1369.34C862.089 1373.83 864.576 1377.9 867.922 1381.21L867.03 1383.49Z" fill="#263238"/>
<path d="M906.763 1266.36C906.877 1271.94 904.891 1277.37 901.196 1281.56C897.502 1285.75 892.368 1288.4 886.813 1288.98C879.569 1308.6 859.508 1338.52 841.898 1327.21C852.152 1326.88 870.876 1303.64 855.05 1285.47C843.459 1272.21 827.744 1237.38 855.05 1228.85C876.17 1222.28 906.707 1244.96 906.763 1266.36Z" fill="#263238"/>
<path d="M859.452 1244.35C851.817 1212.75 806.29 1188.12 773.802 1189.12C741.314 1190.13 711.445 1207.9 687.651 1230.03C675.28 1241.5 663.744 1254.88 659.342 1271.21C654.94 1287.53 659.342 1307.15 673.608 1316.34C621.783 1367.44 660.345 1388.17 668.035 1384.66C669.15 1397.48 660.401 1405.06 648.643 1413.47C638.167 1420.94 635.547 1429.8 631.925 1442.12C628.303 1454.43 631.925 1469.98 643.07 1475.55C642.272 1473.64 641.884 1471.59 641.93 1469.52C641.976 1467.45 642.456 1465.42 643.339 1463.55C644.221 1461.68 645.487 1460.02 647.053 1458.67C648.62 1457.32 650.452 1456.31 652.432 1455.71C649.665 1462.14 648.902 1469.24 650.243 1476.11C651.584 1482.97 654.966 1489.27 659.947 1494.18C664.928 1499.09 671.275 1502.38 678.157 1503.62C685.04 1504.86 692.136 1503.99 698.517 1501.13C693.39 1499.85 686.202 1494.83 685.366 1489.59C700.081 1495.9 715.683 1499.88 731.618 1501.41C747.611 1502.02 764.663 1496.84 774.526 1484.24C775.139 1475.11 787.51 1465.97 796.817 1466.3C801.409 1466.6 805.726 1468.6 808.929 1471.91C812.131 1475.21 813.991 1479.59 814.147 1484.19C824.289 1481.96 828.469 1470.76 829.026 1460.45C829.245 1454.95 827.573 1449.54 824.289 1445.12C822.422 1442.93 820.133 1441.13 817.558 1439.84C814.982 1438.55 812.174 1437.79 809.299 1437.6C804.356 1436.16 800.174 1432.84 797.652 1428.35C796.694 1425.83 796.421 1423.1 796.861 1420.43C797.302 1417.77 798.44 1415.27 800.16 1413.19C840.449 1355.69 821.447 1319.91 824.122 1312.89C826.797 1305.87 839.725 1314.89 839.725 1314.89C851.427 1300.13 863.743 1262.74 859.452 1244.35Z" fill="#263238"/>
<path d="M799.659 1323.37C798.659 1335.89 802.667 1348.29 810.804 1357.86C821.67 1370.51 836.326 1362.99 840.951 1347.94C845.186 1334.4 844.573 1311.5 829.806 1304.36C815.039 1297.23 800.996 1308.1 799.659 1323.37Z" fill="#CB7A63"/>
<path d="M635.882 1790.73L627.69 1811.46C626.687 1813.02 628.526 1814.86 631.201 1815.14L875.167 1840.22C877.284 1840.22 879.179 1839.55 879.457 1838.21L876.225 1814.97C876.56 1813.58 874.776 1812.13 872.436 1811.91L640.006 1789.62C639.28 1789.44 638.521 1789.45 637.8 1789.64C637.078 1789.84 636.418 1790.21 635.882 1790.73Z" fill="#407BFF"/>
<path d="M849.533 1839.6H843.068C841.787 1839.6 840.784 1838.94 840.895 1838.16L844.294 1810.29C844.294 1809.51 845.52 1808.84 846.802 1808.84H853.266C854.548 1808.84 855.551 1809.51 855.439 1810.35L852.04 1838.21C851.929 1838.94 850.814 1839.6 849.533 1839.6Z" fill="#263238"/>
<path d="M762.323 1829.69H755.858C754.633 1829.69 753.629 1828.96 753.741 1828.18L757.14 1800.32C757.14 1799.54 758.366 1798.92 759.648 1798.92H766.112C767.338 1798.92 768.397 1799.59 768.23 1800.49L764.886 1828.07C764.775 1829.13 763.437 1829.69 762.323 1829.69Z" fill="#407BFF"/>
<path d="M762.323 1829.69H755.858C754.633 1829.69 753.629 1828.96 753.741 1828.18L757.14 1800.32C757.14 1799.54 758.366 1798.92 759.648 1798.92H766.112C767.338 1798.92 768.397 1799.59 768.23 1800.49L764.886 1828.07C764.775 1829.13 763.437 1829.69 762.323 1829.69Z" fill="#263238"/>
<path opacity="0.2" d="M820.5 1524.92C820.5 1524.92 804.395 1549.28 832.536 1622.61L844.406 1652.53C848.307 1662.45 884.417 1647.91 896.676 1631.86C896.676 1631.86 837.05 1584.94 820.5 1524.92Z" fill="black"/>
<path d="M1099.46 1671.76L1143.37 1645.4L1143.04 1685.58C1143.04 1685.58 1109.6 1713.05 1094.78 1691.15C1094.78 1691.26 1089.82 1675.88 1099.46 1671.76Z" fill="#CB7A63"/>
<path d="M1174.41 1658.27L1172.57 1672.87C1172.31 1675.08 1171.34 1677.14 1169.82 1678.76C1168.29 1680.37 1166.29 1681.46 1164.1 1681.85L1142.87 1685.58L1143.21 1645.4L1164.55 1646.74C1165.9 1646.78 1167.23 1647.09 1168.46 1647.65C1169.69 1648.21 1170.8 1649.01 1171.72 1650C1172.64 1650.99 1173.36 1652.15 1173.83 1653.42C1174.3 1654.68 1174.52 1656.03 1174.47 1657.38C1174.47 1657.68 1174.46 1657.98 1174.41 1658.27Z" fill="#CB7A63"/>
<path d="M897.457 1697.62C912.28 1724.14 934.848 1747.77 963.714 1757.19C997.706 1768.33 1075.94 1724.14 1111.5 1696.22C1111.5 1682.51 1108.54 1678.84 1095.34 1675.21C1095.34 1675.21 1057.5 1696.22 990.295 1703.08C968.562 1705.31 957.25 1681.96 942.817 1648.24C935.628 1631.53 907.766 1530.55 898.237 1514.84C883.191 1489.59 829.973 1499.57 843.292 1557.36C849.031 1581.82 885.364 1675.94 897.457 1697.62Z" fill="#CB7A63"/>
<path d="M904.757 1496.22C936.854 1534.12 946.996 1595.3 946.996 1595.3L855.718 1636.21C855.718 1636.21 804.785 1541.47 819.72 1512.5C831.422 1490.21 849.533 1476.72 870.931 1478.11C877.5 1478.69 883.883 1480.6 889.696 1483.71C895.509 1486.82 900.632 1491.08 904.757 1496.22Z" fill="#407BFF"/>
<path d="M666.196 1820.88L659.732 1820.21C658.506 1819.93 657.559 1819.38 657.726 1818.54L663.299 1791.29C663.299 1790.45 664.636 1789.95 665.918 1790.06L672.382 1790.73C673.608 1790.73 674.555 1791.62 674.388 1792.41L668.816 1819.71C668.605 1820.2 668.22 1820.59 667.734 1820.81C667.249 1821.02 666.7 1821.05 666.196 1820.88Z" fill="#263238"/>
<path d="M640.287 1786.65L639.749 1792.2L872.203 1814.75L872.741 1809.2L640.287 1786.65Z" fill="#263238"/>
</svg>
