<svg width="2787" height="2077" viewBox="0 0 2787 2077" fill="none" xmlns="http://www.w3.org/2000/svg">
<path d="M1484.8 1221.83C1256.66 976.642 942.037 1146.44 702.697 1065.08C409.86 965.497 275.673 634.21 445.078 466.087C590.41 321.981 797.597 446.917 998.988 448.366C1273.99 450.316 1447.86 311.003 1759.14 418.497C2360.53 626.241 2250.58 1384.38 1973.4 1655.04C1877.78 1748.38 1789.84 1820.94 1630.36 1674.43C1485.58 1541.59 1578.75 1322.86 1484.8 1221.83Z" fill="#407BFF"/>
<path opacity="0.9" d="M1484.8 1221.83C1256.66 976.642 942.037 1146.44 702.697 1065.08C409.86 965.497 275.673 634.21 445.078 466.087C590.41 321.981 797.597 446.917 998.988 448.366C1273.99 450.316 1447.86 311.003 1759.14 418.497C2360.53 626.241 2250.58 1384.38 1973.4 1655.04C1877.78 1748.38 1789.84 1820.94 1630.36 1674.43C1485.58 1541.59 1578.75 1322.86 1484.8 1221.83Z" fill="white"/>
<path d="M1393.13 2076.1C1989.85 2076.1 2473.59 2047.86 2473.59 2013.02C2473.59 1978.18 1989.85 1949.94 1393.13 1949.94C796.413 1949.94 312.675 1978.18 312.675 2013.02C312.675 2047.86 796.413 2076.1 1393.13 2076.1Z" fill="#F5F5F5"/>
<path d="M1765.32 407.241H1759.53V443.908H1765.32V407.241Z" fill="#407BFF"/>
<path d="M1765.32 377.428H1759.75C1759.72 356.071 1751.22 335.598 1736.11 320.502C1721.01 305.406 1700.53 296.919 1679.17 296.905V291.332C1701.99 291.405 1723.85 300.498 1739.99 316.627C1756.13 332.755 1765.23 354.611 1765.32 377.428Z" fill="#407BFF"/>
<path d="M1678.95 311.393H909.828C873.327 311.393 843.737 340.983 843.737 377.483V1946.15C843.737 1982.65 873.327 2012.24 909.828 2012.24H1678.95C1715.45 2012.24 1745.04 1982.65 1745.04 1946.15V377.483C1745.04 340.983 1715.45 311.393 1678.95 311.393Z" fill="#407BFF"/>
<path opacity="0.95" d="M1715.06 1946.15V377.428C1715.06 354.992 1696.87 336.804 1674.43 336.804L905.314 336.804C882.878 336.804 864.69 354.992 864.69 377.428L864.69 1946.15C864.69 1968.59 882.878 1986.78 905.314 1986.78H1674.43C1696.87 1986.78 1715.06 1968.59 1715.06 1946.15Z" fill="white"/>
<path d="M1289.93 1923.81C1315.32 1923.81 1335.9 1903.22 1335.9 1877.83C1335.9 1852.44 1315.32 1831.86 1289.93 1831.86C1264.54 1831.86 1243.96 1852.44 1243.96 1877.83C1243.96 1903.22 1264.54 1923.81 1289.93 1923.81Z" fill="#407BFF"/>
<path d="M1254.77 332.179C1254.77 342.243 1258.77 351.896 1265.88 359.013C1273 366.129 1282.65 370.128 1292.72 370.128C1302.78 370.128 1312.43 366.129 1319.55 359.013C1326.67 351.896 1330.67 342.243 1330.67 332.179H1254.77Z" fill="#407BFF"/>
<path opacity="0.7" d="M1540.86 496.847H1044.91C1024.68 496.906 1005.29 504.968 990.988 519.273C976.683 533.577 968.621 552.961 968.562 573.191V624.124C968.621 644.353 976.683 663.737 990.988 678.042C1005.29 692.346 1024.68 700.409 1044.91 700.467H1540.86L1617.2 745.716V572.968C1617.07 552.782 1608.98 533.463 1594.69 519.21C1580.39 504.956 1561.05 496.92 1540.86 496.847Z" fill="#407BFF"/>
<path d="M1527.04 569.792H1058.45V582.497H1527.04V569.792Z" fill="white"/>
<path d="M1527.04 614.818H1148.61V627.523H1527.04V614.818Z" fill="white"/>
<path opacity="0.15" d="M1044.63 835.88H1540.58C1560.81 835.939 1580.2 844.001 1594.5 858.306C1608.81 872.61 1616.87 891.994 1616.93 912.224V963.101C1616.87 983.33 1608.81 1002.71 1594.5 1017.02C1580.2 1031.32 1560.81 1039.39 1540.58 1039.44H1044.63L968.283 1084.69V911.945C968.401 891.759 976.491 872.438 990.79 858.191C1005.09 843.943 1024.44 835.924 1044.63 835.88Z" fill="#407BFF"/>
<path opacity="0.5" d="M1527.04 908.769H1058.45V921.474H1527.04V908.769Z" fill="#407BFF"/>
<path opacity="0.5" d="M1275.78 953.851H1058.45V966.556H1275.78V953.851Z" fill="#407BFF"/>
<path opacity="0.5" d="M1398.09 953.851H1309.71V966.556H1398.09V953.851Z" fill="#407BFF"/>
<path opacity="0.7" d="M1540.86 1174.86H1044.91C1024.68 1174.92 1005.29 1182.98 990.988 1197.28C976.683 1211.59 968.621 1230.97 968.562 1251.2V1302.08C968.606 1322.31 976.664 1341.7 990.971 1356.01C1005.28 1370.32 1024.67 1378.38 1044.91 1378.42H1540.86L1617.2 1423.67V1250.92C1617.06 1230.75 1608.96 1211.44 1594.67 1197.2C1580.37 1182.96 1561.04 1174.93 1540.86 1174.86Z" fill="#407BFF"/>
<path d="M1527.04 1247.75H1058.45V1260.45H1527.04V1247.75Z" fill="white"/>
<path d="M1527.04 1292.83H1148.61V1305.53H1527.04V1292.83Z" fill="white"/>
<path opacity="0.15" d="M1044.63 1513.83H1237.6C1257.83 1513.91 1277.2 1521.97 1291.51 1536.28C1305.81 1550.58 1313.87 1569.95 1313.95 1590.18V1641.11C1313.87 1661.34 1305.81 1680.71 1291.51 1695.01C1277.2 1709.31 1257.83 1717.38 1237.6 1717.45H1044.63L968.283 1762.65V1590.18C968.342 1569.95 976.404 1550.56 990.709 1536.26C1005.01 1521.96 1024.4 1513.89 1044.63 1513.83Z" fill="#407BFF"/>
<path opacity="0.5" d="M1083.3 1615.64C1083.3 1620.05 1081.99 1624.36 1079.54 1628.03C1077.09 1631.69 1073.61 1634.55 1069.54 1636.24C1065.47 1637.93 1060.99 1638.37 1056.66 1637.51C1052.34 1636.65 1048.37 1634.52 1045.25 1631.41C1042.13 1628.29 1040.01 1624.32 1039.15 1619.99C1038.29 1615.67 1038.73 1611.19 1040.42 1607.11C1042.1 1603.04 1044.96 1599.56 1048.63 1597.11C1052.29 1594.66 1056.6 1593.35 1061.01 1593.35C1066.9 1593.43 1072.53 1595.8 1076.69 1599.96C1080.86 1604.13 1083.23 1609.76 1083.3 1615.64Z" fill="#407BFF"/>
<path opacity="0.5" d="M1128.38 1620.16C1140.85 1620.16 1150.95 1610.05 1150.95 1597.59C1150.95 1585.13 1140.85 1575.02 1128.38 1575.02C1115.92 1575.02 1105.81 1585.13 1105.81 1597.59C1105.81 1610.05 1115.92 1620.16 1128.38 1620.16Z" fill="#407BFF"/>
<path opacity="0.5" d="M1218.55 1642.67C1218.55 1647.08 1217.24 1651.39 1214.79 1655.06C1212.34 1658.72 1208.86 1661.58 1204.79 1663.26C1200.71 1664.95 1196.23 1665.39 1191.91 1664.53C1187.58 1663.67 1183.61 1661.55 1180.49 1658.43C1177.38 1655.32 1175.25 1651.34 1174.39 1647.02C1173.53 1642.7 1173.98 1638.21 1175.66 1634.14C1177.35 1630.07 1180.21 1626.59 1183.87 1624.14C1187.54 1621.69 1191.85 1620.38 1196.26 1620.38C1202.17 1620.38 1207.84 1622.73 1212.02 1626.91C1216.2 1631.09 1218.55 1636.76 1218.55 1642.67Z" fill="#407BFF"/>
<path d="M1918.79 1561.42C1924.92 1573.63 1930.38 1585.89 1936.12 1598.15C1941.86 1610.41 1947.27 1622.89 1952.39 1635.37C1957.52 1647.85 1962.87 1660.39 1967.77 1673.15C1972.68 1685.91 1977.64 1698.68 1982.15 1712.16L1962.2 1693.38C1973.83 1697.35 1986.02 1699.46 1998.31 1699.62C2012.57 1700.01 2026.83 1699.36 2041 1697.67C2055.71 1696.11 2070.53 1693.66 2085.58 1690.87C2100.62 1688.09 2115.67 1684.63 2130.16 1681.23L2143.36 1713.33C2128.86 1721.3 2113.86 1728.32 2098.45 1734.34C2083.01 1740.53 2067.21 1745.78 2051.14 1750.05C2034.43 1754.56 2017.34 1757.54 2000.09 1758.97C1980.85 1760.84 1961.43 1759.25 1942.75 1754.29L1929.66 1750.67L1922.52 1735.34C1911.82 1711.88 1900.23 1687.81 1889.09 1663.79C1883.52 1651.75 1877.67 1639.66 1872.09 1627.57C1866.52 1615.48 1860.95 1603.33 1855.38 1591.18L1918.79 1561.42Z" fill="#FFC3BD"/>
<path d="M2111.99 1691.04L2133.89 1669.64L2168.66 1707.26C2168.66 1707.26 2156.07 1729.27 2124.75 1716.45L2111.99 1691.04Z" fill="#FFC3BD"/>
<path d="M2166.94 1655.49L2186.11 1686.75L2168.72 1707.26L2133.95 1669.64L2166.94 1655.49Z" fill="#FFC3BD"/>
<path d="M1820.38 1511.33C1864.96 1494.11 1899.51 1519.8 1955.85 1590.9L1889.87 1658.72C1889.87 1658.72 1733.45 1544.65 1820.38 1511.33Z" fill="#263238"/>
<path opacity="0.2" d="M1904.08 1584.88C1883.01 1571.23 1864.68 1575.08 1849.19 1587.78C1855.04 1609.46 1870.03 1634.31 1884.46 1654.65C1887.86 1657.33 1890.04 1658.78 1890.04 1658.78L1926.81 1620.94C1925.85 1613.64 1923.32 1606.64 1919.4 1600.42C1915.47 1594.19 1910.25 1588.89 1904.08 1584.88Z" fill="black"/>
<path d="M2159.91 1984.04L2213.3 1977.86L2208.84 1868.41L2155.51 1874.54L2159.91 1984.04Z" fill="#FFC3BD"/>
<path d="M2213.74 1954.84L2153.62 1955.68C2152.64 1955.73 2151.72 1956.13 2151.01 1956.8C2150.3 1957.48 2149.86 1958.39 2149.77 1959.36L2142.97 2006.67C2142.77 2007.79 2142.82 2008.93 2143.1 2010.03C2143.38 2011.13 2143.89 2012.16 2144.61 2013.04C2145.32 2013.92 2146.22 2014.64 2147.23 2015.15C2148.25 2015.66 2149.36 2015.94 2150.5 2015.98C2169.16 2015.36 2177.75 2013.97 2201.32 2013.58C2215.86 2013.58 2259.66 2014.42 2279.72 2014.14C2299.78 2013.86 2301.12 1991.85 2292.82 1989.9C2255.54 1981.54 2234.08 1969.56 2221.66 1957.97C2219.54 1955.92 2216.69 1954.8 2213.74 1954.84Z" fill="#263238"/>
<path d="M2226.51 1940.91C2227.35 1940.59 2228.25 1940.48 2229.14 1940.59C2230.04 1940.7 2230.89 1941.02 2231.63 1941.53C2232.22 1941.82 2232.73 1942.25 2233.11 1942.78C2233.49 1943.32 2233.73 1943.94 2233.81 1944.59C2234.47 1950.16 2222.66 1960.19 2221.04 1961.31C2220.88 1961.43 2220.69 1961.49 2220.49 1961.49C2220.29 1961.49 2220.09 1961.43 2219.93 1961.31C2219.74 1961.21 2219.59 1961.05 2219.49 1960.87C2219.39 1960.68 2219.35 1960.46 2219.37 1960.25C2219.76 1954.23 2221.16 1943.53 2225.89 1941.14L2226.51 1940.91ZM2221.66 1957.97C2226.34 1953.9 2232.13 1947.77 2231.74 1944.7C2231.74 1944.37 2231.74 1943.87 2230.8 1943.42C2230.25 1943.02 2229.6 1942.78 2228.92 1942.72C2228.24 1942.66 2227.56 1942.79 2226.95 1943.09C2224.39 1944.48 2222.44 1950 2221.66 1957.97Z" fill="#407BFF"/>
<path d="M2225.95 1955.96C2227.92 1954.92 2230.08 1954.29 2232.3 1954.1C2234.52 1953.91 2236.76 1954.16 2238.88 1954.84C2239.6 1955.3 2240.17 1955.99 2240.48 1956.79C2240.79 1957.59 2240.83 1958.47 2240.6 1959.3C2240.49 1960.09 2240.19 1960.83 2239.74 1961.48C2239.28 1962.13 2238.68 1962.66 2237.99 1963.04C2232.41 1966.1 2220.6 1961.53 2220.1 1961.36C2219.92 1961.29 2219.77 1961.17 2219.64 1961.03C2219.52 1960.88 2219.43 1960.71 2219.37 1960.53C2219.34 1960.35 2219.35 1960.16 2219.41 1959.98C2219.46 1959.81 2219.57 1959.65 2219.71 1959.53C2221.57 1957.99 2223.68 1956.78 2225.95 1955.96ZM2236.31 1961.53L2236.93 1961.25C2237.36 1961 2237.74 1960.65 2238.03 1960.24C2238.32 1959.83 2238.51 1959.35 2238.6 1958.86C2238.6 1957.52 2238.32 1957.02 2237.87 1956.8C2235.2 1955.07 2227.01 1957.3 2222.61 1960.14C2226.96 1961.87 2231.7 1962.35 2236.31 1961.53Z" fill="#407BFF"/>
<path opacity="0.2" d="M2155.51 1874.6L2208.84 1868.41L2211.13 1924.86L2157.52 1925.09L2155.51 1874.6Z" fill="black"/>
<path d="M1893.77 1811.07C1893.77 1811.07 2032.3 1682.24 2122.24 1680.29C2187.89 1678.89 2234.81 1896 2234.81 1896L2156.79 1897.5C2156.79 1897.5 2143.08 1820.71 2092.1 1799.54C2018.43 1910.1 1718.12 2128.6 1746.6 1891.71C1791.18 1874.93 1893.77 1811.07 1893.77 1811.07Z" fill="#407BFF"/>
<path opacity="0.2" d="M1893.77 1811.07C1893.77 1811.07 2032.3 1682.24 2122.24 1680.29C2187.89 1678.89 2234.81 1896 2234.81 1896L2156.79 1897.5C2156.79 1897.5 2143.08 1820.71 2092.1 1799.54C2018.43 1910.1 1718.12 2128.6 1746.6 1891.71C1791.18 1874.93 1893.77 1811.07 1893.77 1811.07Z" fill="black"/>
<path d="M2234.53 1906.75L2142.81 1915.56L2143.09 1882.12L2240.1 1870.59L2234.53 1906.75Z" fill="#263238"/>
<path d="M1711.88 1899.9C1711.88 1899.9 1652.31 1783.54 1645.01 1596.14C1643.34 1552.01 1683.07 1510.38 1728.6 1508.04C1766.83 1506.03 1807.28 1505.53 1840.05 1505.64C1872.82 1505.75 1897.89 1527.49 1901.63 1559.03C1909.87 1628.57 1911.32 1734.17 1953.95 1859.94L1711.88 1899.9Z" fill="#263238"/>
<path opacity="0.2" d="M1672.93 1597.09C1705.75 1560.03 1717.06 1571.84 1721.97 1576.3C1767.44 1617.48 1700.68 1745.71 1687.31 1764.6C1677.91 1716.71 1672.32 1668.15 1670.59 1619.38C1670.25 1611.87 1671.04 1604.36 1672.93 1597.09Z" fill="black"/>
<path d="M1772.96 1396.64C1769.28 1430.8 1760.25 1483.24 1737.01 1507.59C1755.29 1524.81 1785.05 1541.75 1827.35 1548.83C1849.19 1539.8 1852.09 1519.69 1841.5 1505.7C1804.16 1499.18 1804.61 1488.59 1818.71 1464.8L1772.96 1396.64Z" fill="#FFC3BD"/>
<path opacity="0.2" d="M1791.63 1424.45L1818.71 1464.74C1815.12 1470.29 1812.32 1476.31 1810.4 1482.63C1797.14 1477.06 1782.54 1456.77 1785.44 1441.84C1786.45 1435.72 1788.55 1429.83 1791.63 1424.45Z" fill="black"/>
<path d="M1870.81 1333.67C1892.71 1356.91 1938.74 1357.02 1918.96 1329.5C1899.18 1301.97 1853.76 1315.56 1870.81 1333.67Z" fill="#263238"/>
<path d="M1782.04 1331.17C1769.84 1375.75 1760.47 1400.71 1774.35 1431.47C1778.56 1441.5 1785.46 1450.18 1794.28 1456.56C1803.09 1462.93 1813.5 1466.76 1824.34 1467.62C1835.19 1468.47 1846.06 1466.33 1855.77 1461.42C1865.48 1456.51 1873.65 1449.02 1879.39 1439.78C1901.68 1404.56 1918.07 1337.97 1882.35 1304.14C1874.95 1296.58 1865.67 1291.13 1855.46 1288.35C1845.26 1285.56 1834.5 1285.55 1824.28 1288.3C1814.07 1291.05 1804.77 1296.47 1797.35 1304C1789.93 1311.54 1784.64 1320.91 1782.04 1331.17Z" fill="#FFC3BD"/>
<path d="M1772.07 1372.51C1777.64 1371.51 1805.17 1363.15 1818.6 1350.22C1833.7 1335.68 1833.81 1321.58 1829.74 1315.17C1825.67 1308.77 1793.8 1296.45 1778.92 1299.29C1755.4 1303.81 1761.2 1345.43 1761.53 1356.69C1761.71 1360.03 1762.78 1363.26 1764.63 1366.04C1766.49 1368.83 1769.05 1371.06 1772.07 1372.51Z" fill="#FFC3BD"/>
<path opacity="0.7" d="M1772.07 1372.51C1777.64 1371.51 1805.17 1363.15 1818.6 1350.22C1833.7 1335.68 1833.81 1321.58 1829.74 1315.17C1825.67 1308.77 1793.8 1296.45 1778.92 1299.29C1755.4 1303.81 1761.2 1345.43 1761.53 1356.69C1761.71 1360.03 1762.78 1363.26 1764.63 1366.04C1766.49 1368.83 1769.05 1371.06 1772.07 1372.51Z" fill="#263238"/>
<path d="M1748.72 1375.58C1753.05 1385.16 1760.83 1392.76 1770.51 1396.87C1783.32 1402.05 1790.62 1391.29 1787.84 1378.2C1785.33 1366.66 1775.63 1350 1762.43 1350.34C1749.22 1350.67 1743.48 1363.77 1748.72 1375.58Z" fill="#FFC3BD"/>
<path d="M1790.62 1312.61C1847.46 1324.76 1887.86 1356.74 1914.72 1337.52C1933.72 1323.92 1921.24 1299.12 1899.45 1281.18C1880.84 1265.86 1854.87 1261.12 1847.07 1248.58C1846.16 1252.75 1846.51 1257.1 1848.08 1261.07C1849.65 1265.04 1852.36 1268.45 1855.88 1270.87C1855.88 1270.87 1804.55 1262.96 1790.34 1249.58C1786.94 1257.55 1800.1 1272.93 1800.1 1272.93C1800.1 1272.93 1785.61 1286.7 1744.37 1271.15C1746.82 1284.47 1758.3 1305.7 1790.62 1312.61Z" fill="#263238"/>
<path d="M1903.52 1342.03H1901.29V1339.14C1906.2 1339.75 1911.18 1338.73 1915.45 1336.24C1919.73 1333.76 1923.08 1329.94 1924.98 1325.37C1927.11 1319.26 1927.27 1312.64 1925.43 1306.44C1923.59 1300.24 1919.84 1294.78 1914.72 1290.82C1909.8 1286.99 1904.43 1283.77 1898.73 1281.24C1885.52 1274.61 1870.53 1267.08 1863.29 1245.18L1866.02 1244.29C1872.87 1265.02 1886.69 1272.15 1900.07 1278.62C1906.02 1281.27 1911.64 1284.64 1916.78 1288.65C1922.41 1292.96 1926.53 1298.95 1928.53 1305.75C1930.53 1312.55 1930.32 1319.81 1927.93 1326.49C1925.97 1331.29 1922.57 1335.36 1918.2 1338.15C1913.83 1340.93 1908.7 1342.29 1903.52 1342.03Z" fill="#263238"/>
<path d="M1846.46 1374.47C1845.23 1377.98 1846.12 1381.6 1848.35 1382.49C1850.58 1383.38 1853.42 1381.26 1854.65 1377.75C1855.88 1374.24 1854.99 1370.62 1852.76 1369.73C1850.53 1368.84 1847.63 1370.84 1846.46 1374.47Z" fill="#263238"/>
<path d="M1888.48 1387.17C1887.31 1390.68 1888.14 1394.25 1890.43 1395.14C1892.71 1396.03 1895.5 1393.97 1896.67 1390.4C1897.84 1386.84 1897.06 1383.33 1894.77 1382.38C1892.49 1381.43 1889.7 1383.6 1888.48 1387.17Z" fill="#263238"/>
<path d="M1873.04 1382.88C1873.48 1395.36 1875.58 1407.73 1879.28 1419.66C1871.15 1423 1861.62 1416.2 1861.62 1416.2L1873.04 1382.88Z" fill="#ED847E"/>
<path d="M1838.94 1424.67C1831.39 1420.51 1825.78 1413.55 1823.33 1405.28C1823.29 1405.15 1823.28 1405 1823.3 1404.86C1823.31 1404.72 1823.36 1404.59 1823.44 1404.47C1823.51 1404.34 1823.61 1404.24 1823.72 1404.16C1823.84 1404.08 1823.97 1404.03 1824.11 1404C1824.25 1403.97 1824.4 1403.96 1824.54 1403.99C1824.68 1404.01 1824.81 1404.07 1824.93 1404.14C1825.05 1404.22 1825.16 1404.32 1825.23 1404.44C1825.31 1404.56 1825.37 1404.7 1825.4 1404.84C1826.82 1409.33 1829.24 1413.44 1832.47 1416.88C1835.7 1420.31 1839.66 1422.98 1844.06 1424.67C1844.34 1424.79 1844.55 1425 1844.67 1425.27C1844.78 1425.54 1844.79 1425.85 1844.68 1426.12C1844.64 1426.26 1844.58 1426.39 1844.49 1426.49C1844.4 1426.6 1844.28 1426.69 1844.15 1426.75C1844.03 1426.81 1843.89 1426.84 1843.74 1426.83C1843.6 1426.83 1843.47 1426.8 1843.34 1426.74C1841.83 1426.15 1840.36 1425.46 1838.94 1424.67Z" fill="#263238"/>
<path d="M1835.04 1351.4C1834.69 1351.21 1834.41 1350.94 1834.2 1350.61C1833.88 1350.13 1833.77 1349.55 1833.88 1348.98C1834 1348.42 1834.33 1347.92 1834.81 1347.61C1837.64 1345.69 1840.89 1344.51 1844.29 1344.17C1847.69 1343.83 1851.11 1344.34 1854.26 1345.66C1854.53 1345.78 1854.77 1345.95 1854.97 1346.16C1855.17 1346.38 1855.33 1346.63 1855.43 1346.9C1855.53 1347.18 1855.58 1347.47 1855.57 1347.76C1855.56 1348.05 1855.5 1348.34 1855.38 1348.61C1855.27 1348.87 1855.11 1349.1 1854.91 1349.29C1854.71 1349.48 1854.47 1349.63 1854.21 1349.73C1853.95 1349.83 1853.67 1349.88 1853.39 1349.87C1853.11 1349.86 1852.84 1349.79 1852.59 1349.67C1850.08 1348.69 1847.36 1348.34 1844.69 1348.64C1842.01 1348.94 1839.44 1349.89 1837.21 1351.4C1836.88 1351.59 1836.5 1351.69 1836.12 1351.69C1835.74 1351.69 1835.37 1351.59 1835.04 1351.4Z" fill="#263238"/>
<path d="M1902.8 1376.75C1902.45 1376.63 1902.14 1376.43 1901.89 1376.17C1901.64 1375.91 1901.45 1375.59 1901.35 1375.25C1900.63 1372.53 1899.31 1370.02 1897.47 1367.89C1895.64 1365.77 1893.34 1364.09 1890.76 1362.99C1890.21 1362.79 1889.75 1362.4 1889.48 1361.88C1889.21 1361.36 1889.15 1360.76 1889.31 1360.2C1889.38 1359.93 1889.51 1359.68 1889.68 1359.46C1889.85 1359.24 1890.07 1359.06 1890.31 1358.92C1890.56 1358.79 1890.83 1358.72 1891.11 1358.69C1891.39 1358.67 1891.67 1358.71 1891.93 1358.81C1895.21 1360.13 1898.14 1362.2 1900.48 1364.85C1902.82 1367.5 1904.51 1370.66 1905.42 1374.08C1905.51 1374.35 1905.55 1374.63 1905.53 1374.92C1905.51 1375.2 1905.44 1375.48 1905.3 1375.74C1905.17 1375.99 1904.99 1376.22 1904.77 1376.4C1904.55 1376.59 1904.3 1376.72 1904.02 1376.81C1903.62 1376.9 1903.19 1376.88 1902.8 1376.75Z" fill="#263238"/>
<path d="M2345.09 2010.07L2376.85 1963.87L2291.31 1889.37L2259.55 1935.56L2345.09 2010.07Z" fill="#FFC3BD"/>
<path d="M2354.9 1942.03L2317.62 1988.45C2316.96 1989.23 2316.61 1990.21 2316.61 1991.23C2316.61 1992.25 2316.96 1993.24 2317.62 1994.02L2346.65 2030.13C2347.34 2030.99 2348.21 2031.68 2349.21 2032.16C2350.2 2032.64 2351.29 2032.89 2352.39 2032.89C2353.49 2032.89 2354.58 2032.64 2355.57 2032.16C2356.57 2031.68 2357.44 2030.99 2358.13 2030.13C2369.89 2014.97 2377.74 2003.33 2392.85 1984.49C2402.15 1972.9 2431.41 1939.02 2444.28 1923.19C2457.15 1907.37 2442.44 1891.76 2435.7 1897.11C2405.44 1921.02 2378.52 1935.68 2362.25 1937.9C2359.37 1938.32 2356.75 1939.79 2354.9 1942.03Z" fill="#263238"/>
<path d="M2352.44 1922.97C2352.71 1922.11 2353.18 1921.32 2353.79 1920.67C2354.41 1920.01 2355.17 1919.5 2356.01 1919.18C2356.6 1918.88 2357.25 1918.72 2357.91 1918.72C2358.57 1918.72 2359.22 1918.88 2359.8 1919.18C2364.87 1922.13 2365.37 1937.63 2365.37 1939.41C2365.37 1939.61 2365.3 1939.81 2365.18 1939.98C2365.06 1940.15 2364.9 1940.28 2364.7 1940.36C2364.53 1940.46 2364.33 1940.52 2364.12 1940.52C2363.91 1940.52 2363.71 1940.46 2363.53 1940.36C2358.96 1936.46 2351.39 1929.21 2352.39 1923.64C2352.38 1923.41 2352.39 1923.19 2352.44 1922.97ZM2363.2 1937.07C2362.75 1930.83 2361.36 1922.58 2358.69 1921.02C2358.43 1920.89 2358.14 1920.83 2357.85 1920.83C2357.56 1920.83 2357.27 1920.89 2357.01 1921.02C2356.37 1921.24 2355.8 1921.63 2355.35 1922.13C2354.91 1922.64 2354.59 1923.26 2354.45 1923.92C2354.06 1926.81 2357.18 1931.66 2363.2 1937.07Z" fill="#407BFF"/>
<path d="M2364.26 1932.44C2365.54 1927.71 2367.99 1922.58 2371.06 1921.3C2371.86 1920.98 2372.75 1920.94 2373.58 1921.17C2374.42 1921.4 2375.15 1921.9 2375.68 1922.58C2376.24 1923.15 2376.66 1923.83 2376.91 1924.59C2377.16 1925.34 2377.23 1926.14 2377.13 1926.93C2376.35 1933.06 2365.54 1939.97 2365.04 1940.24C2364.88 1940.34 2364.7 1940.4 2364.51 1940.4C2364.32 1940.4 2364.14 1940.34 2363.98 1940.24C2363.8 1940.19 2363.65 1940.07 2363.54 1939.92C2363.43 1939.78 2363.37 1939.59 2363.37 1939.41C2363.27 1937.05 2363.58 1934.7 2364.26 1932.44ZM2374.85 1927.37C2374.85 1927.37 2374.85 1926.98 2374.85 1926.76C2374.92 1926.26 2374.87 1925.75 2374.7 1925.28C2374.54 1924.81 2374.26 1924.38 2373.9 1924.03C2373.01 1923.03 2372.34 1923.08 2371.84 1923.3C2368.88 1924.42 2365.76 1932.33 2365.37 1937.51C2369.4 1935.06 2372.68 1931.56 2374.85 1927.37Z" fill="#407BFF"/>
<path opacity="0.2" d="M2259.55 1935.56L2291.31 1889.37L2335.45 1927.76L2299 1969.95L2259.55 1935.56Z" fill="black"/>
<path d="M1798.87 1882.9C1798.87 1882.9 2042.39 1635.48 2152 1741.36C2220.26 1807.34 2320.57 1898.23 2320.57 1898.23L2262.45 1954.79C2262.45 1954.79 2115.22 1876.5 2076.88 1833.25C1875.72 2058.16 1695.95 2073.54 1712.11 1900.12C1740.62 1892.51 1769.61 1886.75 1798.87 1882.9Z" fill="#407BFF"/>
<path d="M2337.9 1898.73L2274.04 1978.97L2246.96 1960.81L2312.21 1875.6L2337.9 1898.73Z" fill="#263238"/>
<path d="M1712.72 1580.43L1717.51 1681.85C1718.4 1698.56 1719.46 1715.28 1720.74 1732C1721.41 1740.19 1722.3 1748.27 1723.19 1756.02C1723.7 1759.92 1724.2 1763.71 1724.81 1767.16C1725.42 1770.62 1726.09 1773.85 1726.54 1775.8C1726.56 1776.1 1726.56 1776.39 1726.54 1776.69C1725.62 1775.03 1724.32 1773.62 1722.75 1772.57C1721.84 1771.91 1720.82 1771.42 1719.74 1771.12C1719.13 1771.12 1718.79 1771.12 1719.07 1771.12C1723.63 1771.82 1728.29 1771.52 1732.72 1770.23C1747.46 1766.55 1761.82 1761.45 1775.58 1755.01C1790.46 1748.49 1805.28 1740.97 1820.16 1733.17C1835.04 1725.37 1849.91 1717.06 1864.35 1708.98L1885.19 1736.85C1859.06 1761.16 1830.68 1782.94 1800.43 1801.88C1792.68 1806.62 1784.66 1811.18 1776.19 1815.48C1767.34 1820.04 1758.16 1823.91 1748.72 1827.07C1743.34 1828.84 1737.85 1830.22 1732.28 1831.19C1725.43 1832.47 1718.43 1832.8 1711.49 1832.19C1707.01 1831.77 1702.59 1830.8 1698.34 1829.3C1693.22 1827.49 1688.41 1824.92 1684.08 1821.66C1679.56 1818.16 1675.66 1813.92 1672.54 1809.12C1671.12 1806.93 1669.85 1804.64 1668.75 1802.27L1666.63 1797.14C1664.68 1791.83 1663.02 1786.42 1661.67 1780.93C1660.45 1775.97 1659.44 1771.34 1658.55 1766.72C1656.71 1757.52 1655.32 1748.55 1654.1 1739.69C1651.53 1721.97 1649.69 1704.47 1648.13 1687.03C1645.01 1652.14 1643.17 1617.65 1642.56 1582.6L1712.72 1580.43Z" fill="#FFC3BD"/>
<path d="M1695.61 1515.06C1669.36 1518.01 1630.08 1542.92 1628.74 1658.72L1741.31 1649.86C1741.31 1649.86 1794.36 1503.75 1695.61 1515.06Z" fill="#263238"/>
<path d="M1959.02 1650.31L1917.23 1653.04C1914.76 1653.38 1912.46 1654.45 1910.61 1656.12C1908.76 1657.79 1907.46 1659.98 1906.87 1662.4L1887.31 1754.23C1886.97 1755.23 1886.9 1756.3 1887.08 1757.33C1887.27 1758.37 1887.71 1759.34 1888.37 1760.16C1889.03 1760.98 1889.89 1761.63 1890.86 1762.03C1891.83 1762.44 1892.89 1762.59 1893.94 1762.48L1935.73 1759.75C1938.2 1759.42 1940.52 1758.35 1942.37 1756.68C1944.22 1755.01 1945.52 1752.81 1946.1 1750.39L1965.66 1658.55C1965.99 1657.55 1966.06 1656.49 1965.88 1655.45C1965.69 1654.42 1965.25 1653.44 1964.59 1652.62C1963.93 1651.8 1963.07 1651.16 1962.1 1650.76C1961.13 1650.35 1960.07 1650.2 1959.02 1650.31Z" fill="#407BFF"/>
<path d="M1867.75 1706.81L1902.35 1694.77L1893.83 1749C1893.83 1749 1855.26 1757.47 1852.09 1736.74L1857.66 1718.29C1858.36 1715.74 1859.64 1713.38 1861.38 1711.39C1863.13 1709.4 1865.31 1707.84 1867.75 1706.81Z" fill="#FFC3BD"/>
<path d="M1941.92 1699.34L1926.93 1747.6L1893.83 1749L1902.35 1694.77L1941.92 1699.34Z" fill="#FFC3BD"/>
<path d="M743.265 562.826C716.071 499.689 864.356 433.599 906.261 531.898C977.423 562.826 886.479 694.338 907.041 716.628C927.604 738.918 943.096 711.891 943.096 711.891C943.096 711.891 963.881 767.282 910.886 811.639C863.408 851.483 720.584 862.294 720.25 783.777C719.804 681.688 778.929 645.578 743.265 562.826Z" fill="#263238"/>
<path d="M879.625 1888.31L839.725 1911.55L743.934 1802.05L793.641 1757.19L879.625 1888.31Z" fill="#FF8B7B"/>
<path d="M835.156 1901.52L876.337 1869.92C876.981 1869.34 877.814 1869.03 878.677 1869.03C879.541 1869.03 880.374 1869.34 881.018 1869.92L908.323 1896.89C908.991 1897.65 909.491 1898.53 909.79 1899.5C910.09 1900.46 910.182 1901.47 910.061 1902.47C909.94 1903.47 909.608 1904.44 909.088 1905.3C908.567 1906.16 907.87 1906.9 907.042 1907.48C892.553 1918.23 885.03 1922.75 866.919 1936.68C855.774 1945.2 833.484 1963.93 818.215 1975.69C802.947 1987.44 791.356 1973.9 796.761 1967.72C821.169 1939.85 826.463 1923.14 830.196 1908.26C831.041 1905.52 832.789 1903.14 835.156 1901.52Z" fill="#263238"/>
<path d="M825.905 1918.01C823.04 1920.68 819.381 1922.34 815.485 1922.75C814.556 1922.71 813.651 1922.44 812.853 1921.96C812.055 1921.49 811.389 1920.82 810.915 1920.02C810.642 1919.51 810.499 1918.95 810.499 1918.37C810.499 1917.8 810.642 1917.23 810.915 1916.73C813.701 1911.16 833.54 1906.75 835.769 1906.25C835.983 1906.22 836.203 1906.25 836.401 1906.34C836.599 1906.43 836.766 1906.57 836.883 1906.75C836.991 1906.94 837.047 1907.15 837.047 1907.37C837.047 1907.58 836.991 1907.79 836.883 1907.98C833.537 1911.65 829.863 1915.01 825.905 1918.01ZM814.091 1915.95C813.508 1916.35 813.031 1916.88 812.698 1917.51C812.574 1917.7 812.507 1917.92 812.507 1918.15C812.507 1918.38 812.574 1918.6 812.698 1918.79C812.988 1919.33 813.413 1919.78 813.931 1920.1C814.449 1920.42 815.042 1920.61 815.652 1920.63C819.274 1920.63 825.571 1916.51 832.704 1909.04C826.163 1910.31 819.875 1912.64 814.091 1915.95Z" fill="#407BFF"/>
<path d="M836.382 1908.09H835.936C830.363 1909.6 816.042 1908.82 813.646 1904.41C813.144 1903.41 812.977 1901.68 815.206 1899.62C816.794 1898.14 818.887 1897.33 821.057 1897.34C828.357 1897.34 836.159 1905.97 836.437 1906.36C836.531 1906.51 836.581 1906.69 836.581 1906.87C836.581 1907.04 836.531 1907.22 836.437 1907.37C836.492 1907.61 836.473 1907.86 836.382 1908.09ZM817.212 1900.9L816.71 1901.35C815.262 1902.69 815.596 1903.35 815.707 1903.58C817.045 1906.25 827.243 1907.53 833.595 1906.64C830.27 1903.01 825.847 1900.56 821.001 1899.68C819.636 1899.65 818.301 1900.08 817.212 1900.9Z" fill="#407BFF"/>
<path d="M734.571 791.746C731.952 803.727 728.999 814.537 725.655 825.738C722.312 836.939 718.857 848.028 714.845 858.727C707.135 880.713 698.091 902.207 687.762 923.09L679.57 938.693C676.617 943.82 673.998 948.947 670.654 954.018L665.862 961.541C664.19 964.104 662.909 966.389 660.624 969.398C659.509 970.847 658.395 972.296 656.89 974.023C654.998 976.254 652.867 978.272 650.538 980.041C647.72 982.198 644.469 983.719 641.009 984.499C639.399 984.861 637.755 985.048 636.105 985.057C634.087 985.078 632.077 984.796 630.142 984.221C626.527 983.243 623.238 981.32 620.613 978.648C617.982 976.014 616.065 972.754 615.041 969.175C614.524 967.523 614.169 965.825 613.982 964.104C613.546 960.085 613.546 956.031 613.982 952.012C614.372 948.668 614.929 945.547 615.486 942.538C616.601 936.464 618.05 930.78 619.554 925.096C622.683 913.91 626.403 902.898 630.699 892.107L652.99 897.011L651.485 930.446C651.485 936.018 651.151 941.257 651.095 946.383C651.095 948.947 651.095 951.454 651.095 953.683C651.084 955.287 651.309 956.883 651.764 958.42C651.764 958.42 651.764 958.42 651.764 957.417C651.076 955.309 649.891 953.398 648.309 951.844C646.149 949.646 643.464 948.035 640.507 947.164C638.906 946.732 637.26 946.489 635.603 946.439C634.292 946.462 632.985 946.611 631.702 946.885C629.707 947.371 627.818 948.221 626.13 949.393C624.96 950.228 625.405 949.783 625.628 949.393L626.91 947.219L634.377 933.845C636.885 929.164 639.17 924.372 641.622 919.635L648.476 905.147C657.169 885.476 665.193 865.247 671.88 844.629C675.335 834.32 678.512 823.899 681.688 813.478C684.864 803.058 687.706 792.303 690.214 782.439L734.571 791.746Z" fill="#FF8B7B"/>
<path d="M715.513 733.735C699.353 736.355 673.719 839.056 673.719 839.056L710.999 867.755C710.999 867.755 748.391 793.529 750.007 760.149C751.122 735.965 727.717 731.785 715.513 733.735Z" fill="#FF8B7B"/>
<path d="M657.058 901.97L650.761 850.926L621.505 893.834C622.75 899.006 625.473 903.704 629.342 907.355C633.211 911.006 638.058 913.453 643.294 914.397L657.058 901.97Z" fill="#FF8B7B"/>
<path d="M861.514 1974.96L816.934 1976.47L808.408 1820.88L870.263 1821.77L861.514 1974.96Z" fill="#FF8B7B"/>
<path d="M813.924 1962.26L864.077 1961.92C864.916 1961.89 865.734 1962.19 866.358 1962.75C866.982 1963.31 867.363 1964.09 867.421 1964.93L870.43 2004.44C870.46 2006.51 869.668 2008.52 868.227 2010.01C866.787 2011.5 864.814 2012.36 862.74 2012.41C845.353 2012.41 836.995 2011.24 815.039 2011.41C801.498 2011.41 781.604 2013.02 762.991 2013.19C744.379 2013.36 744.546 1994.86 752.459 1993.13C787.845 1985.38 794.03 1975.02 806.457 1965.27C808.554 1963.48 811.175 1962.42 813.924 1962.26Z" fill="#263238"/>
<path d="M712.783 733.401C712.783 733.401 690.493 738.974 690.493 1002.72L869.315 1018.55C878.287 945.046 885.531 899.853 944.767 752.626C920.464 745.186 895.633 739.597 870.486 735.909C843.651 731.545 816.533 729.142 789.349 728.72C753.685 728.776 712.783 733.401 712.783 733.401Z" fill="#407BFF"/>
<path opacity="0.2" d="M909.27 786.284L918.799 818.772C911.332 838.889 905.147 856.666 899.964 872.659C896.015 843.539 899.209 813.895 909.27 786.284Z" fill="black"/>
<path d="M650.761 850.926L621.505 893.834L657.058 891.772L676.004 852.542L650.761 850.926Z" fill="#FF8B7B"/>
<path d="M669.317 949.615L702.752 949.114C703.853 949.093 704.938 948.838 705.934 948.368C706.929 947.898 707.814 947.222 708.53 946.385C709.246 945.548 709.777 944.569 710.087 943.512C710.398 942.455 710.481 941.345 710.331 940.254L699.91 865.303C699.663 863.422 698.73 861.7 697.29 860.465C695.85 859.231 694.005 858.572 692.109 858.616L658.674 859.117C657.572 859.122 656.484 859.363 655.484 859.824C654.484 860.285 653.594 860.956 652.875 861.791C652.157 862.626 651.626 863.605 651.319 864.663C651.012 865.721 650.935 866.832 651.095 867.922L661.516 942.873C661.762 944.758 662.693 946.487 664.131 947.731C665.57 948.974 667.416 949.645 669.317 949.615Z" fill="#263238"/>
<path d="M877.172 643.126C867.755 668.983 854.882 716.684 870.207 735.853C843.55 758.139 813.678 776.269 781.603 789.628C762.935 746.051 789.071 728.664 789.071 728.664C819.33 724.262 822.116 702.418 820.333 681.521L877.172 643.126Z" fill="#FF8B7B"/>
<path d="M754.688 613.48C750.007 690.883 703.477 713.061 714.399 752.794C729.835 808.519 792.804 764.886 792.804 764.886C792.804 764.886 758.533 776.031 756.36 748.949C754.577 726.658 833.707 730.113 811.751 677.676C797.653 643.906 754.688 613.48 754.688 613.48Z" fill="#263238"/>
<path opacity="0.2" d="M860.957 662.686L820.389 681.521C820.834 686.415 820.834 691.339 820.389 696.232C828.859 697.012 850.815 690.66 859.118 676.951C861.418 672.57 862.071 667.508 860.957 662.686Z" fill="black"/>
<path d="M884.194 570.349C888.262 614.26 890.937 632.817 872.38 658.562C844.517 697.291 789.628 692.722 772.52 650.816C757.084 613.146 753.016 547.613 792.972 523.707C801.75 518.378 811.745 515.384 822.008 515.009C832.27 514.635 842.457 516.892 851.601 521.567C860.744 526.242 868.539 533.179 874.244 541.717C879.949 550.256 883.374 560.112 884.194 570.349Z" fill="#FF8B7B"/>
<path d="M874.498 526.27C839.837 502.475 811.027 548.17 872.547 592.583C934.068 636.996 913.896 553.297 874.498 526.27Z" fill="#263238"/>
<path d="M856.053 513.509C870.374 526.381 785.115 573.859 738.751 558.089C692.388 542.319 729.612 506.933 746.497 502.364C732.008 516.351 757.363 537.582 769.623 524.32C781.882 511.057 827.299 487.708 856.053 513.509Z" fill="#263238"/>
<path d="M690.27 1002.72C690.27 1002.72 595.927 1402.22 604.23 1503.08C613.87 1620.99 742.819 1811.07 742.819 1811.07L802.055 1757.3C802.055 1757.3 743.265 1601.6 699.743 1500.18C713.675 1398.76 836.828 1112.22 836.828 1015.71L690.27 1002.72Z" fill="#407BFF"/>
<path opacity="0.6" d="M690.27 1002.72C690.27 1002.72 595.927 1402.22 604.23 1503.08C613.87 1620.99 742.819 1811.07 742.819 1811.07L802.055 1757.3C802.055 1757.3 743.265 1601.6 699.743 1500.18C713.675 1398.76 836.828 1112.22 836.828 1015.71L690.27 1002.72Z" fill="black"/>
<path d="M812.977 1765.32L742.986 1817.48L725.042 1803.83L801.832 1743.26L812.977 1765.32Z" fill="#407BFF"/>
<path opacity="0.2" d="M760.094 1178.42C708.102 1250.42 705.594 1382.82 708.826 1457.05C726.659 1388.73 764.05 1286.7 793.863 1194.75C793.139 1159.53 784.39 1144.71 760.094 1178.42Z" fill="black"/>
<path d="M723.816 1003.06C723.816 1003.06 758.366 1348.05 769.901 1464.52C783.61 1602.77 803.727 1824.5 803.727 1824.5L870.263 1821.72C870.263 1821.72 884.863 1633.76 874.052 1509.66C876.002 1345.27 900.243 1121.75 869.037 1018.32L723.816 1003.06Z" fill="#407BFF"/>
<path opacity="0.6" d="M723.816 1003.06C723.816 1003.06 758.366 1348.05 769.901 1464.52C783.61 1602.77 803.727 1824.5 803.727 1824.5L870.263 1821.72C870.263 1821.72 884.863 1633.76 874.052 1509.66C876.002 1345.27 900.243 1121.75 869.037 1018.32L723.816 1003.06Z" fill="black"/>
<path d="M875.333 1833.92L798.99 1831.75L793.64 1807.73L880.014 1805.33L875.333 1833.92Z" fill="#407BFF"/>
<path d="M815.875 594.589C816.432 598.1 814.983 601.276 812.643 601.666C810.302 602.057 808.017 599.437 807.46 596.094C806.903 592.75 808.352 589.407 810.692 589.017C813.033 588.627 815.317 591.023 815.875 594.589Z" fill="#263238"/>
<path d="M775.808 600.775C776.365 604.341 774.917 607.518 772.576 607.852C770.236 608.186 767.951 605.623 767.394 602.279C766.836 598.936 768.285 595.537 770.626 595.202C772.966 594.868 775.251 597.264 775.808 600.775Z" fill="#263238"/>
<path d="M771.629 595.035L762.769 593.921C762.769 593.921 768.174 599.883 771.629 595.035Z" fill="#263238"/>
<path d="M788.959 604.286C787.038 612.853 783.964 621.12 779.82 628.86C781.826 629.865 784.027 630.42 786.269 630.488C788.512 630.555 790.742 630.133 792.804 629.25L788.959 604.286Z" fill="#FF5652"/>
<path d="M815.875 639.002C814.066 639.644 812.2 640.111 810.302 640.396C810.029 640.445 809.747 640.385 809.518 640.228C809.289 640.072 809.13 639.832 809.076 639.56C809.052 639.42 809.057 639.278 809.089 639.14C809.121 639.003 809.18 638.873 809.264 638.759C809.347 638.645 809.452 638.548 809.573 638.475C809.694 638.402 809.828 638.354 809.968 638.334C814.397 637.76 818.627 636.142 822.308 633.613C825.99 631.085 829.018 627.718 831.143 623.789C831.274 623.55 831.488 623.366 831.745 623.274C832.001 623.181 832.283 623.186 832.536 623.288C832.665 623.343 832.781 623.422 832.878 623.522C832.976 623.621 833.053 623.739 833.104 623.869C833.156 623.998 833.182 624.137 833.18 624.276C833.178 624.415 833.149 624.553 833.094 624.681C829.443 631.519 823.263 636.658 815.875 639.002Z" fill="#263238"/>
<path d="M896.398 600.329C896.099 604.595 894.96 608.76 893.048 612.585C891.135 616.41 888.486 619.82 885.253 622.619C876.671 629.975 867.588 623.511 865.972 612.867C864.467 603.338 867.198 588.014 877.73 585.004C880.016 584.302 882.44 584.177 884.787 584.639C887.133 585.102 889.329 586.138 891.177 587.656C893.026 589.173 894.47 591.125 895.381 593.336C896.292 595.547 896.641 597.95 896.398 600.329Z" fill="#FF8B7B"/>
<path d="M834.097 572.634C833.819 572.689 833.532 572.688 833.255 572.63C832.977 572.573 832.714 572.46 832.481 572.299C830.352 570.718 827.877 569.665 825.26 569.229C822.644 568.793 819.962 568.986 817.435 569.792C817.179 569.899 816.905 569.955 816.627 569.954C816.35 569.953 816.076 569.896 815.821 569.787C815.566 569.678 815.335 569.518 815.144 569.318C814.952 569.118 814.802 568.881 814.704 568.621C814.502 568.104 814.511 567.527 814.73 567.016C814.949 566.506 815.36 566.101 815.875 565.891C819.045 564.811 822.43 564.516 825.739 565.031C829.048 565.545 832.184 566.854 834.877 568.844C835.329 569.16 835.639 569.639 835.743 570.18C835.847 570.721 835.736 571.281 835.434 571.742C835.104 572.184 834.632 572.499 834.097 572.634Z" fill="#263238"/>
<path d="M758.422 585.395C758.177 585.505 757.911 585.563 757.642 585.563C757.373 585.563 757.107 585.505 756.862 585.395C756.61 585.281 756.384 585.118 756.196 584.915C756.009 584.712 755.864 584.474 755.77 584.214C755.677 583.954 755.636 583.678 755.652 583.402C755.667 583.126 755.737 582.856 755.859 582.608C757.179 579.536 759.22 576.827 761.811 574.713C764.401 572.598 767.463 571.139 770.737 570.46C771.271 570.421 771.8 570.585 772.217 570.92C772.635 571.255 772.91 571.735 772.988 572.265C773.066 572.794 772.94 573.334 772.636 573.774C772.332 574.215 771.873 574.524 771.35 574.64C768.767 575.222 766.359 576.41 764.324 578.105C762.289 579.801 760.687 581.955 759.648 584.392C759.522 584.633 759.349 584.847 759.138 585.019C758.927 585.192 758.684 585.319 758.422 585.395Z" fill="#263238"/>
<path d="M956.525 806.123C957.361 814.203 957.807 821.28 958.03 828.803C958.253 836.326 958.42 843.57 958.364 851.093C958.141 865.953 957.194 880.813 955.522 895.673C953.814 910.715 951.02 925.614 947.164 940.254C945.174 947.815 942.755 955.257 939.919 962.544C938.526 966.222 936.966 969.899 935.35 973.689C935.35 973.689 934.514 975.472 933.957 976.475C933.368 977.63 932.678 978.73 931.895 979.763C930.518 981.799 928.91 983.669 927.102 985.335C924.17 987.846 920.884 989.911 917.351 991.465C912.303 993.578 906.969 994.93 901.525 995.477C897.177 995.957 892.802 996.143 888.429 996.035C880.556 995.822 872.703 995.134 864.913 993.973C850.316 991.665 835.861 988.54 821.614 984.611C807.627 980.766 793.752 976.531 780.21 972.017C766.669 967.503 753.184 962.488 739.754 956.86L746.72 935.461C760.261 938.415 774.025 941.535 787.733 944.154C801.442 946.773 815.095 949.727 828.692 951.733C842.289 953.739 855.885 955.801 869.037 956.637C875.321 957.133 881.63 957.245 887.928 956.971C890.618 956.843 893.299 956.545 895.952 956.08C897.557 955.829 899.116 955.34 900.577 954.631C900.577 954.631 900.577 954.631 899.741 955.076C899.228 955.471 898.777 955.941 898.404 956.47L897.735 957.473C897.735 957.473 897.234 958.587 897.735 957.863C898.794 954.965 899.853 952.29 900.744 949.058C902.639 943.04 904.199 936.854 905.592 930.557C908.201 917.673 910.062 904.649 911.165 891.55C912.391 878.287 912.781 864.801 912.781 851.316C912.781 844.573 912.781 837.83 912.781 831.088C912.781 824.345 912.168 817.379 911.778 811.361L956.525 806.123Z" fill="#FF8B7B"/>
<path d="M944.322 752.626C963.547 765.165 957.027 874.442 957.027 874.442L911.778 883.525C911.778 883.525 911.388 827.8 906.54 791.634C903.252 767.059 930.613 743.655 944.322 752.626Z" fill="#FF8B7B"/>
<path d="M789.405 1967.44C788.862 1966.72 788.493 1965.88 788.329 1964.99C788.164 1964.1 788.209 1963.18 788.458 1962.31C788.561 1961.67 788.825 1961.06 789.224 1960.54C789.623 1960.03 790.145 1959.62 790.742 1959.36C796.315 1956.96 809.02 1965.6 810.469 1966.55C810.633 1966.66 810.758 1966.83 810.827 1967.02C810.897 1967.21 810.908 1967.41 810.859 1967.61C810.81 1967.81 810.707 1968.01 810.56 1968.16C810.414 1968.32 810.229 1968.43 810.023 1968.5C804.172 1969.89 793.752 1971.67 789.851 1967.88L789.405 1967.44ZM807.126 1966.99C801.553 1963.71 794.309 1959.97 791.467 1961.42C791.207 1961.54 790.984 1961.73 790.818 1961.96C790.652 1962.2 790.549 1962.47 790.52 1962.76C790.315 1963.4 790.285 1964.08 790.432 1964.74C790.579 1965.39 790.897 1966 791.355 1966.49C793.473 1968.39 799.268 1968.61 807.126 1967.1V1966.99Z" fill="#407BFF"/>
<path d="M804.005 1963.48C802.428 1961.9 801.179 1960.02 800.328 1957.96C799.477 1955.89 799.041 1953.68 799.046 1951.45C799.29 1950.62 799.786 1949.89 800.466 1949.36C801.146 1948.83 801.974 1948.53 802.835 1948.49C803.614 1948.37 804.41 1948.43 805.163 1948.66C805.916 1948.89 806.607 1949.29 807.182 1949.83C811.696 1954.06 810.915 1966.88 810.86 1967.44C810.851 1967.63 810.796 1967.82 810.699 1967.98C810.602 1968.15 810.466 1968.29 810.302 1968.39C810.138 1968.47 809.957 1968.51 809.773 1968.51C809.589 1968.51 809.408 1968.47 809.244 1968.39C807.251 1967.04 805.483 1965.38 804.005 1963.48ZM806.123 1951.89C805.989 1951.73 805.84 1951.58 805.677 1951.45C805.319 1951.1 804.887 1950.84 804.414 1950.69C803.942 1950.53 803.44 1950.49 802.947 1950.55C801.554 1950.55 801.275 1951.33 801.108 1951.84C800.272 1954.9 804.841 1962.09 808.854 1965.43C809.223 1960.75 808.277 1956.06 806.123 1951.89Z" fill="#407BFF"/>
<path d="M873.439 1008.18L875.389 1024.9C875.835 1026.18 874.163 1027.35 872.102 1027.13L688.208 1010.86C686.592 1010.86 685.366 1009.8 685.422 1008.8L686.481 992.524C686.481 991.409 688.097 990.574 689.824 990.741L870.876 1006.79C871.387 1006.78 871.892 1006.9 872.341 1007.15C872.791 1007.39 873.169 1007.75 873.439 1008.18Z" fill="white"/>
<path d="M845.799 1026.46L850.647 1026.85C851.65 1026.85 852.431 1026.52 852.486 1025.9L853.601 1004.78C853.601 1004.17 852.876 1003.56 851.929 1003.5L847.025 1003.06C846.078 1003.06 845.242 1003.39 845.186 1004L844.072 1025.18C844.072 1025.79 844.852 1026.35 845.799 1026.46Z" fill="#407BFF"/>
<path opacity="0.6" d="M845.799 1026.46L850.647 1026.85C851.65 1026.85 852.431 1026.52 852.486 1025.9L853.601 1004.78C853.601 1004.17 852.876 1003.56 851.929 1003.5L847.025 1003.06C846.078 1003.06 845.242 1003.39 845.186 1004L844.072 1025.18C844.072 1025.79 844.852 1026.35 845.799 1026.46Z" fill="black"/>
<path d="M701.415 1013.64L706.263 1014.09C707.266 1014.09 708.046 1013.76 708.102 1013.14L709.216 991.967C709.216 991.354 708.492 990.796 707.545 990.685L702.696 990.295C701.693 990.295 700.913 990.629 700.858 991.242L699.743 1012.36C699.687 1012.98 700.467 1013.59 701.415 1013.64Z" fill="#407BFF"/>
<path opacity="0.6" d="M701.415 1013.64L706.263 1014.09C707.266 1014.09 708.046 1013.76 708.102 1013.14L709.216 991.967C709.216 991.354 708.492 990.796 707.545 990.685L702.696 990.295C701.693 990.295 700.913 990.629 700.858 991.242L699.743 1012.36C699.687 1012.98 700.467 1013.59 701.415 1013.64Z" fill="black"/>
<path d="M773.635 1020.05L778.483 1020.5C779.431 1020.5 780.267 1020.11 780.267 1019.5L781.437 998.375C781.437 997.762 780.712 997.205 779.709 997.093L774.861 996.648C773.914 996.648 773.078 997.038 773.078 997.651L771.908 1018.77C771.908 1019.38 772.688 1019.77 773.635 1020.05Z" fill="#407BFF"/>
<path opacity="0.6" d="M773.635 1020.05L778.483 1020.5C779.431 1020.5 780.267 1020.11 780.267 1019.5L781.437 998.375C781.437 997.762 780.712 997.205 779.709 997.093L774.861 996.648C773.914 996.648 773.078 997.038 773.078 997.651L771.908 1018.77C771.908 1019.38 772.688 1019.77 773.635 1020.05Z" fill="black"/>
<path d="M753.685 936.799L725.823 899.63L714.232 944.21C714.232 944.21 734.962 962.321 752.571 955.355L753.685 936.799Z" fill="#FF8B7B"/>
<path d="M690.158 891.438L682.413 929.053L720.027 948.278L725.99 899.63L690.158 891.438Z" fill="#FF8B7B"/>
<path d="M811.751 588.85L802.835 587.735C802.835 587.735 808.017 593.698 811.751 588.85Z" fill="#263238"/>
</svg>
