<svg width="289" height="215" viewBox="0 0 289 215" fill="none" xmlns="http://www.w3.org/2000/svg">
<path d="M288.544 188.939H0V189.083H288.544V188.939Z" fill="#EBEBEB"/>
<path d="M136.77 163.2H25.34C24.4671 163.199 23.6304 162.851 23.0137 162.233C22.397 161.616 22.0506 160.778 22.0506 159.905V3.26632C22.0582 2.39839 22.4079 1.56851 23.0238 0.956938C23.6397 0.345363 24.472 0.0014868 25.34 0H136.77C137.644 0 138.482 0.347169 139.1 0.965134C139.718 1.5831 140.065 2.42124 140.065 3.29517V159.905C140.065 160.779 139.718 161.617 139.1 162.235C138.482 162.853 137.644 163.2 136.77 163.2ZM25.34 0.115418C24.5053 0.116947 23.7054 0.449589 23.1157 1.04033C22.526 1.63107 22.1949 2.43165 22.1949 3.26632V159.905C22.1949 160.74 22.526 161.541 23.1157 162.131C23.7054 162.722 24.5053 163.055 25.34 163.056H136.77C137.605 163.055 138.406 162.722 138.996 162.132C139.587 161.541 139.919 160.741 139.921 159.905V3.26632C139.919 2.43112 139.587 1.63056 138.996 1.03998C138.406 0.449402 137.605 0.116944 136.77 0.115418H25.34Z" fill="#EBEBEB"/>
<path d="M261.6 163.2H150.164C149.291 163.199 148.453 162.851 147.836 162.234C147.218 161.616 146.87 160.779 146.869 159.905V3.26632C146.878 2.39787 147.229 1.56799 147.846 0.956577C148.463 0.345161 149.296 0.00147059 150.164 0H261.6C262.467 0.00300345 263.298 0.347551 263.912 0.958963C264.527 1.57038 264.876 2.39939 264.883 3.26632V159.905C264.883 160.777 264.538 161.614 263.922 162.231C263.307 162.849 262.472 163.197 261.6 163.2ZM150.164 0.115418C149.329 0.116944 148.528 0.449402 147.938 1.03998C147.347 1.63056 147.015 2.43112 147.013 3.26632V159.905C147.015 160.741 147.347 161.541 147.938 162.132C148.528 162.722 149.329 163.055 150.164 163.056H261.6C262.435 163.055 263.236 162.722 263.826 162.132C264.417 161.541 264.749 160.741 264.751 159.905V3.26632C264.749 2.43112 264.417 1.63056 263.826 1.03998C263.236 0.449402 262.435 0.116944 261.6 0.115418H150.164Z" fill="#EBEBEB"/>
<path d="M259.632 194.432H241.413V194.577H259.632V194.432Z" fill="#EBEBEB"/>
<path d="M193.521 192.869H174.24V193.013H193.521V192.869Z" fill="#EBEBEB"/>
<path d="M264.895 199.794H228.867V199.938H264.895V199.794Z" fill="#EBEBEB"/>
<path d="M41.3715 198.824H30.274V198.968H41.3715V198.824Z" fill="#EBEBEB"/>
<path d="M63.9933 198.824H46.5133V198.968H63.9933V198.824Z" fill="#EBEBEB"/>
<path d="M140.89 196.389H109.404V196.533H140.89V196.389Z" fill="#EBEBEB"/>
<path d="M174.84 82.5468L248.148 82.5468V22.0737L174.84 22.0737V82.5468Z" fill="#F0F0F0"/>
<path d="M164.216 82.5468L246.111 82.5468V22.0737L164.216 22.0737V82.5468Z" fill="#F5F5F5"/>
<path d="M168.983 26.846V77.7856H241.35V26.846L168.983 26.846Z" fill="white"/>
<path d="M168.977 26.8461V43.0911L241.344 43.0911V26.8461L168.977 26.8461Z" fill="#FAFAFA"/>
<path d="M212.366 73.679C221.965 69.7029 226.523 58.6978 222.547 49.0985C218.571 39.4993 207.566 34.9408 197.967 38.917C188.368 42.8931 183.809 53.8982 187.785 63.4974C191.761 73.0967 202.766 77.6551 212.366 73.679Z" fill="#E6E6E6"/>
<path d="M168.977 56.3006V77.7856H241.344V56.3006H168.977Z" fill="#F0F0F0"/>
<path d="M44.8744 121.287L130.866 121.287V12.846L44.8744 12.846L44.8744 121.287Z" fill="#E6E6E6"/>
<path d="M40.5866 121.287L128.864 121.287V12.846L40.5866 12.846L40.5866 121.287Z" fill="#F0F0F0"/>
<path d="M122.862 116.41V84.4627H46.5883V116.41H122.862Z" fill="#F5F5F5"/>
<path d="M120.865 82.7197V19.4824L48.5792 19.4824V82.7197H120.865Z" fill="#FAFAFA"/>
<path d="M49.341 82.7197L49.341 19.4824H48.585L48.585 82.7197H49.341Z" fill="#E6E6E6"/>
<path d="M109.329 82.7141L84.0702 19.4768H68.3157L93.5748 82.7141H109.329Z" fill="white"/>
<path d="M90.1873 82.7141L64.9282 19.4768H58.788L84.0471 82.7141H90.1873Z" fill="white"/>
<path d="M48.0253 116.405V85.4091H46.5883V116.405H48.0253Z" fill="#E6E6E6"/>
<path d="M42.491 87.3308L126.959 87.3308V81.583L42.491 81.583V87.3308Z" fill="#F0F0F0"/>
<path d="M153.505 9.23346H17.0183C16.6106 9.23193 16.2202 9.06892 15.9325 8.78012C15.6448 8.49133 15.4832 8.10029 15.4832 7.69263C15.4848 7.28598 15.647 6.89641 15.9345 6.60886C16.2221 6.32131 16.6116 6.1591 17.0183 6.15758H153.505C153.913 6.15757 154.304 6.31912 154.593 6.60683C154.882 6.89455 155.045 7.28498 155.046 7.69263C155.045 8.10082 154.882 8.49185 154.593 8.78048C154.305 9.06911 153.914 9.23194 153.505 9.23346Z" fill="#EBEBEB"/>
<path d="M138.311 2.0545H126.959V142.35H138.311V2.0545Z" fill="#FAFAFA"/>
<path d="M134.744 2.0545H131.853V142.35H134.744V2.0545Z" fill="#F0F0F0"/>
<path d="M145.415 2.0545H134.063V142.35H145.415V2.0545Z" fill="#FAFAFA"/>
<path d="M141.848 2.0545H138.957V142.35H141.848V2.0545Z" fill="#F0F0F0"/>
<path d="M152.42 2.0545H141.069V142.35H152.42V2.0545Z" fill="#FAFAFA"/>
<path d="M147.406 2.0545H145.957V142.35H147.406V2.0545Z" fill="#F0F0F0"/>
<path d="M30.7703 2.0545H19.419V142.35H30.7703V2.0545Z" fill="#FAFAFA"/>
<path d="M27.2039 2.0545H24.3127V142.35H27.2039V2.0545Z" fill="#F0F0F0"/>
<path d="M37.8743 2.0545H26.5229V142.35H37.8743V2.0545Z" fill="#FAFAFA"/>
<path d="M34.3079 2.0545H31.4167V142.35H34.3079V2.0545Z" fill="#F0F0F0"/>
<path d="M44.8802 2.0545H33.5289V142.35H44.8802V2.0545Z" fill="#FAFAFA"/>
<path d="M39.8652 2.0545H38.4167V142.35H39.8652V2.0545Z" fill="#F0F0F0"/>
<path d="M104.032 127.392H78.3916C74.8761 127.392 72.0263 130.242 72.0263 133.757V182.573C72.0263 186.089 74.8761 188.939 78.3916 188.939H104.032C107.547 188.939 110.397 186.089 110.397 182.573V133.757C110.397 130.242 107.547 127.392 104.032 127.392Z" fill="#F5F5F5"/>
<path d="M115.516 127.392H89.8757C86.3602 127.392 83.5104 130.242 83.5104 133.757V182.573C83.5104 186.089 86.3602 188.939 89.8757 188.939H115.516C119.031 188.939 121.881 186.089 121.881 182.573V133.757C121.881 130.242 119.031 127.392 115.516 127.392Z" fill="#E6E6E6"/>
<path d="M231.735 160.24H92.2013C90.4548 160.24 89.0389 161.656 89.0389 163.402V185.77C89.0389 187.517 90.4548 188.933 92.2013 188.933H231.735C233.482 188.933 234.898 187.517 234.898 185.77V163.402C234.898 161.656 233.482 160.24 231.735 160.24Z" fill="#F0F0F0"/>
<path d="M244.835 107.223H126.244C124.408 107.258 122.648 107.965 121.298 109.21C119.948 110.456 119.102 112.153 118.921 113.981L115.775 151.405C115.685 152.266 115.779 153.137 116.051 153.96C116.323 154.783 116.766 155.538 117.351 156.177C117.936 156.816 118.65 157.323 119.446 157.665C120.242 158.008 121.101 158.177 121.968 158.163H240.559C242.395 158.128 244.155 157.421 245.505 156.175C246.855 154.93 247.7 153.232 247.882 151.405L251.033 113.981C251.124 113.118 251.031 112.247 250.759 111.423C250.488 110.6 250.044 109.843 249.458 109.204C248.872 108.565 248.157 108.058 247.36 107.717C246.563 107.375 245.702 107.207 244.835 107.223Z" fill="#EBEBEB"/>
<path d="M235.665 107.223H117.074C115.238 107.258 113.478 107.965 112.128 109.21C110.778 110.456 109.933 112.153 109.751 113.98L106.611 151.405C106.52 152.266 106.614 153.137 106.884 153.959C107.155 154.782 107.598 155.538 108.183 156.177C108.767 156.815 109.481 157.323 110.277 157.665C111.072 158.007 111.932 158.177 112.798 158.162H231.412C233.25 158.129 235.011 157.422 236.362 156.177C237.712 154.931 238.559 153.233 238.741 151.405L241.881 113.98C241.972 113.117 241.878 112.243 241.605 111.419C241.333 110.594 240.888 109.837 240.3 109.197C239.712 108.558 238.994 108.051 238.195 107.711C237.396 107.37 236.534 107.204 235.665 107.223Z" fill="#FAFAFA"/>
<path d="M169.364 151.434L168.631 151.376L171.776 113.952C171.965 112.03 172.854 110.246 174.274 108.937C175.693 107.628 177.544 106.887 179.474 106.854V107.587C177.729 107.62 176.057 108.293 174.775 109.476C173.492 110.66 172.688 112.273 172.515 114.01L169.364 151.434Z" fill="#F0F0F0"/>
<path d="M241.777 127.392H216.137C212.621 127.392 209.771 130.242 209.771 133.757V182.573C209.771 186.089 212.621 188.939 216.137 188.939H241.777C245.292 188.939 248.142 186.089 248.142 182.573V133.757C248.142 130.242 245.292 127.392 241.777 127.392Z" fill="#F5F5F5"/>
<path d="M213.598 146.961H89.0389C86.9545 146.961 85.2648 148.651 85.2648 150.736V159.08C85.2648 161.165 86.9545 162.854 89.0389 162.854H213.598C215.682 162.854 217.372 161.165 217.372 159.08V150.736C217.372 148.651 215.682 146.961 213.598 146.961Z" fill="#F5F5F5"/>
<path d="M155.092 163.224C153.994 163.222 152.941 162.785 152.164 162.008C151.387 161.232 150.95 160.179 150.949 159.08V150.735C150.95 149.637 151.387 148.584 152.164 147.807C152.941 147.031 153.994 146.593 155.092 146.592V147.331C154.189 147.331 153.322 147.689 152.683 148.328C152.043 148.966 151.683 149.832 151.682 150.735V159.08C151.683 159.984 152.043 160.851 152.682 161.49C153.322 162.129 154.188 162.489 155.092 162.491V163.224Z" fill="#EBEBEB"/>
<path d="M253.267 127.392H227.627C224.111 127.392 221.261 130.242 221.261 133.757V182.573C221.261 186.089 224.111 188.939 227.627 188.939H253.267C256.782 188.939 259.632 186.089 259.632 182.573V133.757C259.632 130.242 256.782 127.392 253.267 127.392Z" fill="#E6E6E6"/>
<path d="M144.272 215C206.068 215 256.164 212.075 256.164 208.467C256.164 204.859 206.068 201.935 144.272 201.935C82.4759 201.935 32.3804 204.859 32.3804 208.467C32.3804 212.075 82.4759 215 144.272 215Z" fill="#F5F5F5"/>
<path d="M107.044 18.6459C105.469 22.1431 102.15 20.6196 101.481 23.6897C100.812 26.7598 98.2435 25.0631 96.8989 29.2643C95.5543 33.4655 98.6301 31.7343 98.3531 35.3122C98.0761 38.8902 101.775 40.0905 104.753 39.2653C107.731 38.44 112.365 40.6041 115.464 42.7278C118.563 44.8515 125.851 42.0122 124.634 38.013C123.416 34.0138 121.483 32.8192 123.48 30.6609C125.476 28.5026 127.588 22.5817 123.289 20.9831C118.736 19.3038 119.827 16.8108 116.364 15.4315C112.902 14.0523 108.62 15.1488 107.044 18.6459Z" fill="#263238"/>
<path d="M125.892 52.5151L125.984 53.0057L126.1 53.5828C126.18 53.9752 126.273 54.3791 126.365 54.7773C126.555 55.5795 126.769 56.3874 126.994 57.2011C127.45 58.8227 127.964 60.4443 128.518 62.0602C128.789 62.8681 129.095 63.6702 129.377 64.4782L129.833 65.6901L130.064 66.2671C130.139 66.498 130.22 66.7519 130.295 67C130.445 67.5453 130.555 68.1008 130.624 68.6621C130.624 68.8121 130.659 68.9679 130.664 69.141C130.67 69.3142 130.664 69.4758 130.664 69.6662C130.655 70.1051 130.584 70.5405 130.451 70.9589C130.26 71.566 129.887 72.0999 129.383 72.4882C128.916 72.8493 128.346 73.0516 127.756 73.0652C127.362 73.0657 126.972 72.9973 126.602 72.8633C126.287 72.7448 125.985 72.594 125.701 72.4131C125.409 72.236 125.198 71.95 125.116 71.6179C125.034 71.2858 125.087 70.9347 125.263 70.6415C125.423 70.3704 125.675 70.1657 125.973 70.0644L126.734 69.822C126.948 69.747 127.346 69.6835 127.311 69.5508C127.277 69.418 127.127 69.4758 126.89 69.6027C126.727 69.7093 126.586 69.8465 126.475 70.0067C126.417 70.0817 126.382 70.0528 126.342 70.0067L126.18 69.7066C126.048 69.4584 125.898 69.1295 125.707 68.841C125.621 68.6794 125.522 68.5293 125.43 68.3504L125.136 67.7329L124.559 66.5038C124.174 65.6727 123.812 64.834 123.474 63.9876C122.776 62.2968 122.146 60.5713 121.604 58.7939C121.327 57.9051 121.09 57.0049 120.871 56.0873C120.761 55.6314 120.663 55.164 120.571 54.6908C120.525 54.4542 120.484 54.2175 120.444 53.9694C120.404 53.7213 120.375 53.502 120.334 53.1499C120.267 52.4354 120.476 51.7222 120.919 51.1572C121.361 50.5921 122.004 50.2183 122.713 50.1125C123.423 50.0068 124.147 50.1772 124.735 50.5887C125.323 51.0002 125.731 51.6215 125.874 52.3247L125.892 52.5151Z" fill="#B65B52"/>
<path d="M123.249 46.2306C125.557 46.496 128.373 55.5101 128.373 55.5101L122.764 60.5424C122.764 60.5424 115.591 52.0361 116.993 49.3411C118.43 46.5307 119.861 45.8381 123.249 46.2306Z" fill="#263238"/>
<path opacity="0.2" d="M123.324 48.3196L126.296 57.3856L123.139 60.2018L123.324 48.3196Z" fill="black"/>
<path d="M112.63 202.864H118.118L118.482 190.151H112.994L112.63 202.864Z" fill="#B55B52"/>
<path d="M118.303 202.229H112.14C112.034 202.228 111.931 202.265 111.85 202.334C111.769 202.403 111.717 202.499 111.701 202.604L110.997 207.48C110.984 207.604 110.997 207.729 111.036 207.847C111.074 207.965 111.137 208.073 111.221 208.165C111.304 208.257 111.406 208.331 111.519 208.381C111.633 208.431 111.756 208.456 111.88 208.456C114.027 208.421 115.066 208.294 117.778 208.294C119.446 208.294 124.236 208.467 126.538 208.467C128.841 208.467 128.968 206.188 128.004 205.98C123.705 205.057 120.675 203.781 119.221 202.564C118.964 202.348 118.639 202.229 118.303 202.229Z" fill="#263238"/>
<g opacity="0.2">
<path d="M118.482 190.156L118.297 196.706H112.804L112.994 190.156H118.482Z" fill="black"/>
</g>
<path d="M125.511 49.8028C125.603 53.7616 125.055 62.0313 122.245 79.3209H99.9574C100.298 71.005 100.338 65.615 97.0027 50.4665C96.8744 49.8862 96.8676 49.2856 96.9828 48.7025C97.098 48.1195 97.3327 47.5666 97.672 47.0787C98.0114 46.5908 98.4481 46.1785 98.9546 45.8677C99.4612 45.5568 100.027 45.3542 100.615 45.2727C102.081 45.0765 103.766 44.8976 105.469 44.811C108.838 44.5712 112.221 44.5712 115.591 44.811C117.795 45.013 120.155 45.3881 121.939 45.6766C122.919 45.8456 123.811 46.3491 124.462 47.1013C125.113 47.8536 125.484 48.8082 125.511 49.8028Z" fill="#263238"/>
<path d="M106.473 33.3962C107.113 36.651 107.748 42.6296 105.469 44.7879C105.469 44.7879 106.357 48.0946 112.394 48.0946C119.048 48.0946 115.573 44.7879 115.573 44.7879C111.944 43.9223 112.036 41.2273 112.688 38.6996L106.473 33.3962Z" fill="#B55B52"/>
<path d="M125.136 49.5488C125.153 48.6254 124.841 47.7261 124.255 47.0122C123.669 46.2984 122.848 45.8166 121.939 45.6535C120.15 45.3476 117.801 44.9898 115.591 44.7936C112.221 44.5481 108.838 44.5481 105.469 44.7936C105.036 44.7936 104.615 44.8456 104.193 44.8744H104.13C106.721 46.3864 105.913 51.0377 105.567 53.6058C113.646 57.7031 119.827 60.5308 119.827 60.5308C124.38 59.3132 125.072 54.0328 125.136 49.5488Z" fill="#B55B52"/>
<path opacity="0.2" d="M109.006 35.5601L112.682 38.6936C112.526 39.2835 112.421 39.886 112.371 40.4942C110.986 40.2922 109.075 38.7629 108.908 37.3144C108.831 36.7286 108.865 36.1336 109.006 35.5601Z" fill="black"/>
<path d="M107.2 23.7299C105.613 28.9237 104.828 31.1109 106.432 34.6946C108.833 40.0731 115.579 40.881 118.69 36.247C121.489 32.0804 123.612 24.2551 119.382 20.3713C118.454 19.5097 117.322 18.8997 116.092 18.5992C114.862 18.2986 113.575 18.3175 112.355 18.654C111.134 18.9905 110.02 19.6335 109.118 20.5219C108.215 21.4103 107.555 22.5146 107.2 23.7299Z" fill="#B55B52"/>
<path d="M122.245 79.3209C122.245 79.3209 126.573 121.593 126.215 138.328C125.84 155.739 119.463 195.46 119.463 195.46H112.042C112.042 195.46 113.196 156.795 112.561 139.684C111.845 121.044 105.925 79.344 105.925 79.344L122.245 79.3209Z" fill="#407BFF"/>
<path opacity="0.3" d="M122.245 79.3209C122.245 79.3209 126.573 121.593 126.215 138.328C125.84 155.739 119.463 195.46 119.463 195.46H112.042C112.042 195.46 113.196 156.795 112.561 139.684C111.845 121.044 105.925 79.344 105.925 79.344L122.245 79.3209Z" fill="black"/>
<path d="M111.395 195.708H120.104L120.744 192.926L110.991 192.586L111.395 195.708Z" fill="#263238"/>
<path opacity="0.2" d="M112.63 89.8354C118.107 100.852 113.727 120.94 111.793 128.414C110.801 117.189 109.127 103.466 107.823 93.3903C108.654 87.7175 110.108 84.757 112.63 89.8354Z" fill="black"/>
<path d="M86.9788 202.864H92.4669L94.4809 190.151H88.9928L86.9788 202.864Z" fill="#B55B52"/>
<path d="M92.7381 202.229H86.5632C86.4521 202.231 86.3445 202.268 86.2562 202.336C86.1679 202.403 86.1036 202.497 86.0727 202.604L84.7396 207.48C84.706 207.596 84.7 207.717 84.7221 207.835C84.7443 207.953 84.7939 208.064 84.867 208.159C84.9401 208.254 85.0346 208.33 85.1429 208.382C85.2511 208.433 85.37 208.459 85.4899 208.456C87.6482 208.421 88.6985 208.294 91.4108 208.294C93.0786 208.294 97.8453 208.467 100.148 208.467C102.45 208.467 102.872 206.188 101.937 205.98C97.7588 205.057 94.8906 203.781 93.598 202.564C93.3641 202.347 93.0568 202.228 92.7381 202.229Z" fill="#263238"/>
<g opacity="0.2">
<path d="M94.4808 190.156L93.4421 196.706H87.954L88.9927 190.156H94.4808Z" fill="black"/>
</g>
<path d="M116.081 79.3209C116.081 79.3209 111.465 121.593 108.937 138.328C106.305 155.739 94.7752 195.46 94.7752 195.46H87.3539C87.3539 195.46 93.546 156.795 95.1099 139.684C96.8124 121.044 99.7555 79.344 99.7555 79.344L116.081 79.3209Z" fill="#407BFF"/>
<path opacity="0.3" d="M116.081 79.3209C116.081 79.3209 111.465 121.593 108.937 138.328C106.305 155.739 94.7752 195.46 94.7752 195.46H87.3539C87.3539 195.46 93.546 156.795 95.1099 139.684C96.8124 121.044 99.7555 79.344 99.7555 79.344L116.081 79.3209Z" fill="black"/>
<path d="M86.6729 195.708H95.3812L96.3795 192.926L86.6729 192.586V195.708Z" fill="#263238"/>
<path d="M94.6713 203.187C95.1557 203.224 95.6391 203.105 96.0505 202.846C96.1463 202.771 96.2244 202.676 96.2792 202.567C96.3341 202.459 96.3644 202.339 96.3679 202.217C96.3748 202.149 96.3615 202.079 96.3298 202.018C96.298 201.956 96.2491 201.905 96.189 201.871C95.5658 201.502 93.2344 202.621 92.9689 202.748C92.9435 202.76 92.922 202.779 92.9067 202.802C92.8914 202.826 92.8829 202.853 92.8823 202.881C92.882 202.907 92.8912 202.933 92.9081 202.953C92.9251 202.973 92.9487 202.987 92.9747 202.991C93.5326 203.11 94.1008 203.176 94.6713 203.187ZM95.7966 202.033C95.8781 202.029 95.9593 202.045 96.0332 202.079C96.0589 202.092 96.0796 202.113 96.0921 202.139C96.1045 202.165 96.1082 202.195 96.1025 202.223C96.1019 202.303 96.0834 202.382 96.0485 202.454C96.0135 202.526 95.963 202.589 95.9005 202.639C95.5254 202.939 94.6194 202.991 93.4306 202.789C94.1748 202.418 94.9736 202.169 95.7966 202.05V202.033Z" fill="#407BFF"/>
<path d="M92.9978 202.991C93.0147 202.996 93.0328 202.996 93.0497 202.991C93.7422 202.696 95.1907 201.513 95.1734 200.89C95.1734 200.746 95.0868 200.561 94.729 200.527C94.4591 200.5 94.1897 200.581 93.9788 200.752C93.2171 201.329 92.8997 202.8 92.8881 202.864C92.8812 202.884 92.8808 202.906 92.887 202.927C92.8932 202.948 92.9057 202.966 92.9228 202.979C92.9458 202.991 92.9722 202.995 92.9978 202.991ZM94.5906 200.769H94.6713C94.9022 200.769 94.908 200.884 94.908 200.919C94.908 201.288 93.9211 202.223 93.1767 202.65C93.3157 202.009 93.6339 201.421 94.0943 200.954C94.2317 200.834 94.4082 200.768 94.5906 200.769Z" fill="#407BFF"/>
<path d="M114.841 28.1099C114.685 28.5254 114.783 28.9409 115.054 29.0448C115.325 29.1487 115.672 28.889 115.822 28.4677C115.972 28.0464 115.885 27.6367 115.614 27.5328C115.343 27.429 114.973 27.7002 114.841 28.1099Z" fill="#263238"/>
<path d="M119.509 29.8584C119.353 30.2681 119.446 30.6894 119.717 30.7875C119.988 30.8856 120.334 30.6375 120.49 30.2104C120.646 29.7834 120.548 29.3794 120.277 29.2756C120.006 29.1717 119.659 29.4314 119.509 29.8584Z" fill="#263238"/>
<path d="M120.15 29.2643L121.252 29.3508C121.252 29.3508 120.45 29.9395 120.15 29.2643Z" fill="#263238"/>
<path d="M117.784 30.0662C117.801 31.1492 117.966 32.2248 118.274 33.2633C118.007 33.3354 117.727 33.3486 117.454 33.3017C117.181 33.2549 116.921 33.1492 116.693 32.9921L117.784 30.0662Z" fill="#A02724"/>
<path d="M113.825 33.7714C114.011 33.8747 114.204 33.9653 114.402 34.0426C114.418 34.05 114.435 34.0539 114.452 34.054C114.47 34.0541 114.487 34.0505 114.503 34.0434C114.519 34.0363 114.533 34.0258 114.544 34.0127C114.556 33.9997 114.564 33.9843 114.569 33.9676C114.576 33.9517 114.579 33.9347 114.579 33.9176C114.578 33.9004 114.575 33.8835 114.568 33.8679C114.561 33.8523 114.55 33.8382 114.538 33.8266C114.525 33.8149 114.51 33.806 114.494 33.8002C113.973 33.6226 113.501 33.3231 113.119 32.9266C112.737 32.5301 112.454 32.0482 112.296 31.5207C112.287 31.4874 112.266 31.4586 112.237 31.4403C112.208 31.422 112.173 31.4157 112.14 31.4226C112.123 31.426 112.107 31.4328 112.093 31.4426C112.078 31.4523 112.066 31.4649 112.057 31.4795C112.048 31.494 112.042 31.5103 112.039 31.5274C112.037 31.5444 112.037 31.5618 112.042 31.5784C112.177 32.0445 112.405 32.4787 112.711 32.8553C113.018 33.2319 113.396 33.5434 113.825 33.7714Z" fill="#263238"/>
<path d="M104.078 27.8848C104.082 28.9361 104.496 29.9443 105.232 30.6952C106.23 31.6705 107.396 30.9434 107.685 29.6507C107.939 28.4965 107.731 26.5806 106.461 26.09C106.183 25.9913 105.884 25.9631 105.592 26.008C105.3 26.0528 105.023 26.1694 104.787 26.3471C104.551 26.5249 104.363 26.7584 104.239 27.0267C104.115 27.295 104.06 27.5898 104.078 27.8848Z" fill="#B55B52"/>
<path d="M111.211 17.6013C113.652 17.9533 113.831 21.9583 112.867 23.3029C111.903 24.6476 109.468 25.0977 110.108 27.0713C111.078 30.0549 109.208 30.0722 109.485 33.0788C109.687 35.2833 110.005 37.5974 106.357 37.2281C100.91 36.651 99.0515 37.684 101.071 30.0376C102.168 25.8825 102.854 22.7028 104.753 22.4431C106.652 22.1834 108.493 17.2089 111.211 17.6013Z" fill="#263238"/>
<path d="M110.986 20.3944C112.14 22.9047 115.025 24.1685 117.714 24.157C121.956 24.157 124.715 29.1661 122.908 24.3705C121.102 19.5749 116.918 17.6012 114.916 17.3416C112.913 17.0819 109.647 17.4916 110.986 20.3944Z" fill="#263238"/>
<path d="M113.294 26.4537C113.341 26.4799 113.396 26.4907 113.449 26.4845C113.503 26.4783 113.554 26.4554 113.594 26.4191C114.477 25.5996 115.995 25.9112 116.012 25.917C116.079 25.9306 116.149 25.917 116.207 25.8792C116.264 25.8413 116.304 25.7823 116.318 25.715C116.332 25.6485 116.319 25.5792 116.282 25.522C116.245 25.4649 116.188 25.4243 116.122 25.4092C116.047 25.4092 114.321 25.0398 113.236 26.0324C113.188 26.0819 113.161 26.1482 113.161 26.2171C113.161 26.286 113.188 26.3522 113.236 26.4017C113.251 26.4231 113.271 26.4408 113.294 26.4537Z" fill="#263238"/>
<path d="M121.725 28.2138C121.764 28.2366 121.807 28.2487 121.852 28.2487C121.897 28.2487 121.941 28.2366 121.979 28.2138C122.039 28.1787 122.083 28.1217 122.101 28.0548C122.119 27.988 122.111 27.9166 122.077 27.856C121.878 27.4937 121.595 27.1845 121.252 26.9545C120.908 26.7245 120.514 26.5805 120.104 26.5344C120.036 26.5313 119.969 26.5549 119.918 26.6002C119.868 26.6455 119.837 26.7089 119.832 26.7768C119.829 26.8454 119.853 26.9125 119.898 26.9641C119.943 27.0158 120.006 27.0479 120.075 27.0538C120.399 27.094 120.71 27.2113 120.98 27.3961C121.25 27.5808 121.472 27.8275 121.627 28.1157C121.649 28.1576 121.683 28.1919 121.725 28.2138Z" fill="#263238"/>
<path d="M120.369 203.187C120.838 203.229 121.306 203.108 121.696 202.846C121.784 202.769 121.852 202.671 121.893 202.561C121.934 202.452 121.948 202.334 121.933 202.217C121.928 202.146 121.906 202.077 121.868 202.016C121.829 201.956 121.776 201.906 121.714 201.871C121.039 201.502 118.828 202.621 118.603 202.748C118.58 202.761 118.561 202.781 118.549 202.805C118.537 202.828 118.532 202.855 118.534 202.881C118.54 202.907 118.552 202.931 118.57 202.951C118.589 202.97 118.612 202.984 118.638 202.991C119.208 203.109 119.787 203.175 120.369 203.187ZM121.344 202.033C121.428 202.03 121.51 202.046 121.587 202.079C121.613 202.093 121.634 202.114 121.65 202.139C121.665 202.165 121.673 202.194 121.673 202.223C121.685 202.299 121.677 202.377 121.651 202.45C121.624 202.522 121.581 202.587 121.523 202.639C121.189 202.939 120.288 202.991 119.071 202.789C119.781 202.415 120.55 202.165 121.344 202.05V202.033Z" fill="#407BFF"/>
<path d="M118.667 202.991C118.684 202.996 118.702 202.996 118.719 202.991C119.371 202.696 120.663 201.513 120.565 200.89C120.565 200.746 120.438 200.561 120.075 200.527C119.946 200.511 119.816 200.523 119.693 200.562C119.569 200.601 119.456 200.666 119.359 200.752C118.667 201.329 118.54 202.8 118.534 202.864C118.532 202.886 118.537 202.909 118.547 202.929C118.557 202.95 118.573 202.967 118.592 202.979C118.614 202.992 118.641 202.996 118.667 202.991ZM119.971 200.769H120.034C120.271 200.769 120.288 200.884 120.288 200.919C120.352 201.288 119.475 202.223 118.805 202.65C118.857 202.026 119.101 201.433 119.503 200.954C119.63 200.835 119.797 200.769 119.971 200.769Z" fill="#407BFF"/>
<path d="M115.464 27.5213L116.566 27.6021C116.566 27.6021 115.764 28.1907 115.464 27.5213Z" fill="#263238"/>
<path d="M99.6228 78.0108L99.0457 80.0075C98.9707 80.1633 99.1495 80.3191 99.4092 80.3191H122.343C122.545 80.3191 122.712 80.221 122.724 80.094L122.926 78.0973C122.926 77.9588 122.764 77.8434 122.545 77.8434H99.9863C99.9165 77.8379 99.8464 77.8504 99.7827 77.8797C99.7191 77.909 99.664 77.9541 99.6228 78.0108Z" fill="white"/>
<path d="M102.652 80.5328H102.075C101.96 80.5328 101.868 80.4751 101.873 80.3943L102.156 77.8032C102.156 77.7282 102.272 77.6647 102.393 77.6647H102.999C103.114 77.6647 103.206 77.7282 103.201 77.8032L102.918 80.3943C102.877 80.4751 102.774 80.5328 102.652 80.5328Z" fill="#407BFF"/>
<g opacity="0.3">
<path d="M102.652 80.5328H102.075C101.96 80.5328 101.868 80.4751 101.873 80.3943L102.156 77.8032C102.156 77.7282 102.272 77.6647 102.393 77.6647H102.999C103.114 77.6647 103.206 77.7282 103.201 77.8032L102.918 80.3943C102.877 80.4751 102.774 80.5328 102.652 80.5328Z" fill="black"/>
</g>
<path d="M120.658 80.5328H120.034C119.913 80.5328 119.821 80.4751 119.832 80.3943L120.115 77.8032C120.115 77.7282 120.225 77.6647 120.346 77.6647H120.952C121.073 77.6647 121.165 77.7282 121.154 77.8032L120.871 80.3943C120.883 80.4751 120.779 80.5328 120.658 80.5328Z" fill="#407BFF"/>
<path opacity="0.3" d="M120.658 80.5328H120.034C119.913 80.5328 119.821 80.4751 119.832 80.3943L120.115 77.8032C120.115 77.7282 120.225 77.6647 120.346 77.6647H120.952C121.073 77.6647 121.165 77.7282 121.154 77.8032L120.871 80.3943C120.883 80.4751 120.779 80.5328 120.658 80.5328Z" fill="black"/>
<path d="M111.655 80.5328H111.078C110.957 80.5328 110.864 80.4751 110.876 80.3943L111.159 77.8032C111.159 77.7282 111.274 77.6647 111.395 77.6647H111.972C112.094 77.6647 112.186 77.7282 112.18 77.8032L111.897 80.3943C111.88 80.4751 111.776 80.5328 111.655 80.5328Z" fill="#407BFF"/>
<path opacity="0.3" d="M111.655 80.5328H111.078C110.957 80.5328 110.864 80.4751 110.876 80.3943L111.159 77.8032C111.159 77.7282 111.274 77.6647 111.395 77.6647H111.972C112.094 77.6647 112.186 77.7282 112.18 77.8032L111.897 80.3943C111.88 80.4751 111.776 80.5328 111.655 80.5328Z" fill="black"/>
<path d="M119.221 54.8924C118.961 55.1059 118.644 55.1406 118.494 54.9732C118.343 54.8058 118.447 54.4885 118.707 54.2749C118.967 54.0614 119.284 54.021 119.434 54.1941C119.584 54.3673 119.457 54.6731 119.221 54.8924Z" fill="#263238"/>
<path d="M118.055 55.0253C117.57 55.1857 117.065 55.277 116.555 55.2965C116.558 55.5754 116.625 55.8499 116.751 56.0987L118.055 55.0253Z" fill="#FF8B7B"/>
<path d="M125.003 61.8062C122.539 63.572 121.194 64.7435 118.909 64.4088C115.446 63.901 113.859 59.7921 115.672 57.2356C117.299 54.9273 121.056 52.4458 124.103 54.2463C127.15 56.0468 127.467 60.046 125.003 61.8062Z" fill="#FF8B7B"/>
<path d="M111.955 54.5811L113.686 52.9883L115.418 55.2274C115.418 55.2274 114.096 56.8317 112.884 56.2719L111.955 54.5811Z" fill="#FF8B7B"/>
<path d="M115.285 52.4399L116.191 54.2635L115.406 55.2272L113.64 52.9824L115.285 52.4399Z" fill="#FF8B7B"/>
<path d="M117.097 65.563L116.722 65.6495L116.422 65.7072L115.845 65.7765C115.46 65.8025 115.075 65.8025 114.691 65.7765C113.86 65.7328 113.043 65.5514 112.273 65.2398C111.423 64.8997 110.657 64.38 110.028 63.7163C109.432 63.0722 108.97 62.3172 108.666 61.4945C108.344 60.6508 108.216 59.7456 108.291 58.8457C108.379 57.9455 108.702 57.0842 109.226 56.3469C109.671 55.7267 110.229 55.1961 110.87 54.783C111.16 54.5984 111.463 54.4345 111.776 54.2924C112.1 54.1482 112.434 54.0267 112.775 53.9289C113.037 53.8487 113.317 53.8503 113.577 53.9336C113.838 54.0169 114.068 54.1779 114.235 54.395C114.401 54.6121 114.498 54.875 114.512 55.1485C114.525 55.4221 114.455 55.6932 114.31 55.9256L114.004 56.4219C113.923 56.5489 113.738 56.7451 113.617 56.9067C113.483 57.0714 113.359 57.2449 113.248 57.426C113.059 57.7135 112.922 58.0319 112.844 58.3667C112.802 58.5608 112.824 58.7633 112.907 58.9438C112.988 59.1215 113.091 59.2882 113.213 59.4401C113.33 59.6238 113.493 59.7733 113.686 59.8729C113.844 59.9473 114.011 60.0016 114.183 60.0345C114.433 60.0867 114.689 60.1137 114.945 60.1153C115.095 60.1153 115.25 60.1153 115.412 60.1153H115.643H115.747C116.107 60.0204 116.482 59.9983 116.851 60.0501C117.22 60.102 117.575 60.2267 117.895 60.4172C118.215 60.6076 118.494 60.8599 118.715 61.1592C118.937 61.4586 119.096 61.7991 119.185 62.1609C119.273 62.5226 119.289 62.8984 119.231 63.2662C119.173 63.634 119.042 63.9866 118.846 64.3033C118.65 64.62 118.393 64.8945 118.089 65.1108C117.786 65.327 117.443 65.4808 117.08 65.563H117.097Z" fill="#FF8B7B"/>
<path d="M95.2773 63.0816C97.5164 60.0057 102.202 59.1112 107.448 60.2539C110.455 60.9117 121.806 56.7048 126.959 56.6413C132.113 56.5778 133.4 62.0832 132.061 65.0322C127.889 74.2194 116.272 73.2903 113.317 75.5121C110.362 77.7339 102.393 80.7982 97.8627 77.1568C93.3325 73.5153 91.3647 68.4427 95.2773 63.0816Z" fill="#407BFF"/>
<path d="M129.926 63.3066L127.571 67.1558L128.391 69.3083C128.443 69.4497 128.533 69.5742 128.651 69.6685C128.768 69.7627 128.909 69.8232 129.059 69.8433C129.208 69.8635 129.36 69.8426 129.499 69.7829C129.637 69.7232 129.757 69.627 129.845 69.5045L132.119 66.3825C132.215 66.2528 132.27 66.0976 132.279 65.9364C132.287 65.7753 132.247 65.6153 132.165 65.4765L129.926 63.3066Z" fill="#B55B52"/>
<path d="M101.383 54.2464L101.054 55.1582C100.939 55.4814 100.823 55.8045 100.713 56.1335C100.494 56.7913 100.304 57.4608 100.102 58.1302C99.7014 59.4591 99.3682 60.8074 99.1034 62.1698C98.8322 63.526 98.6186 64.8879 98.4859 66.244L98.4166 67.2655V67.5194V67.5713C98.4223 67.5292 98.4223 67.4865 98.4166 67.4444C98.3994 67.3042 98.35 67.1699 98.2724 67.052C98.1627 66.9077 98.1916 66.9943 98.3185 67.0924C98.4981 67.2327 98.6915 67.3546 98.8956 67.4559C100.068 68.016 101.296 68.4513 102.56 68.7544C103.916 69.1122 105.324 69.4007 106.744 69.6777C109.589 70.2086 112.515 70.653 115.4 71.0454L115.302 73.8212C112.275 73.9597 109.242 73.9192 106.219 73.7C104.701 73.5904 103.178 73.423 101.602 73.1633C100.829 73.0364 100.044 72.8863 99.2534 72.6786C98.4068 72.4724 97.5787 72.1964 96.7777 71.8533C96.3009 71.6495 95.8448 71.4002 95.4158 71.1089C94.8111 70.7081 94.3011 70.1803 93.9211 69.5623C93.6585 69.1232 93.4841 68.637 93.4075 68.1311C93.4075 67.9984 93.4075 67.8599 93.3671 67.7214V67.202V65.9901C93.3932 64.3962 93.5243 62.8058 93.7596 61.2291C94.0042 59.6748 94.3278 58.1339 94.7291 56.6124C94.931 55.8507 95.1676 55.1005 95.4158 54.3503C95.6639 53.6 95.9236 52.8902 96.2814 52.0419L101.383 54.2464Z" fill="#B65B52"/>
<path d="M98.6128 46.2422C96.3795 46.9174 93.696 54.6099 93.696 54.6099L99.138 58.4995C99.5364 58.7849 99.9964 58.9724 100.481 59.047C100.965 59.1216 101.46 59.0811 101.926 58.9288C102.392 58.7766 102.815 58.5168 103.162 58.1705C103.509 57.8242 103.769 57.4012 103.922 56.9356C104.545 55.037 105.024 52.896 104.58 51.4994C103.605 48.4755 101.158 45.4631 98.6128 46.2422Z" fill="#263238"/>
<path d="M114.841 70.9473L120.744 70.4222L117.559 75.0216C117.559 75.0216 114.056 74.6407 113.202 72.5228L114.841 70.9473Z" fill="#B55B52"/>
<path d="M124.634 72.9325L120.773 75.7372L117.559 74.9927L120.761 70.4222L124.634 72.9325Z" fill="#B55B52"/>
<path d="M184.876 20.5444C186.209 18.7554 183.006 14.4792 179.486 16.9895C175.856 19.5749 170.004 18.6746 166.53 22.9104C163.056 27.1463 168.51 30.6665 168.094 38.0879C167.771 44.2223 158.711 45.9824 159.934 54.2463C161.446 64.4666 173.155 78.9399 183.785 74.1328C194.415 69.3256 207.365 55.2735 202.166 46.1267C196.966 36.9798 189.383 38.2725 192.355 31.0532C194.19 26.5461 192.326 17.6243 184.876 20.5444Z" fill="#263238"/>
<path d="M189.637 182.648L185.372 186.319L178.055 175.839L182.319 172.169L189.637 182.648Z" fill="#FF8B7B"/>
<path d="M183.918 185.315L189.285 181.494C189.382 181.427 189.499 181.393 189.617 181.399C189.735 181.406 189.848 181.451 189.937 181.529L194.005 185.038C194.103 185.122 194.18 185.227 194.23 185.346C194.281 185.465 194.303 185.594 194.296 185.723C194.289 185.851 194.252 185.977 194.189 186.089C194.125 186.201 194.037 186.298 193.93 186.371C192.043 187.733 191.045 188.223 188.673 189.897C187.219 190.93 183.554 193.746 181.546 195.171C179.538 196.597 177.818 194.831 178.511 194.075C181.604 190.658 182.948 188.033 183.347 186.151C183.428 185.812 183.631 185.514 183.918 185.315Z" fill="#263238"/>
<path opacity="0.2" d="M178.055 175.839L181.829 181.24L186.394 178.003L182.325 172.169L178.055 175.839Z" fill="black"/>
<path d="M165.468 81.8312C165.468 81.8312 157.585 112.232 153.621 133.613C150.47 150.62 179.474 179.74 179.474 179.74L185.603 174.402C185.603 174.402 170.974 152.282 164.77 137.024C174.113 114.015 188.044 92.6573 183.624 82.4602L165.468 81.8312Z" fill="#263238"/>
<path d="M185.17 172.33L176.658 178.764L179.244 181.402L187.288 175.504L185.17 172.33Z" fill="#407BFF"/>
<path d="M182.141 187.911C181.793 188.197 181.366 188.368 180.917 188.402C180.795 188.396 180.675 188.364 180.567 188.306C180.459 188.248 180.366 188.166 180.294 188.067C180.25 188.013 180.221 187.948 180.21 187.879C180.198 187.81 180.206 187.74 180.23 187.675C180.496 186.988 182.891 186.52 183.37 186.457C183.396 186.452 183.423 186.455 183.447 186.466C183.471 186.478 183.49 186.497 183.502 186.52C183.518 186.543 183.526 186.571 183.526 186.598C183.526 186.626 183.518 186.653 183.502 186.676C183.091 187.132 182.635 187.546 182.141 187.911ZM180.629 187.553C180.552 187.601 180.49 187.669 180.45 187.75C180.437 187.77 180.431 187.793 180.431 187.816C180.431 187.839 180.437 187.862 180.45 187.882C180.5 187.951 180.565 188.008 180.64 188.049C180.714 188.09 180.797 188.114 180.882 188.119C181.356 188.119 182.123 187.64 182.966 186.774C182.151 186.913 181.363 187.176 180.629 187.553Z" fill="#407BFF"/>
<path d="M183.462 186.694H183.416C182.643 186.873 180.75 186.74 180.473 186.174C180.409 186.047 180.392 185.851 180.646 185.597C181.627 184.709 183.404 186.371 183.479 186.44C183.496 186.457 183.508 186.478 183.514 186.502C183.52 186.525 183.52 186.549 183.514 186.573C183.518 186.596 183.515 186.619 183.506 186.641C183.497 186.662 183.482 186.681 183.462 186.694ZM180.883 185.788L180.813 185.845C180.709 185.938 180.675 186.019 180.704 186.076C180.865 186.405 182.239 186.596 183.087 186.503C182.625 186.122 181.529 185.332 180.883 185.788Z" fill="#407BFF"/>
<path d="M167.592 52.1052C166.878 52.0886 166.184 52.3421 165.649 52.815C165.114 53.288 164.778 53.9455 164.707 54.656C164.609 55.6947 164.487 56.7392 164.349 57.7607C164.089 59.6766 163.772 61.5868 163.391 63.4623C163.01 65.3379 162.52 67.1903 161.954 68.9851C161.671 69.8853 161.342 70.7567 160.996 71.6166C160.823 72.0436 160.631 72.4649 160.419 72.8804C160.332 73.0882 160.223 73.2844 160.125 73.4921V73.5325L159.871 73.4979C159.449 73.4171 158.48 73.1516 157.637 72.9208C157.355 72.8482 157.055 72.8771 156.791 73.0026C156.528 73.1281 156.317 73.3422 156.195 73.6075L155.45 75.2407C155.327 75.496 155.296 75.786 155.362 76.0615C155.429 76.337 155.588 76.5812 155.814 76.7527C156.653 77.4385 157.604 77.9753 158.624 78.3397C159.389 78.5659 160.191 78.6385 160.984 78.5532C162.144 78.4172 163.204 77.8331 163.939 76.9258C164.11 76.7126 164.264 76.4869 164.401 76.2506L164.603 75.8928C164.736 75.6447 164.88 75.4081 165.001 75.1599C165.255 74.6752 165.503 74.1846 165.728 73.6883C166.19 72.7015 166.611 71.7031 166.98 70.699C167.722 68.7082 168.331 66.6705 168.804 64.5992C169.283 62.5505 169.681 60.4961 169.958 58.4359C170.102 57.3452 170.229 56.2776 170.333 55.1927C170.368 54.8074 170.324 54.4192 170.203 54.0517C170.082 53.6843 169.887 53.3456 169.63 53.0563C169.373 52.7671 169.06 52.5335 168.71 52.3699C168.359 52.2063 167.979 52.1163 167.592 52.1052Z" fill="#FF8B7B"/>
<path d="M181.206 201.484L175.642 201.305L175.591 188.448L181.159 188.621L181.206 201.484Z" fill="#FF8B7B"/>
<path d="M175.602 199.124L181.887 199.009C181.993 199.005 182.098 199.042 182.179 199.111C182.26 199.18 182.312 199.278 182.325 199.384L183.006 204.283C183.016 204.409 183.001 204.536 182.96 204.656C182.919 204.775 182.855 204.885 182.77 204.979C182.685 205.073 182.581 205.148 182.466 205.2C182.351 205.252 182.226 205.28 182.1 205.282C179.913 205.282 178.857 205.178 176.098 205.23C174.396 205.259 170.639 205.57 168.29 205.616C165.942 205.663 165.838 203.366 166.819 203.141C171.205 202.131 173.167 200.734 174.667 199.482C174.93 199.261 175.259 199.135 175.602 199.124Z" fill="#263238"/>
<path opacity="0.2" d="M181.159 188.627L175.591 188.454L175.619 195.079L181.188 195.258L181.159 188.627Z" fill="black"/>
<path d="M170.391 82.1023C170.391 82.1023 172.267 118.401 171.655 140.053C173.79 158.018 174.327 191.991 174.327 191.991L182.002 191.593C182.002 191.593 185.817 152.143 183.918 139.246C188.119 115.279 194.583 93.1189 188.044 82.7775L170.391 82.1023Z" fill="#263238"/>
<path d="M173.38 193.59L183.041 193.457L183.624 189.648L172.78 190.116L173.38 193.59Z" fill="#407BFF"/>
<path d="M172.694 199.909L172.619 199.857C172.526 199.77 172.458 199.66 172.421 199.539C172.384 199.417 172.378 199.288 172.405 199.164C172.415 199.084 172.446 199.008 172.493 198.942C172.54 198.877 172.603 198.824 172.676 198.789C173.328 198.489 174.985 199.54 175.204 199.661C175.227 199.674 175.244 199.694 175.255 199.718C175.265 199.741 175.268 199.768 175.262 199.793C175.257 199.819 175.245 199.842 175.228 199.862C175.21 199.881 175.188 199.895 175.164 199.903C174.465 200.076 173.253 200.301 172.694 199.909ZM174.788 199.718C174.102 199.32 173.126 198.87 172.78 199.026C172.749 199.042 172.722 199.066 172.703 199.095C172.684 199.124 172.673 199.158 172.67 199.193C172.649 199.276 172.65 199.363 172.673 199.445C172.697 199.527 172.741 199.602 172.803 199.661C173.08 199.909 173.813 199.932 174.788 199.718Z" fill="#407BFF"/>
<path d="M174.944 199.811C174.396 199.43 173.536 198.38 173.657 197.797C173.682 197.695 173.74 197.604 173.821 197.537C173.902 197.47 174.003 197.432 174.107 197.428C174.21 197.409 174.315 197.413 174.415 197.441C174.515 197.469 174.607 197.52 174.685 197.589C175.262 198.114 175.262 199.701 175.262 199.771C175.262 199.794 175.256 199.816 175.245 199.837C175.234 199.857 175.218 199.874 175.198 199.886C175.178 199.897 175.155 199.903 175.132 199.903C175.109 199.903 175.086 199.897 175.065 199.886C175.023 199.865 174.982 199.84 174.944 199.811ZM174.448 197.756C174.357 197.693 174.245 197.669 174.136 197.687C173.969 197.687 173.934 197.785 173.917 197.843C173.836 198.224 174.465 199.113 174.996 199.522C174.967 198.991 174.852 198.103 174.488 197.791L174.448 197.756Z" fill="#407BFF"/>
<path d="M189.77 82.7661C190.566 72.3323 191.772 60.7848 193.122 53.9925C193.248 53.3501 193.243 52.6892 193.109 52.0486C192.975 51.4081 192.714 50.8009 192.341 50.263C191.968 49.7251 191.491 49.2673 190.939 48.9167C190.386 48.5661 189.769 48.3297 189.123 48.2216C188.258 48.0773 187.329 47.9388 186.376 47.8234C185.874 47.7657 185.378 47.708 184.87 47.6618C181.468 47.281 178.043 47.1422 174.621 47.2463C174.044 47.2752 173.432 47.3156 172.838 47.3675C172.14 47.4194 171.441 47.4887 170.766 47.5637C168.707 47.7812 166.786 48.7046 165.33 50.1773C163.874 51.65 162.973 53.5812 162.779 55.6429C162.352 60.4732 162.352 68.5005 163.599 81.8139C163.639 85.1264 159.374 97.124 157.303 111.245C160.24 112.048 169.219 112.221 174.402 111.88C179.584 111.54 188.217 116.71 189.77 115.043C191.322 113.375 191.899 90.1124 189.77 82.7661Z" fill="#407BFF"/>
<path opacity="0.3" d="M191.847 52.7573C191.437 52.6826 191.017 52.6826 190.606 52.7573L190.358 52.8035C189.493 52.9774 188.727 53.475 188.217 54.1947C187.706 54.9144 187.49 55.8018 187.611 56.6758C187.721 57.628 187.796 58.4994 187.859 59.3419C188.021 61.3213 188.102 63.0699 188.085 64.6569C188.085 66.3881 188.038 68.1829 187.848 69.9719C187.848 70.2316 187.796 70.497 187.761 70.7682C187.727 71.0395 187.704 71.1722 187.686 71.38C187.64 71.7724 187.565 72.1763 187.507 72.5341C187.479 72.6957 187.45 72.8573 187.415 73.0189C187.375 73.2901 187.323 73.5556 187.277 73.7691L187.167 74.2192L186.994 74.7155C186.727 75.407 186.398 76.0732 186.013 76.7065C185.651 77.2775 185.507 77.9596 185.607 78.6281C185.706 79.2966 186.043 79.9071 186.555 80.3479L187.063 80.7692C187.45 81.0959 187.92 81.31 188.421 81.3884C188.921 81.4667 189.434 81.4062 189.902 81.2135C190.693 71.2068 191.847 60.4384 193.134 53.9692C193.181 53.7411 193.208 53.5094 193.215 53.2767C192.8 53.0112 192.334 52.8344 191.847 52.7573Z" fill="black"/>
<path opacity="0.2" d="M161.585 96.062L160.032 97.3489C159.773 98.4108 159.519 99.5188 159.265 100.656C161.44 102.45 168.966 104.62 170.374 103.391C167.442 99.8997 161.585 96.062 161.585 96.062Z" fill="black"/>
<path d="M174.621 47.2348C174.621 47.2348 171.066 48.262 172.59 53.7963C172.779 54.4575 173.123 55.0642 173.593 55.5663C174.063 56.0684 174.645 56.4514 175.293 56.6837C175.94 56.916 176.633 56.9909 177.315 56.9023C177.997 56.8136 178.648 56.564 179.215 56.1739C185.107 52.1804 184.876 47.6561 184.876 47.6561L174.621 47.2348Z" fill="white"/>
<path d="M183.774 40.5807C183.439 43.3392 183.526 46.2247 184.876 47.6558C184.876 47.6558 184.126 50.7952 179.607 53.8134C176.693 55.7582 172.647 53.571 172.901 50.0796C172.92 49.4964 173.09 48.9281 173.393 48.4296C173.697 47.9312 174.123 47.5195 174.633 47.2346C178.372 46.5074 178.615 44.0779 177.899 39.9806L180.906 38.9764C181.182 38.758 181.516 38.6263 181.867 38.5983C182.218 38.5702 182.569 38.647 182.876 38.8188C183.184 38.9906 183.433 39.2498 183.593 39.5635C183.752 39.8772 183.815 40.2312 183.774 40.5807Z" fill="#FF8B7B"/>
<path opacity="0.2" d="M180.894 38.9764C181.153 38.7698 181.465 38.6397 181.794 38.6008C182.123 38.5619 182.456 38.6156 182.756 38.7561C183.056 38.8965 183.311 39.118 183.492 39.3955C183.672 39.673 183.772 39.9956 183.779 40.3268C182.335 42.2285 180.341 43.6391 178.066 44.3664C178.28 42.9003 178.219 41.4072 177.887 39.9633L180.894 38.9764Z" fill="black"/>
<path d="M186.884 28.5831C187.075 34.1462 187.271 36.4949 184.801 39.6574C181.079 44.4068 174.332 43.5643 172.515 38.1973C170.881 33.3729 170.847 25.0801 175.977 22.2524C181.107 19.4247 186.699 23.0142 186.884 28.5831Z" fill="#FF8B7B"/>
<path d="M181.944 22.0562C178.424 24.278 183.854 31.0703 186.959 32.9113C190.064 34.7522 190.641 26.3498 189.268 24.5608C187.894 22.7718 185.326 19.9268 181.944 22.0562Z" fill="#263238"/>
<path d="M183.935 21.6636C184.876 24.7511 175.065 27.371 170.905 26.9671C171.084 21.8945 178.234 16.9546 183.935 21.6636Z" fill="#263238"/>
<path d="M188.627 34.1174C188.189 35.104 187.387 35.8834 186.388 36.293C185.066 36.824 184.293 35.6813 184.564 34.3598C184.807 33.1652 185.788 31.4744 187.161 31.4744C188.535 31.4744 189.152 32.894 188.627 34.1174Z" fill="#FF8B7B"/>
<path d="M177.789 31.1625C177.835 31.6126 177.633 32.0051 177.345 32.0397C177.056 32.0743 176.768 31.7396 176.768 31.2895C176.768 30.8393 176.924 30.4469 177.212 30.4123C177.501 30.3777 177.743 30.7355 177.789 31.1625Z" fill="#263238"/>
<path d="M172.797 31.7743C172.838 32.2244 172.642 32.6169 172.347 32.6515C172.053 32.6861 171.77 32.3514 171.77 31.9013C171.77 31.4511 171.926 31.0587 172.215 31.0241C172.503 30.9895 172.751 31.3299 172.797 31.7743Z" fill="#263238"/>
<path d="M172.324 31.0359L171.234 30.8454C171.234 30.8454 171.857 31.6303 172.324 31.0359Z" fill="#263238"/>
<path d="M174.967 32.5361C174.539 33.5686 173.974 34.539 173.288 35.4215C173.51 35.589 173.767 35.7044 174.04 35.7594C174.312 35.8143 174.594 35.8073 174.863 35.7389L174.967 32.5361Z" fill="#FF5652"/>
<path d="M177.166 37.0606C177.141 37.0545 177.119 37.0406 177.102 37.0209C177.085 37.0012 177.075 36.9767 177.074 36.9509C177.07 36.916 177.08 36.881 177.102 36.8531C177.123 36.8253 177.154 36.8066 177.189 36.8009C177.746 36.7437 178.283 36.5574 178.756 36.2569C179.228 35.9564 179.625 35.5499 179.913 35.0696C179.921 35.0541 179.932 35.0403 179.945 35.0289C179.958 35.0176 179.974 35.009 179.99 35.0037C180.007 34.9983 180.025 34.9963 180.042 34.9977C180.059 34.9991 180.076 35.0039 180.092 35.0119C180.122 35.029 180.145 35.0573 180.155 35.0907C180.164 35.1242 180.16 35.1602 180.144 35.1908C179.838 35.7119 179.414 36.1534 178.906 36.4794C178.397 36.8053 177.819 37.0064 177.218 37.0664L177.166 37.0606Z" fill="#263238"/>
<path d="M180.398 28.8198C180.355 28.8058 180.317 28.7797 180.288 28.7448C180.075 28.5013 179.806 28.312 179.505 28.1926C179.204 28.0732 178.879 28.0271 178.557 28.058C178.523 28.0647 178.489 28.0645 178.456 28.0576C178.422 28.0507 178.391 28.0372 178.363 28.0178C178.335 27.9984 178.311 27.9736 178.293 27.9448C178.275 27.916 178.262 27.8839 178.257 27.8503C178.246 27.781 178.263 27.7103 178.302 27.6524C178.342 27.5946 178.402 27.5539 178.47 27.5387C178.881 27.4846 179.298 27.5333 179.685 27.6804C180.071 27.8275 180.416 28.0683 180.686 28.3812C180.735 28.4317 180.762 28.4989 180.762 28.5688C180.762 28.6386 180.735 28.7058 180.686 28.7563C180.649 28.7931 180.602 28.8185 180.551 28.8297C180.5 28.841 180.447 28.8375 180.398 28.8198Z" fill="#263238"/>
<path d="M170.374 28.9987L170.339 28.9583C170.303 28.8979 170.292 28.8262 170.307 28.7577C170.322 28.6891 170.362 28.6288 170.42 28.5889C170.756 28.3446 171.147 28.186 171.558 28.1266C171.969 28.0673 172.389 28.1091 172.78 28.2485C172.812 28.2628 172.841 28.2833 172.865 28.3088C172.889 28.3342 172.907 28.3642 172.92 28.3969C172.932 28.4296 172.938 28.4644 172.937 28.4994C172.935 28.5343 172.927 28.5687 172.913 28.6005C172.9 28.6319 172.88 28.6605 172.856 28.6845C172.832 28.7085 172.803 28.7275 172.771 28.7403C172.74 28.7532 172.706 28.7597 172.672 28.7595C172.638 28.7592 172.604 28.7523 172.572 28.739C172.26 28.6336 171.927 28.6053 171.601 28.6565C171.276 28.7078 170.967 28.837 170.703 29.0333C170.652 29.0666 170.592 29.0814 170.532 29.0751C170.472 29.0688 170.416 29.0418 170.374 28.9987Z" fill="#263238"/>
<path d="M177.322 30.447L176.231 30.2566C176.231 30.2566 176.854 31.0357 177.322 30.447Z" fill="#263238"/>
<path d="M162.595 66.694C162.56 69.9949 155.56 71.6858 154.083 84.1278C152.605 96.5698 168.51 107.846 178.897 103.778C189.285 99.7092 180.629 77.8087 180.629 77.8087C180.629 77.8087 162.641 61.7022 162.595 66.694Z" fill="#407BFF"/>
<path d="M162.664 57.2009C162.56 61.3328 160.985 61.9388 160.569 65.4417C160.154 68.9446 164.609 72.1128 167.546 70.9702C170.483 69.8276 168.037 63.6701 168.037 63.6701C168.037 63.6701 162.698 55.7986 162.664 57.2009Z" fill="#407BFF"/>
<path d="M161.867 72.4187L159.276 71.1318L157.978 76.014C159.177 75.8459 160.322 75.4057 161.325 74.7271L161.867 72.4187Z" fill="#FF8B7B"/>
<path d="M156.824 73.0016L155.814 76.0659L157.995 76.014L159.294 71.1318L156.824 73.0016Z" fill="#FF8B7B"/>
<path d="M188.737 49.993C189.086 49.8418 189.463 49.7644 189.843 49.7655C190.224 49.7667 190.6 49.8464 190.949 49.9997C191.297 50.153 191.61 50.3766 191.868 50.6565C192.126 50.9364 192.323 51.2665 192.447 51.6262C192.759 52.5553 193.059 53.4902 193.33 54.4309C193.861 56.3122 194.311 58.2223 194.663 60.1613C195.026 62.114 195.263 64.0878 195.373 66.0707C195.414 66.567 195.408 67.0749 195.431 67.5769C195.454 68.079 195.431 68.581 195.431 69.0889C195.431 69.5967 195.431 70.0757 195.385 70.6355L195.304 71.53L195.154 72.3898C194.679 74.5447 193.846 76.6047 192.69 78.4839C191.612 80.2257 190.39 81.8742 189.037 83.4122C187.704 84.9299 186.301 86.3438 184.853 87.7C183.38 89.0425 181.839 90.308 180.236 91.4914L178.453 89.362C179.74 88.0578 181.061 86.667 182.268 85.2416C183.474 83.8162 184.668 82.385 185.73 80.8903C186.788 79.4359 187.735 77.9042 188.564 76.3083C188.95 75.5599 189.291 74.7891 189.585 73.9999C189.843 73.2581 190.036 72.4955 190.162 71.7204L190.231 71.1779V70.6528C190.231 70.2661 190.231 69.7872 190.197 69.3601C190.162 68.9331 190.197 68.558 190.133 68.1598C190.07 67.7616 190.07 67.2018 190.001 66.7228C189.81 64.9569 189.47 63.2026 189.118 61.4425C188.766 59.6824 188.292 57.9453 187.767 56.2487C187.519 55.383 187.248 54.5174 186.965 53.6691V53.6229C186.731 52.961 186.758 52.2347 187.039 51.5916C187.321 50.9486 187.837 50.4369 188.483 50.1604L188.737 49.993Z" fill="#FF8B7B"/>
<path d="M195.356 60.0691C195.01 58.1763 194.559 56.2257 194.005 54.2636C193.74 53.3576 193.238 52.215 192.851 51.1935C192.639 50.5305 192.207 49.9595 191.627 49.5745C191.047 49.1896 190.353 49.0136 189.66 49.0756C189.244 49.0976 188.836 49.1933 188.454 49.3584L188.223 49.4622C187.414 49.8112 186.768 50.4556 186.417 51.264C186.067 52.0725 186.038 52.9843 186.336 53.8135C186.642 54.7253 186.913 55.5447 187.138 56.37C187.715 58.2801 188.148 59.9652 188.471 61.5292C188.806 63.2258 189.152 64.9917 189.343 66.7691C189.383 67.0346 189.4 67.3 189.418 67.5655C189.435 67.831 189.452 67.9752 189.475 68.183C189.516 68.5754 189.527 68.9794 189.533 69.3372V69.8219C189.533 70.0931 189.533 70.3701 189.533 70.5894V71.0511L189.469 71.5705C189.347 72.3021 189.164 73.0222 188.921 73.723C188.642 74.496 188.313 75.2498 187.934 75.9794L193.255 78.8187C194.457 76.8864 195.325 74.7659 195.823 72.5458L195.979 71.6282L196.06 70.7164C196.06 70.3355 196.06 70.0008 196.094 69.6603V69.1583C196.094 68.5812 196.094 68.0502 196.094 67.5886C196.094 67.4212 196.094 67.2539 196.094 67.0807C196.094 66.7403 196.094 66.394 196.048 66.0766C195.945 64.0615 195.713 62.055 195.356 60.0691Z" fill="#407BFF"/>
<path d="M171.562 92.305L174.529 95.4559L178.147 93.6554L175.083 88.8136L171.562 92.305Z" fill="#FF8B7B"/>
<path d="M180.051 88.1962L175.089 88.8137L178.153 93.6555C178.153 93.6555 180.854 92.0454 181.587 89.8409L180.051 88.1962Z" fill="#FF8B7B"/>
</svg>
