<svg width="1985" height="2073" viewBox="0 0 1985 2073" fill="none" xmlns="http://www.w3.org/2000/svg">
<path d="M1811.86 327.92L1801.38 310.677C1712.93 164.973 1553.04 77.0767 1384.45 87.7674C1362.7 89.1353 1341.09 92.0888 1319.78 96.6045C1166.49 129.409 1033.16 245.326 977.854 393.789C945.35 481.082 936.255 581.609 874.395 650.926C794.086 741.107 657.779 743.952 537.897 740.202C418.015 736.451 281.665 739.641 201.657 830.21C151.609 886.897 135.703 967.551 139.755 1043.46C150.402 1244.56 290.632 1424.32 468.709 1513.68C646.787 1603.04 856.678 1611.02 1051.65 1571.75C1324.83 1516.66 1584.59 1365.44 1740.77 1132.05C1896.95 898.665 1936.83 580.014 1811.86 327.92Z" fill="#F5F5F5"/>
<path d="M78.3696 1989.42C78.3696 1988.81 496.729 1988.3 1012.68 1988.3C1528.64 1988.3 1947.09 1988.81 1947.09 1989.42C1947.09 1990.02 1528.94 1990.54 1012.68 1990.54C496.428 1990.54 78.3696 1990.02 78.3696 1989.42Z" fill="#263238"/>
<path d="M1359.1 102.855H468.623C444.53 102.855 424.999 122.387 424.999 146.48V1462.34C424.999 1486.43 444.53 1505.97 468.623 1505.97H1359.1C1383.19 1505.97 1402.72 1486.43 1402.72 1462.34V146.48C1402.72 122.387 1383.19 102.855 1359.1 102.855Z" fill="#263238"/>
<path d="M1359.1 1505.97H1362.12C1363.37 1505.89 1364.63 1505.73 1365.87 1505.49C1367.6 1505.24 1369.31 1504.86 1371 1504.37C1375.75 1502.96 1380.24 1500.78 1384.27 1497.9C1389.85 1493.9 1394.42 1488.65 1397.59 1482.56C1399.56 1478.89 1401.01 1474.98 1401.9 1470.92C1402.61 1466.4 1402.87 1461.82 1402.68 1457.25C1402.68 1447.64 1402.68 1437.08 1402.68 1425.7C1402.68 1402.85 1402.68 1376.51 1402.68 1346.9C1402.68 1228.27 1402.68 1056.7 1402.38 844.694C1402.38 738.65 1402.38 622.518 1402.38 497.893C1402.38 435.56 1402.38 371.157 1402.38 304.685C1402.38 271.435 1402.38 237.753 1402.38 203.641V151.911C1402.57 147.588 1402.34 143.257 1401.69 138.979C1400.99 134.772 1399.63 130.7 1397.68 126.909C1393.71 119.271 1387.58 112.973 1380.05 108.804C1376.24 106.835 1372.18 105.385 1367.98 104.493C1363.7 103.81 1359.37 103.536 1355.05 103.674H468.753C458.792 103.628 449.132 107.081 441.458 113.432C433.784 119.782 428.584 128.625 426.766 138.419C426.006 143.323 425.746 148.291 425.99 153.248V317.488C425.99 396.289 425.99 473.882 425.99 550.269C425.99 702.87 425.99 849.997 425.99 990.226C425.99 1130.46 425.99 1263.61 425.99 1388.28V1434.62C425.99 1442.3 425.99 1449.93 425.99 1457.51C425.879 1461.26 426.052 1465 426.507 1468.72C427.047 1472.38 428.046 1475.96 429.481 1479.37C432.415 1486.11 437.024 1491.99 442.872 1496.45C448.719 1500.91 455.611 1503.8 462.89 1504.84C466.51 1505.25 470.155 1505.39 473.796 1505.28H672.997L1175.16 1505.58L672.997 1505.88H506.558H473.796C470.082 1506 466.364 1505.84 462.674 1505.41C453.177 1504.11 444.36 1499.76 437.555 1493.01C430.75 1486.26 426.327 1477.47 424.955 1467.99C424.461 1464.2 424.288 1460.38 424.438 1456.56C424.438 1448.98 424.438 1441.35 424.438 1433.67V1388.2C424.438 1263.53 424.438 1130.33 424.438 990.14C424.438 849.954 424.438 702.784 424.438 550.183C424.438 473.94 424.438 396.346 424.438 317.402V153.42C424.219 148.333 424.494 143.237 425.257 138.203C427.064 127.998 432.331 118.727 440.172 111.951C448.249 105.37 458.334 101.749 468.753 101.691H1354.44C1358.9 101.551 1363.36 101.84 1367.76 102.553C1372.14 103.402 1376.37 104.853 1380.35 106.864C1388.2 111.202 1394.6 117.773 1398.71 125.745C1400.79 129.693 1402.25 133.939 1403.02 138.333C1403.68 142.61 1403.93 146.941 1403.76 151.265V202.994C1403.76 237.135 1403.76 270.817 1403.76 304.038C1403.76 370.424 1403.76 434.827 1403.76 497.247C1403.76 621.871 1403.76 738.003 1403.76 844.048C1403.76 1056.05 1403.54 1227.71 1403.46 1346.25C1403.46 1375.87 1403.46 1402.29 1403.46 1425.05C1403.46 1436.43 1403.46 1446.99 1403.46 1456.61C1403.61 1461.21 1403.33 1465.81 1402.59 1470.36C1401.68 1474.44 1400.23 1478.38 1398.28 1482.08C1395.03 1488.2 1390.42 1493.48 1384.79 1497.52C1380.7 1500.39 1376.15 1502.54 1371.34 1503.9C1369.66 1504.39 1367.94 1504.76 1366.21 1505.02C1364.96 1505.23 1363.69 1505.36 1362.42 1505.41L1359.1 1505.97Z" fill="#263238"/>
<path d="M1368.28 202.951H452.199V1374.7H1368.28V202.951Z" fill="white"/>
<path d="M1368.28 1374.75C1368.28 1366.99 1367.89 898.579 1367.37 202.951L1368.28 203.856L452.329 203.942L453.32 202.951C453.32 637.476 453.32 1040.92 453.32 1374.75L452.501 1373.93L1368.58 1374.75L452.329 1375.56H451.51V1374.75C451.51 1040.92 451.51 637.605 451.51 202.951V201.959H452.329H1368.32H1369.19V202.821C1368.62 898.579 1368.28 1366.99 1368.28 1374.75Z" fill="#263238"/>
<path d="M951.386 1435.36C951.386 1442.78 949.183 1450.04 945.055 1456.22C940.928 1462.4 935.061 1467.21 928.198 1470.05C921.334 1472.89 913.783 1473.63 906.498 1472.18C899.214 1470.73 892.524 1467.14 887.274 1461.89C882.025 1456.63 878.453 1449.94 877.009 1442.65C875.565 1435.37 876.315 1427.82 879.163 1420.96C882.011 1414.1 886.831 1408.24 893.011 1404.12C899.191 1399.99 906.455 1397.8 913.882 1397.81C923.833 1397.82 933.372 1401.78 940.404 1408.82C947.436 1415.86 951.386 1425.4 951.386 1435.36Z" fill="#455A64"/>
<path d="M1010.1 163.076H810.381C806.688 163.076 803.146 161.609 800.535 158.998C797.924 156.387 796.457 152.845 796.457 149.153C796.457 145.46 797.924 141.918 800.535 139.307C803.146 136.696 806.688 135.229 810.381 135.229H1010.1C1013.79 135.229 1017.33 136.696 1019.94 139.307C1022.56 141.918 1024.02 145.46 1024.02 149.153C1024.02 152.845 1022.56 156.387 1019.94 158.998C1017.33 161.609 1013.79 163.076 1010.1 163.076Z" fill="#455A64"/>
<path d="M1358.41 292.313C1358.41 292.701 1156.15 293.046 906.727 293.046C657.306 293.046 455.001 292.701 455.001 292.313C455.001 291.925 657.219 291.58 906.727 291.58C1156.23 291.58 1358.41 291.925 1358.41 292.313Z" fill="#263238"/>
<path d="M1075.79 253.085C1075.79 253.473 1006.82 253.818 921.728 253.818C836.633 253.818 767.618 253.473 767.618 253.085C767.618 252.697 836.59 252.352 921.728 252.352C1006.87 252.352 1075.79 252.697 1075.79 253.085Z" fill="#455A64"/>
<path d="M498.756 247.955C498.756 249.797 498.21 251.597 497.187 253.128C496.163 254.66 494.709 255.853 493.008 256.558C491.306 257.263 489.434 257.447 487.628 257.088C485.822 256.728 484.163 255.842 482.861 254.539C481.558 253.237 480.671 251.578 480.312 249.772C479.953 247.966 480.137 246.093 480.842 244.392C481.547 242.691 482.74 241.236 484.272 240.213C485.803 239.19 487.603 238.644 489.445 238.644C491.914 238.644 494.282 239.625 496.029 241.371C497.775 243.117 498.756 245.486 498.756 247.955Z" fill="#E0E0E0"/>
<path d="M530.224 247.955C530.224 249.797 529.678 251.597 528.655 253.128C527.632 254.66 526.178 255.853 524.476 256.558C522.775 257.263 520.903 257.447 519.097 257.088C517.29 256.728 515.631 255.842 514.329 254.539C513.027 253.237 512.14 251.578 511.781 249.772C511.421 247.966 511.606 246.093 512.311 244.392C513.015 242.691 514.209 241.236 515.74 240.213C517.271 239.19 519.071 238.644 520.913 238.644C523.383 238.644 525.751 239.625 527.497 241.371C529.243 243.117 530.224 245.486 530.224 247.955Z" fill="#E0E0E0"/>
<path d="M561.693 247.955C561.693 249.797 561.147 251.597 560.124 253.128C559.101 254.66 557.646 255.853 555.945 256.558C554.244 257.263 552.371 257.447 550.565 257.088C548.759 256.728 547.1 255.842 545.798 254.539C544.496 253.237 543.609 251.578 543.249 249.772C542.89 247.966 543.075 246.093 543.779 244.392C544.484 242.691 545.678 241.236 547.209 240.213C548.74 239.19 550.54 238.644 552.382 238.644C554.851 238.644 557.22 239.625 558.966 241.371C560.712 243.117 561.693 245.486 561.693 247.955Z" fill="#E0E0E0"/>
<path d="M798.655 413.92H777.964L774.041 423.489H763.437L783.309 378.873H793.526L813.441 423.489H802.621L798.655 413.92ZM795.422 406.074L788.353 388.831L781.283 406.074H795.422Z" fill="#455A64"/>
<path d="M846.505 423.489L837.884 411.074H828.357V423.489H818.054V378.873H837.366C849.264 378.873 856.722 385.081 856.722 395.082C856.847 398.089 856.029 401.06 854.382 403.579C852.736 406.099 850.344 408.041 847.54 409.135L857.541 423.489H846.505ZM836.806 387.322H828.4V402.841H836.806C843.143 402.841 846.333 399.91 846.333 395.082C846.333 390.253 843.143 387.322 836.806 387.322Z" fill="#455A64"/>
<path d="M873.49 387.322H859.222V378.701H898.019V387.322H883.836V423.49H873.49V387.322Z" fill="#455A64"/>
<path d="M903.623 378.873H913.968V423.489H903.623V378.873Z" fill="#455A64"/>
<path d="M921.728 401.203C922.027 396.403 923.727 391.796 926.62 387.953C929.512 384.111 933.468 381.202 937.998 379.586C942.528 377.97 947.432 377.72 952.103 378.865C956.774 380.01 961.006 382.501 964.275 386.029L957.636 392.15C956.277 390.498 954.564 389.172 952.625 388.27C950.685 387.367 948.568 386.911 946.428 386.934C942.644 386.934 939.015 388.438 936.339 391.113C933.663 393.789 932.16 397.419 932.16 401.203C932.16 404.987 933.663 408.616 936.339 411.292C939.015 413.968 942.644 415.472 946.428 415.472C948.575 415.488 950.698 415.019 952.638 414.101C954.579 413.183 956.287 411.839 957.636 410.169L964.275 416.291C961.029 419.855 956.803 422.381 952.127 423.553C947.451 424.726 942.533 424.491 937.99 422.88C933.446 421.269 929.479 418.353 926.586 414.496C923.693 410.64 922.003 406.016 921.728 401.203Z" fill="#455A64"/>
<path d="M971.215 378.873H981.518V415.083H1004.11V423.705H971.431L971.215 378.873Z" fill="#455A64"/>
<path d="M1044.2 415.213V423.489H1009.71V378.873H1043.42V387.193H1019.97V396.849H1040.66V405.083H1019.97V415.428L1044.2 415.213Z" fill="#455A64"/>
<path d="M741.408 405.083C741.408 405.471 693.602 405.816 634.631 405.816C575.66 405.816 527.81 405.471 527.81 405.083C527.81 404.695 575.616 404.35 634.631 404.35C693.645 404.35 741.408 404.781 741.408 405.083Z" fill="#263238"/>
<path d="M1309.39 405.083C1309.39 405.471 1259.17 405.816 1197.32 405.816C1135.46 405.816 1085.24 405.471 1085.24 405.083C1085.24 404.695 1135.41 404.35 1197.32 404.35C1259.22 404.35 1309.39 404.781 1309.39 405.083Z" fill="#263238"/>
<path d="M900.864 535.354C900.864 536.044 816.976 536.561 713.518 536.561C610.06 536.561 526.086 536.044 526.086 535.354C526.086 534.664 609.973 534.104 713.518 534.104C817.063 534.104 900.864 534.664 900.864 535.354Z" fill="#263238"/>
<path d="M1029.02 531.647C1029.02 532.336 1006.26 532.854 978.242 532.854C950.222 532.854 927.461 532.336 927.461 531.647C927.461 530.957 950.179 530.396 978.242 530.396C1006.3 530.396 1029.02 530.957 1029.02 531.647Z" fill="#263238"/>
<path d="M1277.5 529.491C1277.5 530.138 1230.55 530.698 1172.7 530.698C1114.85 530.698 1067.91 530.138 1067.91 529.491C1067.91 528.845 1114.81 528.241 1172.7 528.241C1230.59 528.241 1277.5 528.802 1277.5 529.491Z" fill="#263238"/>
<path d="M1275.34 572.685C1275.34 573.375 1107 573.935 899.398 573.935C691.792 573.935 523.456 573.375 523.456 572.685C523.456 571.995 691.576 571.478 899.398 571.478C1107.22 571.478 1275.34 571.995 1275.34 572.685Z" fill="#263238"/>
<path d="M873.447 618.077C873.447 618.724 795.595 619.284 699.551 619.284C603.507 619.284 525.612 618.724 525.612 618.077C525.612 617.431 603.464 616.827 699.551 616.827C795.638 616.827 873.447 617.388 873.447 618.077Z" fill="#263238"/>
<path d="M1000.92 618.077C1000.92 618.724 979.621 619.284 953.498 619.284C927.375 619.284 906.08 618.724 906.08 618.077C921.853 616.834 937.681 616.416 953.498 616.827C969.315 616.416 985.143 616.833 1000.92 618.077Z" fill="#263238"/>
<path d="M1275.34 613.724C1275.34 614.413 1220.68 614.974 1153.26 614.974C1085.84 614.974 1031.18 614.413 1031.18 613.724C1031.18 613.034 1085.84 612.517 1153.26 612.517C1220.68 612.517 1275.34 613.077 1275.34 613.724Z" fill="#263238"/>
<path d="M896.338 1006.82C896.338 1007.51 812.407 1008.07 708.949 1008.07C605.49 1008.07 521.517 1007.51 521.517 1006.82C521.517 1006.13 605.404 1005.62 708.949 1005.62C812.493 1005.62 896.338 1006.18 896.338 1006.82Z" fill="#263238"/>
<path d="M1024.28 1003.12C1024.28 1003.8 1001.56 1004.37 973.5 1004.37C945.437 1004.37 922.719 1003.8 922.719 1003.12C922.719 1002.43 945.48 1001.91 973.5 1001.91C1001.52 1001.91 1024.28 1002.47 1024.28 1003.12Z" fill="#263238"/>
<path d="M1272.75 1000.96C1272.75 1001.65 1225.81 1002.21 1167.96 1002.21C1110.11 1002.21 1063.16 1001.65 1063.16 1000.96C1063.16 1000.27 1110.07 999.968 1167.92 999.968C1225.77 999.968 1272.75 1000.27 1272.75 1000.96Z" fill="#263238"/>
<path d="M1270.6 1044.2C1270.6 1044.84 1102.26 1045.4 894.656 1045.4C687.05 1045.4 518.714 1044.84 518.714 1044.2C518.714 1043.55 686.834 1042.95 894.656 1042.95C1102.48 1042.95 1270.6 1043.51 1270.6 1044.2Z" fill="#263238"/>
<path d="M868.705 1089.55C868.705 1090.24 790.853 1090.8 694.809 1090.8C598.765 1090.8 520.87 1090.24 520.87 1089.55C520.87 1088.86 598.722 1088.34 694.809 1088.34C790.896 1088.34 868.705 1088.86 868.705 1089.55Z" fill="#263238"/>
<path d="M996.175 1089.55C980.402 1090.79 964.574 1091.21 948.757 1090.8C932.939 1091.21 917.112 1090.79 901.338 1089.55C917.113 1088.33 932.94 1087.93 948.757 1088.34C964.573 1087.93 980.4 1088.33 996.175 1089.55Z" fill="#263238"/>
<path d="M1270.6 1085.24C1270.6 1085.92 1215.94 1086.44 1148.52 1086.44C1081.1 1086.44 1026.44 1085.92 1026.44 1085.24C1026.44 1084.55 1081.1 1083.98 1148.52 1083.98C1215.94 1083.98 1270.6 1084.55 1270.6 1085.24Z" fill="#263238"/>
<path d="M983.113 666.1H522.939V959.878H983.113V666.1Z" fill="#FF725E"/>
<path d="M963.284 936.514C963.284 936.514 963.284 934.919 963.284 931.901V918.667C963.284 907.028 963.284 890 963.284 868.188C963.284 824.563 962.982 761.755 962.767 684.851L963.715 685.799L546.735 686.058L547.942 684.851C547.942 773.998 547.942 859.049 547.942 936.514L546.821 935.35L846.721 935.91L932.936 936.212H955.869H961.818H963.887H961.991H956.171H933.41L847.54 936.514L546.907 937.074H545.743V935.953C545.743 858.359 545.743 773.437 545.743 684.291V683.041H546.993L963.974 683.342H964.965V684.291C964.965 761.453 964.62 824.434 964.491 868.231C964.491 889.785 964.491 907.028 964.232 918.495V931.427C963.37 935.048 963.284 936.514 963.284 936.514Z" fill="#263238"/>
<g opacity="0.2">
<path d="M557.554 936.514L678.17 781.024L765.376 880.603L832.064 820.554L953.412 936.514H557.554Z" fill="black"/>
</g>
<g opacity="0.2">
<path d="M792.319 762.531C792.319 767.853 790.74 773.055 787.782 777.48C784.825 781.904 780.621 785.352 775.703 787.387C770.786 789.421 765.375 789.952 760.156 788.91C754.937 787.869 750.144 785.303 746.384 781.536C742.623 777.77 740.065 772.973 739.032 767.752C737.999 762.532 738.538 757.122 740.58 752.207C742.623 747.293 746.077 743.095 750.506 740.144C754.936 737.194 760.141 735.623 765.463 735.632C768.993 735.632 772.489 736.328 775.75 737.68C779.011 739.033 781.974 741.015 784.468 743.513C786.962 746.011 788.94 748.977 790.287 752.24C791.634 755.504 792.324 759.001 792.319 762.531Z" fill="black"/>
</g>
<path d="M1275.34 663.728C1275.34 664.418 1217.58 664.979 1146.32 664.979C1075.06 664.979 1017.34 664.418 1017.34 663.728C1017.34 663.039 1075.06 662.521 1146.32 662.521C1217.58 662.521 1275.34 662.823 1275.34 663.728Z" fill="#263238"/>
<path d="M1275.34 709.251C1275.34 709.94 1217.58 710.458 1146.32 710.458C1075.06 710.458 1017.34 709.94 1017.34 709.251C1017.34 708.561 1075.06 708 1146.32 708C1217.58 708 1275.34 708.561 1275.34 709.251Z" fill="#263238"/>
<path d="M1266.07 908.235C1266.07 908.925 1208.31 909.485 1137.09 909.485C1065.88 909.485 1008.07 908.925 1008.07 908.235C1008.07 907.546 1065.84 907.028 1137.09 907.028C1208.35 907.028 1266.07 907.589 1266.07 908.235Z" fill="#263238"/>
<path d="M1266.07 959.878C1266.07 960.525 1208.31 961.085 1137.09 961.085C1065.88 961.085 1008.07 960.525 1008.07 959.878C1008.07 959.231 1065.84 958.628 1137.09 958.628C1208.35 958.628 1266.07 959.188 1266.07 959.878Z" fill="#263238"/>
<path d="M1191.06 754.987C1191.06 755.634 1152.27 756.194 1104.2 756.194C1056.14 756.194 1017.34 755.634 1017.34 754.987C1017.34 754.341 1056.14 753.737 1104.2 753.737C1152.27 753.737 1191.06 754.255 1191.06 754.987Z" fill="#263238"/>
<path d="M1277.24 754.255C1266.48 755.502 1255.64 755.92 1244.82 755.505C1234 755.919 1223.16 755.501 1212.4 754.255C1223.16 753.063 1234 752.659 1244.82 753.048C1255.64 752.658 1266.47 753.061 1277.24 754.255Z" fill="#263238"/>
<path d="M1277.24 805.122C1277.24 805.811 1238.44 806.329 1190.72 806.329C1143 806.329 1104.2 805.811 1104.2 805.122C1104.2 804.432 1143 803.872 1190.72 803.872C1238.44 803.872 1277.24 804.432 1277.24 805.122Z" fill="#263238"/>
<path d="M1191.06 856.334C1191.06 857.023 1152.27 857.541 1104.2 857.541C1056.14 857.541 1017.34 857.023 1017.34 856.334C1017.34 855.644 1056.14 855.083 1104.2 855.083C1152.27 855.083 1191.06 855.644 1191.06 856.334Z" fill="#263238"/>
<path d="M1277.24 855.816C1266.47 857.009 1255.64 857.413 1244.82 857.023C1234 857.411 1223.16 857.008 1212.4 855.816C1223.16 854.57 1234 854.152 1244.82 854.566C1255.64 854.151 1266.48 854.569 1277.24 855.816Z" fill="#263238"/>
<path d="M1069.85 803.958C1061.94 805.148 1053.94 805.552 1045.96 805.165C1037.98 805.552 1029.98 805.148 1022.08 803.958C1029.98 802.714 1037.98 802.295 1045.96 802.708C1053.95 802.295 1061.95 802.714 1069.85 803.958Z" fill="#263238"/>
<path d="M847.324 1282.54C848.067 1282.43 848.815 1282.36 849.566 1282.32L852.368 1282.11L856.161 1281.5C864.558 1279.89 872.422 1276.21 879.051 1270.81C884.217 1266.51 888.475 1261.22 891.576 1255.26C894.677 1249.29 896.559 1242.77 897.113 1236.07C897.372 1232.19 897.113 1228.09 897.113 1223.87C897.113 1221.76 897.113 1219.56 897.113 1217.45C897.113 1216.37 897.113 1215.29 897.113 1214.17L896.639 1210.94C896.285 1208.72 895.781 1206.53 895.131 1204.38C894.388 1202.2 893.524 1200.05 892.544 1197.96C890.521 1193.6 887.846 1189.58 884.612 1186.02C877.723 1178.32 868.608 1172.96 858.532 1170.67C853.142 1169.6 847.642 1169.18 842.151 1169.42H824.908H750.03H578.462C567.419 1169.42 556.691 1173.1 547.987 1179.9C539.284 1186.7 533.107 1196.21 530.44 1206.93C529.013 1213.95 528.491 1221.12 528.888 1228.27C528.6 1235.26 529.654 1242.24 531.992 1248.83C534.362 1255.26 538.03 1261.13 542.769 1266.07C547.345 1270.88 552.848 1274.71 558.946 1277.33C565.043 1279.96 571.609 1281.32 578.246 1281.33L718.389 1281.59L812.838 1281.94L838.703 1282.15H812.838L718.389 1282.5L578.246 1282.75C571.327 1282.74 564.481 1281.34 558.119 1278.62C551.756 1275.9 546.007 1271.93 541.217 1266.93C536.377 1262.08 532.539 1256.33 529.923 1249.99C527.478 1243.17 526.366 1235.94 526.646 1228.7C526.239 1221.37 526.775 1214.03 528.241 1206.84C531.03 1195.64 537.485 1185.7 546.577 1178.59C555.669 1171.48 566.878 1167.62 578.419 1167.61H749.987H824.865H842.108C847.733 1167.4 853.363 1167.86 858.877 1168.99C869.291 1171.39 878.696 1176.98 885.776 1184.99C889.068 1188.68 891.799 1192.83 893.88 1197.31C894.887 1199.47 895.751 1201.69 896.467 1203.95C897.102 1206.17 897.62 1208.41 898.019 1210.68C898.019 1211.8 898.321 1212.92 898.493 1214.04V1217.4C898.493 1219.6 898.493 1221.71 898.493 1223.87C898.493 1228.18 898.493 1232.15 898.234 1236.2C897.642 1243.04 895.671 1249.69 892.441 1255.75C889.211 1261.81 884.788 1267.15 879.439 1271.46C872.706 1276.92 864.669 1280.53 856.118 1281.94L852.282 1282.45H849.436L847.324 1282.54Z" fill="#263238"/>
<path d="M1261.59 1166.1H992.554C964.58 1166.1 941.902 1188.78 941.902 1216.76V1229.47C941.902 1257.45 964.58 1280.12 992.554 1280.12H1261.59C1289.56 1280.12 1312.24 1257.45 1312.24 1229.47V1216.76C1312.24 1188.78 1289.56 1166.1 1261.59 1166.1Z" fill="#FF725E"/>
<path d="M1076.44 1236.07L1078.9 1230.64C1081.91 1232.74 1085.49 1233.88 1089.16 1233.91C1093.47 1233.91 1095.19 1232.49 1095.19 1230.55C1095.19 1224.73 1077.09 1228.74 1077.09 1217.14C1077.09 1211.89 1081.4 1207.45 1090.02 1207.45C1093.81 1207.37 1097.55 1208.33 1100.84 1210.2L1098.94 1215.51C1096.32 1213.98 1093.35 1213.15 1090.32 1213.09C1086.01 1213.09 1084.42 1214.69 1084.42 1216.63C1084.42 1222.36 1102.52 1218.44 1102.52 1229.86C1102.52 1235.08 1098.21 1239.52 1089.29 1239.52C1084.75 1239.72 1080.27 1238.51 1076.44 1236.07Z" fill="white"/>
<path d="M1135.89 1208.01V1239.17H1128.69V1226.24H1114.51V1239.17H1107.31V1208.01H1114.51V1220.29H1128.69V1208.01H1135.89Z" fill="white"/>
<path d="M1163.6 1232.49H1149.16L1146.4 1239.17H1138.99L1152.87 1208.01H1160.03L1173.95 1239.17H1166.36L1163.6 1232.49ZM1161.36 1227.02L1156.41 1215.08L1151.45 1227.02H1161.36Z" fill="white"/>
<path d="M1197.23 1239.17L1191.24 1230.55H1184.6V1239.17H1177.36V1208.01H1190.85C1199.17 1208.01 1204.38 1212.32 1204.38 1219.3C1204.48 1221.4 1203.92 1223.48 1202.78 1225.24C1201.63 1227 1199.96 1228.36 1198 1229.13L1204.99 1239.17H1197.23ZM1190.46 1213.87H1184.6V1224.73H1190.46C1194.77 1224.73 1197.1 1222.71 1197.1 1219.3C1197.1 1215.89 1194.86 1213.87 1190.46 1213.87Z" fill="white"/>
<path d="M1234.22 1233.35V1239.17H1210.07V1208.01H1233.65V1213.78H1217.27V1220.55H1231.71V1226.15H1217.27V1233.35H1234.22Z" fill="white"/>
<path d="M1057.56 1241.37H1024.28C1023.71 1241.37 1023.16 1241.14 1022.76 1240.74C1022.35 1240.34 1022.13 1239.79 1022.13 1239.22V1213.87C1022.13 1213.3 1022.35 1212.75 1022.76 1212.34C1023.16 1211.94 1023.71 1211.71 1024.28 1211.71H1031.65C1032.22 1211.71 1032.77 1211.94 1033.18 1212.34C1033.58 1212.75 1033.81 1213.3 1033.81 1213.87C1033.81 1214.44 1033.58 1214.99 1033.18 1215.39C1032.77 1215.8 1032.22 1216.02 1031.65 1216.02H1026.44V1237.06H1055.4V1216.02H1050.06C1049.49 1216.02 1048.94 1215.8 1048.54 1215.39C1048.13 1214.99 1047.9 1214.44 1047.9 1213.87C1047.9 1213.3 1048.13 1212.75 1048.54 1212.34C1048.94 1211.94 1049.49 1211.71 1050.06 1211.71H1057.56C1058.13 1211.71 1058.68 1211.94 1059.08 1212.34C1059.49 1212.75 1059.72 1213.3 1059.72 1213.87V1239.22C1059.7 1239.78 1059.47 1240.33 1059.07 1240.73C1058.67 1241.13 1058.13 1241.36 1057.56 1241.37Z" fill="white"/>
<path d="M1040.92 1230.94C1040.35 1230.94 1039.8 1230.71 1039.4 1230.31C1038.99 1229.9 1038.77 1229.36 1038.77 1228.78V1197.75C1038.77 1197.17 1038.99 1196.63 1039.4 1196.22C1039.8 1195.82 1040.35 1195.59 1040.92 1195.59C1041.49 1195.59 1042.04 1195.82 1042.44 1196.22C1042.85 1196.63 1043.08 1197.17 1043.08 1197.75V1228.78C1043.08 1229.36 1042.85 1229.9 1042.44 1230.31C1042.04 1230.71 1041.49 1230.94 1040.92 1230.94Z" fill="white"/>
<path d="M1047.21 1208.22C1046.89 1208.23 1046.57 1208.15 1046.28 1208.01C1045.98 1207.87 1045.73 1207.66 1045.53 1207.4L1040.71 1201.15L1035.27 1207.49C1034.89 1207.92 1034.36 1208.18 1033.79 1208.22C1033.22 1208.26 1032.65 1208.07 1032.21 1207.7C1032 1207.52 1031.82 1207.3 1031.69 1207.05C1031.57 1206.8 1031.49 1206.52 1031.47 1206.24C1031.45 1205.96 1031.49 1205.68 1031.58 1205.41C1031.67 1205.14 1031.81 1204.9 1032 1204.69L1039.15 1196.32C1039.37 1196.09 1039.63 1195.9 1039.92 1195.78C1040.21 1195.65 1040.52 1195.59 1040.83 1195.59C1041.15 1195.59 1041.47 1195.66 1041.75 1195.8C1042.04 1195.95 1042.28 1196.15 1042.47 1196.41L1048.94 1204.77C1049.2 1205.09 1049.36 1205.47 1049.4 1205.88C1049.45 1206.28 1049.38 1206.69 1049.19 1207.06C1049.01 1207.42 1048.73 1207.72 1048.38 1207.93C1048.03 1208.14 1047.62 1208.24 1047.21 1208.22Z" fill="white"/>
<path d="M627.949 1223.18C628.132 1220.15 629.201 1217.24 631.022 1214.82C632.844 1212.39 635.338 1210.56 638.195 1209.54C641.051 1208.52 644.145 1208.36 647.09 1209.08C650.036 1209.81 652.704 1211.38 654.762 1213.61L650.451 1217.49C649.595 1216.45 648.515 1215.61 647.291 1215.04C646.067 1214.48 644.731 1214.19 643.382 1214.21C642.149 1214.13 640.912 1214.3 639.747 1214.71C638.583 1215.12 637.516 1215.77 636.612 1216.61C635.709 1217.46 634.989 1218.48 634.496 1219.61C634.004 1220.74 633.749 1221.97 633.749 1223.2C633.749 1224.44 634.004 1225.66 634.496 1226.79C634.989 1227.93 635.709 1228.95 636.612 1229.79C637.516 1230.63 638.583 1231.28 639.747 1231.69C640.912 1232.11 642.149 1232.27 643.382 1232.19C644.735 1232.21 646.076 1231.92 647.301 1231.35C648.526 1230.77 649.604 1229.93 650.451 1228.87L654.762 1232.71C652.715 1234.95 650.05 1236.54 647.102 1237.28C644.154 1238.02 641.054 1237.87 638.19 1236.85C635.327 1235.83 632.827 1233.99 631.006 1231.56C629.184 1229.13 628.121 1226.21 627.949 1223.18Z" fill="#263238"/>
<path d="M677.135 1231.24H664.203L661.703 1237.28H654.935L667.479 1209.13H673.902L686.489 1237.28H679.635L677.135 1231.24ZM675.066 1226.28L670.755 1215.51L666.444 1226.28H675.066Z" fill="#263238"/>
<path d="M715.285 1209.13V1237.28H709.94L695.887 1220.03V1237.28H689.421V1209.13H694.809L708.776 1226.37V1209.13H715.285Z" fill="#263238"/>
<path d="M720.07 1223.18C720.264 1220.15 721.341 1217.25 723.168 1214.83C724.995 1212.41 727.491 1210.57 730.348 1209.55C733.205 1208.54 736.298 1208.38 739.245 1209.1C742.191 1209.82 744.862 1211.39 746.926 1213.61L742.616 1217.49C741.753 1216.45 740.672 1215.62 739.449 1215.06C738.227 1214.49 736.893 1214.2 735.546 1214.21C734.313 1214.13 733.076 1214.3 731.912 1214.71C730.747 1215.12 729.68 1215.77 728.777 1216.61C727.873 1217.46 727.153 1218.48 726.66 1219.61C726.168 1220.74 725.914 1221.97 725.914 1223.2C725.914 1224.44 726.168 1225.66 726.66 1226.79C727.153 1227.93 727.873 1228.95 728.777 1229.79C729.68 1230.63 730.747 1231.28 731.912 1231.69C733.076 1232.11 734.313 1232.27 735.546 1232.19C736.898 1232.2 738.235 1231.91 739.459 1231.34C740.683 1230.76 741.762 1229.92 742.616 1228.87L746.926 1232.71C744.873 1234.95 742.206 1236.53 739.257 1237.27C736.308 1238 733.208 1237.85 730.344 1236.83C727.48 1235.82 724.979 1233.98 723.152 1231.55C721.325 1229.13 720.253 1226.21 720.07 1223.18Z" fill="#263238"/>
<path d="M773.093 1232.06V1237.28H751.539V1209.13H772.791V1214.34H758.005V1220.46H770.937V1225.51H758.005V1232.06H773.093Z" fill="#263238"/>
<path d="M778.266 1209.13H784.775V1231.97H798.914V1237.28H778.266V1209.13Z" fill="#263238"/>
<path d="M1265.12 1241.76L1275.86 1305.34L1290.34 1295.34L1306.46 1315.99L1323.75 1303.58L1307.76 1283.36L1321.51 1272.62L1265.12 1241.76Z" fill="#263238"/>
<path d="M310.85 1545.28C311.324 1545.88 315.16 1543.56 319.471 1540.11C323.782 1536.66 326.886 1533.43 326.455 1532.82C326.023 1532.22 322.144 1534.59 317.833 1537.99C313.522 1541.4 310.418 1544.72 310.85 1545.28Z" fill="#263238"/>
<path d="M193.683 1370.05C192.993 1353.67 192.519 1336.85 197.692 1321.29C202.865 1305.73 214.935 1291.46 230.928 1288.14C249.249 1284.35 268 1295.9 278.346 1311.55C288.692 1327.2 292.141 1346.04 295.158 1364.62C316.022 1491.96 323.664 1621.12 317.962 1750.04L243.041 1760.52C210.107 1625.93 199.589 1508.38 193.683 1370.05Z" fill="#455A64"/>
<path d="M241.101 1287.54C241.16 1287.96 241.277 1288.36 241.446 1288.75L242.696 1292.15L247.653 1305.08C248.731 1307.93 250.111 1310.99 251.231 1314.44L254.852 1325.82C256.189 1329.87 257.568 1334.44 259.163 1338.75L263 1353.62C269.271 1378.05 274.107 1402.82 277.484 1427.81C281.536 1456 284.209 1487.21 286.105 1520.02C289.942 1585.67 290.416 1645.29 292.227 1688.4C293.003 1709.95 293.736 1727.19 294.555 1739.44C294.986 1745.3 295.287 1749.91 295.503 1753.32L295.848 1756.9C295.848 1757.71 295.848 1758.15 295.848 1758.1C295.915 1757.7 295.915 1757.3 295.848 1756.9C295.848 1755.9 295.848 1754.74 295.848 1753.27C295.848 1749.87 295.589 1745.26 295.417 1739.39C294.899 1727.37 294.468 1709.91 293.908 1688.35C292.701 1645.25 292.399 1585.63 288.563 1519.85C286.925 1487.08 284.209 1455.79 279.898 1427.55C276.414 1402.57 271.404 1377.82 264.896 1353.45C263.474 1348.24 262.095 1343.28 260.844 1338.58C259.594 1333.88 257.784 1329.61 256.534 1325.65C255.283 1321.68 253.861 1317.8 252.697 1314.31C251.533 1310.82 250.024 1307.8 248.904 1305L243.429 1292.07L241.963 1288.75C241.748 1288.3 241.456 1287.89 241.101 1287.54Z" fill="#263238"/>
<path d="M234.29 1287.58C230.387 1292.2 227.297 1297.45 225.151 1303.1C219.379 1318.58 217.041 1335.13 218.297 1351.6C220.28 1393.02 223.988 1450.1 228.945 1513.08C233.902 1576.06 239.377 1633.09 243.817 1674.26C246.016 1694.86 248.128 1711.5 249.335 1723.01C250.068 1728.57 250.628 1732.97 251.016 1736.25C251.016 1737.58 251.404 1738.75 251.533 1739.65C251.565 1740.05 251.652 1740.44 251.792 1740.82C251.841 1740.42 251.841 1740.01 251.792 1739.61C251.792 1738.7 251.792 1737.54 251.533 1736.16C251.232 1732.88 250.844 1728.49 250.326 1722.88C249.206 1711.12 247.611 1694.52 245.628 1674.09C241.705 1632.87 236.489 1575.89 231.531 1512.86C226.574 1449.84 222.608 1392.81 220.151 1351.51C218.756 1335.27 220.767 1318.91 226.057 1303.49C228.34 1297.96 231.094 1292.64 234.29 1287.58Z" fill="#263238"/>
<path d="M182.302 1481.57C182.561 1482.3 188.941 1480.62 196.528 1477.9C201.294 1476.64 205.803 1474.56 209.848 1471.74C209.589 1471.01 203.209 1472.69 195.622 1475.4C190.856 1476.66 186.347 1478.75 182.302 1481.57Z" fill="#263238"/>
<path d="M173.293 1405.18C172.991 1405.87 179.026 1409.23 186.786 1412.72C194.545 1416.22 201.097 1418.46 201.399 1417.77C197.35 1414.53 192.79 1412 187.906 1410.27C183.357 1407.76 178.416 1406.04 173.293 1405.18Z" fill="#263238"/>
<path d="M177.991 1342.85C181.618 1343.9 185.442 1344.1 189.156 1343.41C192.932 1343.59 196.699 1342.88 200.149 1341.34C200.149 1340.56 195.062 1340.35 188.941 1340.73C185.176 1340.57 181.426 1341.3 177.991 1342.85Z" fill="#263238"/>
<path d="M255.327 1302.89C255.93 1303.27 259.25 1299.22 262.655 1293.75C266.061 1288.27 268.345 1283.62 267.699 1283.19C267.052 1282.75 263.819 1286.89 260.37 1292.32C256.922 1297.76 254.68 1302.5 255.327 1302.89Z" fill="#263238"/>
<path d="M280.889 1340.52C284.294 1341.76 287.95 1342.14 291.537 1341.64C295.135 1341.99 298.764 1341.44 302.098 1340.05C298.688 1338.83 295.035 1338.46 291.451 1338.97C287.856 1338.59 284.224 1339.12 280.889 1340.52Z" fill="#263238"/>
<path d="M299.21 1416.04C303.133 1415.87 306.966 1414.81 310.418 1412.94C316.324 1410.57 320.893 1408.07 320.635 1407.38C316.719 1407.6 312.897 1408.66 309.427 1410.48C303.521 1412.85 298.952 1415.35 299.21 1416.04Z" fill="#263238"/>
<path d="M301.193 1479.46C301.193 1480.19 305.504 1481.7 310.72 1482.82C315.936 1483.94 320.678 1484.33 320.807 1483.59C320.937 1482.86 316.712 1481.35 311.281 1480.23C308.038 1479.12 304.567 1478.85 301.193 1479.46Z" fill="#263238"/>
<path d="M309.815 1583.26C312.895 1585.09 316.367 1586.17 319.945 1586.41C323.38 1587.46 327.023 1587.66 330.55 1586.97C330.55 1586.23 326.239 1584.81 320.419 1583.78C316.983 1582.72 313.338 1582.54 309.815 1583.26Z" fill="#263238"/>
<path d="M315.548 1640.5C315.203 1641.15 318.997 1643.87 324.17 1646.5C329.343 1649.13 333.524 1650.81 333.869 1650.12C334.214 1649.43 330.42 1646.8 325.247 1644.13C320.074 1641.45 315.893 1639.86 315.548 1640.5Z" fill="#263238"/>
<path d="M268.776 1705.51C269.423 1705.9 272.742 1701.2 276.148 1695.38C279.553 1689.56 281.838 1684.26 281.191 1683.87C280.545 1683.48 277.225 1688.18 273.82 1694.04C271.37 1697.48 269.654 1701.38 268.776 1705.51Z" fill="#263238"/>
<path d="M255.284 1597.48C254.766 1598 258.43 1602.44 263.474 1607.4C268.518 1612.36 273.044 1616.02 273.561 1615.42C274.078 1614.81 270.414 1610.42 265.371 1605.5C260.327 1600.59 255.801 1596.97 255.284 1597.48Z" fill="#263238"/>
<path d="M258.344 1540.8C258.905 1541.31 262.31 1538.51 265.974 1534.55C269.639 1530.58 272.139 1527 271.622 1526.53C271.104 1526.05 267.656 1528.81 263.991 1532.74C260.327 1536.66 257.741 1540.28 258.344 1540.8Z" fill="#263238"/>
<path d="M248.99 1468.38C248.429 1468.85 251.49 1473.16 255.844 1477.99C260.198 1482.82 264.121 1486.35 264.465 1485.83C264.81 1485.32 261.965 1481.05 257.654 1476.22C253.344 1471.39 249.723 1467.86 248.99 1468.38Z" fill="#263238"/>
<path d="M243.774 1415.78C244.291 1416.35 248.559 1412.98 253.301 1408.33C258.042 1403.67 261.491 1399.45 260.974 1398.93C260.456 1398.41 256.189 1401.73 251.447 1406.39C246.705 1411.04 243.256 1415.27 243.774 1415.78Z" fill="#263238"/>
<path d="M233.514 1344.83C232.868 1345.22 235.023 1349.96 238.299 1355.48C241.575 1360.99 244.765 1365.09 245.369 1364.75C245.972 1364.4 243.86 1359.57 240.584 1354.1C237.308 1348.62 234.161 1344.36 233.514 1344.83Z" fill="#263238"/>
<path d="M214.202 1278.87C214.804 1282.71 216.278 1286.35 218.513 1289.52C221.53 1295.08 224.462 1299.26 225.108 1298.92C224.499 1295.09 223.025 1291.45 220.797 1288.27C217.823 1282.75 214.849 1278.53 214.202 1278.87Z" fill="#263238"/>
<path d="M192.303 1308.79C192.002 1309.48 194.976 1311.55 198.985 1313.49C202.994 1315.43 206.529 1316.42 206.874 1315.78C207.219 1315.13 204.158 1313.02 200.149 1311.08C196.14 1309.14 192.605 1308.15 192.303 1308.79Z" fill="#263238"/>
<path d="M191.786 1545.28C196.892 1545.36 201.935 1544.14 206.442 1541.75C214.159 1538.47 219.375 1534.2 219.375 1533.6C219.375 1532.99 213.081 1536.1 205.623 1539.29C200.818 1540.81 196.182 1542.82 191.786 1545.28Z" fill="#263238"/>
<path d="M200.752 1595.37C200.752 1596.1 205.063 1597.61 210.797 1598.69C216.53 1599.77 221.272 1600.11 221.401 1599.38C221.53 1598.65 217.09 1597.18 211.314 1596.06C205.537 1594.94 200.882 1594.85 200.752 1595.37Z" fill="#263238"/>
<path d="M211.745 1681.28C212.176 1681.84 217.909 1677.92 223.168 1671.24C226.673 1667.47 229.138 1662.85 230.324 1657.83C229.635 1657.49 226.013 1663.22 221.056 1669.6C216.099 1675.98 211.228 1680.68 211.745 1681.28Z" fill="#263238"/>
<path d="M332.231 1720.56C332.705 1720 329.644 1716.59 325.42 1712.97C321.195 1709.35 317.359 1706.85 316.798 1707.41C316.238 1707.97 319.341 1711.37 323.609 1715C327.877 1718.62 331.627 1721.12 332.231 1720.56Z" fill="#263238"/>
<path d="M366.846 1533.08C371.717 1517.86 380.899 1500.1 397.022 1499.89C401.772 1500.15 406.364 1501.68 410.317 1504.33C414.269 1506.97 417.434 1510.64 419.481 1514.93C423.872 1523.43 425.968 1532.92 425.559 1542.48C423.557 1610.33 411.947 1677.56 391.073 1742.15H332.532C333.238 1671.12 344.81 1600.61 366.846 1533.08Z" fill="#455A64"/>
<path d="M472.675 1437.21C480.866 1404.49 505.265 1386.82 533.63 1385.18C559.494 1389.7 569.538 1415.35 572.427 1441.22C575.315 1467.08 567.383 1493.25 559.494 1518.25C533.802 1598.72 508.124 1679.04 482.461 1759.22L409.652 1751.25C432.758 1643.69 445.992 1543.94 472.675 1437.21Z" fill="#455A64"/>
<path d="M396.892 1500.02C398.749 1502.65 400.406 1505.41 401.85 1508.29C404.836 1516.57 405.768 1525.44 404.565 1534.16C403.445 1545.28 402.151 1558.69 400.255 1573.34C398.358 1588 395.728 1604.17 392.409 1620.76C385.813 1654.39 378.356 1684.56 373.614 1706.55C371.2 1717.54 369.303 1726.46 368.269 1732.63C367.794 1735.47 367.363 1737.84 367.062 1739.78C366.859 1740.61 366.772 1741.47 366.803 1742.33C367.159 1741.56 367.42 1740.74 367.579 1739.91L369.303 1732.84C370.855 1726.33 372.924 1717.58 375.468 1706.98C380.641 1685.12 388.4 1654.99 395.039 1621.28C398.358 1604.42 400.944 1588.22 402.712 1573.43C403.66 1566.06 404.264 1558.99 404.867 1552.39C405.471 1545.8 406.117 1539.72 406.419 1534.07C407.479 1525.1 406.218 1516 402.755 1507.65C401.354 1504.72 399.357 1502.12 396.892 1500.02Z" fill="#263238"/>
<path d="M532.552 1383.11C535.743 1386.8 538.626 1390.75 541.174 1394.92C547.891 1406.54 551.692 1419.62 552.252 1433.03C553.373 1449.97 549.623 1470.06 543.286 1491.61C536.949 1513.16 529.836 1537.09 522.508 1562.05L485.22 1690.12L474.227 1728.92C473.02 1733.32 472.072 1736.85 471.382 1739.52C470.949 1740.73 470.674 1741.99 470.563 1743.27C471.099 1742.1 471.546 1740.89 471.9 1739.65C472.719 1737.02 473.839 1733.53 475.219 1729.18C478.107 1719.78 482.116 1706.63 487.03 1690.38C496.859 1657.4 510.265 1612.31 525.051 1562.48C532.336 1537.48 539.32 1513.68 545.657 1492C551.994 1470.32 555.528 1449.84 554.278 1432.6C553.535 1418.94 549.385 1405.7 542.208 1394.06C539.599 1389.91 536.338 1386.22 532.552 1383.11Z" fill="#263238"/>
<path d="M425.602 1743.53C426.259 1742.42 426.807 1741.25 427.24 1740.04C428.188 1737.71 429.74 1734.31 431.551 1729.78C435.043 1720.86 439.483 1707.67 444.095 1690.98C448.708 1674.3 453.277 1654.47 457.674 1632.23L471.382 1559.81C476.426 1534.2 482.073 1509.93 488.625 1488.29C494.269 1469.1 501.359 1450.37 509.834 1432.25C515.56 1420.02 522.113 1408.2 529.448 1396.86C531.949 1392.81 534.233 1389.83 535.613 1387.72C536.376 1386.69 537.053 1385.59 537.639 1384.45C536.726 1385.36 535.903 1386.35 535.182 1387.42C533.673 1389.45 531.259 1392.29 528.586 1396.3C520.892 1407.47 514.061 1419.22 508.153 1431.43C499.369 1449.5 492.047 1468.24 486.254 1487.47C479.178 1511.06 473.336 1535.01 468.753 1559.2C463.968 1585.07 459.398 1609.38 455.217 1631.67C451.036 1653.95 446.595 1673.83 442.285 1690.38C437.974 1706.93 433.663 1720.17 430.646 1729.18C429.137 1733.75 427.757 1737.2 426.981 1739.57C426.381 1740.84 425.919 1742.16 425.602 1743.53Z" fill="#263238"/>
<path d="M558.287 1506.31C558.072 1507 562.038 1508.6 566.909 1509.8C571.78 1511.01 576.22 1511.44 576.393 1510.75C576.565 1510.06 572.599 1508.42 567.512 1507.22C562.426 1506.01 558.46 1505.58 558.287 1506.31Z" fill="#263238"/>
<path d="M566.003 1456.61C569.98 1457.74 574.119 1458.19 578.246 1457.94C585.014 1458.2 590.489 1458.33 590.618 1457.56C586.784 1455.81 582.581 1455.02 578.375 1455.27C571.478 1454.97 565.96 1455.88 566.003 1456.61Z" fill="#263238"/>
<path d="M557.77 1411.22C558.244 1411.78 562.081 1409.23 566.391 1405.48C570.702 1401.73 573.978 1398.28 573.504 1397.68C573.03 1397.08 569.193 1399.71 564.883 1403.46C560.572 1407.21 557.296 1410.65 557.77 1411.22Z" fill="#263238"/>
<path d="M535.569 1369.23C534.837 1369.23 535.052 1372.89 535.138 1377.2C535.225 1381.51 535.138 1385.01 536.044 1385.14C536.949 1385.26 537.983 1381.69 537.811 1377.12C537.639 1372.55 536.259 1369.01 535.569 1369.23Z" fill="#263238"/>
<path d="M490.177 1389.02C489.574 1389.45 491.341 1393.02 494.143 1396.99C496.945 1400.96 499.704 1403.93 500.308 1403.5C500.911 1403.07 499.144 1399.49 496.342 1395.48C493.54 1391.47 490.781 1388.58 490.177 1389.02Z" fill="#263238"/>
<path d="M460.95 1440.18C460.649 1440.87 464.442 1443.03 469.572 1445.05C474.702 1447.08 478.754 1448.12 479.013 1447.43C479.271 1446.74 475.521 1444.58 470.391 1442.55C465.261 1440.53 460.95 1439.67 460.95 1440.18Z" fill="#263238"/>
<path d="M442.845 1492.82C446.126 1495.58 450.14 1497.33 454.398 1497.86C458.466 1499.21 462.834 1499.35 466.985 1498.29C466.985 1497.52 461.553 1496.74 455.001 1495.23C451.068 1493.91 446.983 1493.1 442.845 1492.82Z" fill="#263238"/>
<path d="M524.879 1477.86C525.612 1477.64 524.879 1473.98 523.758 1469.76C522.637 1465.53 520.784 1462.21 520.051 1462.43C519.318 1462.64 520.051 1466.26 521.215 1470.53C522.378 1474.8 524.189 1478.07 524.879 1477.86Z" fill="#263238"/>
<path d="M513.455 1543.94C514.145 1543.64 512.636 1538.77 510.179 1532.99C507.722 1527.22 505.093 1522.82 504.403 1523.12C504.654 1526.98 505.79 1530.73 507.722 1534.07C510.222 1539.81 512.679 1544.25 513.455 1543.94Z" fill="#263238"/>
<path d="M541.734 1562.05C541.992 1562.74 546.605 1561.49 552.209 1559.72C557.813 1557.95 562.296 1556.4 562.124 1555.67C561.951 1554.94 557.123 1555.41 551.39 1557.18C545.656 1558.95 541.432 1561.36 541.734 1562.05Z" fill="#263238"/>
<path d="M525.612 1615.93C525.18 1616.54 528.284 1619.51 532.552 1622.53C536.82 1625.55 540.656 1627.57 541.173 1626.84C541.691 1626.11 538.501 1623.3 534.19 1620.24C529.879 1617.18 525.87 1615.33 525.612 1615.93Z" fill="#263238"/>
<path d="M512.377 1669.65C512.162 1670.38 516.042 1671.93 520.999 1673.14C525.956 1674.34 530.095 1674.73 530.267 1674C530.44 1673.27 526.603 1671.72 521.646 1670.55C516.688 1669.39 512.679 1668.96 512.377 1669.65Z" fill="#263238"/>
<path d="M441.422 1537.69C441.034 1538.3 444.354 1540.93 449.139 1542.74C453.924 1544.55 458.148 1544.76 458.277 1544.07C458.407 1543.38 454.656 1541.96 450.087 1540.24C445.518 1538.51 441.81 1537.05 441.422 1537.69Z" fill="#263238"/>
<path d="M431.292 1621.28C431.594 1621.97 435.603 1620.76 439.914 1618.65C444.224 1616.54 447.845 1614.34 447.544 1613.56C447.242 1612.79 443.233 1614.08 438.922 1616.19C434.611 1618.3 430.99 1620.72 431.292 1621.28Z" fill="#263238"/>
<path d="M413.532 1681.07C417.575 1680.88 421.529 1679.82 425.128 1677.97C429.027 1676.89 432.645 1674.98 435.732 1672.36C431.685 1672.53 427.726 1673.59 424.136 1675.47C420.23 1676.52 416.607 1678.44 413.532 1681.07Z" fill="#263238"/>
<path d="M509.49 1727.97C509.835 1727.28 505.179 1724.09 499.575 1719.69C493.971 1715.3 489.79 1711.5 489.229 1712.02C488.669 1712.54 492.16 1717.32 497.851 1721.81C501.1 1724.88 505.123 1727.01 509.49 1727.97Z" fill="#263238"/>
<path d="M462.2 1697.54C462.933 1697.54 463.968 1693.61 465.821 1688.91C467.675 1684.22 469.529 1680.55 468.925 1680.08C468.322 1679.6 465.261 1682.88 463.321 1687.92C461.381 1692.97 461.467 1697.49 462.2 1697.54Z" fill="#263238"/>
<path d="M474.744 1625.59C475.176 1626.19 478.236 1624.73 481.555 1622.36C484.875 1619.99 487.246 1617.53 486.815 1616.92C486.384 1616.32 483.323 1617.79 480.004 1620.16C476.684 1622.53 474.313 1625.03 474.744 1625.59Z" fill="#263238"/>
<path d="M364.475 1512.95C364.044 1513.55 367.018 1516.48 371.157 1519.5C375.295 1522.52 378.916 1524.55 379.39 1523.81C379.865 1523.08 376.847 1520.28 372.709 1517.22C368.57 1514.16 364.949 1512.26 364.475 1512.95Z" fill="#263238"/>
<path d="M347.879 1558.3C347.879 1558.99 352.448 1559.98 358.225 1559.33C364.001 1558.69 368.355 1556.79 368.139 1556.1C367.924 1555.41 363.441 1556.1 357.923 1556.7C352.405 1557.31 347.922 1557.52 347.879 1558.3Z" fill="#263238"/>
<path d="M419.308 1568.47C419.308 1569.16 423.619 1570.71 429.007 1571.1C434.396 1571.49 439.095 1570.5 439.008 1569.81C438.922 1569.12 434.698 1568.77 429.18 1568.43C423.662 1568.08 419.437 1567.74 419.308 1568.47Z" fill="#263238"/>
<path d="M413.144 1525.54C413.144 1526.23 417.455 1526.36 422.326 1524.16C427.197 1521.96 429.87 1518.6 429.352 1518.08C428.835 1517.56 425.559 1519.76 421.205 1521.7C416.851 1523.64 413.058 1524.76 413.144 1525.54Z" fill="#263238"/>
<path d="M341.758 1607.05C342.146 1607.7 346.586 1605.59 351.716 1602.35C356.845 1599.12 360.639 1596.02 360.337 1595.41C360.035 1594.81 355.509 1596.88 350.379 1600.11C345.249 1603.35 341.37 1606.41 341.758 1607.05Z" fill="#263238"/>
<path d="M167.473 1802.03H548.502V1734.48H167.473V1802.03Z" fill="#FF725E"/>
<path d="M520.051 1788.67L473.71 1990.45H246.619L195.924 1788.67H520.051Z" fill="#FF725E"/>
<path d="M167.818 1802.12C167.818 1802.89 253.775 1803.5 359.776 1803.5C465.778 1803.5 551.735 1802.89 551.735 1802.12C551.735 1801.34 465.778 1800.78 359.776 1800.78C253.775 1800.78 167.818 1801.38 167.818 1802.12Z" fill="#263238"/>
<path d="M379.606 1569.94C380.21 1570.33 382.839 1567.31 385.426 1563.17C388.012 1559.03 389.736 1555.37 388.961 1554.98C388.185 1554.59 385.727 1557.61 383.141 1561.75C380.555 1565.89 379.046 1569.55 379.606 1569.94Z" fill="#263238"/>
<path d="M379.434 1624.3C380.166 1624.04 379.434 1619.47 377.451 1614.04C375.468 1608.61 373.614 1604.38 373.14 1604.64C372.666 1604.9 373.14 1609.47 375.123 1614.9C377.106 1620.33 378.744 1624.51 379.434 1624.3Z" fill="#263238"/>
<path d="M360.854 1681.33C361.544 1681.63 364.389 1677.02 367.234 1671.15C370.079 1665.29 371.847 1660.12 371.157 1659.82C370.467 1659.52 367.665 1664.13 364.82 1669.99C362.706 1673.44 361.354 1677.31 360.854 1681.33Z" fill="#263238"/>
<path d="M401.117 1727.24C401.677 1726.72 399.392 1723.19 396.03 1719.35C392.668 1715.51 389.478 1712.71 388.917 1713.18C388.357 1713.66 390.642 1717.19 394.004 1721.07C397.366 1724.95 400.6 1727.71 401.117 1727.24Z" fill="#263238"/>
<path d="M409.566 1643.91C409.566 1644.64 413.359 1644.6 417.756 1643.91C422.153 1643.22 425.602 1641.88 425.472 1641.2C425.343 1640.51 421.679 1640.51 417.282 1641.2C412.885 1641.88 409.436 1643.18 409.566 1643.91Z" fill="#263238"/>
<path d="M1493.59 1642.44H1440.31V1989.42H1493.59V1642.44Z" fill="#455A64"/>
<path d="M1802.76 1642.44H1749.48V1989.42H1802.76V1642.44Z" fill="#455A64"/>
<path d="M1758.92 1765.69H1476.39V1812.93H1758.92V1765.69Z" fill="#455A64"/>
<path d="M1802.76 1642.27C1802.82 1642.86 1802.82 1643.45 1802.76 1644.04C1802.76 1645.29 1802.76 1647.01 1802.76 1649.21C1802.76 1653.87 1802.76 1660.59 1802.98 1669.17C1802.98 1686.67 1803.19 1711.8 1803.32 1742.97C1803.32 1805.56 1803.54 1892.3 1803.67 1989.25V1990.37H1748.36V1989.25C1748.75 1892.94 1749.09 1806.94 1749.31 1744.91C1749.57 1714 1749.74 1688.87 1749.87 1671.63C1749.87 1663.01 1749.87 1656.45 1750.08 1651.84C1750.08 1649.64 1750.08 1647.96 1750.08 1646.71C1750.03 1646.12 1750.03 1645.53 1750.08 1644.94C1750.12 1645.53 1750.12 1646.12 1750.08 1646.71C1750.08 1647.96 1750.08 1649.64 1750.08 1651.84C1750.08 1656.45 1750.08 1663.09 1750.08 1671.63C1750.08 1688.87 1750.08 1713.83 1750.08 1744.91C1750.08 1806.94 1750.08 1892.94 1749.83 1989.25L1748.71 1988.12H1801.99L1800.87 1989.25C1800.87 1892.3 1801.12 1805.56 1801.21 1742.97C1801.21 1711.8 1801.51 1686.67 1801.55 1669.17C1801.55 1660.55 1801.56 1653.87 1801.77 1649.21C1801.77 1647.03 1801.77 1645.3 1801.77 1644.04C1802.02 1643.41 1802.36 1642.82 1802.76 1642.27Z" fill="#263238"/>
<path d="M1440.92 1657.14C1440.95 1657.7 1440.95 1658.27 1440.92 1658.83V1663.78C1440.92 1668.09 1440.92 1674.6 1440.92 1682.84C1440.92 1699.52 1440.92 1723.53 1440.92 1753.32C1440.92 1813.19 1440.92 1896.22 1440.92 1989.42L1439.8 1988.3H1493.08L1491.96 1989.42C1491.96 1893.2 1492.21 1806.99 1492.3 1744.7C1492.3 1713.66 1492.56 1688.66 1492.65 1671.2C1492.65 1662.58 1492.65 1655.98 1492.86 1651.32V1646.15C1492.8 1645.56 1492.8 1644.97 1492.86 1644.38C1492.92 1644.97 1492.92 1645.56 1492.86 1646.15C1492.86 1647.4 1492.86 1649.13 1492.86 1651.32C1492.86 1655.98 1492.86 1662.66 1492.86 1671.2C1492.86 1688.44 1493.08 1713.66 1493.21 1744.7C1493.21 1806.99 1493.21 1893.2 1493.55 1989.42V1990.54H1439.19V1989.42C1439.49 1896.22 1439.8 1813.19 1439.97 1753.32C1440.18 1723.53 1440.31 1699.52 1440.44 1682.84C1440.44 1674.6 1440.44 1668.22 1440.44 1663.78C1440.44 1661.67 1440.44 1660.03 1440.44 1658.83C1440.54 1658.25 1440.7 1657.69 1440.92 1657.14Z" fill="#263238"/>
<path d="M1844.88 1482.08H1405.65C1383.68 1482.08 1365.87 1499.9 1365.87 1521.87V1606.23C1365.87 1628.21 1383.68 1646.02 1405.65 1646.02H1844.88C1866.85 1646.02 1884.67 1628.21 1884.67 1606.23V1521.87C1884.67 1499.9 1866.85 1482.08 1844.88 1482.08Z" fill="#455A64"/>
<path d="M1459.58 1646.02C1459.58 1645.42 1545.8 1644.9 1651.84 1644.9C1757.89 1644.9 1844.15 1645.42 1844.15 1646.02C1844.15 1646.63 1757.93 1647.14 1651.84 1647.14C1545.75 1647.14 1459.58 1646.58 1459.58 1646.02Z" fill="#263238"/>
<path d="M1756.08 697.223C1754.35 683.213 1748.23 614.931 1746.72 604.585C1744.95 590.411 1737.96 577.407 1727.11 568.116C1716.2 559.192 1699.91 556.089 1687.62 563.072C1683.58 564.39 1679.96 566.75 1677.12 569.913C1674.28 573.077 1672.33 576.932 1671.46 581.091C1649.26 685.282 1660.81 793.957 1655.03 900.82C1693.01 904.485 1743.4 898.751 1781.25 894.311C1775.73 809.605 1767.11 788.137 1756.08 697.223Z" fill="#263238"/>
<path d="M1749.48 842.539C1749.21 841.657 1749.05 840.745 1749.01 839.824C1748.79 837.754 1748.49 835.168 1748.14 831.978C1747.46 824.822 1746.55 815.08 1745.39 803.182C1743.32 778.524 1740.47 745.03 1737.28 708.043C1735.82 689.464 1734.39 671.79 1732.97 655.668C1732.32 647.607 1731.76 639.976 1731.2 632.778C1730.9 626.175 1730.02 619.612 1728.57 613.164C1727.68 608.505 1725.78 604.1 1722.99 600.263C1720.21 596.426 1716.61 593.25 1712.45 590.963C1709.29 589.489 1705.85 588.682 1702.36 588.592C1702.36 588.592 1702.58 588.592 1703.05 588.592C1703.74 588.514 1704.44 588.514 1705.12 588.592C1707.79 588.636 1710.42 589.238 1712.84 590.36C1716.72 592.118 1720.14 594.743 1722.84 598.033C1726.39 602.409 1728.92 607.518 1730.26 612.991C1731.86 619.509 1732.85 626.162 1733.23 632.864C1733.88 640.063 1734.52 647.693 1735.21 655.711C1736.55 671.876 1738.06 689.55 1739.52 708.087C1742.41 745.116 1745 778.611 1746.94 803.311C1747.76 815.209 1748.4 824.865 1748.88 832.15C1748.88 835.34 1749.18 837.97 1749.31 840.039C1749.45 840.865 1749.5 841.702 1749.48 842.539Z" fill="#455A64"/>
<path d="M1712.84 805.984C1712.33 803.981 1712.04 801.928 1711.98 799.862C1711.59 795.897 1711.16 790.163 1710.68 783.05C1709.74 768.868 1708.79 749.254 1707.93 727.571C1707.06 705.888 1706.46 686.748 1705.94 672.048C1705.73 665.323 1705.55 659.676 1705.43 655.193C1705.19 653.145 1705.19 651.077 1705.43 649.029C1705.94 651.032 1706.22 653.084 1706.29 655.15C1706.68 659.116 1707.11 664.849 1707.58 671.962C1708.53 686.145 1709.48 705.758 1710.34 727.442C1711.2 749.125 1711.81 768.265 1712.32 782.964C1712.54 789.689 1712.71 795.336 1712.88 799.819C1713.09 801.87 1713.08 803.937 1712.84 805.984Z" fill="#455A64"/>
<path d="M1447.94 844.177L1523.21 819.088L1639.9 815.123L1737.97 845.298L1788.36 946.084L1750.52 1158.99L1819.79 1296.12L1634.25 1330.95L1472.17 1255.77L1458.33 1245.29L1430.79 882.543L1447.94 844.177Z" fill="#FF725E"/>
<path d="M1200.89 1583.99L1097.74 1751.77L1179.34 1813.24L1307.89 1656.07L1200.89 1583.99Z" fill="#FFBE9D"/>
<path d="M1355.61 1707.02L1278.1 1949.29H1368.54L1469.58 1741.59L1355.61 1707.02Z" fill="#FFBE9D"/>
<path d="M1448.12 844.177C1448.12 844.177 1388.41 868.964 1382.16 935.048C1379.75 960.568 1361.77 1080.06 1361.77 1080.06L1277.28 1070.02L1256.89 1137.4C1256.89 1137.4 1351.34 1186.62 1380.48 1193C1430.83 1204.04 1455.18 1175.76 1455.18 1175.76L1448.12 844.177Z" fill="#FF725E"/>
<path d="M1431.99 924.746C1432.07 925.851 1432.07 926.96 1431.99 928.065C1431.99 930.393 1431.99 933.54 1431.69 937.419C1431.39 941.299 1431.35 946.472 1431.39 952.248C1431.43 958.025 1431.39 964.62 1431.61 971.905C1431.82 979.191 1431.99 987.122 1432.6 995.658C1433.2 1004.19 1433.85 1013.33 1434.58 1022.9C1436.35 1042.08 1438.89 1063.12 1441.61 1085.15C1447.47 1129.21 1453.03 1169.12 1455.62 1198.18C1456.35 1205.46 1456.82 1212.01 1457.21 1217.79C1457.6 1223.57 1457.94 1228.57 1458.03 1232.62C1458.12 1236.67 1458.29 1239.65 1458.38 1242.02C1458.5 1243.11 1458.5 1244.21 1458.38 1245.29C1458.17 1244.23 1458.04 1243.15 1457.99 1242.06C1457.99 1239.69 1457.56 1236.59 1457.25 1232.71C1456.95 1228.83 1456.61 1223.65 1456.05 1217.92C1455.49 1212.19 1454.97 1205.59 1454.11 1198.35C1451.13 1169.38 1445.49 1129.38 1439.45 1085.45C1436.61 1063.38 1434.28 1042.34 1432.6 1023.07C1431.91 1013.46 1431.13 1004.32 1430.83 995.787C1430.53 987.252 1430.14 979.234 1430.1 971.905C1430.05 964.577 1430.1 958.025 1430.1 952.248C1430.1 946.472 1430.44 941.428 1430.79 937.376C1431.13 933.324 1431.3 930.393 1431.48 928.022C1431.55 926.916 1431.72 925.82 1431.99 924.746Z" fill="#263238"/>
<path d="M1273.27 937.376C1273.27 937.376 1299.14 912.416 1308.83 915.434C1315.53 917.822 1321.68 921.515 1326.94 926.297C1326.94 926.297 1336.77 920.477 1342.07 926.297C1346.19 931.346 1349.73 936.841 1352.63 942.678C1352.63 942.678 1362.03 941.298 1369.27 953.369C1376.51 965.439 1394.4 1006.13 1401.13 1012.94C1408.01 1019.47 1416.34 1024.27 1425.44 1026.95C1435.05 1030.32 1515.28 1057.47 1515.28 1057.47L1485.75 1131.1C1485.75 1131.1 1367.76 1062.13 1363.24 1057.56C1358.71 1052.99 1323.19 1029.58 1317.89 1015.23C1312.58 1000.87 1273.27 956.86 1273.27 956.86V937.376Z" fill="#FFBE9D"/>
<path d="M1351.34 966.56C1351.11 967.6 1350.62 968.565 1349.92 969.362C1348.2 971.798 1345.84 973.708 1343.11 974.879L1343.54 974.103C1344.28 979.756 1342.98 985.489 1339.87 990.269C1338.96 991.728 1337.86 993.061 1336.6 994.235C1335.22 995.626 1333.41 996.508 1331.47 996.735C1330.36 996.798 1329.26 996.543 1328.3 996C1327.34 995.458 1326.55 994.651 1326.03 993.674C1325.11 991.905 1324.54 989.972 1324.35 987.984C1323.45 981.259 1322.59 975.052 1321.94 969.06C1321.71 967.554 1321.78 966.018 1322.14 964.539C1322.5 963.06 1323.15 961.666 1324.05 960.438C1325.76 958.584 1327.85 957.114 1330.17 956.128C1333.39 954.882 1336.48 953.323 1339.4 951.472C1341.34 950.092 1342.11 948.929 1342.29 949.015C1342.46 949.101 1341.86 950.437 1339.96 952.162C1337.17 954.337 1334.11 956.148 1330.86 957.55C1328.8 958.594 1326.98 960.063 1325.52 961.861C1324.1 963.974 1323.54 966.55 1323.97 969.06C1324.78 974.922 1325.65 981.216 1326.55 987.855C1326.94 991.39 1328.41 995.011 1331.29 994.752C1332.75 994.348 1334.1 993.66 1335.29 992.728C1336.47 991.796 1337.46 990.637 1338.19 989.32C1341.13 984.942 1342.51 979.705 1342.11 974.448V973.888H1342.63C1345.23 972.904 1347.55 971.307 1349.4 969.232C1350.65 967.422 1351.21 966.473 1351.34 966.56Z" fill="#EB996E"/>
<path d="M1358.8 988.458C1358.8 988.975 1354.7 987.467 1351.94 983.371C1349.18 979.276 1349.18 975.095 1349.79 975.095C1350.39 975.095 1351.34 978.543 1353.8 982.121C1356.25 985.699 1359.14 987.898 1358.8 988.458Z" fill="#EB996E"/>
<path d="M1355.91 1035.83C1355.22 1035.83 1355.48 1028.38 1352.67 1019.84C1350.68 1014.79 1348.44 1009.84 1345.95 1005.01C1350.33 1008.66 1353.44 1013.62 1354.83 1019.15C1356.9 1024.47 1357.28 1030.29 1355.91 1035.83Z" fill="#EB996E"/>
<path d="M1324.96 974.362C1324.82 975.598 1324.46 976.798 1323.88 977.897C1322.7 981.212 1320.57 984.106 1317.76 986.217C1315.69 987.702 1313.13 988.363 1310.6 988.071C1309.15 987.802 1307.77 987.214 1306.57 986.35C1305.37 985.485 1304.38 984.365 1303.66 983.07C1302.13 980.389 1301.03 977.478 1300.43 974.449C1299.64 971.345 1299.06 968.191 1298.7 965.008C1298.05 958.672 1299.57 952.302 1303.01 946.946C1305.78 942.67 1309.25 938.895 1313.27 935.781C1315.92 933.667 1318.68 931.709 1321.55 929.918C1322.55 929.166 1323.65 928.57 1324.83 928.151C1325.04 928.496 1320.52 931.47 1314.31 936.772C1310.57 939.926 1307.36 943.651 1304.78 947.808C1301.61 952.792 1300.2 958.696 1300.77 964.577C1301.12 967.67 1301.66 970.738 1302.41 973.759C1302.95 976.534 1303.9 979.209 1305.26 981.691C1305.79 982.769 1306.56 983.715 1307.51 984.461C1308.46 985.206 1309.56 985.732 1310.73 986.001C1312.82 986.306 1314.96 985.831 1316.72 984.665C1319.4 982.808 1321.54 980.281 1322.93 977.337C1323.47 976.259 1324.15 975.259 1324.96 974.362Z" fill="#EB996E"/>
<g opacity="0.3">
<path d="M1791.55 1471.44L1576.02 1464.15C1563.34 1463.72 1549.42 1463.68 1539.63 1471.74C1529.85 1479.8 1527.48 1491.91 1525.06 1503.55C1514.17 1556.4 1503.25 1609.25 1492.3 1662.1L1499.15 1673.87C1541.99 1647.31 1573.51 1605.86 1587.65 1557.48C1591.36 1544.55 1595.46 1529.29 1608.04 1524.63C1613.73 1523 1619.72 1522.69 1625.55 1523.73L1676.59 1528.73C1701.03 1531.18 1726.38 1533.51 1749.57 1525.49C1772.76 1517.48 1792.98 1495.96 1791.55 1471.44Z" fill="black"/>
</g>
<path d="M1476.65 1228.44C1476.65 1228.44 1438.5 1211.89 1394.27 1238.31C1360.39 1258.57 1142.87 1610.37 1142.87 1610.37L1283.53 1706.93L1476.65 1420.53L1555.88 1488.72C1555.88 1488.72 1719.69 1521.92 1768.45 1500.97C1817.2 1480.01 1843.97 1424.49 1840.05 1376.99C1838.1 1349.07 1831.3 1321.7 1819.96 1296.12C1763.53 1304.74 1725.13 1325.26 1647.96 1288.27L1476.65 1228.44Z" fill="#263238"/>
<path d="M1471.14 1405.78C1471.14 1405.78 1572.35 1445.57 1573.65 1473.16C1574.94 1500.75 1436.48 1855.83 1436.48 1855.83L1296.81 1804.92L1371.77 1562.09C1371.77 1562.09 1402.98 1473.85 1426.43 1450.01C1449.88 1426.17 1471.14 1405.78 1471.14 1405.78Z" fill="#263238"/>
<path d="M1336.38 1311.94C1336.38 1311.94 1336.12 1312.46 1335.52 1313.4L1332.72 1317.71L1321.85 1334.18C1312.33 1348.62 1298.49 1369.53 1281.16 1395.83C1246.67 1448.55 1197.88 1523.08 1143.78 1611.06L1143.47 1609.64L1268.18 1695.12C1273.57 1698.87 1278.96 1702.54 1284.18 1706.11L1282.63 1706.42L1476.01 1420.22C1484.15 1413.72 1490.68 1405.43 1495.1 1396C1499.09 1387.61 1501.82 1378.67 1503.21 1369.49C1505.18 1357.52 1504.42 1345.26 1501 1333.62C1497.57 1321.99 1491.56 1311.27 1483.42 1302.28C1481.79 1300.47 1480.06 1298.74 1478.25 1297.11C1477.04 1295.99 1476.48 1295.38 1476.48 1295.38C1479.13 1297.28 1481.61 1299.4 1483.89 1301.72C1490.4 1308.59 1495.62 1316.58 1499.28 1325.3C1505.15 1339.23 1506.99 1354.52 1504.59 1369.44C1503.26 1378.76 1500.56 1387.82 1496.57 1396.34C1492.1 1406.03 1485.44 1414.54 1477.13 1421.22L1284.31 1707.62L1283.66 1708.57L1282.75 1707.93L1267.06 1696.93L1142.44 1611.36L1141.62 1610.76L1142.14 1609.9C1196.37 1521.92 1245.25 1447.6 1280.08 1395.05L1321.34 1333.75L1332.46 1317.46L1335.39 1313.15C1335.7 1312.73 1336.03 1312.32 1336.38 1311.94Z" fill="#455A64"/>
<path d="M1437.55 1856.78C1437.67 1856.26 1437.82 1855.75 1438.03 1855.27C1438.37 1854.15 1438.89 1852.68 1439.54 1850.96C1441 1846.95 1443.07 1841.3 1445.66 1834.01C1451.13 1819.23 1458.94 1798.02 1468.55 1771.85C1487.9 1719.22 1514.54 1646.84 1544.03 1566.7C1550.88 1547.78 1557.57 1529.24 1563.82 1511.27C1567.5 1502.78 1569.59 1493.69 1569.98 1484.45C1569.8 1475.63 1566.78 1467.11 1561.36 1460.14C1556.06 1453.52 1549.57 1447.95 1542.22 1443.72C1535.29 1439.55 1527.97 1436.07 1520.36 1433.33C1506.61 1428.26 1492.36 1424.65 1477.86 1422.55L1475.32 1422.16L1477.6 1421C1489.89 1414.47 1500.29 1404.88 1507.78 1393.15C1513.49 1384.29 1517.63 1374.5 1520.02 1364.23C1521.5 1357.72 1522.28 1351.07 1522.35 1344.4C1522.35 1342.11 1522.35 1340.39 1522.35 1339.18C1522.3 1338.59 1522.3 1338 1522.35 1337.41C1522.48 1337.99 1522.55 1338.59 1522.56 1339.18C1522.56 1340.35 1522.86 1342.11 1522.91 1344.4C1523.03 1351.13 1522.38 1357.86 1520.97 1364.44C1518.76 1374.9 1514.68 1384.87 1508.94 1393.89C1501.4 1405.92 1490.83 1415.76 1478.29 1422.42L1478.03 1420.87C1492.74 1422.86 1507.19 1426.41 1521.14 1431.48C1528.85 1434.27 1536.28 1437.78 1543.34 1441.95C1550.92 1446.28 1557.62 1452 1563.08 1458.81C1568.88 1466.09 1572.16 1475.06 1572.44 1484.37C1572.08 1493.87 1569.97 1503.22 1566.23 1511.96C1559.98 1529.98 1553.3 1548.47 1546.44 1567.44C1517.22 1647.62 1490.06 1720 1470.32 1772.33C1460.44 1798.41 1452.38 1819.75 1446.78 1834.27C1444.02 1841.47 1441.82 1847.21 1440.27 1851.09L1438.55 1855.4C1438.27 1855.89 1437.94 1856.36 1437.55 1856.78Z" fill="#455A64"/>
<path d="M1749.87 1405.78C1750.48 1397.51 1749.97 1389.18 1748.36 1381.04C1743.48 1361.53 1732.84 1343.95 1717.84 1330.56C1702.59 1317.47 1685.56 1306.61 1667.27 1298.27L1650.72 1290.34C1648.62 1289.51 1646.62 1288.47 1644.73 1287.24C1646.9 1287.83 1649.02 1288.61 1651.07 1289.57C1655.08 1291.2 1660.85 1293.62 1667.92 1296.81C1686.59 1304.82 1703.92 1315.66 1719.31 1328.92C1734.66 1342.54 1745.35 1360.63 1749.87 1380.65C1751.07 1386.71 1751.43 1392.9 1750.95 1399.06C1750.95 1401.21 1750.39 1402.9 1750.26 1404.02C1750.22 1404.62 1750.08 1405.22 1749.87 1405.78Z" fill="#455A64"/>
<g opacity="0.3">
<path d="M1676.59 1166.79C1669.26 1174.08 1661.11 1181.54 1650.72 1183.22C1641.71 1184.73 1632.66 1181.41 1624.08 1178.18L1479.02 1122.95L1467.3 1138.99C1517.22 1179.51 1579.59 1214.99 1641.19 1229.86C1651.33 1232.21 1661.86 1232.37 1672.07 1230.35C1682.28 1228.33 1691.94 1224.17 1700.42 1218.14C1713.36 1208.7 1721.25 1194 1727.75 1179.34C1742.85 1145.28 1752.62 1109.11 1756.72 1072.09C1732.77 1105.89 1705.96 1137.57 1676.59 1166.79Z" fill="black"/>
</g>
<path d="M1713.79 891.337C1710.12 895.217 1625.72 1075.32 1625.72 1075.32L1461.91 1038.72L1443.46 1128.86C1443.46 1128.86 1591.88 1194.73 1630.72 1206.45C1655.51 1213.91 1672.58 1212.36 1696.89 1189.21C1721.2 1166.06 1782.72 1016.78 1789.61 986.907C1796.17 958.326 1819.79 882.543 1737.89 845.298L1713.79 891.337Z" fill="#FF725E"/>
<path d="M1335.48 1007.6L1217.7 844.393C1216.57 842.873 1215.01 841.719 1213.23 841.076C1211.44 840.432 1209.51 840.326 1207.66 840.772L1090.32 867.498C1088.84 867.723 1087.45 868.329 1086.27 869.257C1085.1 870.185 1084.19 871.402 1083.62 872.79C1083.06 874.177 1082.87 875.687 1083.07 877.17C1083.27 878.654 1083.85 880.06 1084.76 881.25L1205.46 1046.4C1206.85 1048.21 1208.83 1049.48 1211.06 1049.99C1213.28 1050.5 1215.62 1050.22 1217.66 1049.2L1230.16 1042.99C1230.9 1042.63 1231.69 1042.35 1232.49 1042.17L1329.74 1021.52C1331.27 1021.34 1332.71 1020.76 1333.94 1019.83C1335.16 1018.9 1336.11 1017.66 1336.7 1016.24C1337.28 1014.82 1337.48 1013.27 1337.26 1011.75C1337.05 1010.24 1336.43 1008.8 1335.48 1007.6Z" fill="#263238"/>
<path d="M1335.48 1007.6C1335.87 1008.05 1336.21 1008.56 1336.47 1009.11C1337.26 1010.76 1337.49 1012.62 1337.11 1014.41C1336.82 1015.88 1336.18 1017.25 1335.23 1018.41C1334.28 1019.57 1333.06 1020.47 1331.68 1021.05C1328.32 1022.21 1324.48 1022.77 1320.17 1023.85L1246.63 1039.97L1234.73 1042.56C1232.72 1042.89 1230.79 1043.56 1229 1044.54L1223.22 1047.43C1221.28 1048.38 1219.43 1049.37 1217.27 1050.36C1214.98 1051.28 1212.44 1051.38 1210.08 1050.65C1207.73 1049.91 1205.7 1048.37 1204.34 1046.31L1200.03 1040.71L1164.9 992.64L1084.11 882.371C1083.04 881.052 1082.33 879.476 1082.05 877.797C1081.77 876.119 1081.93 874.397 1082.52 872.801C1083.13 871.227 1084.12 869.826 1085.4 868.722C1086.67 867.617 1088.2 866.842 1089.85 866.464L1107.09 862.498L1141.06 854.739L1205.38 840.168C1206.7 839.816 1208.06 839.585 1209.43 839.479C1210.9 839.426 1212.37 839.675 1213.74 840.211C1215.08 840.728 1216.3 841.521 1217.32 842.539C1218.23 843.51 1219.05 844.563 1219.77 845.686L1228.61 857.972L1245.51 881.509L1275.68 923.711L1319.44 984.967L1331.25 1001.69L1334.27 1006C1334.62 1006.5 1334.96 1007.02 1335.26 1007.56C1334.81 1007.13 1334.42 1006.66 1334.1 1006.13L1330.86 1001.82L1318.79 985.484L1274.43 924.659L1243.91 882.586L1226.93 859.136L1218.05 846.893C1216.92 844.769 1215.12 843.084 1212.92 842.108C1211.82 841.702 1210.65 841.512 1209.47 841.548C1208.24 841.631 1207.03 841.848 1205.85 842.194L1141.58 856.894L1107.56 864.653L1090.32 868.619C1089.03 868.916 1087.83 869.523 1086.82 870.386C1085.82 871.25 1085.04 872.345 1084.55 873.577C1084.1 874.836 1083.99 876.189 1084.22 877.504C1084.46 878.818 1085.03 880.05 1085.88 881.077C1114.51 920.219 1141.92 957.464 1166.54 991.433C1178.91 1008.37 1190.68 1024.5 1201.67 1039.63L1205.98 1045.23C1207.08 1047.01 1208.8 1048.33 1210.81 1048.94C1212.77 1049.54 1214.88 1049.46 1216.8 1048.72C1218.7 1047.86 1220.72 1046.83 1222.66 1045.88L1228.27 1043.08C1230.2 1042.06 1232.28 1041.35 1234.43 1040.96L1246.37 1038.46L1320 1023.03C1324.31 1022.04 1328.36 1021.52 1331.47 1020.49C1332.78 1019.97 1333.94 1019.15 1334.86 1018.08C1335.77 1017.01 1336.41 1015.74 1336.73 1014.37C1337.12 1012.67 1336.97 1010.89 1336.29 1009.28C1335.78 1008.12 1335.39 1007.64 1335.48 1007.6Z" fill="#455A64"/>
<path d="M1333.54 1018.72C1332.73 1017.89 1331.99 1017 1331.34 1016.05L1325.39 1008.24L1303.83 979.147C1285.64 954.317 1260.73 920.348 1233.31 882.758C1226.41 873.447 1219.77 863.877 1213.26 855.471C1211.46 853.703 1209.16 852.517 1206.67 852.066C1204.18 851.615 1201.62 851.793 1199.21 852.583L1184.04 855.988L1131.66 867.714L1096.27 875.43L1086.66 877.413C1085.54 877.696 1084.4 877.883 1083.25 877.973C1084.32 877.554 1085.41 877.222 1086.53 876.982L1096.1 874.611L1131.32 865.989L1183.61 853.79L1198.74 850.298C1201.45 849.477 1204.31 849.285 1207.1 849.738C1210.01 850.275 1212.7 851.671 1214.82 853.747C1221.8 862.67 1228.14 871.852 1235.12 881.292L1305.08 978.414L1326.08 1007.9L1331.68 1015.96C1332.4 1016.81 1333.02 1017.74 1333.54 1018.72Z" fill="#455A64"/>
<path d="M1162.74 896.811C1166.17 896.811 1168.95 894.457 1168.95 891.552C1168.95 888.648 1166.17 886.293 1162.74 886.293C1159.31 886.293 1156.54 888.648 1156.54 891.552C1156.54 894.457 1159.31 896.811 1162.74 896.811Z" fill="white"/>
<path d="M1201.45 925.306C1200.94 928.453 1179.9 991.907 1176.88 998.071C1173.86 1004.24 1176.88 1016.31 1176.88 1016.31C1176.88 1016.31 1169.55 1031.48 1181.19 1041.91C1181.19 1041.91 1182.01 1055.53 1188.13 1058.12C1192.36 1060.23 1196.06 1063.27 1198.95 1067C1198.95 1067 1233.44 1114.07 1237.15 1118.73C1243.38 1125.28 1249.96 1131.49 1256.85 1137.35C1256.85 1137.35 1305.56 1119.59 1279.69 1073.16L1265.04 1063.85L1270.08 1026.26C1270.08 1026.26 1282.11 1016.82 1279.48 1010.53C1279.27 1009.73 1278.89 1008.98 1278.36 1008.34C1277.83 1007.71 1277.17 1007.19 1276.42 1006.84C1275.68 1006.48 1274.86 1006.3 1274.03 1006.3C1273.2 1006.29 1272.38 1006.47 1271.63 1006.82C1271.63 1006.82 1276.25 993.89 1265.04 991.691L1221.93 1012.47C1221.93 1012.47 1253.87 980.311 1249.13 971.431C1244.39 962.551 1242.36 963.973 1242.36 963.973L1201.07 998.934C1201.07 998.934 1211.33 960.438 1214 948.153C1219.21 925.306 1201.45 925.306 1201.45 925.306Z" fill="#FFBE9D"/>
<path d="M1270.9 1008.89C1268.72 1012.11 1266.11 1015.01 1263.14 1017.51C1249.57 1030.12 1233.72 1040.04 1216.45 1046.74C1212.95 1048.32 1209.26 1049.44 1205.46 1050.06C1208.81 1048.23 1212.28 1046.63 1215.85 1045.27C1224.17 1041.5 1232.24 1037.18 1239.99 1032.34C1247.72 1027.47 1255.11 1022.09 1262.11 1016.22C1264.9 1013.61 1267.83 1011.17 1270.9 1008.89Z" fill="#EB996E"/>
<path d="M1242.23 964.017C1240.24 967.05 1237.81 969.78 1235.03 972.121C1230.25 976.776 1223.31 982.812 1215.33 989.105C1199.38 1001.74 1185.16 1010.66 1184.86 1009.75C1187.61 1007.4 1190.49 1005.2 1193.48 1003.16C1198.78 999.192 1206.11 993.632 1214.04 987.381C1221.97 981.13 1229.09 975.268 1234.09 970.957C1236.64 968.46 1239.36 966.141 1242.23 964.017Z" fill="#EB996E"/>
<path d="M1264.48 1019.02C1264.48 1019.02 1265.25 1018.07 1267.11 1018.46C1268.34 1018.86 1269.43 1019.63 1270.2 1020.68C1270.97 1021.72 1271.4 1022.98 1271.42 1024.28C1271.03 1027.98 1269.31 1031.41 1266.59 1033.94C1264.05 1036.95 1261.16 1040.19 1257.97 1043.46C1252.56 1049.07 1246.8 1054.33 1240.72 1059.2C1238.34 1061.37 1235.69 1063.22 1232.84 1064.72C1232.4 1064.2 1243.79 1054.93 1256.24 1041.91C1259.35 1038.68 1262.28 1035.49 1264.86 1032.6C1267.35 1030.44 1269.03 1027.51 1269.65 1024.28C1269.66 1023.23 1269.37 1022.21 1268.81 1021.32C1268.25 1020.43 1267.45 1019.73 1266.5 1019.28C1265.47 1018.72 1264.52 1019.24 1264.48 1019.02Z" fill="#EB996E"/>
<path d="M1260.51 1062.3C1259.99 1062.65 1257.8 1060.19 1254.69 1057.69C1251.59 1055.19 1248.79 1053.38 1249 1052.9C1249.22 1052.43 1252.75 1053.16 1256.11 1055.97C1259.48 1058.77 1261.03 1062 1260.51 1062.3Z" fill="#EB996E"/>
<path d="M1261.72 1088.77C1261.98 1088.77 1261.98 1091.01 1260.55 1094.2C1258.66 1098.38 1255.39 1101.79 1251.29 1103.86C1247.15 1105.88 1242.46 1106.46 1237.97 1105.5C1234.56 1104.72 1232.84 1103.38 1232.97 1103.17C1233.09 1102.95 1235.03 1103.6 1238.22 1103.94C1242.35 1104.4 1246.53 1103.66 1250.25 1101.8C1253.96 1099.94 1257.06 1097.05 1259.17 1093.47C1260.81 1090.71 1261.37 1088.73 1261.72 1088.77Z" fill="#EB996E"/>
<path d="M1265.6 992.08C1262.61 994.313 1259.39 996.207 1255.98 997.727C1249.86 1000.87 1241.37 1005.05 1231.8 1009.37C1222.23 1013.68 1213.44 1017.25 1207.01 1019.67C1203.62 1021.19 1200.08 1022.36 1196.45 1023.16C1199.6 1021.19 1202.94 1019.53 1206.41 1018.2L1230.85 1007.3L1255.25 996.304C1258.56 994.571 1262.02 993.157 1265.6 992.08Z" fill="#EB996E"/>
<path d="M1697.54 924.746C1697.54 924.746 1697.19 925.694 1696.37 927.504L1692.75 935.436C1689.43 942.463 1684.69 952.679 1678.57 965.612C1666.15 991.864 1648.39 1029.54 1626.54 1075.62L1626.24 1076.27H1625.55L1461.74 1039.89L1463.03 1039.02C1457.12 1067.91 1450.96 1098.12 1444.62 1129.21L1443.98 1127.96L1456.91 1133.65C1512.65 1157.96 1565.8 1181.06 1615.03 1199.99C1626.76 1204.99 1639.19 1208.19 1651.89 1209.47C1663.88 1209.71 1675.59 1205.73 1684.95 1198.22C1689.63 1194.9 1693.96 1191.12 1697.88 1186.93C1699.77 1184.92 1701.48 1182.75 1703.01 1180.46C1704.52 1178.18 1706.2 1176.15 1707.54 1173.65C1710.3 1168.99 1713.06 1164.42 1715.43 1159.81C1717.8 1155.2 1720.25 1150.67 1722.45 1146.23C1740.04 1110.5 1752.2 1080.54 1760.82 1060.02C1765.13 1049.76 1768.23 1041.78 1770.47 1036.27L1773.02 1030.06C1773.58 1028.68 1773.92 1027.99 1773.92 1027.99C1773.92 1027.99 1773.71 1028.72 1773.23 1030.14L1770.91 1036.44C1768.84 1041.91 1765.73 1049.97 1761.59 1060.36C1753.27 1081.05 1741.33 1111.06 1723.87 1146.97C1721.68 1151.28 1719.56 1156.02 1716.89 1160.63C1714.22 1165.24 1711.8 1169.9 1709 1174.6C1707.71 1176.97 1705.99 1179.21 1704.48 1181.54C1702.9 1183.91 1701.12 1186.14 1699.17 1188.22C1695.24 1192.48 1690.91 1196.34 1686.24 1199.77C1681.39 1203.36 1676.07 1206.26 1670.42 1208.39C1664.53 1210.58 1658.26 1211.58 1651.97 1211.33C1639.06 1210.08 1626.41 1206.87 1614.47 1201.8C1565.11 1183.09 1511.96 1159.9 1456.18 1135.54L1443.24 1129.85L1442.38 1129.51L1442.6 1128.6C1448.93 1097.56 1455.14 1067.3 1461.09 1038.46V1037.39L1462.17 1037.6L1625.98 1074.46L1624.99 1074.93L1677.66 965.482L1692.28 935.307L1696.16 927.504C1697.02 925.651 1697.54 924.746 1697.54 924.746Z" fill="#263238"/>
<path d="M1761.38 1197.57C1760.18 1198.96 1758.82 1200.19 1757.33 1201.24C1754.65 1203.52 1750.6 1206.58 1745.43 1210.16C1718.18 1228.69 1687.1 1240.83 1654.51 1245.68C1648.31 1246.54 1643.22 1247.06 1639.73 1247.23C1637.91 1247.44 1636.07 1247.44 1634.25 1247.23C1636.01 1246.73 1637.82 1246.42 1639.64 1246.33C1643.09 1245.9 1648.26 1245.16 1654.26 1244.04C1686.41 1238.41 1717.1 1226.39 1744.52 1208.7C1749.78 1205.33 1753.96 1202.49 1756.81 1200.42C1758.23 1199.31 1759.76 1198.36 1761.38 1197.57Z" fill="#263238"/>
<path d="M1760.34 1214.99C1760.34 1214.99 1759.53 1216.11 1757.8 1217.83C1756.08 1219.56 1753.49 1221.93 1750.17 1224.77C1732.85 1239.64 1713.67 1252.18 1693.1 1262.06C1689.17 1263.96 1685.94 1265.38 1683.66 1266.37C1682.51 1266.94 1681.29 1267.35 1680.03 1267.58C1684 1265.05 1688.11 1262.78 1692.36 1260.77C1700.04 1256.46 1710.51 1250.73 1721.59 1243.53C1732.67 1236.33 1742.33 1229.09 1749.14 1223.7C1752.69 1220.57 1756.43 1217.66 1760.34 1214.99Z" fill="#263238"/>
<path d="M1104.94 1738.49L1100.84 1743.88C1100.84 1743.88 981.001 1711.11 966.819 1727.8L1149.9 1865.14L1193 1802.37C1156.45 1794.53 1126.88 1774.61 1104.94 1738.49Z" fill="#FF725E"/>
<g opacity="0.6">
<path d="M1159.94 1807.93C1161.3 1809.79 1161.93 1812.08 1161.71 1814.37C1161.49 1816.66 1160.43 1818.79 1158.73 1820.35C1156.92 1821.76 1154.64 1822.43 1152.35 1822.23C1150.06 1822.02 1147.93 1820.95 1146.4 1819.23C1144.99 1817.25 1144.34 1814.82 1144.6 1812.39C1144.85 1809.97 1145.99 1807.72 1147.78 1806.08C1149.82 1804.79 1152.28 1804.33 1154.64 1804.81C1157.01 1805.3 1159.09 1806.68 1160.46 1808.67" fill="white"/>
</g>
<g opacity="0.6">
<path d="M1149.9 1865.14L1160.29 1850.05L981.001 1723.92C981.001 1723.92 970.224 1721.38 966.819 1727.8L1149.9 1865.14Z" fill="white"/>
</g>
<path d="M1099.81 1743.92C1099.16 1744.83 1103.34 1748.58 1105.58 1754.74C1107.82 1760.9 1107.35 1766.42 1108.43 1766.68C1109.5 1766.94 1112.05 1760.82 1109.2 1753.36C1106.36 1745.9 1100.24 1742.93 1099.81 1743.92Z" fill="#263238"/>
<path d="M1074.63 1737.45C1073.77 1738.14 1076.53 1742.58 1076.7 1748.62C1076.87 1754.65 1074.8 1759.35 1075.71 1760C1076.61 1760.65 1081.01 1755.99 1080.58 1748.45C1080.15 1740.9 1075.28 1736.59 1074.63 1737.45Z" fill="#263238"/>
<path d="M1046.48 1752.24C1047.17 1753.06 1051.74 1749.52 1053.12 1742.89C1054.5 1736.25 1051.78 1731.2 1050.84 1731.63C1049.89 1732.07 1050.53 1736.68 1049.33 1742.07C1048.12 1747.46 1045.66 1751.46 1046.48 1752.24Z" fill="#263238"/>
<path d="M1373.8 1934.97C1373.8 1934.97 1305.77 1961.66 1285.69 1919.97L1274.31 1935.4L1212.58 2048.48C1210.58 2052.03 1209.97 2056.19 1210.85 2060.17C1211.73 2064.14 1214.05 2067.65 1217.36 2070.03C1219.96 2071.81 1223 2072.82 1226.15 2072.97C1229.29 2073.11 1232.41 2072.38 1235.16 2070.85C1264.48 2054.21 1371.99 1992.48 1373.75 1981.1L1380.39 1951.35C1381.05 1948.3 1380.77 1945.12 1379.59 1942.23C1378.41 1939.34 1376.4 1936.87 1373.8 1935.15V1934.97Z" fill="#FF725E"/>
<g opacity="0.6">
<path d="M1220.08 2071.32L1376.21 1970.62L1374.66 1977.09C1373.63 1984.29 1369.83 1986.31 1365.35 1990.02C1352.07 2000.97 1316.94 2024.16 1235.64 2070.81C1233.28 2072.15 1230.63 2072.9 1227.92 2072.99C1225.21 2073.08 1222.52 2072.51 1220.08 2071.32Z" fill="white"/>
</g>
<g opacity="0.6">
<path d="M1362.37 1947C1360.13 1947.88 1358.3 1949.58 1357.25 1951.75C1356.2 1953.93 1356.02 1956.42 1356.73 1958.73C1357.65 1960.99 1359.39 1962.83 1361.6 1963.88C1363.81 1964.93 1366.33 1965.12 1368.67 1964.42C1369.8 1963.95 1370.83 1963.26 1371.7 1962.39C1372.56 1961.52 1373.25 1960.49 1373.72 1959.36C1374.18 1958.23 1374.43 1957.01 1374.42 1955.79C1374.42 1954.56 1374.18 1953.35 1373.71 1952.22C1373.24 1951.08 1372.55 1950.06 1371.69 1949.19C1370.82 1948.32 1369.79 1947.64 1368.66 1947.17C1367.52 1946.7 1366.31 1946.46 1365.08 1946.46C1363.86 1946.46 1362.64 1946.7 1361.51 1947.17" fill="white"/>
</g>
<path d="M1271.93 2013C1270.94 2013.21 1269.3 2004.38 1261.03 1997.82C1252.75 1991.27 1243.79 1991.14 1243.79 1990.15C1243.79 1989.16 1246.03 1989.03 1249.82 1989.37C1254.77 1990.02 1259.44 1992.04 1263.31 1995.19C1267.18 1998.27 1270.07 2002.41 1271.63 2007.09C1272.67 2010.8 1272.37 2013 1271.93 2013Z" fill="#263238"/>
<path d="M1255.86 2030.93C1254.95 2031.4 1251.11 2025.24 1243.53 2021.02C1235.94 2016.79 1228.7 2016.45 1228.65 2015.46C1228.61 2014.46 1236.72 2013.13 1245.29 2018.04C1253.87 2022.96 1256.76 2030.72 1255.86 2030.93Z" fill="#263238"/>
<path d="M1299.05 1991.88C1298.14 1992.44 1292.24 1982.91 1281.03 1975.36C1269.82 1967.82 1258.83 1965.54 1259.05 1964.5C1259.26 1963.47 1271.16 1964.29 1283.06 1972.56C1294.95 1980.84 1299.91 1991.66 1299.05 1991.88Z" fill="#263238"/>
<path d="M1310.47 1955.75C1309.83 1956.57 1301.85 1950.97 1290.82 1947.86C1279.78 1944.76 1270.08 1945.28 1269.95 1944.24C1269.82 1943.21 1279.78 1941.09 1291.76 1944.54C1303.75 1947.99 1311.16 1955.15 1310.47 1955.75Z" fill="#263238"/>
<path d="M1284.31 1946.01C1284.61 1944.02 1285.38 1942.13 1286.55 1940.49C1289.29 1935.72 1292.95 1931.54 1297.32 1928.2C1300.38 1925.48 1304.24 1923.81 1308.32 1923.46C1309.67 1923.46 1311 1923.87 1312.11 1924.64C1313.23 1925.41 1314.09 1926.51 1314.57 1927.77C1315.34 1930.25 1315.14 1932.94 1314.01 1935.27C1311.42 1939.99 1307.28 1943.67 1302.29 1945.69C1297.3 1947.7 1291.77 1947.92 1286.63 1946.31C1281.57 1944.71 1277.09 1941.65 1273.76 1937.52C1270.42 1933.38 1268.38 1928.36 1267.88 1923.08C1267.79 1921.76 1267.99 1920.43 1268.46 1919.2C1268.92 1917.96 1269.66 1916.84 1270.6 1915.92C1271.68 1915.09 1273 1914.62 1274.36 1914.56C1275.72 1914.5 1277.07 1914.85 1278.23 1915.57C1281.5 1917.92 1284.11 1921.09 1285.77 1924.76C1288.39 1929.6 1290.11 1934.87 1290.86 1940.32C1291.32 1942.27 1291.32 1944.31 1290.86 1946.27C1289.46 1939.15 1286.99 1932.29 1283.53 1925.92C1282.02 1922.83 1279.77 1920.17 1276.98 1918.16C1276.37 1917.67 1275.61 1917.4 1274.82 1917.4C1274.04 1917.4 1273.28 1917.67 1272.67 1918.16C1272.09 1918.81 1271.66 1919.57 1271.4 1920.39C1271.14 1921.22 1271.06 1922.09 1271.16 1922.95C1271.72 1927.5 1273.57 1931.8 1276.49 1935.34C1279.4 1938.88 1283.27 1941.52 1287.63 1942.95C1291.98 1944.27 1296.65 1944.1 1300.89 1942.46C1305.13 1940.82 1308.71 1937.8 1311.03 1933.9C1311.85 1932.27 1312.07 1930.41 1311.64 1928.64C1311.38 1927.93 1310.92 1927.33 1310.31 1926.9C1309.7 1926.47 1308.98 1926.23 1308.23 1926.22C1304.78 1926.54 1301.51 1927.89 1298.83 1930.1C1293.09 1934.5 1288.17 1939.89 1284.31 1946.01Z" fill="#263238"/>
<path d="M1646.15 587.126C1642.1 576.392 1643.69 564.452 1642.06 553.114C1638.52 528.069 1618.43 508.024 1595.16 498.238C1573.6 489.143 1547 491.082 1520.88 499.488C1502.77 504.943 1486.57 515.403 1474.15 529.664C1466.29 539.412 1460.87 550.898 1458.34 563.165C1455.81 575.432 1456.25 588.125 1459.63 600.188L1587.57 581.824C1599.55 591.782 1611.8 601.869 1626.37 607.387C1630.54 609.244 1635.13 609.987 1639.69 609.542C1641.96 609.286 1644.12 608.377 1645.9 606.924C1647.67 605.471 1648.99 603.536 1649.69 601.352C1650.72 596.567 1647.92 591.782 1646.15 587.126Z" fill="#263238"/>
<path d="M1566.66 491.815C1594.64 487.073 1619.25 497.893 1642.83 513.714C1666.44 529.961 1684.49 553.056 1694.56 579.884C1705.34 607.775 1708.05 648.124 1699.69 676.876C1695.97 690.4 1689.04 702.825 1679.49 713.093C1669.93 723.361 1658.04 731.167 1644.82 735.848C1606.32 749.426 1561.83 747.788 1529.24 722.915C1496.65 698.042 1478.12 657.478 1476.61 616.655C1475.19 588.314 1482.73 560.245 1498.16 536.432C1505.93 524.65 1516.04 514.594 1527.86 506.888C1539.68 499.183 1552.96 493.993 1566.88 491.643" fill="#263238"/>
<path d="M1523.21 819.132C1523.21 821.373 1523.42 823.831 1523.55 826.46C1523.55 826.46 1523.55 827.193 1523.55 828.4C1524.93 843.876 1532.18 873.016 1566.66 873.447C1609.77 874.008 1642.75 826.029 1647.66 818.614L1649.26 580.876C1649.17 575.652 1647.12 570.651 1643.52 566.866C1639.92 563.081 1635.03 560.788 1629.81 560.443L1518.17 536.647C1482.64 534.233 1460.7 578.72 1459.8 614.241C1458.81 653.857 1459.15 702.224 1464.93 731.494C1476.57 790.379 1522.26 796.155 1522.26 796.155C1522.26 796.155 1522.43 803.01 1523.21 819.132Z" fill="#FFBE9D"/>
<path d="M1476.65 657.909C1476.71 659.891 1477.54 661.773 1478.97 663.15C1480.39 664.528 1482.3 665.293 1484.28 665.281C1485.25 665.327 1486.22 665.177 1487.13 664.839C1488.04 664.5 1488.88 663.981 1489.58 663.313C1490.29 662.644 1490.85 661.84 1491.23 660.948C1491.62 660.057 1491.82 659.096 1491.83 658.125C1491.77 656.15 1490.95 654.275 1489.53 652.899C1488.11 651.522 1486.21 650.753 1484.24 650.753C1483.27 650.713 1482.3 650.867 1481.39 651.207C1480.48 651.547 1479.65 652.066 1478.94 652.732C1478.23 653.399 1477.66 654.201 1477.27 655.09C1476.88 655.979 1476.67 656.937 1476.65 657.909Z" fill="#263238"/>
<path d="M1471.13 637.261C1472.13 638.209 1477.73 633.726 1485.92 633.467C1494.11 633.208 1500.23 637.045 1501.09 636.01C1501.96 634.976 1500.45 633.769 1497.78 632.001C1494.15 629.667 1489.88 628.522 1485.58 628.725C1481.32 628.87 1477.22 630.382 1473.89 633.036C1471.44 635.019 1470.66 636.829 1471.13 637.261Z" fill="#263238"/>
<path d="M1549.94 656.141C1549.99 658.128 1550.82 660.013 1552.25 661.398C1553.67 662.783 1555.58 663.557 1557.57 663.556C1558.54 663.59 1559.5 663.432 1560.41 663.09C1561.32 662.748 1562.15 662.229 1562.85 661.563C1563.56 660.898 1564.13 660.099 1564.52 659.212C1564.92 658.326 1565.13 657.37 1565.15 656.4C1565.09 654.418 1564.25 652.538 1562.83 651.156C1561.41 649.773 1559.51 648.996 1557.52 648.986C1556.55 648.951 1555.59 649.109 1554.68 649.451C1553.77 649.794 1552.94 650.312 1552.23 650.978C1551.53 651.644 1550.96 652.443 1550.57 653.329C1550.17 654.216 1549.96 655.172 1549.94 656.141Z" fill="#263238"/>
<path d="M1548.81 635.364C1549.76 636.312 1555.37 631.829 1563.56 631.57C1571.75 631.312 1577.87 635.148 1578.73 634.114C1579.59 633.079 1578.13 631.915 1575.41 630.105C1571.8 627.771 1567.55 626.626 1563.26 626.829C1558.99 626.974 1554.88 628.485 1551.53 631.139C1549.12 633.122 1548.3 634.933 1548.81 635.364Z" fill="#263238"/>
<path d="M1524.2 697.525C1519.83 696.331 1515.32 695.694 1510.79 695.628C1508.72 695.628 1506.74 695.154 1506.48 693.732C1506.23 691.578 1506.64 689.4 1507.65 687.481C1509.41 682.351 1511.27 677.006 1513.25 671.359C1520.97 648.425 1526.48 629.544 1525.54 629.242C1524.59 628.941 1517.6 647.305 1509.89 670.281C1508.03 675.928 1506.22 681.316 1504.54 686.489C1503.34 689.062 1503.07 691.971 1503.77 694.723C1504.1 695.452 1504.6 696.095 1505.22 696.603C1505.84 697.111 1506.56 697.471 1507.35 697.654C1508.5 697.925 1509.69 698.041 1510.88 697.999C1515.32 698.392 1519.8 698.233 1524.2 697.525Z" fill="#263238"/>
<path d="M1522.17 794.517C1550.09 793.895 1577.28 785.522 1600.72 770.334C1600.72 770.334 1582.31 812.105 1522.82 808.786L1522.17 794.517Z" fill="#EB996E"/>
<path d="M1528.38 717.096C1529.85 715.084 1531.81 713.481 1534.07 712.44C1536.34 711.399 1538.83 710.954 1541.31 711.147C1543.12 711.233 1544.89 711.687 1546.51 712.48C1548.13 713.273 1549.58 714.389 1550.75 715.76C1551.9 717.087 1552.61 718.729 1552.79 720.469C1552.98 722.21 1552.63 723.965 1551.79 725.502C1550.53 727.013 1548.85 728.115 1546.96 728.668C1545.07 729.221 1543.06 729.199 1541.18 728.606C1537.26 727.399 1533.62 725.404 1530.49 722.743C1529.54 722.14 1528.72 721.348 1528.08 720.415C1527.78 719.971 1527.61 719.445 1527.61 718.906C1527.61 718.368 1527.78 717.842 1528.08 717.398" fill="#EB996E"/>
<path d="M1548.47 702.267C1547.13 702.267 1547.44 711.147 1540.06 717.699C1532.69 724.252 1523.25 723.691 1523.21 724.898C1523.17 726.105 1525.41 726.579 1529.37 726.536C1534.57 726.391 1539.55 724.44 1543.47 721.019C1547.21 717.705 1549.53 713.07 1549.94 708.086C1550.15 704.379 1549.07 702.224 1548.47 702.267Z" fill="#263238"/>
<path d="M1549.29 611.094C1550.15 613.292 1558.3 611.913 1567.91 612.732C1577.52 613.551 1585.41 615.836 1586.62 613.81C1587.18 612.818 1585.71 610.792 1582.52 608.766C1578.25 606.29 1573.47 604.816 1568.54 604.458C1563.61 604.1 1558.66 604.865 1554.07 606.697C1550.63 608.249 1548.9 610.059 1549.29 611.094Z" fill="#263238"/>
<path d="M1472.17 601.395C1473.68 603.205 1479.24 601.093 1486.01 600.748C1492.78 600.403 1498.55 601.524 1499.8 599.498C1500.36 598.55 1499.37 596.739 1496.83 595.187C1493.39 593.168 1489.42 592.25 1485.45 592.558C1481.45 592.812 1477.63 594.321 1474.54 596.869C1472.21 598.593 1471.52 600.533 1472.17 601.395Z" fill="#263238"/>
<path d="M1666.67 569.926C1655.12 535.871 1604.64 489.488 1568.86 492.678L1512.26 528.026C1514.31 537.751 1518.94 546.743 1525.67 554.056C1532.4 561.37 1540.97 566.733 1550.5 569.582C1560.67 572.47 1572.87 573.116 1579.08 581.695C1585.28 590.273 1582.01 603.464 1587.91 612.517C1596.06 625.061 1617.74 624.07 1623.91 637.692C1626.62 643.641 1625.42 650.624 1628.22 656.745C1631.97 664.591 1652.23 674.29 1660.51 671.488C1668.78 668.686 1668.52 654.547 1671.11 647.089C1674.4 638.672 1674.64 629.372 1671.8 620.793C1667.96 604.111 1672.28 586.135 1666.67 569.926Z" fill="#263238"/>
<path d="M1636.11 678.945C1636.11 674.635 1640.68 663.944 1645.03 663.082C1656.58 660.84 1677.58 661.013 1678.91 690.541C1680.68 730.933 1639.77 724.381 1639.64 723.217C1639.51 722.053 1636.67 694.205 1636.11 678.945Z" fill="#FFBE9D"/>
<path d="M1651.28 707.397C1651.28 707.397 1652.01 707.828 1653.22 708.345C1654.93 709.011 1656.82 709.011 1658.52 708.345C1662.83 706.578 1665.98 699.724 1665.85 692.352C1665.82 688.891 1665 685.484 1663.44 682.394C1663.02 681.143 1662.29 680.015 1661.33 679.112C1660.37 678.209 1659.2 677.56 1657.92 677.221C1657.1 677.046 1656.25 677.161 1655.51 677.546C1654.77 677.932 1654.19 678.564 1653.87 679.334C1653.35 680.498 1653.65 681.273 1653.44 681.36C1653.22 681.446 1652.53 680.713 1652.79 679.032C1652.97 678.017 1653.5 677.1 1654.3 676.445C1654.83 675.998 1655.44 675.661 1656.1 675.454C1656.75 675.246 1657.45 675.173 1658.14 675.238C1659.81 675.5 1661.39 676.183 1662.72 677.224C1664.06 678.265 1665.1 679.629 1665.77 681.187C1667.62 684.605 1668.63 688.42 1668.7 692.309C1668.7 700.456 1664.95 708.259 1659.21 710.199C1658.14 710.564 1657 710.684 1655.87 710.55C1654.74 710.416 1653.66 710.031 1652.7 709.423C1651.41 708.345 1651.15 707.483 1651.28 707.397Z" fill="#EB996E"/>
<path d="M1703.27 623.725C1704.47 619.804 1704.98 615.706 1704.78 611.611C1704.9 601.693 1703.34 591.826 1700.17 582.428C1697 573.098 1692.31 564.357 1686.29 556.563C1683.92 553.221 1681.01 550.305 1677.66 547.941C1676.93 548.459 1690.6 561.908 1697.54 583.591C1704.48 605.275 1702.45 623.725 1703.27 623.725Z" fill="#FF725E"/>
<path d="M1524.03 515.826C1520.28 532.293 1495.28 553.33 1484.28 566.133C1463.33 590.532 1459.37 594.11 1459.54 667.694C1448.64 644.79 1442.89 619.777 1442.68 594.411C1443.18 572.912 1451.52 552.337 1466.13 536.561C1473.51 528.831 1482.57 522.919 1492.62 519.291C1502.67 515.663 1513.42 514.418 1524.03 515.654" fill="#263238"/>
<path d="M1687.23 569.409C1685 570.167 1682.71 570.73 1680.38 571.09C1677.68 571.711 1674.94 572.186 1672.19 572.513C1669 572.944 1665.33 573.547 1661.28 573.763C1651.75 574.575 1642.16 574.662 1632.62 574.022C1609.19 572.521 1586.2 566.902 1564.72 557.425C1555.98 553.568 1547.54 549.072 1539.46 543.975C1535.93 541.906 1532.99 539.665 1530.32 537.811C1528.04 536.241 1525.84 534.558 1523.73 532.767C1521.83 531.373 1520.05 529.815 1518.42 528.112C1520.48 529.254 1522.45 530.566 1524.29 532.035C1526.1 533.371 1528.38 535.009 1531.1 536.69C1533.81 538.371 1536.79 540.57 1540.32 542.51C1548.46 547.377 1556.91 551.697 1565.63 555.442C1586.97 564.537 1609.66 570.084 1632.79 571.866C1642.23 572.568 1651.7 572.655 1661.15 572.125C1665.21 572.125 1668.83 571.521 1672.02 571.219C1675.21 570.918 1677.97 570.573 1680.21 570.228C1682.52 569.745 1684.87 569.471 1687.23 569.409Z" fill="#455A64"/>
<path d="M1691.42 598.377C1689.91 598.966 1688.33 599.343 1686.72 599.498C1682.44 600.309 1678.12 600.856 1673.78 601.136C1644.74 603.315 1615.64 597.58 1589.59 584.54C1585.67 582.595 1581.86 580.436 1578.17 578.074C1576.77 577.305 1575.46 576.364 1574.29 575.271C1574.51 574.884 1580.37 578.461 1590.33 583.031C1616.43 595.004 1645 600.632 1673.7 599.455C1684.6 599.067 1691.37 597.946 1691.42 598.377Z" fill="#455A64"/>
<path d="M1701.63 599.369C1702.32 601.334 1702.77 603.375 1702.97 605.447C1703.84 611.045 1704.4 616.686 1704.65 622.345C1704.99 629.501 1705.12 638.037 1704.65 647.52C1704.19 657.837 1702.75 668.086 1700.34 678.127C1695.67 696.641 1684.62 712.914 1669.13 724.08C1664.44 727.306 1659.41 730.009 1654.13 732.141C1652.25 733.037 1650.26 733.703 1648.22 734.124C1649.98 733.026 1651.82 732.074 1653.74 731.279C1658.77 728.83 1663.57 725.945 1668.09 722.657C1674.78 717.76 1680.61 711.788 1685.34 704.983C1691.3 696.783 1695.69 687.544 1698.27 677.739C1700.58 667.825 1702.03 657.728 1702.58 647.563C1703.18 638.166 1703.27 629.717 1703.1 622.604C1702.92 615.491 1702.62 609.672 1702.24 605.749C1701.85 603.644 1701.65 601.509 1701.63 599.369Z" fill="#455A64"/>
<path d="M1397.12 1164.17C1396.69 1164.17 1397.81 1158.65 1397.77 1149.72C1397.75 1144.53 1397.27 1139.36 1396.34 1134.25C1395.15 1128 1393.37 1121.89 1391.04 1115.97C1388.62 1110.1 1385.64 1104.47 1382.16 1099.16C1379.25 1094.84 1376 1090.78 1372.42 1087C1366.25 1080.58 1361.64 1077.43 1361.9 1077.09C1363.13 1077.56 1364.28 1078.23 1365.31 1079.07C1366.58 1079.92 1367.8 1080.84 1368.97 1081.83C1370.57 1083.09 1372.1 1084.44 1373.54 1085.88C1377.38 1089.56 1380.83 1093.62 1383.84 1097.99C1387.55 1103.39 1390.67 1109.17 1393.15 1115.24C1395.54 1121.31 1397.28 1127.6 1398.37 1134.03C1399.22 1139.28 1399.55 1144.59 1399.36 1149.9C1399.31 1151.93 1399.15 1153.96 1398.89 1155.97C1398.75 1157.51 1398.51 1159.04 1398.15 1160.54C1398.01 1161.8 1397.66 1163.02 1397.12 1164.17Z" fill="#263238"/>
<path d="M1413.97 1141.88C1413.59 1141.88 1412.9 1137.57 1410.74 1130.84C1405.09 1113.3 1394.21 1097.9 1379.57 1086.7C1373.97 1082.39 1370.13 1080.32 1370.31 1079.98C1370.48 1079.63 1371.38 1080.28 1373.19 1081.14C1375.75 1082.37 1378.21 1083.81 1380.52 1085.45C1396.1 1096.19 1407.35 1112.13 1412.25 1130.41C1413.01 1133.14 1413.56 1135.92 1413.89 1138.73C1414.1 1140.76 1414.15 1141.84 1413.97 1141.88Z" fill="#263238"/>
<path d="M1683.78 428.964L1726.89 410.988C1748.07 420.758 1771.55 424.43 1794.7 421.593C1811.03 419.511 1826.77 414.171 1840.99 405.889C1855.22 397.607 1867.63 386.553 1877.5 373.381C1887.38 360.21 1894.5 345.19 1898.45 329.213C1902.41 313.236 1903.12 296.627 1900.53 280.372C1890.23 211.098 1826.3 161.438 1757.67 169.973C1741.35 172.05 1725.6 177.385 1711.38 185.662C1697.16 193.94 1684.74 204.99 1674.87 218.158C1665 231.326 1657.87 246.343 1653.92 262.318C1649.96 278.292 1649.26 294.898 1651.84 311.151C1655.95 339.149 1669.05 365.052 1689.17 384.951L1683.78 428.964Z" fill="white"/>
<path d="M1683.78 428.964C1683.78 428.964 1683.78 428.102 1684.04 426.205L1684.95 417.886C1685.77 410.299 1687.02 399.22 1688.61 384.822C1688.63 384.693 1688.7 384.576 1688.81 384.496C1688.91 384.416 1689.04 384.378 1689.17 384.391L1688.57 385.167C1673.3 370.177 1661.93 351.677 1655.46 331.282C1646.72 303.195 1647.82 272.966 1658.57 245.584C1665.11 229.082 1675.14 214.186 1687.96 201.912C1700.79 189.637 1716.11 180.272 1732.88 174.457C1751.46 168.285 1771.22 166.486 1790.61 169.198C1800.61 170.585 1810.42 173.132 1819.83 176.785C1829.38 180.649 1838.45 185.611 1846.86 191.57C1863.56 203.133 1877.27 218.518 1886.82 236.446C1896.05 253.481 1901.43 272.329 1902.6 291.666C1903.65 309.281 1900.96 326.918 1894.7 343.415C1888.43 359.911 1878.74 374.891 1866.26 387.365C1855.37 398.3 1842.52 407.076 1828.37 413.23C1824.96 414.523 1821.69 416.032 1818.32 417.11L1808.28 419.912C1804.96 420.731 1801.64 421.162 1798.36 421.765C1795.19 422.374 1791.98 422.777 1788.75 422.972C1767.34 424.552 1745.88 420.619 1726.42 411.549H1726.85L1694.56 424.481L1686.37 427.8L1683.66 428.835L1686.5 427.585L1694.73 424.007L1726.42 410.428C1726.49 410.397 1726.56 410.381 1726.63 410.381C1726.71 410.381 1726.78 410.397 1726.85 410.428C1746.2 419.236 1767.47 423.003 1788.67 421.377C1791.87 421.17 1795.05 420.753 1798.19 420.127C1801.38 419.481 1804.7 419.093 1807.93 418.274L1817.85 415.428C1821.13 414.351 1824.36 412.842 1827.72 411.549C1841.63 405.453 1854.26 396.796 1864.97 386.029C1877.16 373.715 1886.62 358.962 1892.72 342.737C1898.82 326.513 1901.42 309.182 1900.36 291.882C1899.18 272.855 1893.85 254.317 1884.75 237.566C1875.38 219.948 1861.91 204.838 1845.48 193.51C1837.2 187.639 1828.26 182.763 1818.84 178.983C1809.58 175.374 1799.93 172.857 1790.09 171.482C1771.11 168.838 1751.77 170.593 1733.57 176.612C1716.45 182.509 1700.86 192.172 1687.97 204.891C1664.87 227.666 1651.76 258.672 1651.5 291.106C1651.21 304.672 1653.12 318.194 1657.14 331.153C1663.47 351.308 1674.58 369.632 1689.52 384.563C1689.57 384.611 1689.6 384.669 1689.63 384.731C1689.66 384.794 1689.67 384.862 1689.67 384.93C1689.67 384.998 1689.66 385.065 1689.63 385.128C1689.6 385.191 1689.57 385.248 1689.52 385.296C1689.43 385.359 1689.32 385.393 1689.22 385.393C1689.11 385.393 1689 385.359 1688.91 385.296L1689.65 384.908C1687.79 399.091 1686.37 410.04 1685.34 417.498C1684.86 421.162 1684.47 424.007 1684.22 426.119C1683.96 428.231 1683.78 428.964 1683.78 428.964Z" fill="#263238"/>
<path d="M1742.41 315.72C1752.43 315.72 1760.56 307.595 1760.56 297.572C1760.56 287.549 1752.43 279.424 1742.41 279.424C1732.39 279.424 1724.26 287.549 1724.26 297.572C1724.26 307.595 1732.39 315.72 1742.41 315.72Z" fill="#FF725E"/>
<path d="M1800.78 283.26C1810.8 283.26 1818.93 275.135 1818.93 265.112C1818.93 255.089 1810.8 246.964 1800.78 246.964C1790.76 246.964 1782.63 255.089 1782.63 265.112C1782.63 275.135 1790.76 283.26 1800.78 283.26Z" fill="#FF725E"/>
<path d="M1797.55 347.491C1807.57 347.491 1815.69 339.365 1815.69 329.342C1815.69 319.319 1807.57 311.194 1797.55 311.194C1787.52 311.194 1779.4 319.319 1779.4 329.342C1779.4 339.365 1787.52 347.491 1797.55 347.491Z" fill="#FF725E"/>
<path d="M1798.62 335.033L1733.66 297.486L1798.71 261.362L1802.89 268.906L1751.16 297.658L1802.93 327.575L1798.62 335.033Z" fill="#FF725E"/>
</svg>
