<svg width="288" height="215" viewBox="0 0 288 215" fill="none" xmlns="http://www.w3.org/2000/svg">
<path d="M288 188.582H0V188.726H288V188.582Z" fill="#EBEBEB"/>
<path d="M259.142 197.85H240.065V197.994H259.142V197.85Z" fill="#EBEBEB"/>
<path d="M157.375 196.047H149.95V196.191H157.375V196.047Z" fill="#EBEBEB"/>
<path d="M201.41 196.658H185.777V196.802H201.41V196.658Z" fill="#EBEBEB"/>
<path d="M239.489 192.505H207.17V192.649H239.489V192.505Z" fill="#EBEBEB"/>
<path d="M45.4982 199.169H30.2169V199.313H45.4982V199.169Z" fill="#EBEBEB"/>
<path d="M63.8727 199.169H50.6247V199.313H63.8727V199.169Z" fill="#EBEBEB"/>
<path d="M110.483 195.978H75.456V196.122H110.483V195.978Z" fill="#EBEBEB"/>
<path d="M136.512 162.893H25.2921C24.4208 162.891 23.5857 162.544 22.9702 161.927C22.3546 161.311 22.0089 160.475 22.0089 159.604V3.26016C22.0165 2.39387 22.3656 1.56556 22.9803 0.955134C23.595 0.344712 24.4258 0.001484 25.2921 0H136.512C137.384 0 138.221 0.346514 138.838 0.963314C139.454 1.58011 139.801 2.41667 139.801 3.28896V159.604C139.801 160.476 139.454 161.313 138.838 161.929C138.221 162.546 137.384 162.893 136.512 162.893ZM25.2921 0.1152C24.459 0.116726 23.6606 0.448741 23.072 1.03837C22.4835 1.628 22.1529 2.42706 22.1529 3.26016V159.604C22.1529 160.437 22.4835 161.236 23.072 161.826C23.6606 162.415 24.459 162.747 25.2921 162.749H136.512C137.346 162.747 138.145 162.415 138.734 161.826C139.324 161.236 139.655 160.437 139.657 159.604V3.26016C139.655 2.42653 139.324 1.62748 138.734 1.03802C138.145 0.448554 137.346 0.116723 136.512 0.1152H25.2921Z" fill="#EBEBEB"/>
<path d="M261.107 162.893H149.881C149.009 162.891 148.173 162.544 147.557 161.928C146.941 161.311 146.594 160.476 146.592 159.604V3.26016C146.601 2.39334 146.951 1.56504 147.567 0.954773C148.183 0.344511 149.014 0.00146781 149.881 0H261.107C261.972 0.00299779 262.801 0.346895 263.415 0.957155C264.028 1.56741 264.376 2.39486 264.384 3.26016V159.604C264.384 160.474 264.039 161.309 263.425 161.925C262.81 162.542 261.977 162.89 261.107 162.893ZM149.881 0.1152C149.047 0.116723 148.248 0.448554 147.659 1.03802C147.069 1.62748 146.738 2.42653 146.736 3.26016V159.604C146.738 160.437 147.069 161.236 147.659 161.826C148.248 162.415 149.047 162.747 149.881 162.749H261.107C261.94 162.747 262.739 162.415 263.329 161.826C263.918 161.236 264.25 160.437 264.251 159.604V3.26016C264.25 2.42653 263.918 1.62748 263.329 1.03802C262.739 0.448554 261.94 0.116723 261.107 0.1152H149.881Z" fill="#EBEBEB"/>
<path d="M257.086 13.2478H169.908V188.582H257.086V13.2478Z" fill="#FAFAFA"/>
<path d="M229.046 35.7119H197.942V79.102H229.046V35.7119Z" fill="white"/>
<path d="M257.08 188.582H257.622V13.2479H257.08V188.582Z" fill="#EBEBEB"/>
<path d="M252.76 188.582H252.184V18.144H174.804V188.582H174.228V17.568H252.76V188.582Z" fill="#E0E0E0"/>
<path d="M246.061 104.158H234.04C233.8 104.172 233.559 104.136 233.333 104.054C233.107 103.971 232.9 103.843 232.725 103.678C232.55 103.513 232.411 103.314 232.316 103.093C232.22 102.872 232.171 102.633 232.171 102.393C232.171 102.152 232.22 101.914 232.316 101.693C232.411 101.472 232.55 101.272 232.725 101.107C232.9 100.942 233.107 100.814 233.333 100.731C233.559 100.649 233.8 100.613 234.04 100.627H246.061C246.302 100.613 246.542 100.649 246.769 100.731C246.995 100.814 247.202 100.942 247.377 101.107C247.552 101.272 247.691 101.472 247.786 101.693C247.882 101.914 247.931 102.152 247.931 102.393C247.931 102.633 247.882 102.872 247.786 103.093C247.691 103.314 247.552 103.513 247.377 103.678C247.202 103.843 246.995 103.971 246.769 104.054C246.542 104.136 246.302 104.172 246.061 104.158ZM234.04 101.203C233.877 101.192 233.713 101.214 233.559 101.269C233.405 101.323 233.264 101.409 233.144 101.521C233.025 101.632 232.929 101.767 232.864 101.917C232.799 102.067 232.765 102.229 232.765 102.393C232.765 102.556 232.799 102.718 232.864 102.868C232.929 103.018 233.025 103.153 233.144 103.265C233.264 103.376 233.405 103.462 233.559 103.516C233.713 103.571 233.877 103.593 234.04 103.582H246.061C246.225 103.593 246.388 103.571 246.543 103.516C246.697 103.462 246.838 103.376 246.958 103.265C247.077 103.153 247.173 103.018 247.238 102.868C247.303 102.718 247.337 102.556 247.337 102.393C247.337 102.229 247.303 102.067 247.238 101.917C247.173 101.767 247.077 101.632 246.958 101.521C246.838 101.409 246.697 101.323 246.543 101.269C246.388 101.214 246.225 101.192 246.061 101.203H234.04Z" fill="#E0E0E0"/>
<path d="M113.322 62.4615H32.2387V69.4196H113.322V62.4615Z" fill="#FAFAFA"/>
<path d="M113.316 69.4195H33.2755V188.582H113.316V69.4195Z" fill="#FAFAFA"/>
<path d="M113.322 188.582H119.197L119.197 62.4671H113.322L113.322 188.582Z" fill="#F0F0F0"/>
<path d="M70.9574 76.3315H39.9974V146.747H70.9574V76.3315Z" fill="#F0F0F0"/>
<path d="M62.1101 76.3315H54.8467L48.8448 146.742H56.1024L62.1101 76.3315Z" fill="white"/>
<path d="M105.592 183.168H41.0055C40.6424 183.166 40.2945 183.022 40.0378 182.765C39.781 182.508 39.6361 182.16 39.6346 181.797V152.421C39.6361 152.058 39.781 151.71 40.0378 151.453C40.2945 151.197 40.6424 151.052 41.0055 151.05H105.592C105.955 151.052 106.303 151.197 106.56 151.453C106.817 151.71 106.962 152.058 106.963 152.421V181.797C106.962 182.16 106.817 182.508 106.56 182.765C106.303 183.022 105.955 183.166 105.592 183.168ZM41.0055 151.741C40.8333 151.743 40.6686 151.812 40.5469 151.934C40.4251 152.055 40.3561 152.22 40.3546 152.392V181.768C40.3561 181.94 40.4251 182.105 40.5469 182.227C40.6686 182.349 40.8333 182.418 41.0055 182.419H105.592C105.765 182.418 105.929 182.349 106.051 182.227C106.173 182.105 106.242 181.94 106.243 181.768V152.392C106.242 152.22 106.173 152.055 106.051 151.934C105.929 151.812 105.765 151.743 105.592 151.741H41.0055Z" fill="#F0F0F0"/>
<path d="M101.376 158.118C101.077 158.118 100.785 158.029 100.537 157.863C100.289 157.697 100.095 157.461 99.9812 157.185C99.8672 156.909 99.8376 156.605 99.8963 156.312C99.955 156.019 100.099 155.75 100.311 155.539C100.523 155.328 100.792 155.185 101.085 155.128C101.378 155.07 101.682 155.101 101.958 155.216C102.233 155.331 102.468 155.525 102.634 155.774C102.799 156.023 102.886 156.315 102.885 156.614C102.885 156.812 102.846 157.008 102.77 157.191C102.694 157.374 102.583 157.54 102.443 157.679C102.303 157.819 102.136 157.93 101.953 158.005C101.77 158.08 101.574 158.118 101.376 158.118ZM101.376 155.814C101.22 155.814 101.067 155.86 100.938 155.947C100.808 156.033 100.707 156.156 100.647 156.301C100.587 156.445 100.572 156.604 100.602 156.757C100.632 156.91 100.708 157.05 100.818 157.161C100.928 157.271 101.069 157.346 101.222 157.377C101.375 157.407 101.534 157.391 101.678 157.332C101.822 157.272 101.945 157.171 102.032 157.041C102.119 156.911 102.165 156.759 102.165 156.603C102.164 156.5 102.143 156.398 102.103 156.303C102.063 156.209 102.005 156.123 101.932 156.05C101.858 155.978 101.772 155.921 101.676 155.882C101.581 155.844 101.479 155.824 101.376 155.825V155.814Z" fill="#F0F0F0"/>
<path d="M40.7981 76.3315H39.9974V146.747H40.7981V76.3315Z" fill="#EBEBEB"/>
<path d="M106.6 76.3315H75.6404V146.747H106.6V76.3315Z" fill="#F0F0F0"/>
<path d="M89.9827 76.3315H86.9933L80.9913 146.742H83.9808L89.9827 76.3315Z" fill="white"/>
<path d="M94.4812 76.3315H91.4918L85.4841 146.742H88.4736L94.4812 76.3315Z" fill="white"/>
<path d="M76.441 76.3315H75.6404V146.747H76.441V76.3315Z" fill="#EBEBEB"/>
<path d="M113.316 69.4195H33.2755V70.3008H113.316V69.4195Z" fill="#EBEBEB"/>
<path d="M129.214 11.9232H46.08V52.0531H129.214V11.9232Z" fill="#FAFAFA"/>
<path d="M98.3232 46.892C95.376 46.892 92.495 46.0181 90.0446 44.3808C87.5941 42.7434 85.6842 40.4162 84.5563 37.6933C83.4285 34.9705 83.1334 31.9744 83.7084 29.0839C84.2833 26.1933 85.7025 23.5382 87.7865 21.4542C89.8705 19.3703 92.5256 17.9511 95.4161 17.3761C98.3067 16.8012 101.303 17.0963 104.026 18.2241C106.748 19.3519 109.076 21.2618 110.713 23.7123C112.35 26.1628 113.224 29.0438 113.224 31.9909C113.218 35.9411 111.646 39.7277 108.853 42.5209C106.06 45.3141 102.273 46.886 98.3232 46.892ZM98.3232 17.6658C95.4899 17.6658 92.7203 18.506 90.3646 20.08C88.0088 21.6541 86.1727 23.8914 85.0885 26.5089C84.0043 29.1265 83.7206 32.0068 84.2733 34.7856C84.8261 37.5644 86.1904 40.1169 88.1938 42.1203C90.1972 44.1237 92.7497 45.4881 95.5285 46.0408C98.3073 46.5935 101.188 46.3098 103.805 45.2256C106.423 44.1414 108.66 42.3053 110.234 39.9495C111.808 37.5938 112.648 34.8242 112.648 31.9909C112.644 28.1931 111.133 24.5521 108.448 21.8666C105.762 19.1811 102.121 17.6704 98.3232 17.6658Z" fill="white"/>
<path d="M114.964 21.41C115.665 19.5308 115.789 17.4851 115.321 15.5348L113.766 15.483C114.112 17.3763 113.877 19.3303 113.092 21.0875C107.43 21.0414 106.428 27.0145 101.906 25.6955C100.292 25.2867 98.6091 25.2258 96.9696 25.5169C96.2878 25.6212 95.6141 25.7732 94.9536 25.9719C88.9632 27.5329 81.648 31.2654 80.3463 36.8699L81.7344 37.1348C81.7344 37.1348 82.6387 32.9761 88.6464 30.0097C88.0753 30.7606 87.6512 31.6127 87.3965 32.5211C83.7043 46.1031 108.743 43.7127 115.384 38.9723C123.506 33.2065 120.044 23.4145 114.964 21.41Z" fill="#EBEBEB"/>
<path d="M75.266 16.468H50.1754V18.0692H75.266V16.468Z" fill="#EBEBEB"/>
<path d="M68.93 20.5514H50.1754V22.1527H68.93V20.5514Z" fill="#EBEBEB"/>
<path d="M75.266 28.7136H50.1754V30.3149H75.266V28.7136Z" fill="#EBEBEB"/>
<path d="M62.306 32.7974H50.1754V34.3986H62.306V32.7974Z" fill="#EBEBEB"/>
<path d="M72.9101 32.7974H64.2701V34.3986H72.9101V32.7974Z" fill="#EBEBEB"/>
<path d="M70.37 36.8814H50.1754V38.4827H70.37V36.8814Z" fill="#EBEBEB"/>
<path d="M75.266 40.9595H50.1754V42.5608H75.266V40.9595Z" fill="#EBEBEB"/>
<path d="M155.756 188.582H132.077C131.809 188.582 131.55 188.484 131.349 188.307C131.147 188.13 131.017 187.886 130.982 187.62L126.202 149.576C126.183 149.421 126.197 149.263 126.244 149.114C126.29 148.965 126.367 148.828 126.471 148.711C126.574 148.594 126.701 148.5 126.843 148.436C126.986 148.371 127.14 148.338 127.296 148.337H160.537C160.693 148.338 160.847 148.371 160.99 148.436C161.132 148.5 161.259 148.594 161.362 148.711C161.465 148.828 161.543 148.965 161.589 149.114C161.636 149.263 161.65 149.421 161.631 149.576L156.851 187.62C156.817 187.887 156.687 188.131 156.485 188.308C156.284 188.486 156.024 188.583 155.756 188.582Z" fill="#EBEBEB"/>
<path opacity="0.7" d="M125.689 147.554C124.825 148.176 125.51 157.807 126.645 159.932C127.78 162.058 134.554 160.232 142.641 159.517C150.728 158.803 160.416 161.66 160.836 159.932C161.257 158.204 163.618 148.804 162.38 147.554C161.389 146.552 149.478 146.552 144.242 147.151C139.006 147.75 127.532 146.235 125.689 147.554Z" fill="#F5F5F5"/>
<path d="M144 214.595C205.679 214.595 255.681 211.675 255.681 208.074C255.681 204.473 205.679 201.554 144 201.554C82.3205 201.554 32.3193 204.473 32.3193 208.074C32.3193 211.675 82.3205 214.595 144 214.595Z" fill="#F5F5F5"/>
<path d="M94.464 26.7147C90.1152 22.6309 82.944 21.8475 80.2599 26.0984C77.5757 30.3493 79.1079 34.8421 73.6013 39.5538C69.8573 42.7736 72.6336 52.6405 93.9917 51.7362C104.1 51.3099 100.679 40.7922 100.408 35.8213C100.138 30.8504 100.12 24.7678 94.464 26.7147Z" fill="#263238"/>
<path d="M86.0487 200.114L80.8762 200.315L80.7783 194.717L85.9507 194.515L86.0487 200.114Z" fill="#B55B52"/>
<path d="M80.5536 199.244H86.4C86.503 199.243 86.6033 199.277 86.684 199.341C86.7648 199.405 86.8211 199.495 86.8435 199.595L87.8573 204.232C87.8806 204.345 87.8782 204.462 87.8503 204.574C87.8225 204.686 87.7699 204.79 87.6964 204.879C87.6229 204.968 87.5303 205.039 87.4256 205.088C87.3209 205.136 87.2066 205.161 87.0912 205.159C85.0464 205.125 84.0557 205.004 81.481 205.004C79.897 205.004 75.7901 205.171 73.6013 205.171C71.4125 205.171 71.136 203.005 72.0288 202.809C76.0608 201.928 78.4051 200.718 79.6954 199.561C79.932 199.352 80.2381 199.239 80.5536 199.244Z" fill="#263238"/>
<path opacity="0.2" d="M80.7783 194.722L80.8243 197.326L85.9968 197.101L85.9507 194.521L80.7783 194.722Z" fill="black"/>
<path d="M73.1521 87.3503C72.0001 93.5596 73.3249 123.909 75.0817 137.313C77.4202 155.111 79.8394 196.439 79.8394 196.439L86.7514 196.024C86.7514 196.024 88.4794 152.502 87.0682 138.211C87.8689 119.819 89.8503 87.6959 89.8503 87.6959L73.1521 87.3503Z" fill="#49C287"/>
<path opacity="0.2" d="M88.704 107.712C88.9459 103.052 85.6455 98.9107 84.3149 107.712C83.4739 113.305 85.2135 123.108 87.4944 130.032C87.8458 122.826 88.2951 114.802 88.704 107.712Z" fill="black"/>
<path d="M124.053 182.701L120.689 185.915L116.133 181.031L119.491 177.823L124.053 182.701Z" fill="#B55B52"/>
<path d="M119.808 186.002L123.264 181.267C123.32 181.185 123.406 181.127 123.503 181.106C123.601 181.084 123.703 181.101 123.788 181.152L127.82 183.525C127.919 183.591 128.004 183.676 128.07 183.776C128.136 183.875 128.181 183.987 128.202 184.104C128.224 184.221 128.221 184.341 128.195 184.458C128.169 184.574 128.12 184.684 128.051 184.781C126.824 186.411 126.15 187.131 124.635 189.216C123.702 190.495 122.625 192.257 121.34 194.031C120.056 195.805 118.299 194.532 118.679 193.674C120.407 189.821 119.676 188.749 119.583 186.912C119.554 186.592 119.633 186.271 119.808 186.002Z" fill="#263238"/>
<path opacity="0.2" d="M116.133 181.037L118.483 183.548L121.818 180.311L119.497 177.823L116.133 181.037Z" fill="black"/>
<path d="M81.1699 87.5173C81.1699 87.5173 88.6118 126.685 90.5472 141.892C91.6992 150.975 117.101 183.657 117.101 183.657L121.438 179.09C121.438 179.09 112.141 155.163 100.944 140.97C100.5 124.335 102.39 96.9522 95.9616 87.8226L81.1699 87.5173Z" fill="#49C287"/>
<path d="M74.6381 57.4847C74.6381 60.8485 74.4826 64.149 74.2349 67.484C73.9872 70.8191 73.6589 74.1368 73.1232 77.4776L73.0253 78.1055L72.8928 78.8139C72.793 79.2786 72.6835 79.7336 72.5645 80.1791C72.311 81.0603 71.9885 81.9071 71.7005 82.725C71.0703 84.3287 70.355 85.8976 69.5578 87.4251C67.9879 90.412 66.1993 93.2787 64.2067 96.0018C63.9964 96.2841 63.6892 96.4788 63.3441 96.5485C62.9991 96.6182 62.6404 96.5581 62.337 96.3796C62.0335 96.2011 61.8067 95.9168 61.7 95.5813C61.5932 95.2459 61.6142 94.8828 61.7587 94.5618V94.5272C63.1123 91.6011 64.4256 88.6002 65.5718 85.628C66.1478 84.142 66.6605 82.6386 67.0982 81.164C67.3056 80.4268 67.4899 79.6952 67.6339 78.981C67.7088 78.6239 67.7606 78.2725 67.8125 77.9269L67.8701 77.4143L67.9277 76.8383C68.2214 73.6472 68.3942 70.4101 68.5555 67.1672C68.7168 63.9243 68.7917 60.6527 68.8838 57.4386V57.4098C68.8961 56.646 69.2112 55.9183 69.76 55.3868C70.3087 54.8554 71.0461 54.5636 71.8099 54.5759C72.5737 54.5881 73.3014 54.9032 73.8329 55.452C74.3644 56.0007 74.6561 56.7381 74.6438 57.502L74.6381 57.4847Z" fill="#B55B52"/>
<path d="M72.7603 53.2741C65.687 55.342 66.5971 68.2098 66.5971 68.2098L76.654 70.917C76.654 70.917 78.3244 61.4936 78.1747 58.1125C78.0249 54.5989 76.6598 52.1394 72.7603 53.2741Z" fill="#49C287"/>
<path d="M62.5075 93.8187L58.9651 96.8312L63.9303 98.8587C63.9303 98.8587 65.4682 96.5144 64.7539 94.291L62.5075 93.8187Z" fill="#B55B52"/>
<path d="M59.593 101.428L61.8566 101.71C62.1081 101.741 62.3629 101.689 62.5816 101.561C62.8003 101.433 62.9706 101.236 63.0662 101.001L63.9302 98.8587L58.9651 96.8312L58.5907 100.155C58.5565 100.456 58.6426 100.759 58.8303 100.997C59.0179 101.235 59.292 101.39 59.593 101.428Z" fill="#B55B52"/>
<path d="M70.4736 56.6206C70.1568 69.523 73.1232 78.9406 73.1578 87.3502L95.9616 87.8225C95.7946 79.4014 95.8637 73.9064 99.4868 58.8152C99.6443 58.1579 99.663 57.475 99.5417 56.81C99.4204 56.1451 99.1618 55.5127 98.7824 54.9533C98.403 54.394 97.9111 53.9199 97.3381 53.5613C96.7652 53.2027 96.1237 52.9676 95.4548 52.8709C94.0896 52.6693 92.5748 52.4792 91.0368 52.3755C87.5904 52.0562 84.1256 51.983 80.6688 52.1566C78.2381 52.3294 75.6231 52.6866 73.7568 52.9688C72.8703 53.1007 72.0574 53.5374 71.4582 54.204C70.8589 54.8705 70.5108 55.7251 70.4736 56.6206Z" fill="#49C287"/>
<path d="M91.728 68.544L84.9657 68.498C84.8984 68.5009 84.8312 68.4892 84.7689 68.4637C84.7065 68.4382 84.6504 68.3995 84.6044 68.3502C84.5584 68.3009 84.5237 68.2423 84.5025 68.1783C84.4814 68.1143 84.4743 68.0465 84.4819 67.9796L84.8563 64.777C84.8807 64.6341 84.9547 64.5043 85.0653 64.4105C85.1759 64.3168 85.3161 64.265 85.4611 64.2644L92.2176 64.3104C92.2846 64.3067 92.3517 64.3176 92.414 64.3424C92.4764 64.3672 92.5326 64.4054 92.5787 64.4542C92.6248 64.5031 92.6597 64.5614 92.6809 64.6251C92.7021 64.6888 92.7091 64.7564 92.7014 64.8231L92.327 68.0314C92.3039 68.1739 92.231 68.3035 92.1213 68.3974C92.0117 68.4912 91.8723 68.5432 91.728 68.544Z" fill="white"/>
<path opacity="0.4" d="M80.7033 52.1626C80.7033 52.1626 76.9824 54.7661 80.9165 61.298C84.1463 58.1562 87.5317 55.1784 91.0598 52.3757L80.7033 52.1626Z" fill="white"/>
<path d="M90.2765 40.6942C89.5565 44.012 88.7732 50.1061 91.0599 52.3755C87.4642 53.7919 84.1487 55.8359 81.2679 58.412C78.7392 53.7694 80.6919 52.1566 80.6919 52.1566C84.4244 51.3502 84.3898 48.5912 83.7965 45.9877L90.2765 40.6942Z" fill="#B55B52"/>
<path opacity="0.2" d="M89.5737 41.2701C89.4839 43.2525 88.9714 45.1929 88.0704 46.961C87.4425 48.1763 85.7664 48.689 84.0787 48.7869C84.1344 47.8454 84.0431 46.9009 83.808 45.9875L89.5737 41.2701Z" fill="black"/>
<path d="M95.6736 36.6337C93.9456 41.9445 93.3696 44.2254 89.9136 46.299C84.7584 49.4152 78.6125 46.1608 78.6931 40.4526C78.7737 35.3147 81.5731 27.4984 87.3734 26.6978C88.6579 26.5118 89.9686 26.6577 91.1807 27.1216C92.3928 27.5856 93.4659 28.352 94.298 29.3481C95.13 30.3441 95.6933 31.5365 95.9341 32.8119C96.1749 34.0872 96.0852 35.4029 95.6736 36.6337Z" fill="#B55B52"/>
<path d="M81.5904 29.6581C84.4704 30.4702 91.4861 31.075 92.8915 30.2341C91.5725 32.2616 92.8282 37.8027 94.8672 39.1448C97.6147 36.9387 98.2253 31.605 95.6851 28.9611C93.145 26.3173 85.1155 23.155 81.5904 29.6581Z" fill="#263238"/>
<path d="M96.48 39.8822C96.2981 40.3882 96.0169 40.8527 95.6529 41.2483C95.2889 41.644 94.8494 41.9629 94.3603 42.1862C93.0585 42.7622 92.1945 41.6563 92.3789 40.3142C92.5459 39.1104 93.4272 37.3536 94.8211 37.3305C95.1219 37.3347 95.4171 37.4129 95.6805 37.5582C95.9439 37.7035 96.1675 37.9114 96.3315 38.1637C96.4955 38.4159 96.5948 38.7046 96.6207 39.0044C96.6466 39.3041 96.5983 39.6056 96.48 39.8822Z" fill="#B55B52"/>
<path d="M96.3303 86.4919L97.3211 88.5598C97.3959 88.7153 97.2059 88.8766 96.9409 88.8708L73.0196 88.3697C72.818 88.3697 72.651 88.2603 72.6395 88.1278L72.4724 86.083C72.4724 85.9447 72.6452 85.8295 72.8699 85.8295L95.9675 86.3134C96.0382 86.3091 96.1089 86.3234 96.1725 86.3547C96.2361 86.386 96.2905 86.4333 96.3303 86.4919Z" fill="#263238"/>
<path d="M93.1796 89.0093H93.7959C93.9168 89.0093 94.0148 88.946 94.009 88.8711L93.7728 86.21C93.7728 86.1351 93.6576 86.066 93.5367 86.066H92.9146C92.7936 86.066 92.7015 86.1236 92.7072 86.2042L92.9376 88.8596C92.9492 88.946 93.0528 89.0093 93.1796 89.0093Z" fill="#49C287"/>
<path d="M74.7533 88.629H75.3754C75.4963 88.629 75.5943 88.5714 75.5885 88.4908L75.3524 85.8296C75.3524 85.7548 75.2372 85.6914 75.1162 85.6856H74.4941C74.3732 85.6856 74.2752 85.7432 74.2868 85.8239L74.5171 88.4792C74.5287 88.5599 74.6323 88.6232 74.7533 88.629Z" fill="#49C287"/>
<path d="M83.9635 88.8191H84.5856C84.7066 88.8191 84.8045 88.7615 84.7987 88.6808L84.5626 86.0255C84.5626 85.9448 84.4474 85.8815 84.3264 85.8815H83.7043C83.5834 85.8815 83.4912 85.9448 83.497 86.0197L83.7274 88.6808C83.7389 88.75 83.8426 88.8191 83.9635 88.8191Z" fill="#49C287"/>
<path d="M87.385 36.1897C87.2698 36.6274 86.9472 36.9269 86.6592 36.8521C86.3712 36.7772 86.233 36.3625 86.3424 35.9247C86.4518 35.4869 86.7802 35.1874 87.0682 35.2623C87.3562 35.3372 87.4944 35.7519 87.385 36.1897Z" fill="#263238"/>
<path d="M82.4199 34.9228C82.3105 35.3663 81.9879 35.6601 81.6999 35.5852C81.4119 35.5103 81.2679 35.1013 81.3831 34.6578C81.4983 34.2143 81.8151 33.9263 82.1031 33.9954C82.3911 34.0645 82.5351 34.485 82.4199 34.9228Z" fill="#263238"/>
<path d="M82.224 34.053L81.2448 33.477C81.2448 33.477 81.5789 34.4447 82.224 34.053Z" fill="#263238"/>
<path d="M83.52 36.0115C82.8752 36.9142 82.1096 37.7243 81.2448 38.4192C81.4274 38.6355 81.6549 38.8094 81.9116 38.9288C82.1682 39.0482 82.4478 39.1101 82.7309 39.1104L83.52 36.0115Z" fill="#A02724"/>
<path d="M83.7965 40.8324C83.7762 40.815 83.7611 40.7923 83.753 40.7669C83.7449 40.7415 83.744 40.7143 83.7504 40.6884C83.7556 40.6717 83.7641 40.6562 83.7754 40.6428C83.7866 40.6294 83.8004 40.6184 83.8159 40.6104C83.8314 40.6023 83.8484 40.5975 83.8658 40.596C83.8832 40.5946 83.9008 40.5966 83.9174 40.602C84.4554 40.7706 85.0256 40.8105 85.5818 40.7184C86.1381 40.6264 86.665 40.405 87.12 40.072C87.1467 40.0491 87.1815 40.0378 87.2166 40.0405C87.2517 40.0432 87.2843 40.0597 87.3072 40.0864C87.3301 40.1132 87.3415 40.1479 87.3388 40.183C87.3361 40.2181 87.3195 40.2507 87.2928 40.2736C86.8058 40.6411 86.2372 40.8854 85.6355 40.9857C85.0337 41.086 84.4166 41.0393 83.8368 40.8496L83.7965 40.8324Z" fill="#263238"/>
<path d="M90.0922 34.1682C90.0573 34.137 90.028 34.0999 90.0058 34.0587C89.8869 33.7465 89.6953 33.4672 89.4468 33.2438C89.1984 33.0204 88.9004 32.8595 88.5773 32.7742C88.5078 32.762 88.446 32.7227 88.4055 32.6649C88.365 32.6071 88.3491 32.5356 88.3613 32.4661C88.3735 32.3966 88.4129 32.3348 88.4707 32.2943C88.5285 32.2538 88.6 32.2379 88.6695 32.2501C89.0803 32.3517 89.4609 32.5501 89.7795 32.8286C90.0981 33.1071 90.3455 33.4578 90.5012 33.8514C90.5215 33.9055 90.524 33.9647 90.5082 34.0204C90.4924 34.076 90.4593 34.1252 90.4135 34.1606C90.3678 34.196 90.3119 34.2159 90.2541 34.2172C90.1963 34.2186 90.1395 34.2014 90.0922 34.1682Z" fill="#263238"/>
<path d="M81.4406 32.1235L81.406 32.0889C81.3564 32.0393 81.3286 31.9719 81.3286 31.9017C81.3286 31.8315 81.3564 31.7642 81.406 31.7145C81.7101 31.4292 82.0772 31.2194 82.4775 31.1024C82.8778 30.9853 83.3 30.9641 83.71 31.0406C83.7443 31.0493 83.7765 31.0648 83.8047 31.0861C83.8329 31.1074 83.8565 31.1341 83.8742 31.1647C83.892 31.1953 83.9034 31.2291 83.9078 31.2642C83.9122 31.2993 83.9096 31.3349 83.9001 31.3689C83.8825 31.4369 83.8386 31.4951 83.7781 31.5307C83.7176 31.5663 83.6455 31.5765 83.5775 31.559C83.2489 31.4971 82.9103 31.5144 82.5897 31.6096C82.2691 31.7047 81.9759 31.875 81.7343 32.1062C81.6925 32.1378 81.6423 32.1563 81.5901 32.1594C81.5378 32.1625 81.4858 32.15 81.4406 32.1235Z" fill="#263238"/>
<path d="M99.481 56.9436C101.157 59.1612 102.724 61.396 104.245 63.7173C104.999 64.8693 105.748 66.0213 106.456 67.2655C107.219 68.5239 107.904 69.8281 108.507 71.1708C108.689 71.5894 108.847 72.0182 108.979 72.4552C109.075 72.7924 109.141 73.1375 109.175 73.4863C109.185 73.6263 109.185 73.7668 109.175 73.9068V74.166C109.165 74.2802 109.147 74.3937 109.123 74.5058L109.083 74.6844V74.765V74.8284L109.037 74.9551C108.766 75.6463 108.553 76.3433 108.23 77.0114C107.646 78.3808 106.945 79.6971 106.134 80.9455C105.299 82.2059 104.321 83.3655 103.219 84.4015C102.658 84.9277 102.055 85.4074 101.416 85.8357C101.088 86.0489 100.754 86.2562 100.408 86.4463L99.8611 86.7113C99.6538 86.8034 99.504 86.8668 99.2045 86.9762L98.1101 84.3497C98.188 84.2734 98.2708 84.2022 98.3578 84.1365L98.6746 83.8601C98.8877 83.67 99.0951 83.4626 99.2967 83.2495C99.707 82.8093 100.092 82.3458 100.449 81.8613C101.152 80.872 101.765 79.8214 102.28 78.7221C102.522 78.1461 102.787 77.6047 102.989 76.9941C103.19 76.3836 103.415 75.8421 103.599 75.2661C103.784 74.6901 103.928 74.0565 104.106 73.4575V73.3481V73.2905V73.3423V73.4575C104.106 73.5266 104.077 73.6303 104.072 73.6706C104.069 73.7147 104.069 73.759 104.072 73.8031V73.9701C104.072 74.1026 104.072 74.0623 104.072 74.0047C104.072 73.9471 103.91 73.6361 103.789 73.3941C103.265 72.4092 102.563 71.2745 101.843 70.1916C101.123 69.1087 100.374 67.997 99.6077 66.9084C98.0813 64.7253 96.5088 62.5193 94.9651 60.3535L99.481 56.9436Z" fill="#B55B52"/>
<path d="M100.731 86.2964L96.2899 89.4356L94.2969 84.8967C94.2969 84.8967 96.9926 83.4509 99.1181 84.4186L100.731 86.2964Z" fill="#B55B52"/>
<path d="M93.1968 89.8095L92.0851 88.26C91.8741 87.9611 91.7879 87.5918 91.8449 87.2304C91.9019 86.869 92.0976 86.5441 92.3904 86.3247L94.297 84.8962L96.2899 89.4351L95.0688 90.1896C94.7666 90.3751 94.4053 90.4391 94.0579 90.3685C93.7104 90.298 93.4027 90.0981 93.1968 89.8095Z" fill="#B55B52"/>
<path d="M90.5932 55.572C89.0841 61.5682 98.3923 71.8325 98.3923 71.8325L106.22 63.7052C106.22 63.7052 102.643 56.0674 97.9718 53.6712C94.7116 52.0008 91.2614 52.9282 90.5932 55.572Z" fill="#49C287"/>
<path d="M87.1892 35.3204L86.21 34.7444C86.21 34.7444 86.5383 35.7121 87.1892 35.3204Z" fill="#263238"/>
<path d="M77.1841 71.5908C77.142 71.5905 77.1009 71.5778 77.0661 71.5542C77.0312 71.5306 77.0041 71.4973 76.9882 71.4583C76.9695 71.4071 76.9717 71.3506 76.9943 71.301C77.017 71.2515 77.0582 71.2128 77.1092 71.1934L78.0077 70.8478C78.8494 70.537 79.5761 69.9767 80.0908 69.2418C80.6054 68.5068 80.8835 67.6323 80.8877 66.7351L80.9511 58.314C80.9693 57.6729 80.7668 57.045 80.3775 56.5353C79.9882 56.0256 79.4357 55.665 78.8124 55.5139C78.1891 55.3628 77.5328 55.4303 76.9533 55.7052C76.3738 55.98 75.9062 56.4455 75.6289 57.0238L71.7351 64.5118C71.3168 65.3023 71.1479 66.201 71.2507 67.0895C71.3535 67.9779 71.7232 68.8143 72.3111 69.4884L72.9447 70.2084C72.966 70.2282 72.983 70.2522 72.9944 70.279C73.0058 70.3058 73.0115 70.3346 73.011 70.3637C73.0106 70.3928 73.004 70.4215 72.9917 70.4479C72.9795 70.4743 72.9618 70.4978 72.9398 70.5169C72.9179 70.536 72.8922 70.5502 72.8643 70.5587C72.8365 70.5673 72.8072 70.5698 72.7783 70.5663C72.7494 70.5627 72.7216 70.5531 72.6967 70.5381C72.6718 70.5231 72.6503 70.503 72.6336 70.4791L72.0001 69.6958C71.3513 68.9632 70.9415 68.0503 70.8252 67.0787C70.7089 66.1072 70.8917 65.1233 71.3492 64.2583L75.2429 56.7703C75.5757 56.1313 76.114 55.6228 76.771 55.327C77.4279 55.0311 78.1654 54.9649 78.8645 55.1392C79.5637 55.3135 80.1838 55.7181 80.625 56.2877C81.0662 56.8574 81.3028 57.5589 81.2967 58.2794L81.2333 66.7006C81.2287 67.6774 80.9278 68.6298 80.3704 69.432C79.813 70.2342 79.0253 70.8483 78.1114 71.1934L77.2129 71.5332L77.1841 71.5908Z" fill="#263238"/>
<path d="M81.095 60.1919C81.0414 60.1906 80.9903 60.1691 80.9519 60.1317C80.9135 60.0943 80.8905 60.0439 80.8876 59.9903C80.806 59.3248 80.5245 58.6996 80.0805 58.1972C79.6364 57.6948 79.0505 57.3387 78.4 57.1759C77.7495 57.0131 77.0649 57.0513 76.4366 57.2853C75.8082 57.5194 75.2655 57.9383 74.88 58.487C74.8667 58.5108 74.8489 58.5318 74.8276 58.5487C74.8062 58.5657 74.7818 58.5783 74.7555 58.5858C74.7293 58.5932 74.7019 58.5955 74.6748 58.5924C74.6477 58.5893 74.6215 58.5809 74.5977 58.5676C74.5739 58.5544 74.5529 58.5366 74.536 58.5152C74.519 58.4939 74.5064 58.4694 74.499 58.4432C74.4915 58.417 74.4892 58.3896 74.4923 58.3625C74.4954 58.3354 74.5038 58.3092 74.5171 58.2854C74.9457 57.6519 75.5585 57.1654 76.2727 56.8917C76.9869 56.618 77.7679 56.5703 78.5101 56.755C79.2523 56.9398 79.9198 57.3481 80.4223 57.9247C80.9248 58.5013 81.2381 59.2184 81.3196 59.9788C81.3197 60.0334 81.2989 60.0859 81.2614 60.1256C81.2238 60.1652 81.1725 60.189 81.118 60.1919H81.095Z" fill="#263238"/>
<path d="M78.8487 55.5897C78.8146 55.5893 78.7812 55.5807 78.7511 55.5646C78.721 55.5486 78.6953 55.5256 78.6759 55.4975C78.5707 55.264 78.5162 55.0107 78.5162 54.7545C78.5162 54.4983 78.5707 54.245 78.6759 54.0115C78.8254 53.5469 79.0775 53.1219 79.4135 52.7679C79.7496 52.414 80.1609 52.1401 80.617 51.9667C80.6423 51.9568 80.6693 51.9522 80.6964 51.9533C80.7235 51.9544 80.7501 51.9611 80.7745 51.9731C80.7988 51.985 80.8205 52.0018 80.838 52.0225C80.8555 52.0432 80.8685 52.0674 80.8762 52.0934C80.8929 52.1446 80.889 52.2002 80.8653 52.2486C80.8417 52.297 80.8002 52.3343 80.7495 52.3526C80.3589 52.5128 80.0077 52.7559 79.7202 53.0652C79.4328 53.3745 79.216 53.7426 79.0849 54.1439C78.999 54.3223 78.9492 54.5159 78.9383 54.7136C78.9274 54.9113 78.9557 55.1092 79.0215 55.2959C79.0364 55.319 79.0466 55.3447 79.0515 55.3717C79.0564 55.3987 79.0559 55.4264 79.05 55.4532C79.0441 55.4799 79.0329 55.5053 79.0172 55.5277C79.0014 55.5502 78.9813 55.5693 78.9582 55.5839C78.9226 55.5944 78.8851 55.5964 78.8487 55.5897Z" fill="#263238"/>
<path d="M76.7117 71.2742C76.6138 71.6486 76.7117 72.0058 76.9882 72.0691C77.2646 72.1325 77.5181 71.8733 77.6102 71.4931C77.7024 71.113 77.5757 70.7558 77.328 70.6982C77.0803 70.6406 76.8038 70.8941 76.7117 71.2742Z" fill="#263238"/>
<path d="M93.0586 61.3266C93.2429 62.1963 93.865 62.7954 94.4352 62.6744C95.0055 62.5534 95.3165 61.7413 95.1264 60.8773C94.9364 60.0133 94.32 59.4027 93.7498 59.5294C93.1796 59.6562 92.8685 60.4798 93.0586 61.3266Z" fill="#263238"/>
<path d="M94.8614 61.0559C94.835 61.0567 94.8086 61.0522 94.7838 61.0428C94.7591 61.0333 94.7364 61.0191 94.7172 61.0009C94.6979 60.9827 94.6824 60.9609 94.6716 60.9368C94.6608 60.9126 94.6548 60.8865 94.6541 60.86C94.5331 57.6748 93.3235 53.7176 90.9677 52.5484C90.919 52.5237 90.8821 52.4808 90.8648 52.429C90.8476 52.3773 90.8514 52.3208 90.8755 52.2719C90.8871 52.2473 90.9036 52.2252 90.924 52.2072C90.9444 52.1891 90.9682 52.1753 90.9941 52.1667C91.0199 52.1581 91.0472 52.1548 91.0744 52.1571C91.1015 52.1593 91.1279 52.167 91.152 52.1797C93.6749 53.4296 94.9363 57.4328 95.063 60.8197C95.0654 60.8469 95.0622 60.8742 95.0534 60.9C95.0446 60.9258 95.0306 60.9495 95.0122 60.9695C94.9937 60.9896 94.9713 61.0056 94.9464 61.0165C94.9214 61.0274 94.8944 61.033 94.8672 61.0328L94.8614 61.0559Z" fill="#263238"/>
<path d="M92.4423 61.4015C92.5632 62.1445 93.0989 62.6744 93.6404 62.588C94.1818 62.5016 94.5274 61.8277 94.4064 61.0789C94.2855 60.3301 93.744 59.8059 93.2026 59.8923C92.6612 59.9787 92.3213 60.6527 92.4423 61.4015Z" fill="white"/>
<path d="M92.3961 61.4647C92.5689 62.3863 93.0528 63.066 93.4733 62.9853C93.8937 62.9047 94.0838 62.0983 93.911 61.1767C93.7382 60.2551 93.2544 59.5754 92.8339 59.6561C92.4134 59.7367 92.2176 60.5431 92.3961 61.4647Z" fill="#263238"/>
<path d="M72.3571 70.1855C72.265 70.5656 72.3917 70.9227 72.6394 70.9803C72.887 71.0379 73.1635 70.7903 73.2614 70.4043C73.3594 70.0184 73.2269 69.6728 72.9792 69.6095C72.7315 69.5461 72.455 69.8111 72.3571 70.1855Z" fill="#263238"/>
<path d="M135.452 23.2818C131.806 23.9327 131.345 23.5986 131.299 20.9778C131.253 18.357 129.928 13.9851 131.772 12.6143C131.898 12.4943 132.054 12.4096 132.223 12.3687C132.393 12.3277 132.57 12.3319 132.737 12.3809C132.905 12.4299 133.056 12.5219 133.177 12.6477C133.297 12.7736 133.383 12.9289 133.425 13.0981C133.537 12.8106 133.756 12.5777 134.036 12.4478C134.317 12.318 134.636 12.3012 134.928 12.4011C135.003 11.8597 135.089 10.4715 136.08 10.0971C137.071 9.72275 137.981 10.6213 137.981 10.6213C137.981 10.6213 137.906 8.48435 139.346 8.69171C139.776 8.7604 140.175 8.95709 140.492 9.25609C140.808 9.55509 141.027 9.94253 141.12 10.3679C141.12 10.3679 141.95 9.15827 143.073 9.63635C144.196 10.1144 143.96 11.5199 143.96 11.5199C143.96 11.5199 145.152 10.9439 146.039 11.5947C146.926 12.2456 146.281 13.2882 146.281 13.2882C146.281 13.2882 147.087 11.2146 148.625 12.3608C150.008 13.3976 148.752 15.0219 148.752 15.0219C148.752 15.0219 150.273 14.7743 150.641 15.5404C151.886 18.1496 147.145 21.0642 146.99 25.4706C139.709 28.2239 135.452 23.2818 135.452 23.2818Z" fill="#263238"/>
<path d="M109.175 93.312L106.744 92.8627L103.53 95.9328C103.355 96.0993 103.217 96.3007 103.125 96.524C103.033 96.7472 102.988 96.9873 102.995 97.2288L103.041 99.7401C103.046 100.17 103.212 100.581 103.504 100.896C103.797 101.21 104.197 101.404 104.625 101.439L105.742 101.537C106.149 101.576 106.556 101.469 106.891 101.236C107.226 101.003 107.468 100.659 107.574 100.264L108.15 98.2137C108.15 98.2137 111.323 94.464 109.175 93.312Z" fill="#FFB573"/>
<path d="M133.724 47.382C132.094 51.6041 130.47 55.8435 128.903 60.0944C127.336 64.3452 125.781 68.6134 124.324 72.8124L124.065 73.59L123.886 74.0969C123.817 74.287 123.748 74.4828 123.684 74.6326C123.414 75.318 123.143 75.8825 122.872 76.4528C122.331 77.6048 121.784 78.6358 121.231 79.6784C120.119 81.752 118.973 83.7507 117.815 85.7436C115.511 89.7353 113.207 93.6348 110.822 97.592L103.49 93.03C105.909 89.2688 108.242 85.3865 110.477 81.51C111.577 79.5632 112.66 77.6105 113.668 75.6752C114.169 74.7075 114.653 73.7398 115.079 72.7952C115.281 72.3401 115.482 71.8736 115.615 71.4934C115.661 71.384 115.678 71.3091 115.707 71.2342L115.799 70.9347L116.064 70.0937C117.452 65.67 118.909 61.3961 120.315 57.0588L124.531 44.0931L133.724 47.382Z" fill="#49C287"/>
<path opacity="0.6" d="M133.724 47.382C132.094 51.6041 130.47 55.8435 128.903 60.0944C127.336 64.3452 125.781 68.6134 124.324 72.8124L124.065 73.59L123.886 74.0969C123.817 74.287 123.748 74.4828 123.684 74.6326C123.414 75.318 123.143 75.8825 122.872 76.4528C122.331 77.6048 121.784 78.6358 121.231 79.6784C120.119 81.752 118.973 83.7507 117.815 85.7436C115.511 89.7353 113.207 93.6348 110.822 97.592L103.49 93.03C105.909 89.2688 108.242 85.3865 110.477 81.51C111.577 79.5632 112.66 77.6105 113.668 75.6752C114.169 74.7075 114.653 73.7398 115.079 72.7952C115.281 72.3401 115.482 71.8736 115.615 71.4934C115.661 71.384 115.678 71.3091 115.707 71.2342L115.799 70.9347L116.064 70.0937C117.452 65.67 118.909 61.3961 120.315 57.0588L124.531 44.0931L133.724 47.382Z" fill="white"/>
<path d="M111.756 201.548L106.589 201.801L109.031 188.346L113.944 189.475L111.756 201.548Z" fill="#FFB573"/>
<path d="M148.821 201.744H143.654L143.672 189.781H148.833L148.821 201.744Z" fill="#FFB573"/>
<path d="M143.165 201.145H149.46C149.562 201.143 149.66 201.178 149.738 201.242C149.816 201.306 149.869 201.397 149.887 201.496L150.716 206.104C150.735 206.218 150.728 206.335 150.697 206.446C150.665 206.557 150.61 206.66 150.535 206.748C150.46 206.836 150.367 206.906 150.262 206.954C150.157 207.002 150.042 207.026 149.927 207.026C147.899 206.991 146.425 206.87 143.873 206.87C142.307 206.87 137.537 207.032 135.395 207.032C133.252 207.032 133.033 204.889 133.926 204.693C137.958 203.823 140.993 202.625 142.312 201.479C142.546 201.267 142.849 201.148 143.165 201.145Z" fill="#263238"/>
<path opacity="0.2" d="M109.031 188.352L107.902 194.573L112.815 195.702L113.944 189.481L109.031 188.352Z" fill="black"/>
<path opacity="0.2" d="M148.833 189.781H143.666V195.944H148.833V189.781Z" fill="black"/>
<path d="M152.991 47.2321C148.959 65.3703 150.031 83.2724 149.599 87.1489L122.026 85.3287C119.146 63.4407 122.36 49.4785 124.186 43.753C124.482 42.808 125.044 41.9677 125.803 41.3318C126.563 40.6958 127.489 40.2908 128.471 40.1646C132.571 39.7152 136.7 39.5861 140.821 39.7786C143.61 39.9455 146.379 40.3658 149.092 41.0343C150.43 41.3406 151.592 42.1651 152.323 43.327C153.054 44.4888 153.294 45.8932 152.991 47.2321Z" fill="#49C287"/>
<path d="M144.68 27.4869C143.77 30.9026 142.692 36.9506 144.426 40.0091C144.697 40.4872 144.179 40.8962 144.156 41.4491C144.092 43.1426 141.8 43.6494 137.699 43.6725C133.597 43.6955 131.841 41.9848 132.958 40.372C133.129 40.1262 133.39 39.9567 133.684 39.8997C137.526 39.0414 137.601 36.029 137.076 33.1547L144.68 27.4869Z" fill="#FFB573"/>
<path opacity="0.4" d="M137.405 42.7336C138.482 44.2318 139.165 45.9768 139.392 47.8082C143.487 45.8843 145.44 41.213 145.44 41.213L144.207 39.8939C144.207 39.8939 139.657 40.7522 137.405 42.7336Z" fill="black"/>
<path opacity="0.4" d="M137.002 42.7507C135.494 43.9781 134.221 45.4692 133.246 47.1514C130.383 45.3773 131.328 40.32 131.328 40.32L133.661 39.8592C133.661 39.8592 134.703 40.8211 137.002 42.7507Z" fill="black"/>
<path d="M137.186 42.6242L136.305 42.7106L134.813 43.6956C134.718 44.2889 134.823 44.8969 135.112 45.4236C135.979 45.5928 136.863 45.6528 137.745 45.6022C138.336 45.3166 138.807 44.831 139.075 44.2313L137.981 42.8316L137.186 42.6242Z" fill="#263238"/>
<path d="M137.186 42.6242C138.292 44.0091 139.141 45.5816 139.691 47.2668C143.787 45.3429 146.171 40.7464 146.171 40.7464L144.196 39.0184C144.196 39.0184 139.438 40.6543 137.186 42.6242Z" fill="#49C287"/>
<path d="M137.186 42.6241C135.605 43.6214 134.222 44.9025 133.108 46.4027C130.228 44.6344 131.328 39.8708 131.328 39.8708L133.661 39.41C133.661 39.41 134.893 40.706 137.186 42.6241Z" fill="#49C287"/>
<path opacity="0.2" d="M141.581 29.7965L137.088 33.1488C137.224 33.8417 137.299 34.5452 137.313 35.2512C138.931 35.1303 141.258 33.5232 141.54 31.8413C141.676 31.1676 141.689 30.4751 141.581 29.7965Z" fill="black"/>
<path d="M145.503 21.842C144.852 26.9281 144.731 29.906 141.978 32.3886C137.837 36.0692 131.691 33.3159 130.81 28.1377C130.015 23.4779 131.213 15.9438 136.345 14.2446C137.475 13.8637 138.683 13.7781 139.856 13.9959C141.028 14.2138 142.125 14.7277 143.043 15.4891C143.961 16.2504 144.669 17.2337 145.099 18.3457C145.53 19.4576 145.669 20.6612 145.503 21.842Z" fill="#FFB573"/>
<path d="M144.259 26.4385C143.107 25.3268 143.827 20.0046 144.409 18.4782C141.529 18.7547 132.221 18.7431 132.572 16.1742C132.924 13.6052 136.31 11.4222 141.846 13.2251C146.454 14.7284 147.606 17.0267 147.606 18.9044C147.675 22.7636 144.259 26.4385 144.259 26.4385Z" fill="#263238"/>
<path d="M147.289 26.4962C146.742 27.5416 145.807 28.3314 144.685 28.6966C143.217 29.1516 142.491 27.798 142.906 26.3465C143.274 25.0447 144.49 23.2303 145.958 23.4146C147.427 23.599 147.963 25.2002 147.289 26.4962Z" fill="#FFB573"/>
<path d="M106.22 192.995L114.762 194.878C114.762 194.878 123.068 162.328 125.533 146.419C126.288 141.581 128.039 134.675 129.634 127.411C131.645 118.253 134.173 108.346 136.247 100.587C138.436 92.4136 140.06 86.5384 140.06 86.5384L122.026 85.346C122.026 85.346 113.633 127.918 111.94 143.591C110.171 159.88 106.22 192.995 106.22 192.995Z" fill="#263238"/>
<path opacity="0.2" d="M129.634 127.4C131.645 118.241 134.173 108.334 136.247 100.575L134.352 96.5432C129.876 101.888 128.73 118.425 129.634 127.4Z" fill="black"/>
<path d="M130.62 85.8987C130.62 85.8987 134.352 129.404 135.804 144.466C137.416 160.963 141.742 194.757 141.742 194.757H150.417C150.417 194.757 150.808 158.769 149.265 142.836C149.046 111.513 149.593 87.1544 149.593 87.1544L130.62 85.8987Z" fill="#263238"/>
<path d="M140.636 194.958H151.776V191.629L140.204 190.99L140.636 194.958Z" fill="#49C287"/>
<path d="M105.103 192.96L115.281 195.207L116.006 191.918L105.35 189.233L105.103 192.96Z" fill="#49C287"/>
<path d="M138.067 22.7521C138.067 23.1668 137.796 23.4894 137.526 23.4721C137.255 23.4548 137.053 23.1035 137.082 22.6887C137.111 22.274 137.353 21.9515 137.624 21.9687C137.894 21.986 138.096 22.3374 138.067 22.7521Z" fill="#263238"/>
<path d="M133.367 22.464C133.367 22.8788 133.096 23.2013 132.826 23.184C132.555 23.1668 132.353 22.8154 132.382 22.4007C132.411 21.986 132.653 21.6634 132.923 21.6807C133.194 21.698 133.396 22.0263 133.367 22.464Z" fill="#263238"/>
<path d="M134.444 22.7522C133.863 23.9879 133.117 25.1389 132.227 26.1736C132.912 26.9109 134.185 26.6805 134.185 26.6805L134.444 22.7522Z" fill="#ED893E"/>
<path d="M135.867 27.9072C136.334 27.8809 136.79 27.7601 137.209 27.5522C137.628 27.3443 138 27.0536 138.303 26.6976C138.325 26.6751 138.337 26.6452 138.337 26.6141C138.337 26.583 138.325 26.5531 138.303 26.5306C138.28 26.5087 138.249 26.4966 138.217 26.4966C138.185 26.4966 138.154 26.5087 138.131 26.5306C137.789 26.9208 137.36 27.2253 136.878 27.4194C136.397 27.6135 135.877 27.6918 135.36 27.648C135.344 27.6464 135.328 27.648 135.313 27.6527C135.298 27.6573 135.283 27.6649 135.271 27.6751C135.259 27.6853 135.249 27.6978 135.241 27.7119C135.234 27.7261 135.229 27.7415 135.228 27.7575C135.226 27.7901 135.237 27.8222 135.259 27.8469C135.28 27.8716 135.31 27.887 135.343 27.8899C135.517 27.9063 135.692 27.912 135.867 27.9072Z" fill="#263238"/>
<path d="M139.213 21.3119C139.254 21.3073 139.294 21.2935 139.329 21.2716C139.383 21.2362 139.422 21.1807 139.436 21.1171C139.45 21.0535 139.438 20.9869 139.404 20.9318C139.198 20.6004 138.916 20.3229 138.581 20.1226C138.247 19.9222 137.869 19.8047 137.48 19.7798C137.421 19.7888 137.368 19.8184 137.329 19.8633C137.291 19.9082 137.27 19.9654 137.27 20.0246C137.27 20.0837 137.291 20.141 137.329 20.1859C137.368 20.2308 137.421 20.2604 137.48 20.2694C137.787 20.2921 138.085 20.3875 138.348 20.5477C138.611 20.7079 138.833 20.9284 138.995 21.191C139.016 21.2296 139.048 21.2614 139.087 21.2828C139.125 21.3042 139.169 21.3143 139.213 21.3119Z" fill="#263238"/>
<path d="M131.046 20.6957C131.086 20.6929 131.124 20.6805 131.159 20.6594C131.193 20.6383 131.221 20.6093 131.242 20.5748C131.389 20.3071 131.597 20.0779 131.849 19.9057C132.101 19.7336 132.39 19.6234 132.693 19.5841C132.757 19.5782 132.817 19.5482 132.86 19.5C132.902 19.4519 132.925 19.3893 132.923 19.3249C132.919 19.2602 132.889 19.1998 132.841 19.1567C132.792 19.1136 132.729 19.0913 132.664 19.0945C132.278 19.1412 131.908 19.2802 131.586 19.4997C131.264 19.7192 131 20.0129 130.815 20.3559C130.784 20.4117 130.776 20.4775 130.794 20.5391C130.811 20.6006 130.852 20.6528 130.907 20.6842C130.951 20.7038 131 20.7079 131.046 20.6957Z" fill="#263238"/>
<path d="M141.419 202.044C141.878 202.033 142.334 201.971 142.779 201.859C142.802 201.854 142.823 201.842 142.84 201.824C142.856 201.807 142.867 201.785 142.871 201.761C142.877 201.739 142.876 201.715 142.868 201.693C142.859 201.672 142.844 201.653 142.825 201.64C142.641 201.519 141.016 200.488 140.429 200.788C140.365 200.821 140.311 200.871 140.273 200.931C140.235 200.992 140.213 201.062 140.21 201.134C140.189 201.252 140.199 201.374 140.239 201.488C140.278 201.602 140.345 201.704 140.434 201.784C140.723 201.982 141.071 202.073 141.419 202.044ZM142.427 201.686C141.546 201.865 140.872 201.83 140.602 201.594C140.54 201.54 140.494 201.47 140.468 201.392C140.442 201.315 140.436 201.231 140.452 201.151C140.452 201.059 140.498 201.024 140.532 201.007C140.838 200.857 141.771 201.295 142.427 201.686Z" fill="#49C287"/>
<path d="M142.75 201.865C142.77 201.873 142.793 201.873 142.813 201.865C142.833 201.855 142.849 201.839 142.861 201.819C142.872 201.8 142.877 201.778 142.877 201.756C142.877 201.692 142.813 200.2 142.232 199.711C142.161 199.649 142.079 199.604 141.989 199.577C141.9 199.55 141.806 199.543 141.713 199.555C141.621 199.556 141.532 199.587 141.459 199.645C141.387 199.702 141.337 199.782 141.316 199.872C141.183 200.448 142.168 201.6 142.692 201.871C142.712 201.875 142.732 201.873 142.75 201.865ZM141.794 199.769C141.896 199.77 141.995 199.809 142.07 199.878C142.439 200.189 142.572 201.059 142.612 201.497C142.099 201.093 141.46 200.235 141.552 199.895C141.552 199.866 141.552 199.792 141.736 199.774H141.794V199.769Z" fill="#49C287"/>
<path d="M105.817 199.527L111.876 201.255C111.973 201.282 112.057 201.343 112.114 201.426C112.171 201.509 112.197 201.61 112.187 201.71L111.738 206.358C111.724 206.472 111.684 206.582 111.623 206.68C111.562 206.778 111.481 206.861 111.385 206.925C111.288 206.988 111.18 207.03 111.066 207.048C110.952 207.065 110.835 207.058 110.724 207.026C108.783 206.45 107.401 205.926 104.964 205.229C103.455 204.803 98.542 203.04 96.7507 201.819C94.9593 200.598 96.0134 198.715 96.8601 199.06C100.667 200.604 103.346 200.356 104.924 199.636C105.199 199.495 105.516 199.456 105.817 199.527Z" fill="#263238"/>
<path d="M103.887 199.918C104.333 200.029 104.788 200.092 105.247 200.108C105.271 200.11 105.296 200.104 105.318 200.092C105.339 200.079 105.356 200.061 105.368 200.039C105.381 200.02 105.389 199.996 105.389 199.973C105.389 199.949 105.381 199.926 105.368 199.907C105.224 199.745 103.939 198.317 103.3 198.438C103.229 198.453 103.163 198.487 103.108 198.535C103.054 198.584 103.013 198.645 102.989 198.714C102.939 198.822 102.916 198.941 102.924 199.059C102.931 199.178 102.967 199.293 103.029 199.394C103.249 199.66 103.551 199.844 103.887 199.918ZM104.959 199.849C104.06 199.78 103.421 199.561 103.231 199.273C103.192 199.201 103.172 199.121 103.172 199.04C103.172 198.958 103.192 198.878 103.231 198.806C103.265 198.714 103.311 198.697 103.352 198.691C103.68 198.616 104.429 199.296 104.959 199.872V199.849Z" fill="#49C287"/>
<path d="M105.218 200.102C105.241 200.108 105.264 200.108 105.287 200.102C105.309 200.097 105.33 200.085 105.346 200.069C105.362 200.053 105.374 200.032 105.379 200.01C105.379 199.952 105.736 198.501 105.316 197.867C105.264 197.79 105.197 197.725 105.119 197.675C105.041 197.625 104.953 197.593 104.861 197.579C104.771 197.555 104.676 197.56 104.591 197.596C104.505 197.631 104.434 197.694 104.388 197.775C104.1 198.294 104.746 199.653 105.166 200.079C105.181 200.091 105.199 200.099 105.218 200.102ZM104.867 197.827C104.965 197.854 105.049 197.918 105.103 198.006C105.379 198.409 105.264 199.284 105.189 199.734C104.803 199.209 104.435 198.213 104.613 197.908C104.613 197.879 104.665 197.816 104.826 197.839L104.867 197.827Z" fill="#49C287"/>
<path d="M144.766 39.5597C144.705 39.5498 144.642 39.5541 144.583 39.5721C144.523 39.5901 144.469 39.6213 144.423 39.6635C144.378 39.7057 144.342 39.7577 144.32 39.8155C144.298 39.8734 144.289 39.9356 144.294 39.9974C144.495 43.0848 139.686 48.6374 138.534 65.2665C137.848 75.3811 137.22 106.917 137.681 123.322C137.688 123.537 137.744 123.748 137.844 123.938C137.944 124.129 138.087 124.294 138.261 124.421C138.435 124.548 138.635 124.634 138.847 124.672C139.059 124.71 139.277 124.699 139.484 124.641C147.986 122.268 152.001 128.022 153.636 121.236C153.55 113.109 151.091 83.9289 151.724 77.0112C152.358 70.0934 154.99 51.2985 155.647 46.2873C156.228 41.9328 147.145 39.9917 144.766 39.5597Z" fill="#49C287"/>
<path opacity="0.7" d="M144.766 39.5597C144.705 39.5498 144.642 39.5541 144.583 39.5721C144.523 39.5901 144.469 39.6213 144.423 39.6635C144.378 39.7057 144.342 39.7577 144.32 39.8155C144.298 39.8734 144.289 39.9356 144.294 39.9974C144.495 43.0848 139.686 48.6374 138.534 65.2665C137.848 75.3811 137.22 106.917 137.681 123.322C137.688 123.537 137.744 123.748 137.844 123.938C137.944 124.129 138.087 124.294 138.261 124.421C138.435 124.548 138.635 124.634 138.847 124.672C139.059 124.71 139.277 124.699 139.484 124.641C147.986 122.268 152.001 128.022 153.636 121.236C153.55 113.109 151.091 83.9289 151.724 77.0112C152.358 70.0934 154.99 51.2985 155.647 46.2873C156.228 41.9328 147.145 39.9917 144.766 39.5597Z" fill="white"/>
<path opacity="0.2" d="M150.371 53.6541C149.996 56.223 149.852 66.6026 152.323 71.5965C152.738 68.1405 153.279 64.0336 153.804 60.0765L150.371 53.6541Z" fill="#49C287"/>
<path d="M153.901 98.5422L151.448 98.8302L149.276 102.707C149.157 102.917 149.083 103.149 149.059 103.389C149.036 103.629 149.062 103.872 149.138 104.101L149.921 106.485C150.054 106.893 150.334 107.237 150.707 107.45C151.08 107.663 151.518 107.73 151.937 107.637L153.032 107.407C153.434 107.325 153.794 107.103 154.047 106.78C154.3 106.457 154.431 106.054 154.414 105.644L154.345 103.525C154.345 103.525 156.292 99.0261 153.901 98.5422Z" fill="#FFB573"/>
<path d="M155.249 44.3521C156.033 46.6561 156.758 48.9313 157.478 51.2353C158.198 53.5393 158.918 55.8433 159.598 58.1473C160.278 60.4513 160.934 62.8071 161.539 65.209C161.839 66.4129 162.115 67.6282 162.38 68.9012C162.501 69.5406 162.622 70.1914 162.72 70.8826C162.766 71.2398 162.818 71.5681 162.847 71.9655L162.899 72.5415L162.927 73.1924C162.939 73.4111 162.939 73.6303 162.927 73.849C162.927 74.0794 162.927 74.2983 162.899 74.4769L162.847 75.0529L162.783 75.5713C162.703 76.2682 162.599 76.9018 162.495 77.5354C162.288 78.7911 162.046 80.0007 161.798 81.1988C161.303 83.595 160.75 85.9393 160.191 88.2721C159.633 90.6049 159.039 92.9319 158.463 95.2532L156.735 102.217L148.395 99.9534C149.685 95.4548 150.86 90.8756 151.949 86.3252C152.479 84.0212 152.974 81.7633 153.418 79.5111C153.637 78.3591 153.844 77.2647 153.994 76.1818C154.08 75.6404 154.149 75.1047 154.195 74.6209C154.24 74.2386 154.255 73.8535 154.241 73.4689V73.227L154.201 72.9159C154.201 72.7201 154.132 72.4609 154.097 72.2362C154.017 71.7524 153.913 71.2398 153.798 70.7156C153.562 69.6673 153.279 68.5844 152.974 67.4958C152.398 65.3127 151.667 63.1009 150.924 60.9006C149.455 56.4999 147.802 52.0705 146.097 47.762L155.249 44.3521Z" fill="#49C287"/>
<path opacity="0.7" d="M155.249 44.3521C156.033 46.6561 156.758 48.9313 157.478 51.2353C158.198 53.5393 158.918 55.8433 159.598 58.1473C160.278 60.4513 160.934 62.8071 161.539 65.209C161.839 66.4129 162.115 67.6282 162.38 68.9012C162.501 69.5406 162.622 70.1914 162.72 70.8826C162.766 71.2398 162.818 71.5681 162.847 71.9655L162.899 72.5415L162.927 73.1924C162.939 73.4111 162.939 73.6303 162.927 73.849C162.927 74.0794 162.927 74.2983 162.899 74.4769L162.847 75.0529L162.783 75.5713C162.703 76.2682 162.599 76.9018 162.495 77.5354C162.288 78.7911 162.046 80.0007 161.798 81.1988C161.303 83.595 160.75 85.9393 160.191 88.2721C159.633 90.6049 159.039 92.9319 158.463 95.2532L156.735 102.217L148.395 99.9534C149.685 95.4548 150.86 90.8756 151.949 86.3252C152.479 84.0212 152.974 81.7633 153.418 79.5111C153.637 78.3591 153.844 77.2647 153.994 76.1818C154.08 75.6404 154.149 75.1047 154.195 74.6209C154.24 74.2386 154.255 73.8535 154.241 73.4689V73.227L154.201 72.9159C154.201 72.7201 154.132 72.4609 154.097 72.2362C154.017 71.7524 153.913 71.2398 153.798 70.7156C153.562 69.6673 153.279 68.5844 152.974 67.4958C152.398 65.3127 151.667 63.1009 150.924 60.9006C149.455 56.4999 147.802 52.0705 146.097 47.762L155.249 44.3521Z" fill="white"/>
<path d="M133.563 39.1279C133.69 39.127 133.814 39.162 133.921 39.229C134.029 39.296 134.115 39.3921 134.17 39.5062C134.225 39.6203 134.246 39.7476 134.232 39.8734C134.217 39.9991 134.167 40.1182 134.087 40.2166C132.716 41.8063 131.852 43.9894 130.228 50.9935C128.269 59.4434 124.099 101.958 123.316 122.792C123.312 122.965 123.271 123.135 123.195 123.291C123.119 123.446 123.01 123.584 122.876 123.693C122.742 123.803 122.585 123.882 122.418 123.925C122.25 123.968 122.075 123.975 121.905 123.944C117.838 123.195 115.05 125.165 114.607 122.556C114.117 119.676 115.943 92.166 119.359 79.229C118.823 67.7551 120.758 44.7382 124.623 41.6796C126.72 39.9804 131.178 39.1682 133.563 39.1279Z" fill="#49C287"/>
<path opacity="0.7" d="M133.563 39.1279C133.69 39.127 133.814 39.162 133.921 39.229C134.029 39.296 134.115 39.3921 134.17 39.5062C134.225 39.6203 134.246 39.7476 134.232 39.8734C134.217 39.9991 134.167 40.1182 134.087 40.2166C132.716 41.8063 131.852 43.9894 130.228 50.9935C128.269 59.4434 124.099 101.958 123.316 122.792C123.312 122.965 123.271 123.135 123.195 123.291C123.119 123.446 123.01 123.584 122.876 123.693C122.742 123.803 122.585 123.882 122.418 123.925C122.25 123.968 122.075 123.975 121.905 123.944C117.838 123.195 115.05 125.165 114.607 122.556C114.117 119.676 115.943 92.166 119.359 79.229C118.823 67.7551 120.758 44.7382 124.623 41.6796C126.72 39.9804 131.178 39.1682 133.563 39.1279Z" fill="white"/>
<path d="M135.804 44.836C135.804 44.836 130.827 58.8155 129.076 70.5313C128.938 73.7166 130.453 79.8856 131.679 82.5755C134.243 76.994 135.844 73.7051 136.097 70.5313C136.506 65.7563 137.18 44.9281 137.18 44.9281L135.804 44.836Z" fill="#263238"/>
<path d="M146.218 61.4651C146.167 61.4634 146.119 61.4453 146.08 61.4134C146.04 61.3815 146.013 61.3377 146.001 61.2886C145.989 61.2395 145.994 61.188 146.014 61.1418C146.035 61.0957 146.07 61.0575 146.114 61.0331L147.059 60.5377C147.94 60.0841 148.663 59.3726 149.13 58.4979C149.597 57.6232 149.787 56.6269 149.674 55.6418L148.648 46.3566C148.573 45.6645 148.266 45.018 147.778 44.5213C147.29 44.0246 146.649 43.7068 145.959 43.6189C145.268 43.5311 144.568 43.6784 143.971 44.0371C143.374 44.3959 142.916 44.9451 142.669 45.5963L139.352 54.3227C138.994 55.2475 138.927 56.2592 139.159 57.2232C139.39 58.1873 139.909 59.058 140.648 59.7198L141.443 60.4398C141.485 60.4829 141.508 60.5408 141.508 60.6011C141.508 60.6614 141.485 60.7193 141.443 60.7624C141.399 60.8046 141.342 60.8282 141.281 60.8282C141.221 60.8282 141.163 60.8046 141.12 60.7624L140.325 60.0481C139.521 59.3219 138.956 58.3684 138.706 57.314C138.456 56.2596 138.533 55.1541 138.925 54.1441L142.272 45.435C142.558 44.6909 143.085 44.0643 143.769 43.6554C144.453 43.2465 145.255 43.0792 146.046 43.1801C146.836 43.281 147.57 43.6443 148.13 44.2119C148.69 44.7795 149.042 45.5185 149.132 46.3105L150.157 55.5899C150.279 56.6697 150.068 57.7608 149.554 58.7178C149.039 59.6749 148.245 60.4524 147.277 60.9467L146.333 61.4363C146.299 61.4584 146.258 61.4685 146.218 61.4651Z" fill="#263238"/>
<path d="M149.075 48.3838C149.02 48.3843 148.966 48.3646 148.925 48.3285C148.884 48.2925 148.857 48.2425 148.85 48.188C148.716 47.4412 148.337 46.7605 147.772 46.2534C147.208 45.7464 146.491 45.4421 145.734 45.3886C144.455 45.2274 142.715 45.6306 142.019 47.3125C142.009 47.3423 141.993 47.3697 141.971 47.3931C141.95 47.4165 141.925 47.4354 141.896 47.4485C141.868 47.4616 141.837 47.4688 141.805 47.4695C141.774 47.4702 141.743 47.4645 141.714 47.4527C141.684 47.4409 141.658 47.4232 141.636 47.4008C141.614 47.3784 141.597 47.3517 141.585 47.3224C141.574 47.2931 141.569 47.2617 141.57 47.2303C141.571 47.1989 141.579 47.168 141.592 47.1397C141.982 46.3864 142.593 45.7711 143.344 45.3771C144.095 44.9831 144.949 44.8295 145.79 44.937C146.631 45.0445 147.419 45.4079 148.047 45.9781C148.674 46.5483 149.112 47.2977 149.299 48.1246C149.307 48.1834 149.292 48.2431 149.256 48.2906C149.221 48.3381 149.168 48.3695 149.109 48.3781L149.075 48.3838Z" fill="#263238"/>
<path d="M145.976 43.6206C145.946 43.6191 145.916 43.6117 145.889 43.5986C145.862 43.5856 145.838 43.5672 145.818 43.5447C145.798 43.5221 145.783 43.4958 145.773 43.4673C145.764 43.4388 145.76 43.4086 145.762 43.3786C145.832 42.2554 145.67 40.2106 144.61 39.6807C144.556 39.6525 144.515 39.6038 144.497 39.5455C144.479 39.4872 144.484 39.4239 144.513 39.3697C144.541 39.3155 144.589 39.2747 144.648 39.2563C144.706 39.2379 144.769 39.2435 144.824 39.2718C146.356 40.0609 146.218 43.0676 146.194 43.4074C146.192 43.464 146.167 43.5174 146.127 43.5569C146.086 43.5965 146.032 43.6192 145.976 43.6206Z" fill="#263238"/>
<path d="M141.8 60.6701C141.742 61.1021 141.471 61.4189 141.189 61.3786C140.907 61.3383 140.723 60.9696 140.78 60.5434C140.838 60.1172 141.103 59.7946 141.385 59.8349C141.667 59.8752 141.852 60.2439 141.8 60.6701Z" fill="#263238"/>
<path d="M128.408 51.3333C128.045 52.2491 127.256 52.8021 126.68 52.5659C126.104 52.3298 125.879 51.4139 126.242 50.4751C126.605 49.5362 127.394 49.0063 127.97 49.2424C128.546 49.4786 128.765 50.4175 128.408 51.3333Z" fill="#263238"/>
<path d="M126.513 50.7399H126.466C126.407 50.7274 126.355 50.692 126.322 50.6413C126.288 50.5906 126.276 50.5287 126.288 50.4692C127.048 46.6849 130.193 40.6772 132.964 38.9492C132.989 38.9275 133.018 38.9115 133.05 38.9023C133.082 38.8931 133.116 38.8908 133.149 38.8958C133.181 38.9007 133.213 38.9127 133.241 38.9309C133.268 38.9491 133.292 38.9731 133.31 39.0012C133.327 39.0294 133.339 39.061 133.343 39.0939C133.347 39.1269 133.344 39.1603 133.334 39.192C133.324 39.2238 133.308 39.253 133.286 39.2777C133.263 39.3023 133.236 39.322 133.206 39.3351C130.527 41.0228 127.48 46.8231 126.737 50.5498C126.728 50.6027 126.7 50.6507 126.659 50.6854C126.618 50.7201 126.566 50.7394 126.513 50.7399Z" fill="#263238"/>
<path d="M129.064 51.523C128.799 52.3121 128.12 52.8017 127.544 52.6117C126.968 52.4216 126.708 51.6209 126.968 50.8261C127.227 50.0312 127.912 49.5473 128.488 49.7374C129.064 49.9275 129.329 50.7281 129.064 51.523Z" fill="white"/>
<path d="M129.105 51.6037C128.753 52.5771 128.102 53.2395 127.659 53.0782C127.215 52.917 127.141 51.9954 127.498 51.0162C127.855 50.037 128.5 49.3803 128.943 49.5416C129.387 49.7029 129.462 50.6245 129.105 51.6037Z" fill="#263238"/>
<path d="M146.73 61.3037C146.678 61.7299 146.402 62.0468 146.12 62.0122C145.837 61.9776 145.653 61.5975 145.711 61.1712C145.768 60.745 146.039 60.4282 146.321 60.4628C146.604 60.4973 146.788 60.8717 146.73 61.3037Z" fill="#263238"/>
<path d="M179.389 36.3455C181.313 41.6044 176.198 44.2482 172.846 51.9954C169.494 59.7426 177.581 68.9817 189.994 69.1833C202.406 69.3849 202.798 57.4962 200.874 48.9657C198.95 40.4351 202.971 39.0469 202.118 32.5324C201.024 23.973 188.692 17.4873 183.796 25.3439C179.441 24.9349 177.708 31.749 179.389 36.3455Z" fill="#263238"/>
<path d="M216.155 107.136V106.468C216.144 106.147 216.063 105.833 215.919 105.546L213.834 101.433L211.392 100.973C209.664 102.833 211.392 106.543 211.392 106.543V107.136C211.392 107.622 211.551 108.095 211.844 108.482C212.137 108.87 212.549 109.151 213.016 109.284L213.345 109.382C213.683 109.471 214.037 109.48 214.379 109.408C214.721 109.336 215.042 109.184 215.315 108.966C215.588 108.748 215.807 108.468 215.952 108.151C216.098 107.833 216.168 107.485 216.155 107.136Z" fill="#FFC3BD"/>
<path d="M205.805 54.2302L206.703 60.5317L207.648 66.8158C207.959 68.9182 208.287 71.0091 208.621 73.1057L209.618 79.3496L209.739 79.9659C209.779 80.1675 209.848 80.4267 209.9 80.6514L210.073 81.3598L210.275 82.0913C210.534 83.059 210.851 84.0613 211.127 85.052C211.703 87.0392 212.365 89.0494 213.016 91.0481C214.341 95.0398 215.724 99.0488 217.198 102.989L209.053 105.869L204.975 93.692C204.301 91.6587 203.616 89.6254 202.965 87.5518C202.643 86.5093 202.32 85.4782 202.015 84.4011L201.779 83.6005L201.554 82.7653C201.479 82.4773 201.398 82.2238 201.329 81.907L201.116 80.9624L199.912 74.6264C199.528 72.5374 199.127 70.4485 198.709 68.3595L197.476 62.0926L196.191 55.8718L205.805 54.2302Z" fill="#49C287"/>
<path opacity="0.6" d="M205.805 54.2302L206.703 60.5317L207.648 66.8158C207.959 68.9182 208.287 71.0091 208.621 73.1057L209.618 79.3496L209.739 79.9659C209.779 80.1675 209.848 80.4267 209.9 80.6514L210.073 81.3598L210.275 82.0913C210.534 83.059 210.851 84.0613 211.127 85.052C211.703 87.0392 212.365 89.0494 213.016 91.0481C214.341 95.0398 215.724 99.0488 217.198 102.989L209.053 105.869L204.975 93.692C204.301 91.6587 203.616 89.6254 202.965 87.5518C202.643 86.5093 202.32 85.4782 202.015 84.4011L201.779 83.6005L201.554 82.7653C201.479 82.4773 201.398 82.2238 201.329 81.907L201.116 80.9624L199.912 74.6264C199.528 72.5374 199.127 70.4485 198.709 68.3595L197.476 62.0926L196.191 55.8718L205.805 54.2302Z" fill="white"/>
<path d="M204.509 53.7466C204.78 56.8167 204.538 64.4544 201.456 83.3875H180.144C180.484 75.1623 180.507 69.9207 176.976 54.2247C176.896 53.8717 176.889 53.506 176.955 53.1503C177.022 52.7945 177.161 52.4561 177.363 52.156C177.566 51.8559 177.827 51.6005 178.132 51.4055C178.437 51.2105 178.779 51.08 179.136 51.0221C181.217 50.6803 183.315 50.4515 185.42 50.3367C188.646 50.106 191.883 50.106 195.109 50.3367C197.758 50.5786 200.632 51.0567 202.372 51.3735C202.939 51.481 203.454 51.7713 203.84 52.1999C204.226 52.6285 204.461 53.1718 204.509 53.7466Z" fill="#263238"/>
<path d="M186.359 39.4272C186.97 42.5434 187.58 48.2573 185.397 50.3367C185.397 50.3367 188.127 53.6544 192.309 53.6544C196.491 53.6544 195.091 50.3367 195.091 50.3367C191.635 49.5072 191.704 46.9267 192.309 44.5075L186.359 39.4272Z" fill="#FFC3BD"/>
<path opacity="0.2" d="M188.784 41.5007L192.303 44.5016C192.154 45.0679 192.054 45.6461 192.004 46.2296C190.673 46.0395 188.588 44.9048 188.3 43.4591C188.168 42.7736 188.669 41.8232 188.784 41.5007Z" fill="black"/>
<path d="M182.69 33.3099C183.502 38.4594 183.738 40.6539 186.607 43.0616C190.927 46.6846 197.073 44.5592 197.816 39.2715C198.484 34.5138 197.038 26.8875 191.774 25.315C190.614 24.9623 189.383 24.9118 188.198 25.1683C187.013 25.4249 185.914 25.98 185.004 26.7809C184.094 27.5819 183.403 28.6021 182.998 29.7448C182.594 30.8875 182.487 32.1147 182.69 33.3099Z" fill="#FFC3BD"/>
<path d="M183.548 37.0195C186.497 34.0992 187.511 30.0384 187.235 28.3795C190.074 29.1686 192.159 28.0512 192.033 27.5673C194.037 29.5257 197.672 31.0752 197.263 28.967C196.854 26.8589 194.164 22.9709 188.554 24.359C182.943 25.7472 180.783 31.5072 180.864 33.8457C180.945 36.1843 183.548 37.0195 183.548 37.0195Z" fill="#263238"/>
<path d="M190.08 33.8919C190.12 34.3182 190.374 34.635 190.656 34.6119C190.938 34.5889 191.123 34.2203 191.082 33.7998C191.042 33.3793 190.783 33.0567 190.506 33.0798C190.23 33.1028 190.08 33.4715 190.08 33.8919Z" fill="#263238"/>
<path d="M194.866 33.4368C194.907 33.8573 195.166 34.1799 195.442 34.1511C195.719 34.1223 195.909 33.7651 195.869 33.3447C195.828 32.9242 195.569 32.6016 195.293 32.6247C195.016 32.6477 194.826 33.0163 194.866 33.4368Z" fill="#263238"/>
<path d="M195.178 32.6591L196.163 32.2731C196.163 32.2731 195.713 33.1141 195.178 32.6591Z" fill="#263238"/>
<path d="M193.473 34.3353C193.938 35.2625 194.529 36.1211 195.229 36.887C195.029 37.0605 194.794 37.1884 194.539 37.262C194.284 37.3356 194.017 37.3531 193.755 37.3132L193.473 34.3353Z" fill="#ED847E"/>
<path d="M191.612 39.168C191.821 39.1822 192.031 39.1822 192.24 39.168C192.273 39.1636 192.302 39.1468 192.323 39.121C192.343 39.0952 192.353 39.0625 192.349 39.0297C192.349 39.0135 192.345 38.9976 192.337 38.9831C192.33 38.9685 192.32 38.9557 192.308 38.9454C192.295 38.935 192.281 38.9274 192.265 38.9231C192.249 38.9188 192.233 38.9178 192.217 38.9203C191.693 38.981 191.162 38.9177 190.666 38.7357C190.171 38.5536 189.726 38.2577 189.366 37.872C189.343 37.8518 189.315 37.8402 189.285 37.8392C189.255 37.8382 189.225 37.8479 189.202 37.8666C189.178 37.8853 189.162 37.9117 189.156 37.9412C189.15 37.9707 189.155 38.0012 189.17 38.0275C189.481 38.3695 189.858 38.6463 190.277 38.8421C190.696 39.0379 191.15 39.1486 191.612 39.168Z" fill="#263238"/>
<path d="M181.549 37.4976C181.934 38.43 182.671 39.173 183.6 39.5655C184.833 40.0724 185.61 38.9895 185.397 37.7626C185.207 36.6106 184.332 35.0151 183.03 35.0381C182.746 35.052 182.471 35.1353 182.227 35.281C181.984 35.4266 181.78 35.6299 181.633 35.873C181.487 36.1161 181.403 36.3915 181.388 36.6748C181.374 36.9581 181.429 37.2407 181.549 37.4976Z" fill="#FFC3BD"/>
<path d="M188.438 31.6796C188.488 31.6971 188.542 31.6988 188.592 31.6843C188.643 31.6699 188.688 31.64 188.721 31.599C189.446 30.7062 190.927 30.7926 190.938 30.7926C191.004 30.7958 191.068 30.7736 191.117 30.7307C191.166 30.6877 191.197 30.6274 191.203 30.5622C191.206 30.5295 191.203 30.4965 191.193 30.4652C191.183 30.4339 191.167 30.405 191.145 30.3802C191.123 30.3554 191.097 30.3352 191.067 30.321C191.038 30.3067 191.006 30.2986 190.973 30.2972C190.904 30.2972 189.216 30.1935 188.335 31.2879C188.294 31.3395 188.274 31.405 188.281 31.4706C188.287 31.5362 188.319 31.5967 188.369 31.6393L188.438 31.6796Z" fill="#263238"/>
<path d="M196.6 31.1556C196.655 31.1589 196.709 31.1441 196.754 31.1134C196.8 31.0826 196.833 31.0378 196.85 30.9858C196.868 30.9339 196.867 30.8777 196.849 30.8261C196.831 30.7745 196.796 30.7303 196.75 30.7006C196.428 30.4731 196.056 30.3257 195.665 30.2706C195.274 30.2155 194.876 30.2543 194.504 30.3838C194.443 30.4104 194.395 30.4596 194.37 30.521C194.346 30.5823 194.346 30.6509 194.371 30.7121C194.384 30.7426 194.402 30.7703 194.426 30.7935C194.449 30.8167 194.477 30.835 194.507 30.8474C194.538 30.8597 194.571 30.8658 194.604 30.8653C194.637 30.8649 194.669 30.8578 194.699 30.8446C194.995 30.746 195.311 30.7191 195.619 30.7662C195.927 30.8132 196.22 30.9329 196.473 31.1153C196.511 31.1398 196.555 31.1537 196.6 31.1556Z" fill="#263238"/>
<path d="M214.698 202.631L220.003 202.378L218.431 190.397L213.131 190.656L214.698 202.631Z" fill="#FFC3BD"/>
<g opacity="0.2">
<path d="M218.431 190.402L219.243 196.577L213.938 196.831L213.126 190.656L218.431 190.402Z" fill="black"/>
</g>
<path d="M201.456 83.3874C201.456 83.3874 208.132 123.851 210.85 139.628C213.684 156.032 220.066 194.642 220.066 194.642L213.051 195.794C213.051 195.794 203.593 157.144 199.803 141.074C195.69 123.535 185.725 100.016 185.829 83.4334L201.456 83.3874Z" fill="#49C287"/>
<path opacity="0.2" d="M190.737 95.8058C189.734 94.3485 187.805 92.3037 186.324 90.6218C187.667 100.932 191.508 112.896 195.016 124.162C195.949 115.58 195.42 102.562 190.737 95.8058Z" fill="black"/>
<path d="M181.97 201.819H187.223L187.574 189.654H182.316L181.97 201.819Z" fill="#FFC3BD"/>
<path d="M187.471 201.024H181.567C181.464 201.023 181.365 201.059 181.288 201.126C181.211 201.193 181.16 201.286 181.146 201.387L180.472 206.053C180.46 206.171 180.473 206.291 180.51 206.404C180.547 206.517 180.608 206.621 180.687 206.71C180.767 206.798 180.865 206.869 180.973 206.918C181.082 206.966 181.2 206.991 181.319 206.991C183.375 206.951 184.366 206.83 186.964 206.83C188.559 206.83 191.86 206.997 194.066 206.997C196.272 206.997 196.37 204.82 195.471 204.618C191.353 203.737 189.711 202.516 188.346 201.347C188.101 201.141 187.791 201.027 187.471 201.024Z" fill="#263238"/>
<g opacity="0.2">
<path d="M187.569 189.659L187.39 195.932H182.137L182.316 189.659H187.569Z" fill="black"/>
</g>
<path d="M195.46 83.3874C195.46 83.3874 193.329 124.37 191.889 140.325C190.385 156.925 188.577 194.544 188.577 194.544H181.469C181.469 194.544 180.202 157.069 180.697 140.699C181.233 122.843 176.941 99.9704 179.839 83.3874H195.46Z" fill="#49C287"/>
<path d="M180.852 194.797L189.187 194.953L189.314 189.872L180.818 190.402L180.852 194.797Z" fill="#263238"/>
<path d="M189.441 201.963C189.889 202.004 190.339 201.89 190.714 201.64C190.798 201.565 190.863 201.47 190.902 201.363C190.941 201.257 190.954 201.142 190.938 201.03C190.934 200.962 190.913 200.896 190.877 200.839C190.84 200.782 190.79 200.734 190.731 200.701C190.086 200.344 187.989 201.416 187.753 201.542C187.731 201.555 187.713 201.573 187.702 201.596C187.691 201.619 187.686 201.644 187.69 201.669C187.693 201.694 187.704 201.718 187.722 201.737C187.739 201.755 187.762 201.768 187.787 201.773C188.331 201.889 188.885 201.952 189.441 201.963ZM190.379 200.874C190.459 200.872 190.537 200.888 190.61 200.92C190.634 200.933 190.654 200.952 190.669 200.975C190.683 200.999 190.69 201.025 190.69 201.053C190.703 201.126 190.696 201.201 190.671 201.271C190.646 201.34 190.603 201.402 190.546 201.45C190.23 201.738 189.366 201.79 188.202 201.594C188.881 201.231 189.618 200.988 190.379 200.874Z" fill="#49C287"/>
<path d="M187.811 201.779H187.862C188.49 201.496 189.729 200.362 189.631 199.768C189.631 199.624 189.51 199.451 189.164 199.417C189.04 199.403 188.915 199.414 188.796 199.451C188.677 199.488 188.567 199.549 188.473 199.63C187.816 200.177 187.695 201.594 187.69 201.652C187.687 201.674 187.691 201.696 187.7 201.716C187.709 201.737 187.723 201.754 187.741 201.767C187.763 201.776 187.787 201.78 187.811 201.779ZM189.066 199.647H189.141C189.366 199.647 189.383 199.757 189.383 199.791C189.446 200.148 188.605 201.035 187.966 201.421C188.015 200.826 188.249 200.26 188.634 199.803C188.755 199.7 188.908 199.645 189.066 199.647Z" fill="#49C287"/>
<path d="M219.94 201.024H214.036C213.988 201.021 213.941 201.028 213.897 201.046C213.853 201.063 213.813 201.091 213.78 201.125C213.748 201.16 213.724 201.201 213.709 201.246C213.694 201.292 213.69 201.34 213.696 201.387L213.995 206.052C214.03 206.306 214.154 206.539 214.343 206.71C214.533 206.882 214.777 206.981 215.032 206.991C217.083 206.951 218.051 206.83 220.643 206.83C222.244 206.83 225.579 206.997 227.785 206.997C229.991 206.997 229.651 204.82 228.695 204.618C224.392 203.737 222.515 202.516 220.884 201.346C220.61 201.145 220.28 201.032 219.94 201.024Z" fill="#263238"/>
<path d="M221.91 201.963C222.36 202.004 222.811 201.89 223.188 201.64C223.272 201.564 223.337 201.469 223.376 201.363C223.415 201.256 223.428 201.142 223.413 201.03C223.408 200.962 223.386 200.896 223.348 200.838C223.311 200.781 223.26 200.734 223.2 200.701C222.555 200.344 220.464 201.416 220.228 201.542C220.205 201.554 220.186 201.572 220.173 201.595C220.161 201.618 220.156 201.643 220.159 201.669C220.163 201.694 220.175 201.717 220.192 201.735C220.21 201.754 220.232 201.767 220.257 201.773C220.8 201.889 221.354 201.952 221.91 201.963ZM222.849 200.874C222.928 200.871 223.007 200.887 223.079 200.92C223.104 200.933 223.125 200.951 223.14 200.975C223.155 200.998 223.164 201.025 223.165 201.053C223.175 201.126 223.167 201.2 223.142 201.269C223.117 201.338 223.076 201.401 223.021 201.45C222.699 201.738 221.835 201.79 220.671 201.594C221.351 201.232 222.087 200.989 222.849 200.874Z" fill="#49C287"/>
<path d="M220.285 201.778H220.337C220.959 201.496 222.198 200.361 222.1 199.768C222.1 199.624 221.979 199.451 221.633 199.417C221.511 199.403 221.386 199.414 221.268 199.451C221.15 199.488 221.041 199.549 220.948 199.63C220.285 200.177 220.165 201.594 220.159 201.652C220.158 201.674 220.162 201.695 220.171 201.715C220.18 201.735 220.194 201.753 220.211 201.767C220.234 201.777 220.26 201.781 220.285 201.778ZM221.535 199.647H221.61C221.835 199.647 221.852 199.757 221.858 199.791C221.916 200.148 221.075 201.035 220.435 201.421C220.487 200.826 220.72 200.261 221.103 199.803C221.224 199.701 221.377 199.646 221.535 199.647Z" fill="#49C287"/>
<path d="M212.463 196.122L220.694 194.797L219.767 190.397L211.611 192.321L212.463 196.122Z" fill="#263238"/>
<path d="M190.408 33.1139L191.393 32.7279C191.393 32.7279 190.95 33.5689 190.408 33.1139Z" fill="#263238"/>
<path d="M179.798 82.1376L179.257 84.0499C179.182 84.1939 179.355 84.3494 179.602 84.3494H201.56C201.755 84.3494 201.911 84.2515 201.922 84.1306L202.118 82.224C202.118 82.0915 201.963 81.9763 201.755 81.9763H180.15C180.082 81.9705 180.014 81.9823 179.953 82.0106C179.891 82.0389 179.838 82.0826 179.798 82.1376Z" fill="#263238"/>
<path d="M182.776 84.5511H182.2C182.085 84.5511 181.999 84.4935 182.005 84.4244L182.275 81.9418C182.275 81.8669 182.385 81.8093 182.5 81.8093H183.076C183.191 81.8093 183.277 81.8669 183.272 81.9418L182.995 84.4244C182.99 84.4935 182.892 84.5511 182.776 84.5511Z" fill="#49C287"/>
<path d="M199.935 84.5511H199.359C199.244 84.5511 199.152 84.4935 199.164 84.4244L199.434 81.9418C199.434 81.8669 199.544 81.8093 199.659 81.8093H200.235C200.35 81.8093 200.437 81.8669 200.431 81.9418L200.16 84.4244C200.149 84.4935 200.051 84.5511 199.935 84.5511Z" fill="#49C287"/>
<path d="M191.388 84.5511H190.812C190.696 84.5511 190.61 84.4935 190.616 84.4244L190.886 81.9418C190.886 81.8669 190.996 81.8093 191.111 81.8093H191.687C191.802 81.8093 191.889 81.8669 191.877 81.9418L191.606 84.4244C191.606 84.4935 191.503 84.5511 191.388 84.5511Z" fill="#49C287"/>
<path d="M184.476 50.1638C181.129 50.469 176.014 49.8354 176.17 54.9676C176.325 60.0998 175.329 73.6934 175.594 80.0582C175.859 86.423 174.2 127.636 176.884 139.582C177.356 141.684 194.694 141.414 196.79 141.212V139.317C196.79 139.317 209.388 137.624 212.504 138.165C212.233 130.988 205.258 94.7346 204.987 84.551C204.716 74.3673 205.863 56.8684 205.793 54.0921C205.724 51.3158 200.206 50.0946 196.825 50.1638C197.574 52.6694 195.921 57.3753 193.277 62.6226C186.774 56.2866 184.856 53.1417 184.476 50.1638Z" fill="#49C287"/>
<path opacity="0.7" d="M184.476 50.1638C181.129 50.469 176.014 49.8354 176.17 54.9676C176.325 60.0998 175.329 73.6934 175.594 80.0582C175.859 86.423 174.2 127.636 176.884 139.582C177.356 141.684 194.694 141.414 196.79 141.212V139.317C196.79 139.317 209.388 137.624 212.504 138.165C212.233 130.988 205.258 94.7346 204.987 84.551C204.716 74.3673 205.863 56.8684 205.793 54.0921C205.724 51.3158 200.206 50.0946 196.825 50.1638C197.574 52.6694 195.921 57.3753 193.277 62.6226C186.774 56.2866 184.856 53.1417 184.476 50.1638Z" fill="white"/>
<path opacity="0.2" d="M178.105 62.3348L175.962 63.8497C175.795 68.2849 175.571 73.2558 175.547 77.0977C177.54 72.6913 178.664 66.3323 178.105 62.3348Z" fill="#49C287"/>
<path d="M184.931 57.7327C184.822 57.8943 184.705 58.05 184.579 58.1992L184.458 58.3375L184.395 58.4066L184.28 58.5275L184.049 58.7752L183.589 59.2879C183.277 59.6277 182.978 59.9791 182.678 60.3362C182.079 61.0504 181.503 61.7781 180.95 62.5192C179.821 63.9993 178.769 65.5374 177.8 67.1272C175.895 70.0622 174.519 73.308 173.733 76.7176C173.588 77.4782 173.498 78.2481 173.462 79.0216C173.498 79.4064 173.61 79.7803 173.791 80.1218C174.522 81.6701 175.402 83.1439 176.417 84.5224C177.483 86.0431 178.693 87.5234 179.931 88.9864C180.553 89.7237 181.198 90.4379 181.849 91.1464C182.5 91.8549 183.18 92.5807 183.813 93.2085L177.604 99.2104C176.849 98.3867 176.181 97.6379 175.484 96.8488L173.451 94.4699C172.103 92.8744 170.807 91.2155 169.528 89.476C168.14 87.6387 166.94 85.6666 165.946 83.5893C165.655 82.9458 165.407 82.2839 165.203 81.6079C165.083 81.2053 164.988 80.7955 164.92 80.381C164.876 80.1429 164.845 79.9025 164.828 79.661C164.805 79.4082 164.795 79.1544 164.799 78.9007C164.813 77.6638 164.919 76.4296 165.116 75.2085C165.515 72.9017 166.16 70.6444 167.04 68.4751C167.868 66.4212 168.83 64.4239 169.92 62.4962C170.98 60.5954 172.143 58.781 173.347 57.0069C173.958 56.1199 174.58 55.2501 175.231 54.3919L176.216 53.1074L176.728 52.4623L176.988 52.1397L177.12 51.9842L177.178 51.9093L177.097 52.0015C176.993 52.1339 176.895 52.2664 176.803 52.4047L184.931 57.7327Z" fill="#49C287"/>
<path opacity="0.7" d="M184.931 57.7327C184.822 57.8943 184.705 58.05 184.579 58.1992L184.458 58.3375L184.395 58.4066L184.28 58.5275L184.049 58.7752L183.589 59.2879C183.277 59.6277 182.978 59.9791 182.678 60.3362C182.079 61.0504 181.503 61.7781 180.95 62.5192C179.821 63.9993 178.769 65.5374 177.8 67.1272C175.895 70.0622 174.519 73.308 173.733 76.7176C173.588 77.4782 173.498 78.2481 173.462 79.0216C173.498 79.4064 173.61 79.7803 173.791 80.1218C174.522 81.6701 175.402 83.1439 176.417 84.5224C177.483 86.0431 178.693 87.5234 179.931 88.9864C180.553 89.7237 181.198 90.4379 181.849 91.1464C182.5 91.8549 183.18 92.5807 183.813 93.2085L177.604 99.2104C176.849 98.3867 176.181 97.6379 175.484 96.8488L173.451 94.4699C172.103 92.8744 170.807 91.2155 169.528 89.476C168.14 87.6387 166.94 85.6666 165.946 83.5893C165.655 82.9458 165.407 82.2839 165.203 81.6079C165.083 81.2053 164.988 80.7955 164.92 80.381C164.876 80.1429 164.845 79.9025 164.828 79.661C164.805 79.4082 164.795 79.1544 164.799 78.9007C164.813 77.6638 164.919 76.4296 165.116 75.2085C165.515 72.9017 166.16 70.6444 167.04 68.4751C167.868 66.4212 168.83 64.4239 169.92 62.4962C170.98 60.5954 172.143 58.781 173.347 57.0069C173.958 56.1199 174.58 55.2501 175.231 54.3919L176.216 53.1074L176.728 52.4623L176.988 52.1397L177.12 51.9842L177.178 51.9093L177.097 52.0015C176.993 52.1339 176.895 52.2664 176.803 52.4047L184.931 57.7327Z" fill="white"/>
<path opacity="0.3" d="M193.283 62.6226C193.887 74.9145 197.171 117.78 196.796 139.317L197.798 139.185C197.798 139.185 196.243 106.065 195.541 91.5724C194.838 77.0802 193.283 62.6226 193.283 62.6226Z" fill="#49C287"/>
<path opacity="0.3" d="M183.329 93.3121L177.178 99.9706C177.178 102.206 175.617 106.675 179.752 108.3C183.888 109.924 183.997 98.139 183.329 93.3121Z" fill="#49C287"/>
<path opacity="0.3" d="M203.386 93.1047L206.093 99.89C206.173 102.194 206.963 106.802 205.361 108.559C203.76 110.316 203.293 98.0986 203.386 93.1047Z" fill="#49C287"/>
<path d="M196.664 66.9023L203.42 66.8562C203.487 66.8591 203.555 66.8474 203.617 66.8219C203.679 66.7964 203.735 66.7577 203.781 66.7084C203.827 66.6592 203.862 66.6005 203.883 66.5366C203.904 66.4726 203.912 66.4048 203.904 66.3378L203.53 63.1353C203.507 62.9966 203.438 62.8699 203.333 62.7765C203.228 62.6831 203.094 62.6288 202.954 62.6226L196.191 62.6629C196.124 62.661 196.058 62.6733 195.996 62.6992C195.934 62.725 195.878 62.7637 195.832 62.8128C195.786 62.8618 195.752 62.9201 195.73 62.9836C195.709 63.0472 195.701 63.1146 195.707 63.1813L196.082 66.3897C196.106 66.5288 196.176 66.6556 196.282 66.7489C196.388 66.8422 196.523 66.8964 196.664 66.9023Z" fill="white" stroke="#49C287" stroke-width="0.5" stroke-miterlimit="10"/>
</svg>
