<svg width="506" height="451" viewBox="0 0 506 451" fill="none" xmlns="http://www.w3.org/2000/svg">
<path d="M252.957 451C392.662 451 505.914 385.614 505.914 304.956C505.914 224.298 392.662 158.912 252.957 158.912C113.253 158.912 0 224.298 0 304.956C0 385.614 113.253 451 252.957 451Z" fill="#F5F5F5"/>
<path d="M274.646 407.273C314.409 407.273 346.644 388.661 346.644 365.702C346.644 342.743 314.409 324.13 274.646 324.13C234.883 324.13 202.649 342.743 202.649 365.702C202.649 388.661 234.883 407.273 274.646 407.273Z" fill="#E0E0E0"/>
<path d="M145.336 252.926L22.027 324.12C16.9666 327.036 16.9666 331.769 22.027 334.685L153.894 410.834C158.943 413.76 167.141 413.76 172.191 410.834L295.511 339.639C300.561 336.724 300.561 331.991 295.511 329.075L163.634 252.926C158.584 250.01 150.397 250.01 145.336 252.926Z" fill="#E0E0E0"/>
<path d="M312.362 314.2L389.821 269.385C390.988 268.793 392.278 268.485 393.587 268.485C394.896 268.485 396.186 268.793 397.353 269.385L485.768 320.443C487.881 321.637 487.881 323.613 485.768 324.796L408.309 369.611C407.142 370.204 405.852 370.514 404.542 370.514C403.233 370.514 401.943 370.204 400.776 369.611L312.362 318.563C310.312 317.358 310.312 315.404 312.362 314.2Z" fill="#E0E0E0"/>
<path d="M329.128 322.799L342.619 315.003L329.128 311.104V322.799Z" fill="#714AE1"/>
<path d="M396.751 350.151V362.585L474.601 317.538V305.104L396.751 350.151Z" fill="#714AE1"/>
<path d="M481.352 207.667L403.502 252.704V354.049L481.352 309.002V207.667Z" fill="#714AE1"/>
<path opacity="0.55" d="M481.352 207.667L403.502 252.704V354.049L481.352 309.002V207.667Z" fill="white"/>
<path d="M403.502 252.703L315.615 201.962V303.307L403.502 354.049V252.703Z" fill="#714AE1"/>
<path d="M315.615 201.962L393.466 156.915L481.352 207.667L403.502 252.704L315.615 201.962Z" fill="#714AE1"/>
<path opacity="0.8" d="M394.3 247.39L315.615 201.962L393.466 156.915L481.352 207.667L403.502 252.704L394.3 247.39Z" fill="white"/>
<path opacity="0.55" d="M396.751 256.602L322.366 213.657V237.047L396.751 279.991V256.602Z" fill="white"/>
<path opacity="0.1" d="M396.751 287.789L322.366 244.844V299.41L396.751 342.365V287.789Z" fill="black"/>
<path d="M396.751 362.585L390 358.687V346.252L396.751 350.151V362.585Z" fill="#714AE1"/>
<path opacity="0.55" d="M396.751 362.585L390 358.687V346.252L396.751 350.151V362.585Z" fill="white"/>
<path d="M329.128 322.799L322.366 318.901V307.206L329.128 311.104V322.799Z" fill="#714AE1"/>
<path opacity="0.55" d="M329.128 322.799L322.366 318.901V307.206L329.128 311.104V322.799Z" fill="white"/>
<path opacity="0.2" d="M373.699 248.224C373.699 249.281 370.477 248.309 366.505 246.016L353.891 238.738C349.918 236.445 346.696 233.709 346.696 232.631V230.677L373.699 246.27V248.224Z" fill="black"/>
<path opacity="0.1" d="M322.366 299.409L369.304 271.941L396.751 287.788V342.365L322.366 299.409Z" fill="black"/>
<path d="M389.705 195.804C387.845 199.776 373.467 209.305 369.632 211.207C367.614 212.21 363.557 213.763 360.853 213.742C353.975 213.679 350.088 210.013 346.95 201.868C344.837 196.48 343.263 183.01 351.25 179.957C360.23 176.555 366.716 185.493 366.716 185.493C366.716 185.493 376.224 181.679 382.69 182.725C389.155 183.771 391.532 191.81 389.705 195.804Z" fill="#9A4A4D"/>
<path opacity="0.1" d="M362.015 191.335C359.659 186.538 356.405 183.855 353.341 182.883C351.797 182.485 350.159 182.695 348.766 183.469C347.372 184.244 346.329 185.524 345.851 187.045C344.927 191.992 345.328 197.094 347.013 201.836C349.929 209.421 353.511 213.108 359.522 213.636C367.297 212.77 365.617 198.793 362.015 191.335Z" fill="black"/>
<path opacity="0.5" d="M360.515 205.227C360.515 209.115 358.148 210.9 355.232 209.21C352.317 207.52 349.95 203.019 349.95 199.142C349.95 195.265 352.317 193.469 355.232 195.149C358.148 196.828 360.515 201.339 360.515 205.227Z" fill="#F28F8F"/>
<path opacity="0.5" d="M354.736 190.743C354.736 192.211 353.838 192.856 352.739 192.254C352.131 191.819 351.633 191.248 351.286 190.585C350.939 189.923 350.753 189.188 350.743 188.44C350.743 186.971 351.63 186.327 352.739 186.929C353.347 187.365 353.844 187.937 354.191 188.599C354.537 189.261 354.724 189.995 354.736 190.743Z" fill="#F28F8F"/>
<path opacity="0.5" d="M361.011 195.032C361.011 196.501 360.113 197.145 359.015 196.543C358.406 196.109 357.908 195.537 357.561 194.875C357.214 194.212 357.028 193.477 357.018 192.729C357.018 191.261 357.906 190.616 359.015 191.219C359.622 191.654 360.119 192.226 360.466 192.888C360.813 193.551 361 194.285 361.011 195.032Z" fill="#F28F8F"/>
<path opacity="0.5" d="M350.088 193.511C350.088 194.979 349.19 195.624 348.091 195.011C347.483 194.575 346.986 194.004 346.64 193.341C346.293 192.679 346.106 191.945 346.094 191.197C346.094 189.729 346.992 189.084 348.091 189.686C348.699 190.124 349.196 190.698 349.542 191.362C349.889 192.026 350.076 192.762 350.088 193.511Z" fill="#F28F8F"/>
<path opacity="0.1" d="M371.143 193.881C371.47 190.669 370.877 187.429 369.431 184.542C367.794 185.07 366.737 185.493 366.737 185.493C368.603 188.062 370.087 190.887 371.143 193.881Z" fill="black"/>
<path d="M397.111 145.897C389.863 143.879 372.389 159.736 370.699 162.684C369.009 165.631 371.069 175.023 378.739 174.981C383.324 174.981 398.959 159.081 401.273 155.183C403.587 151.284 397.111 145.897 397.111 145.897Z" fill="#9A4A4D"/>
<path d="M440.752 185.144C438.523 200.389 428.075 206.02 418.567 207.794C414.385 208.551 410.118 208.718 405.889 208.291C396.825 207.393 380.535 203.959 376.499 187.289C376.277 186.232 376.076 185.239 375.918 184.119C373.319 164.712 390.708 158.521 390.708 158.521C392.198 144.788 403.491 136.78 411.066 137.583C428.022 139.4 444.112 162.251 440.752 185.144Z" fill="#B16668"/>
<path opacity="0.1" d="M411.056 137.603C403.904 136.843 393.423 143.942 391.036 156.334C394.617 155.912 398.431 154.876 400.544 153.471C400.958 154.371 401.616 155.136 402.443 155.68C403.271 156.223 404.234 156.523 405.224 156.546C408.89 156.852 410.221 155.31 410.221 155.31C410.221 155.31 415.451 162.039 419.042 163.877C421.378 164.961 424.014 165.211 426.512 164.585L429.491 178.551C430.525 183.267 429.717 188.199 427.232 192.337C424.748 196.476 420.774 199.507 416.127 200.811L415.155 201.054C399.128 204.847 382.891 201.572 377.302 190.257C382.426 204.382 397.301 207.446 405.826 208.291C410.055 208.717 414.322 208.55 418.504 207.794C428.012 206.019 438.513 200.399 440.689 185.144C444.112 162.25 428.022 139.399 411.056 137.603Z" fill="black"/>
<path d="M431.371 148.295C427.019 150.081 427.79 156.536 430.23 166.508C433.062 178.129 441.946 203.548 441.946 203.548C441.946 203.548 445.116 208.83 454.349 202.755C463.582 196.681 460.381 191.134 460.381 191.134C460.381 191.134 440.341 144.598 431.371 148.295Z" fill="#9A4A4D"/>
<path d="M410.612 93.4227C412.144 89.1969 402.963 76.604 391.796 84.0837C381.612 90.919 388.416 104.801 396.022 105.435C403.629 106.069 410.612 93.4227 410.612 93.4227Z" fill="#9A4A4D"/>
<path d="M396.223 102.487C392.325 101.959 387.063 96.6659 390.888 91.3097C391.46 90.4263 392.231 89.6896 393.14 89.159C394.049 88.6284 395.07 88.3187 396.121 88.255C397.171 88.1913 398.222 88.3752 399.189 88.7921C400.155 89.2089 401.01 89.8469 401.685 90.6547C403.882 93.56 403.153 97.8175 403.153 97.8175L396.223 102.487Z" fill="#F28F8F"/>
<path d="M390.465 124.26C389.521 119.663 389.726 114.903 391.062 110.404C392.397 105.904 394.823 101.804 398.123 98.4663C401.423 95.1287 405.495 92.657 409.979 91.2703C414.463 89.8837 419.22 89.625 423.828 90.5171C430.216 91.853 436.013 95.1863 440.382 100.035C444.75 104.884 447.462 110.996 448.127 117.488C449.722 134.223 438.735 145.421 421.99 147.069C415.622 147.673 409.225 146.262 403.703 143.033C400.313 140.996 397.385 138.274 395.106 135.042C392.827 131.809 391.246 128.137 390.465 124.26Z" fill="#B16668"/>
<path opacity="0.1" d="M419.465 147.154C420.321 147.154 421.177 147.154 422.022 147.027C438.766 145.421 449.754 134.223 448.158 117.446C447.685 112.54 446.017 107.824 443.299 103.712C443.869 104.6 441.968 107.695 441.968 107.695C444.017 111.921 445.845 117.848 444.218 123.753C441.725 132.881 434.91 142.474 419.465 147.154Z" fill="black"/>
<path d="M403.491 150.46C403.491 150.46 407.559 144.935 406.418 142.653C401.072 137.942 390.888 135.417 388.553 136.135C384.327 137.413 383.028 151.644 387.201 153.154C391.374 154.665 403.491 150.46 403.491 150.46Z" fill="#714AE1"/>
<path opacity="0.1" d="M402.71 146.858C400.966 145.896 393.804 141.354 393.201 142.854C392.441 144.745 401.051 147.386 401.051 147.386C401.051 147.386 392.282 147.164 392.663 149.309C392.916 150.756 401.97 148.474 401.97 148.474L402.71 146.858Z" fill="black"/>
<path d="M403.481 145.601L403.322 145.749C402.626 146.513 402.158 147.457 401.97 148.474C401.775 149.265 401.775 150.092 401.97 150.883C402.931 154.158 407.844 154.697 410.422 153.144C411.201 152.661 411.818 151.956 412.194 151.121C412.57 150.285 412.689 149.356 412.535 148.453C412.344 147.49 411.833 146.621 411.085 145.986C410.337 145.351 409.395 144.988 408.414 144.956C407.538 144.893 406.682 144.956 405.837 144.829C405.412 144.782 404.981 144.826 404.575 144.959C404.169 145.092 403.795 145.311 403.481 145.601Z" fill="#714AE1"/>
<path opacity="0.2" d="M403.481 145.601L403.322 145.749C402.626 146.513 402.158 147.457 401.97 148.474C401.775 149.265 401.775 150.092 401.97 150.883C402.931 154.158 407.844 154.697 410.422 153.144C411.201 152.661 411.818 151.956 412.194 151.121C412.57 150.285 412.689 149.356 412.535 148.453C412.344 147.49 411.833 146.621 411.085 145.986C410.337 145.351 409.395 144.988 408.414 144.956C407.538 144.893 406.682 144.956 405.837 144.829C405.412 144.782 404.981 144.826 404.575 144.959C404.169 145.092 403.795 145.311 403.481 145.601Z" fill="black"/>
<path d="M409.228 123.5C399.72 120.33 392.61 121.387 389.8 128.317C387.116 134.941 393.085 145.558 405.361 147.449C411.605 148.421 416.095 147.904 421.8 143.942C424.483 134.201 418.609 126.627 409.228 123.5Z" fill="#F28F8F"/>
<path d="M397.987 125.592C400.85 122.866 407.823 125.465 408.457 127.705C409.291 130.663 404.368 134.233 400.702 132.881C398.484 132.078 395.462 128.011 397.987 125.592Z" fill="#9A4A4D"/>
<path d="M410.464 147.872C410.464 147.872 425.973 140.065 431.53 144.502C434.509 146.879 431.202 159.831 427.473 160.951C422.064 162.567 413.94 156.894 409.999 152.256C409.761 151.534 409.679 150.77 409.76 150.014C409.84 149.258 410.08 148.528 410.464 147.872Z" fill="#714AE1"/>
<path d="M434.91 104.938C434.336 103.46 434.336 101.82 434.91 100.342C436.273 96.835 439.96 90.7498 448.94 91.9542C460.963 93.5705 462.78 113.559 446.426 115.703C445.08 115.887 443.713 115.596 442.559 114.879C438.249 112.164 435.967 107.642 434.91 104.938Z" fill="#9A4A4D"/>
<path d="M435.861 107.072C436.963 109.341 438.466 111.392 440.298 113.126C449.753 114.277 451.814 106.354 449.701 102.413C447.313 98.1239 437.847 96.9724 435.861 107.072Z" fill="#F28F8F"/>
<path opacity="0.5" d="M402.298 163.444C390.138 160.169 379.108 167.902 378.232 179.291C377.355 190.679 393.476 200.198 407.664 194.863C421.852 189.528 416.708 167.332 402.298 163.444Z" fill="#F28F8F"/>
<path d="M423.089 210.731C422.222 216.013 417.806 230.666 411.605 235.98C410.392 236.993 408.935 237.671 407.379 237.945C401.896 238.706 397.744 236.804 393.941 232.589C392.437 230.711 391.239 228.608 390.391 226.356C389.24 223.567 385.553 207.72 391.237 203.61C397.121 199.385 402.858 201.571 404.759 203.41C406.716 201.492 408.837 199.749 411.098 198.201C415.271 195.655 419.349 197.842 421.662 201.159C422.539 202.385 423.923 205.639 423.089 210.731Z" fill="#9A4A4D"/>
<path opacity="0.1" d="M393.709 205.534C392.358 205.545 391.058 206.055 390.06 206.965C389.062 207.876 388.435 209.123 388.3 210.467C388.012 215.835 388.729 221.209 390.413 226.314C391.26 228.566 392.458 230.67 393.962 232.547C395.584 234.455 397.608 235.981 399.889 237.016C402.15 237.808 406.946 237.608 408.562 233.561C410.327 229.145 408.647 217.123 403.639 210.446C402.489 208.902 400.99 207.652 399.264 206.798C397.538 205.944 395.634 205.511 393.709 205.534Z" fill="black"/>
<path opacity="0.5" d="M402.018 233.058C404.525 231.991 405.03 227.536 403.145 223.107C401.261 218.677 397.7 215.952 395.193 217.019C392.686 218.085 392.181 222.541 394.066 226.97C395.951 231.399 399.511 234.125 402.018 233.058Z" fill="#F28F8F"/>
<path opacity="0.5" d="M398.072 212.707C398.072 214.292 397.11 215.021 395.959 214.334C395.311 213.86 394.783 213.242 394.416 212.529C394.049 211.816 393.854 211.026 393.846 210.224C393.846 208.64 394.807 207.911 395.959 208.597C396.608 209.07 397.137 209.687 397.504 210.401C397.871 211.115 398.065 211.904 398.072 212.707Z" fill="#F28F8F"/>
<path opacity="0.5" d="M404.822 217.334C404.822 218.908 403.861 219.637 402.71 218.95C402.06 218.479 401.531 217.861 401.164 217.147C400.797 216.434 400.602 215.643 400.597 214.841C400.597 213.267 401.558 212.538 402.71 213.224C403.358 213.697 403.887 214.315 404.253 215.029C404.62 215.742 404.815 216.532 404.822 217.334Z" fill="#F28F8F"/>
<path opacity="0.5" d="M393.064 215.696C393.064 217.281 392.103 218.01 390.951 217.323C390.302 216.851 389.773 216.233 389.406 215.519C389.039 214.806 388.845 214.016 388.838 213.214C388.838 211.629 389.8 210.9 390.951 211.587C391.599 212.06 392.127 212.678 392.494 213.391C392.861 214.105 393.056 214.894 393.064 215.696Z" fill="#F28F8F"/>
<path opacity="0.1" d="M405.9 202.343L404.738 203.399C406.701 205.318 408.219 207.644 409.186 210.213C409.196 208.748 408.91 207.295 408.345 205.943C407.781 204.591 406.949 203.366 405.9 202.343Z" fill="black"/>
<path opacity="0.1" d="M409.946 149.077C409.849 149.422 409.785 149.776 409.756 150.133C410.401 150.936 418.747 155.088 419.085 153.64C419.423 152.193 411.489 149.615 411.489 149.615C411.489 149.615 420.997 148.897 420.659 147.175C420.405 146.034 411.077 148.295 409.946 149.077Z" fill="black"/>
<path d="M396.529 119.485C398.367 119.485 399.857 117.995 399.857 116.157C399.857 114.32 398.367 112.83 396.529 112.83C394.691 112.83 393.201 114.32 393.201 116.157C393.201 117.995 394.691 119.485 396.529 119.485Z" fill="#263238"/>
<path d="M420.934 124.165C422.771 124.165 424.261 122.676 424.261 120.838C424.261 119 422.771 117.51 420.934 117.51C419.096 117.51 417.606 119 417.606 120.838C417.606 122.676 419.096 124.165 420.934 124.165Z" fill="#263238"/>
<path d="M289.817 1.82773L246.344 26.8657C245.839 27.1964 245.419 27.6413 245.118 28.1643C244.817 28.6874 244.644 29.274 244.611 29.8766V79.72C244.646 80.3205 244.821 80.9044 245.124 81.424C245.427 81.9436 245.849 82.3842 246.354 82.7098L252.577 86.1961C253.116 86.4674 253.711 86.6087 254.315 86.6087C254.918 86.6087 255.514 86.4674 256.053 86.1961L299.526 61.1582C300.031 60.8274 300.45 60.3826 300.751 59.8595C301.052 59.3364 301.226 58.7499 301.258 58.1473V8.28265C301.224 7.68216 301.048 7.09827 300.745 6.57866C300.443 6.05906 300.021 5.61848 299.515 5.29289L293.346 1.8066C292.798 1.5299 292.192 1.38751 291.579 1.39118C290.965 1.39486 290.361 1.54449 289.817 1.82773Z" fill="#714AE1"/>
<path d="M254.32 85.1713V35.3384C254.353 34.736 254.527 34.1498 254.828 33.6268C255.129 33.1039 255.548 32.6589 256.053 32.3275L299.526 7.27902C300.487 6.72966 301.258 7.17337 301.258 8.33547V58.179C301.226 58.7816 301.052 59.3681 300.751 59.8912C300.45 60.4142 300.031 60.8591 299.526 61.1898L256.053 86.175C255.102 86.7349 254.32 86.2806 254.32 85.1713Z" fill="#714AE1"/>
<path opacity="0.2" d="M256.053 86.1748C255.512 86.4406 254.917 86.5787 254.315 86.5787C253.712 86.5787 253.118 86.4406 252.577 86.1748L246.354 82.678C245.847 82.3573 245.423 81.9193 245.12 81.4008C244.816 80.8824 244.642 80.2986 244.611 79.6988V29.8764C244.634 29.2465 244.823 28.6339 245.161 28.1016L254.838 33.6268C254.515 34.1407 254.336 34.7317 254.32 35.3383V85.1712C254.32 86.1854 255.039 86.8087 256.053 86.1748Z" fill="black"/>
<path opacity="0.4" d="M301.237 7.97607C301.1 7.09921 300.392 6.78228 299.526 7.27881L256.063 32.3273C255.546 32.6432 255.123 33.0919 254.838 33.6268L245.15 28.1015C245.44 27.5974 245.85 27.1728 246.344 26.8655L289.817 1.82751C290.355 1.5538 290.951 1.41113 291.555 1.41113C292.159 1.41113 292.754 1.5538 293.293 1.82751L299.515 5.31381C299.976 5.60809 300.369 5.99814 300.666 6.4575C300.963 6.91686 301.158 7.43477 301.237 7.97607Z" fill="white"/>
<path d="M244.611 46.9595L230.634 61.1688C230.474 61.3321 230.352 61.5292 230.277 61.7456C230.202 61.962 230.177 62.1924 230.202 62.42C230.227 62.6476 230.303 62.8668 230.423 63.0615C230.544 63.2562 230.706 63.4216 230.899 63.5458C231.184 63.7254 240.576 69.1027 240.576 69.1027L254.31 52.5481L244.611 46.9595Z" fill="#714AE1"/>
<path opacity="0.1" d="M244.611 46.9595L230.634 61.1688C230.474 61.3321 230.352 61.5292 230.277 61.7456C230.202 61.962 230.177 62.1924 230.202 62.42C230.227 62.6476 230.303 62.8668 230.423 63.0615C230.544 63.2562 230.706 63.4216 230.899 63.5458C231.184 63.7254 240.576 69.1027 240.576 69.1027L254.31 52.5481L244.611 46.9595Z" fill="black"/>
<path d="M254.32 52.5479L240.354 66.736C240.126 66.9639 239.975 67.2581 239.924 67.5765C239.872 67.895 239.923 68.2215 240.068 68.5096C240.213 68.7976 240.446 69.0325 240.732 69.1807C241.019 69.3289 241.345 69.3828 241.664 69.3349L254.341 67.5178C255.683 67.5389 255.683 52.5479 254.32 52.5479Z" fill="#714AE1"/>
<path d="M262.846 52.0408C262.889 49.3623 263.52 46.726 264.694 44.3181C265.884 41.6231 267.824 39.3273 270.283 37.7047C273.516 35.8031 276.305 38.1907 277.372 41.7932C277.386 41.8739 277.428 41.9471 277.491 41.9998C277.554 42.0525 277.633 42.0814 277.715 42.0814C277.797 42.0814 277.877 42.0525 277.939 41.9998C278.002 41.9471 278.044 41.8739 278.059 41.7932C279.02 36.8807 281.82 30.9646 285.158 29.0101C287.387 27.7107 289.384 27.8269 290.778 29.0101C291.962 30.0666 292.68 31.9682 292.701 34.5037C292.701 42.3848 287.271 49.949 282.686 57.8196L277.752 65.4578L272.988 63.5033C268.403 61.0418 262.888 59.9114 262.846 52.0408Z" fill="#FAFAFA"/>
<path d="M306.52 313.492C306.108 311.741 305.48 310.048 304.65 308.453C302.653 304.576 299.726 301.998 297.096 302.199C296.559 302.244 296.039 302.41 295.575 302.685C294.772 303.16 287.197 307.523 286.753 307.777C285.854 308.326 285.155 309.147 284.757 310.122C284.588 310.481 284.418 310.83 284.228 311.179L283.69 311.115C265.297 307.946 241.801 298.364 221.887 286.87C199.363 273.587 178.506 257.663 159.757 239.435C155.531 235.304 152.214 228.87 150.038 221.898C149.387 219.75 148.384 217.726 147.069 215.908C144.523 212.453 141.565 211.344 139.452 212.643C138.617 213.14 132.268 216.732 130.567 217.778C129.625 218.384 128.911 219.288 128.539 220.345C127.208 223.651 127.662 228.638 129.447 232.959C129.451 232.983 129.451 233.008 129.447 233.033C129.637 233.424 129.817 233.836 130.007 234.227C130.484 235.215 131.053 236.156 131.708 237.037C132.091 237.549 132.508 238.036 132.955 238.495C156.651 265.212 186.38 289.479 212.981 304.84C239.583 320.201 269.375 330.29 293.092 330.913C293.335 330.93 293.578 330.93 293.821 330.913C294.326 330.874 294.816 330.726 295.258 330.48C295.384 330.406 303.709 325.61 304.1 325.377C304.242 325.297 304.38 325.209 304.512 325.113C304.72 324.982 304.909 324.822 305.072 324.638C307.079 322.683 307.682 318.373 306.52 313.492Z" fill="#455A64"/>
<path d="M297.635 318.616C297.22 316.866 296.592 315.173 295.765 313.577C293.758 309.71 290.842 307.132 288.211 307.333C287.433 307.432 286.698 307.745 286.088 308.237C285.478 308.73 285.017 309.382 284.757 310.122C282.644 314.77 279.031 316.947 274.805 316.218C256.412 313.048 232.916 303.477 212.992 291.972C190.464 278.699 169.609 262.774 150.872 244.537C146.646 240.417 143.319 234.026 141.142 227.011C140.489 224.863 139.49 222.836 138.184 221.01C135.628 217.566 132.68 216.457 130.567 217.756C129.621 218.369 128.907 219.28 128.539 220.345C127.208 223.651 127.662 228.638 129.447 232.959C129.451 232.983 129.451 233.008 129.447 233.033C129.637 233.423 129.817 233.835 130.007 234.226C130.484 235.215 131.053 236.156 131.708 237.037C132.091 237.549 132.508 238.036 132.955 238.494C156.651 265.212 186.38 289.479 212.981 304.84C239.583 320.201 269.375 330.29 293.092 330.913C293.335 330.93 293.578 330.93 293.821 330.913C294.471 330.868 295.095 330.637 295.617 330.247C295.827 330.115 296.016 329.951 296.177 329.761C298.131 327.818 298.797 323.507 297.635 318.616Z" fill="#37474F"/>
<path d="M306.52 313.482C306.104 311.737 305.479 310.049 304.66 308.453C302.653 304.576 299.737 301.998 297.096 302.209C296.556 302.248 296.031 302.41 295.564 302.685C294.761 303.16 287.197 307.523 286.753 307.777C287.213 307.512 287.725 307.35 288.254 307.301C290.884 307.101 293.8 309.678 295.807 313.556C296.632 315.15 297.26 316.839 297.677 318.584C298.839 323.476 298.174 327.776 296.23 329.762C296.071 329.95 295.882 330.111 295.67 330.237C295.625 330.265 295.583 330.297 295.543 330.332C296.885 329.561 303.762 325.578 304.153 325.367C304.296 325.292 304.43 325.204 304.555 325.103C304.768 324.974 304.96 324.814 305.125 324.627C307.016 322.673 307.692 318.373 306.52 313.482Z" fill="#263238"/>
<path d="M188.038 139.188C183.654 83.3333 167.374 52.6539 162.388 14.3469C162.388 14.1039 162.324 13.8609 162.303 13.6391C161.585 8.35681 161.426 4.95503 157.739 2.83156C156.598 2.16599 154.623 1.15179 153.989 1.53212L146.15 6.00092C146.584 5.82758 147.056 5.77244 147.518 5.84111C147.98 5.90978 148.416 6.09981 148.78 6.39181C152.468 8.50472 152.7 13.5123 153.418 18.7523C153.418 18.9953 153.418 19.2383 153.503 19.4813C158.479 57.7883 174.759 88.4571 179.154 144.312C183.548 200.167 174.864 228.279 162.05 254.965L170.85 249.873C183.654 223.197 192.412 195.053 188.038 139.188Z" fill="#263238"/>
<path d="M179.153 144.311C174.759 88.4567 158.479 57.7879 153.503 19.4809C153.503 19.2379 153.439 18.9949 153.418 18.7519C152.7 13.4696 152.467 8.51487 148.78 6.3914C148.416 6.0994 147.98 5.90937 147.518 5.8407C147.056 5.77203 146.584 5.82717 146.15 6.00051C144.734 6.81398 144.512 9.89882 145.093 13.9767C145.167 14.6106 145.241 15.255 145.336 15.8995C150.323 54.2171 166.603 86.3227 170.976 142.188C175.35 198.053 166.613 220.735 153.788 247.421C156.313 249.83 159.07 252.355 162.007 254.964C174.864 228.278 183.527 200.177 179.153 144.311Z" fill="#37474F"/>
<path d="M250.834 257.13L176.343 214.122C177.114 210.435 177.759 206.664 178.298 202.86L249.217 243.83C250.369 244.432 251.404 257.479 250.834 257.13Z" fill="#37474F"/>
<path d="M258.102 238.696L187.151 197.737L178.298 202.861L249.218 243.83L258.102 238.696Z" fill="#263238"/>
<path d="M263.987 313.799C251.172 272.322 246.692 241.516 246.862 185.271C249.418 186.147 252.08 187.109 254.838 188.123C254.722 244.379 258.387 271.583 272.502 315.785C269.649 315.225 266.828 314.57 263.987 313.799Z" fill="#37474F"/>
<path d="M272.449 315.785C258.335 271.583 254.669 244.379 254.785 188.123L263.67 182.999C263.564 239.245 267.23 266.459 281.344 310.661L272.449 315.785Z" fill="#263238"/>
<path d="M179.09 196.31C178.911 198.138 178.625 200.43 178.298 202.86L246.862 185.27L236.297 181.636L179.143 196.31" fill="#37474F"/>
<path d="M249.217 243.829L210.678 194.546L214.83 193.489L248.552 236.593L249.217 243.829Z" fill="#37474F"/>
<path d="M248.552 236.593L214.83 193.511L225.563 190.753L247.421 218.697C247.664 224.444 248.045 230.487 248.552 236.593Z" fill="#263238"/>
<path d="M231.48 180.009L204.688 186.887L206.547 189.264L236.244 181.636L231.48 180.009Z" fill="#263238"/>
<path d="M204.688 186.887L187.954 191.176L179.09 196.31L206.547 189.264L204.688 186.887Z" fill="#263238"/>
<path opacity="0.15" d="M204.688 186.887L187.954 191.176L179.09 196.31L206.547 189.264L204.688 186.887Z" fill="black"/>
<path d="M219.574 183.062L210.699 188.197L191.366 163.486C197.859 167.03 204.587 170.125 211.502 172.751L219.574 183.062Z" fill="#263238"/>
<path opacity="0.15" d="M219.574 183.062L210.699 188.197L191.366 163.486C197.859 167.03 204.587 170.125 211.502 172.751L219.574 183.062Z" fill="black"/>
<path d="M210.699 188.229L206.547 189.285L179.851 155.13C183.279 158.446 187.155 161.266 191.366 163.508L210.699 188.229Z" fill="#37474F"/>
<path d="M277.087 175.075C251.573 160.285 208.417 157.57 187.204 130.166L178.319 135.3C179.027 142.272 179.544 148.896 179.851 155.119C193.468 169.032 230.994 179.312 254.151 187.869C257.511 189.116 261.018 192.317 263.659 197.155C265.223 200.06 267.357 202.279 269.639 202.923C270.127 203.081 270.644 203.132 271.154 203.073C271.664 203.015 272.156 202.849 272.597 202.585C273.96 201.761 280.531 197.979 281.365 197.525C282.781 196.743 283.816 194.937 284.165 192.412C285.042 185.872 281.534 177.664 277.087 175.075Z" fill="#455A64"/>
<path d="M268.202 180.199C242.689 165.472 199.585 162.694 178.319 135.3C179.027 142.272 179.544 148.896 179.851 155.119C193.468 169.032 230.994 179.312 254.151 187.869C257.511 189.116 261.018 192.317 263.659 197.155C265.223 200.06 267.357 202.279 269.639 202.923C272.449 203.726 274.731 201.55 275.27 197.535C276.146 190.996 272.65 182.766 268.202 180.199Z" fill="#37474F"/>
<path d="M250.834 257.13L137.519 322.525L135.934 309.224L249.186 243.333C249.661 248.182 250.263 253.179 250.834 257.13Z" fill="#263238"/>
<path d="M260.257 222.965V227.771C260.109 230.626 259.261 233.399 257.787 235.848C256.313 238.297 254.259 240.345 251.806 241.812L152.214 299.917C149.57 301.126 146.688 301.724 143.782 301.665C140.875 301.607 138.019 300.893 135.427 299.579L77.1951 265.772C74.7776 264.197 72.7657 262.075 71.3229 259.576C69.8801 257.078 69.047 254.275 68.8914 251.394V246.587C69.0393 243.734 69.8879 240.962 71.362 238.515C72.836 236.068 74.8902 234.022 77.343 232.557L176.65 180.358C181.34 177.896 185.175 175.963 189.919 178.329L251.732 209.04C254.21 210.456 256.29 212.475 257.781 214.909C259.271 217.343 260.123 220.114 260.257 222.965Z" fill="#714AE1"/>
<path opacity="0.1" d="M145.928 301.639C142.287 302.007 138.616 301.309 135.364 299.632L77.1318 265.825C72.5574 263.163 68.8281 256.739 68.8281 251.447V246.629C68.8281 241.791 71.9975 236.16 76.1176 233.35C72.6525 235.822 72.9483 239.445 77.1741 241.801L135.406 275.608C138.045 277.015 140.993 277.742 143.984 277.721L145.928 301.639Z" fill="black"/>
<path d="M152.172 275.988L251.763 217.809C256.454 215.347 256.422 211.47 251.679 209.061L189.866 178.35C185.122 175.984 181.287 177.917 176.597 180.379L77.343 232.599C72.6524 235.061 72.5678 239.192 77.1529 241.833L135.385 275.639C137.976 276.956 140.832 277.671 143.738 277.731C146.645 277.791 149.527 277.196 152.172 275.988Z" fill="#714AE1"/>
<path opacity="0.4" d="M152.172 275.988L251.763 217.809C256.454 215.347 256.422 211.47 251.679 209.061L189.866 178.35C185.122 175.984 181.287 177.917 176.597 180.379L77.343 232.599C72.6524 235.061 72.5678 239.192 77.1529 241.833L135.385 275.639C137.976 276.956 140.832 277.671 143.738 277.731C146.645 277.791 149.527 277.196 152.172 275.988Z" fill="white"/>
<path d="M171.906 99.7504C173.364 98.3136 174.611 95.4612 175.604 91.6051C185.852 64.7078 180.516 32.0422 169.033 12.4978C168.843 12.1492 168.642 11.8006 168.441 11.4414C165.089 6.42808 160.082 2.75224 154.295 1.05645C152.452 0.470412 150.543 0.115546 148.612 0L59.1722 51.6395L44.5086 60.0911L44.4346 60.1439C42.2633 61.4151 40.4741 63.2472 39.2547 65.448C38.0353 67.6489 37.4307 70.1373 37.5043 72.6523C37.5888 75.3146 37.6945 78.0614 37.8424 79.9841L47.5195 67.1271C51.4219 69.0912 54.7432 72.0411 57.1543 75.6843C70.2544 97.0775 75.8536 135.406 60.6195 163.93C90.8975 185.862 78.4841 242.572 78.4841 242.572L189.813 178.403C189.929 177.664 201.994 121.545 171.906 99.7504Z" fill="#714AE1"/>
<path opacity="0.4" d="M165.229 7.57482C164.796 7.14167 164.352 6.72965 163.909 6.34933L163.814 6.27538C159.933 3.01168 155.215 0.900032 150.196 0.179641C149.671 0.101934 149.142 0.0525623 148.611 0.0317383L59.1719 51.6395L49.6638 57.1436L44.3816 60.1651C42.2185 61.4377 40.4371 63.2681 39.2236 65.4648C38.01 67.6615 37.4088 70.1438 37.4829 72.6524C37.5674 75.3146 37.6731 78.0614 37.821 79.9841L47.4981 67.1271C49.8369 68.3204 51.9755 69.8708 53.8368 71.7227L165.261 7.57482H165.229Z" fill="white"/>
<g opacity="0.3">
<path opacity="0.4" d="M149.161 102.856C149.393 104.568 150.872 105.212 152.478 104.282C153.289 103.785 153.948 103.075 154.384 102.229C154.819 101.384 155.015 100.435 154.95 99.4861C154.718 97.7746 153.239 97.1408 151.643 98.0599C150.831 98.556 150.17 99.2655 149.732 100.111C149.294 100.957 149.097 101.906 149.161 102.856Z" fill="black"/>
<path opacity="0.4" d="M132.321 112.575C132.553 114.287 134.032 114.931 135.638 114.012C136.44 113.51 137.092 112.803 137.527 111.963C137.962 111.123 138.164 110.181 138.11 109.237C137.878 107.525 136.399 106.881 134.804 107.811C133.994 108.303 133.335 109.007 132.897 109.846C132.46 110.686 132.26 111.63 132.321 112.575Z" fill="black"/>
<path opacity="0.4" d="M115.481 122.305C115.713 124.017 117.192 124.661 118.788 123.732C119.597 123.24 120.256 122.536 120.694 121.696C121.132 120.856 121.331 119.912 121.27 118.967C121.038 117.245 119.559 116.611 117.953 117.53C117.146 118.027 116.49 118.734 116.055 119.575C115.619 120.416 115.421 121.36 115.481 122.305Z" fill="black"/>
<path opacity="0.4" d="M98.6411 132.025C98.8735 133.747 100.353 134.381 101.948 133.462C102.757 132.967 103.416 132.261 103.854 131.42C104.291 130.578 104.491 129.633 104.43 128.687C104.198 126.975 102.719 126.331 101.113 127.26C100.307 127.755 99.6516 128.46 99.2161 129.3C98.7806 130.139 98.5818 131.081 98.6411 132.025Z" fill="black"/>
</g>
<path d="M60.6193 163.93C75.8534 135.343 70.2542 97.0357 57.1541 75.6425C54.4469 71.5781 50.6195 68.3856 46.1353 66.4514C45.1722 66.0432 44.1216 65.8849 43.0809 65.9911C42.0402 66.0973 41.0432 66.4645 40.1824 67.0588C39.3215 67.6531 38.6247 68.4551 38.1565 69.3906C37.6883 70.326 37.4639 71.3645 37.5041 72.4098C39.3952 127.926 59.8375 165.969 59.8375 231.829L78.5262 242.615C78.5262 242.615 90.8973 185.905 60.6193 163.93Z" fill="#714AE1"/>
<path opacity="0.2" d="M60.6193 163.93C75.8534 135.343 70.2542 97.0357 57.1541 75.6425C54.4469 71.5781 50.6195 68.3856 46.1353 66.4514C45.1722 66.0432 44.1216 65.8849 43.0809 65.9911C42.0402 66.0973 41.0432 66.4645 40.1824 67.0588C39.3215 67.6531 38.6247 68.4551 38.1565 69.3906C37.6883 70.326 37.4639 71.3645 37.5041 72.4098C39.3952 127.926 59.8375 165.969 59.8375 231.829L78.5262 242.615C78.5262 242.615 90.8973 185.905 60.6193 163.93Z" fill="black"/>
<path d="M312.277 354.852C305.589 349.262 299.902 342.574 295.458 335.075C290.439 326.698 286.533 317.702 283.837 308.315C277.615 287.186 265.106 244.094 262.074 237.005C257.764 226.895 226.99 207.53 211.755 196.659C200.235 188.494 188.241 181.019 175.836 174.273L143.001 166.582C140.234 177.748 137.962 186.411 141.174 198.085C144.385 209.759 154.189 218.496 169.55 228.5C182.228 236.772 219.594 249.386 223.429 251.309C227.264 253.232 231.321 253.2 232.177 260.754C233.032 268.307 232.177 271.635 238.938 281.724C247.654 294.655 263.617 311.612 268.455 325.113C269.05 328.121 269 331.222 268.307 334.209C265.254 345.587 275.1 346.422 280.985 353.87C284.154 357.916 286.098 362.173 290.651 364.973C294.815 367.452 299.477 368.978 304.301 369.442C308.643 369.875 315.531 368.882 318.32 366.125C322.651 361.772 316.302 358.148 312.277 354.852Z" fill="#FFA8A7"/>
<path d="M318.51 366.199C323 361.846 317.992 358.729 313.914 355.634C311.897 354.102 308.548 351.303 306.762 349.781C306.762 349.781 310.587 353.172 305.907 354.461C296.325 357.092 287.133 348.123 282.95 342.766C280.749 339.838 278.229 337.163 275.438 334.79C272.195 332.117 269.491 330.121 268.656 326.55C268.786 328.964 268.522 331.383 267.874 333.713C264.768 345.334 274.921 346.612 280.869 354.187C284.101 358.307 286.151 362.533 290.715 365.501C294.864 368.153 299.603 369.739 304.512 370.118C308.939 370.562 315.119 369.474 318.51 366.199Z" fill="#455A64"/>
<path d="M178.086 174.622C178.086 174.622 197.103 185.038 224.37 204.551C251.637 224.064 258.852 229.24 262.402 235.547C265.952 241.854 278.978 291.476 278.978 291.476C278.978 291.476 272.85 304.153 255.884 303.858C255.884 303.858 239.963 285.169 236.614 280.352C233.265 275.534 231.892 268.657 231.152 262.054C230.413 255.451 228.796 254.521 207.572 246.841C186.348 239.16 155.848 226.99 144.385 207.995C132.923 189 136.018 174.305 136.018 174.305L178.086 174.622Z" fill="#714AE1"/>
<path opacity="0.5" d="M178.086 174.622C175.773 173.217 195.159 183.844 224.37 204.551C251.711 223.937 258.852 229.24 262.402 235.547C265.952 241.854 278.978 291.476 278.978 291.476C278.978 291.476 272.85 304.153 255.884 303.858C255.884 303.858 239.963 285.169 236.614 280.352C233.265 275.534 231.892 268.657 231.152 262.054C230.413 255.451 228.796 254.521 207.572 246.841C186.348 239.16 155.848 226.99 144.385 207.995C132.923 189 136.018 174.305 136.018 174.305L178.086 174.622Z" fill="black"/>
<path opacity="0.1" d="M233.983 259.307C234.195 249.852 223.176 242.404 213.911 235.854C206.019 230.265 171.832 206.368 171.832 206.368C179.978 191.039 178.171 174.674 178.171 174.674L139.632 187.172C139.687 190.849 140.219 194.503 141.216 198.043C144.386 209.717 154.232 218.454 169.593 228.458C176.597 233.012 190.722 239.667 202.66 245.045C204.329 245.668 205.966 246.27 207.551 246.841C228.775 254.521 230.381 255.44 231.131 262.054C231.881 268.667 233.244 275.534 236.593 280.351C237.068 281.038 237.808 282.01 238.706 283.162C232.885 272.534 233.857 264.726 233.983 259.307Z" fill="black"/>
<path d="M274.329 371.09C267.628 365.266 261.841 358.467 257.162 350.922C251.991 342.631 247.938 333.694 245.108 324.342C238.526 303.213 225.268 260.902 222.193 253.707C216.341 239.973 164.648 208.28 164.648 208.28C168.483 202.797 176.787 180.674 177.78 174.558L106.786 183.009C106.131 198.328 107.41 209.833 111.361 218.823C116.717 231.014 120.742 238.98 136.98 247.548C150.64 254.753 179.819 264.377 183.717 266.332C187.616 268.286 191.746 268.254 192.613 275.945C193.479 283.636 192.613 287.038 199.501 297.296C208.375 310.47 224.676 327.416 229.61 341.171C230.12 344.281 229.969 347.463 229.166 350.51C226.049 362.131 236.318 363.187 242.266 370.752C245.499 374.872 247.474 379.203 252.112 382.066C256.354 384.588 261.102 386.139 266.015 386.609C270.431 387.053 277.308 386.134 280.7 382.859C285.19 378.591 277.752 374.048 274.329 371.09Z" fill="#FFA8A7"/>
<path d="M280.668 382.933C285.158 378.591 278.714 374.281 275.28 371.312C273.452 369.748 270.727 367.889 269.079 366.188C269.079 366.188 272.364 369.928 267.188 371.312C257.584 373.879 248.414 364.973 244.231 359.617C242.03 356.692 239.511 354.02 236.72 351.651C233.476 348.968 230.761 346.982 229.937 343.4H229.842C230.004 345.802 229.772 348.215 229.155 350.542C226.039 362.163 236.308 363.219 242.255 370.784C245.488 374.904 247.464 379.235 252.102 382.098C256.344 384.62 261.092 386.171 266.004 386.641C270.431 387.127 277.308 386.208 280.668 382.933Z" fill="#455A64"/>
<path d="M101.863 182.629C102.92 197.145 104.346 224.19 121.513 238.748C144.998 258.652 185.682 265.762 188.165 273.696C190.648 281.629 189.739 286.859 195.845 296.209C201.688 305.167 218.168 321.384 218.168 321.384C218.168 321.384 234.776 321.31 241.484 313.059C241.484 313.059 228.627 264.325 223.873 252.714C219.119 241.104 165.219 208.343 165.219 208.343C165.219 208.343 178.498 193.785 177.696 174.695C177.696 174.674 100.796 168.156 101.863 182.629Z" fill="#714AE1"/>
<path opacity="0.4" d="M101.863 182.629C102.92 197.145 104.346 224.19 121.513 238.748C144.998 258.652 185.682 265.762 188.165 273.696C190.648 281.629 189.739 286.859 195.845 296.209C201.688 305.167 218.168 321.384 218.168 321.384C218.168 321.384 234.776 321.31 241.484 313.059C241.484 313.059 228.627 264.325 223.873 252.714C219.119 241.104 165.219 208.343 165.219 208.343C165.219 208.343 178.498 193.785 177.696 174.695C177.696 174.674 100.796 168.156 101.863 182.629Z" fill="black"/>
<path d="M105.434 24.1401C95.2921 37.1451 96.507 55.5485 96.507 55.5485C93.8053 55.4905 91.1879 56.4912 89.214 58.3369C87.24 60.1825 86.066 62.7268 85.9425 65.4263C84.886 75.4732 94.3096 78.1038 94.3096 78.1038C94.3096 78.1038 87.9075 83.6713 89.6084 91.8377C92.0065 103.279 103.701 104.135 113.537 101.62C126.975 98.187 132.786 88.943 132.786 88.943L105.434 24.1401Z" fill="#263238"/>
<path d="M155.474 97.7845C161.317 94.9902 163.788 87.9886 160.994 82.146C158.199 76.3034 151.198 73.8322 145.355 76.6265C139.513 79.4208 137.041 86.4224 139.836 92.265C142.63 98.1077 149.632 100.579 155.474 97.7845Z" fill="#263238"/>
<path d="M150.724 91.5415C165.008 91.5415 168.547 93.5488 175.255 100.69C181.964 107.832 193.426 133.345 196.31 144.945C199.194 156.545 198.698 161.849 177.484 173.554C156.271 185.26 150.724 91.5415 150.724 91.5415Z" fill="#F28F8F"/>
<path d="M154.401 16.0264C128.866 2.85247 108.223 14.6214 101.631 31.0387C97.236 41.9835 99.9405 54.9145 105.434 64.074C108.318 68.8808 109.406 70.9304 111.773 73.73C114.139 76.5296 116.495 78.896 118.27 79.382L118.883 71.7121C122.624 74.194 126.936 75.6811 131.412 76.033L138.353 76.6669C154.834 78.1776 163.56 63.345 172.572 45.0472C181.361 27.1087 166.318 22.1539 154.401 16.0264Z" fill="#263238"/>
<path d="M160.422 28.4189C164.183 31.0706 168.261 41.3711 166.127 62.1092C164.321 79.6886 158.267 83.5869 155.299 84.6117C152.33 85.6365 146.847 84.4427 141.565 83.1115L140.878 91.7005C161.817 108.604 126.088 119.042 117.097 93.5704L119.21 68.2895C119.21 68.2895 115.808 71.1102 110.759 65.9864C106.638 61.7606 105.666 55.1155 109.396 51.8933C113.125 48.6712 119.432 50.1291 121.482 55.3163C121.482 55.3163 129.68 54.6612 141.554 49.2945C153.429 43.9277 157.739 36.0254 160.422 28.4189Z" fill="#FFA8A7"/>
<path d="M163.18 57.0699C163.122 57.5131 162.934 57.9291 162.64 58.2655C162.345 58.6018 161.958 58.8434 161.527 58.9598C161.095 59.0761 160.639 59.062 160.215 58.9191C159.792 58.7763 159.42 58.5111 159.147 58.1572C158.875 57.8032 158.713 57.3763 158.682 56.9305C158.652 56.4846 158.755 56.0398 158.977 55.6521C159.199 55.2644 159.532 54.9514 159.932 54.7524C160.332 54.5535 160.782 54.4777 161.225 54.5344C161.52 54.5722 161.805 54.6678 162.063 54.8158C162.321 54.9638 162.547 55.1612 162.729 55.3967C162.91 55.6322 163.043 55.9012 163.121 56.1884C163.198 56.4755 163.218 56.7751 163.18 57.0699Z" fill="#263238"/>
<path d="M146.023 56.2777C145.965 56.7229 145.777 57.141 145.481 57.4792C145.186 57.8173 144.797 58.0603 144.363 58.1774C143.93 58.2946 143.471 58.2807 143.046 58.1374C142.62 57.9941 142.247 57.728 141.973 57.3725C141.698 57.0171 141.535 56.5883 141.505 56.1404C141.474 55.6924 141.577 55.2454 141.8 54.8558C142.023 54.4662 142.357 54.1515 142.758 53.9514C143.16 53.7513 143.613 53.6748 144.058 53.7316C144.354 53.7694 144.64 53.8653 144.9 54.0138C145.159 54.1623 145.386 54.3605 145.569 54.597C145.751 54.8335 145.885 55.1037 145.963 55.3921C146.041 55.6805 146.062 55.9814 146.023 56.2777Z" fill="#263238"/>
<path d="M144.628 70.7188L149.562 72.9584C149.429 73.2908 149.231 73.5929 148.979 73.8469C148.727 74.1008 148.426 74.3013 148.095 74.4364C147.763 74.5715 147.408 74.6384 147.05 74.6332C146.693 74.6279 146.34 74.5506 146.012 74.4058C145.35 74.089 144.836 73.5282 144.578 72.8409C144.32 72.1536 144.338 71.3931 144.628 70.7188Z" fill="#F28F8F"/>
<path d="M164.701 51.1532L160.602 47.519C160.825 47.2408 161.101 47.0108 161.416 46.8433C161.73 46.6757 162.075 46.5739 162.43 46.5443C162.785 46.5146 163.142 46.5576 163.48 46.6707C163.818 46.7838 164.129 46.9646 164.395 47.2021C164.943 47.6954 165.281 48.3808 165.338 49.1164C165.395 49.8519 165.167 50.5812 164.701 51.1532Z" fill="#263238"/>
<path d="M153.408 52.6641L151.569 67.0318L158.817 65.7007L153.408 52.6641Z" fill="#F28F8F"/>
<path d="M141.565 83.1109C135.955 81.9171 124.577 77.6491 123.119 72.895C123.664 75.2841 124.929 77.4485 126.743 79.0964C129.986 82.3608 141.28 86.6395 141.28 86.6395L141.565 83.1109Z" fill="#F28F8F"/>
<path d="M117.14 92.9677C119.432 100.69 132.838 109.786 143.773 105.275C151.495 102.106 140.878 91.7 140.878 91.7L150.693 91.5415C150.693 91.5415 163.877 102.106 169.55 108.836C174.294 114.498 185.756 128.137 171.938 141.385L174.78 164.68L187.457 180.104C187.457 180.104 178.086 198.518 157.063 202.036C144.71 204.183 132.028 203.434 120.013 199.849C120.013 199.849 119.432 212.854 105.888 220.059C101.662 217.545 90.5064 185.27 94.3624 149.551C96.4119 130.535 99.0636 96.1371 99.0636 96.1371L117.14 92.9677Z" fill="#FAFAFA"/>
<path d="M187.753 142.674C189.538 145.399 191.123 155.351 181.214 165.504C171.304 175.656 158.605 184.013 140.012 184.921C121.418 185.83 102.877 177.716 104.779 165.176C106.681 152.636 123.024 149.625 130.377 146.815C137.73 144.005 148.337 129.996 162.324 130.535C176.312 131.074 187.753 142.674 187.753 142.674Z" fill="#714AE1"/>
<path opacity="0.7" d="M187.753 142.674C189.538 145.399 191.123 155.351 181.214 165.504C171.304 175.656 158.605 184.013 140.012 184.921C121.418 185.83 102.877 177.716 104.779 165.176C106.681 152.636 123.024 149.625 130.377 146.815C137.73 144.005 148.337 129.996 162.324 130.535C176.312 131.074 187.753 142.674 187.753 142.674Z" fill="white"/>
<path opacity="0.05" d="M187.753 142.674C184.332 139.428 180.469 136.682 176.28 134.518C167.701 135.944 159.894 138.152 162.155 141.385C166.793 148.009 175.604 147.164 179.28 147.935C182.957 148.706 180.58 154.897 178.942 159.979C177.305 165.06 167.437 168.43 166.708 167.448C165.979 166.465 167.163 163.053 167.976 159.979C168.104 159.596 168.146 159.191 168.099 158.79C168.053 158.39 167.918 158.005 167.705 157.663C167.492 157.321 167.206 157.03 166.868 156.811C166.529 156.592 166.146 156.451 165.747 156.397C165.747 156.397 158.046 168.314 151.052 169.413C144.058 170.511 124.038 165.683 120.013 163.074C115.988 160.465 116.706 154.464 120.013 150.397C113.115 153.059 105.994 157.168 104.779 165.187C102.877 177.727 121.376 185.841 140.012 184.932C158.648 184.023 171.357 175.646 181.214 165.514C191.07 155.383 189.538 145.4 187.753 142.674Z" fill="black"/>
<path d="M178.646 117.361C178.648 118.519 178.421 119.665 177.978 120.735C177.536 121.804 176.887 122.776 176.069 123.595C175.25 124.413 174.278 125.062 173.209 125.504C172.139 125.947 170.993 126.174 169.835 126.172C166.317 126.172 163.666 123.003 163.19 119.717C162.95 117.786 163.209 115.826 163.94 114.023C164.511 112.241 165.723 110.735 167.342 109.797C168.268 109.189 169.333 108.826 170.438 108.741C171.805 108.738 173.148 109.103 174.325 109.797C175.635 110.58 176.721 111.688 177.478 113.013C178.235 114.338 178.637 115.835 178.646 117.361Z" fill="#455A64"/>
<path d="M195.476 128.338C195.476 133.62 194.24 137.18 190.257 139.959C187.267 142.072 183.284 145.125 177.41 145.695C169.434 146.456 162.356 143.667 159.007 137.244C157.879 135.066 157.611 132.543 158.257 130.176C158.838 128.063 160.222 126.405 161.31 124.588C162.398 122.77 162.873 120.668 163.867 118.777C164.794 117.071 166.017 115.544 167.48 114.266C168.829 112.94 170.436 111.904 172.202 111.223C173.977 110.636 175.837 110.351 177.706 110.378C180.066 110.34 182.41 110.78 184.595 111.672C186.781 112.564 188.763 113.888 190.423 115.566C192.084 117.244 193.387 119.241 194.255 121.436C195.123 123.63 195.539 125.978 195.476 128.338Z" fill="#FFA8A7"/>
<path d="M179.249 130.556C179.249 130.863 178.815 129.975 177.738 129.278C177.074 128.852 176.282 128.669 175.498 128.761C175.312 128.783 175.128 128.822 174.949 128.877C174.653 128.961 174.685 128.56 175.245 128.179C175.61 127.931 176.033 127.781 176.473 127.744C176.913 127.707 177.355 127.784 177.756 127.968C178.158 128.152 178.505 128.436 178.765 128.793C179.024 129.15 179.187 129.569 179.238 130.007C179.257 130.19 179.261 130.373 179.249 130.556Z" fill="#B16668"/>
<path d="M167.48 125.179C167.427 125.454 167.163 124.619 166.275 123.88C165.73 123.425 165.041 123.178 164.331 123.183C164.166 123.172 164 123.172 163.835 123.183C163.56 123.183 163.634 122.876 164.162 122.602C164.488 122.431 164.851 122.344 165.219 122.348C165.527 122.331 165.835 122.38 166.124 122.49C166.412 122.6 166.674 122.77 166.892 122.988C167.11 123.207 167.28 123.468 167.391 123.757C167.501 124.045 167.549 124.353 167.532 124.662C167.539 124.836 167.521 125.01 167.48 125.179Z" fill="#B16668"/>
<path d="M168.483 129.49C167.533 129.162 166.117 129.997 166.962 130.641C167.807 131.286 170.195 132.553 170.279 131.962C170.194 131.438 169.987 130.941 169.676 130.512C169.364 130.083 168.955 129.732 168.483 129.49Z" fill="#F28F8F"/>
<path d="M165.979 134.793L169.814 135.628C169.682 136.113 169.368 136.53 168.937 136.791C168.507 137.052 167.993 137.138 167.501 137.031C167.009 136.923 166.577 136.632 166.294 136.215C166.011 135.799 165.898 135.29 165.979 134.793Z" fill="#B16668"/>
<path d="M198.117 129.986C198.119 132.592 197.398 135.148 196.035 137.369C194.671 139.591 192.719 141.39 190.394 142.568C189.045 143.191 187.626 143.652 186.168 143.942H186.105C185.664 144.013 185.22 144.058 184.774 144.079H184.256C184.048 144.092 183.84 144.092 183.633 144.079C184.808 142.669 185.582 140.969 185.872 139.156C186.644 140.413 189.126 139.737 190.098 138.733C190.668 138.221 191.086 137.561 191.304 136.827C191.522 136.092 191.532 135.311 191.334 134.571C191.173 134.223 190.939 133.914 190.648 133.664C190.358 133.413 190.018 133.227 189.65 133.118C189.282 133.01 188.896 132.98 188.516 133.032C188.136 133.084 187.771 133.216 187.446 133.42C186.844 133.884 186.39 134.708 185.682 134.793C185.485 134.808 185.287 134.768 185.112 134.677C184.892 134.561 184.703 134.395 184.558 134.194C184.413 133.992 184.317 133.76 184.277 133.515C184.238 132.818 184.419 132.127 184.795 131.539C185.159 130.95 185.44 130.314 185.629 129.648C186.031 127.672 184.298 125.633 184.996 123.742C185.27 122.992 185.904 122.168 185.45 121.513C185.214 121.238 184.888 121.055 184.531 120.996C181.625 120.15 178.562 119.939 175.699 118.883C175.622 118.864 175.547 118.836 175.477 118.798C172.688 117.795 170.015 115.904 169.138 113.083C168.955 112.39 168.828 111.683 168.758 110.97C168.654 110.134 168.672 109.287 168.811 108.456C169.017 107.121 169.633 105.884 170.575 104.916C170.913 104.599 171.388 104.293 171.811 104.473C172.234 104.652 172.371 105.297 172.498 105.804C172.708 106.681 173.254 107.439 174.019 107.917C174.156 107.431 174.209 106.934 174.325 106.448C174.403 105.95 174.603 105.478 174.906 105.075C175.059 104.874 175.261 104.714 175.491 104.611C175.722 104.507 175.975 104.464 176.227 104.483C176.829 104.568 176.914 105.001 177.125 105.445C177.302 105.761 177.496 106.068 177.706 106.364C178.225 107.218 178.916 107.956 179.734 108.529C182.154 110.156 189.602 109.449 193.944 114.477C194.76 115.504 195.329 116.706 195.605 117.989C195.882 119.271 195.859 120.6 195.539 121.873L195.74 122.073C197.307 124.413 198.135 127.17 198.117 129.986Z" fill="#455A64"/>
<path opacity="0.5" d="M181.361 134.793C181.506 135.476 181.434 136.188 181.158 136.829C180.881 137.471 180.412 138.011 179.816 138.375C179.22 138.739 178.525 138.91 177.828 138.863C177.131 138.817 176.466 138.555 175.923 138.115C175.381 137.675 174.988 137.077 174.799 136.405C174.61 135.732 174.634 135.018 174.868 134.359C175.101 133.701 175.533 133.131 176.104 132.728C176.675 132.325 177.356 132.109 178.055 132.109C178.847 132.035 179.638 132.275 180.256 132.776C180.874 133.278 181.271 134.002 181.361 134.793Z" fill="#F28F8F"/>
<path opacity="0.5" d="M164.184 128.011C163.62 128.543 162.891 128.865 162.119 128.924C161.346 128.983 160.577 128.775 159.94 128.334C159.302 127.894 158.836 127.248 158.618 126.504C158.4 125.761 158.444 124.965 158.743 124.25C159.577 123.035 161.479 122.887 162.969 123.922C163.667 124.309 164.185 124.953 164.412 125.718C164.64 126.483 164.557 127.306 164.184 128.011Z" fill="#F28F8F"/>
<path d="M99.0638 96.1162C90.665 97.3734 85.6152 102.656 83.5974 118.914C82.0338 131.529 82.7945 168.251 82.636 174.252C82.467 180.728 85.9004 185.799 94.3626 187.51C102.825 189.221 129.226 191.599 151.084 188.355C160.718 186.918 172.096 182.418 176.914 177.379C179.999 172.92 181.214 165.504 181.214 165.504C179.097 167.371 176.627 168.794 173.95 169.691C171.274 170.587 168.445 170.938 165.631 170.723C165.202 170.692 164.789 170.55 164.431 170.311C164.074 170.072 163.785 169.744 163.592 169.36C163.343 168.537 163.414 167.65 163.793 166.877C164.849 163.993 166.909 161.247 166.603 158.046C166.595 157.724 166.514 157.408 166.366 157.122C166.218 156.837 166.006 156.589 165.747 156.397C165.464 156.262 165.152 156.199 164.839 156.214C164.525 156.229 164.22 156.321 163.951 156.482C162.05 157.475 161.3 159.926 159.725 161.278C157.715 163.101 156.02 165.242 154.707 167.617C153.894 169.012 153.651 170.67 152.235 171.632C150.819 172.593 148.823 172.688 147.154 172.804C139.019 173.322 108.17 166.603 108.17 166.603L109.396 128.063C109.396 128.063 115.523 101.282 99.0638 96.1162Z" fill="#FFA8A7"/>
<path d="M193.204 378.887C192.79 377.137 192.162 375.444 191.334 373.847C189.338 369.97 186.411 367.403 183.781 367.604C183.239 367.644 182.715 367.811 182.249 368.09C181.456 368.555 173.882 372.928 173.438 373.171C172.536 373.721 171.836 374.548 171.441 375.527C171.272 375.886 171.093 376.224 170.913 376.584L170.374 376.51C151.981 373.34 128.486 363.769 108.561 352.264C86.0363 338.987 65.1815 323.063 46.4417 304.829C42.2159 300.709 38.8987 294.265 36.7118 287.303C36.0684 285.151 35.0685 283.123 33.7537 281.302C31.1971 277.847 28.2496 276.749 26.1367 278.038C25.3021 278.534 18.9528 282.126 17.2519 283.172C16.3079 283.791 15.5949 284.705 15.2235 285.771C13.8818 289.078 14.3467 294.064 16.1321 298.374C16.1297 298.399 16.1297 298.424 16.1321 298.448L16.6814 299.653C17.1591 300.635 17.7249 301.572 18.3718 302.452C18.7519 302.971 19.1685 303.461 19.6184 303.921C43.3146 330.638 73.0432 354.895 99.6447 370.255C126.246 385.616 156.038 395.705 179.756 396.329C179.998 396.352 180.242 396.352 180.485 396.329C180.989 396.298 181.481 396.154 181.921 395.906C182.048 395.832 190.373 391.025 190.764 390.793C190.904 390.719 191.038 390.634 191.165 390.539C191.377 390.404 191.569 390.241 191.736 390.053C193.711 388.078 194.366 383.778 193.204 378.887Z" fill="#455A64"/>
<path d="M184.319 384.021C183.904 382.271 183.276 380.579 182.45 378.982C180.442 375.105 177.527 372.527 174.896 372.738C174.118 372.837 173.383 373.15 172.773 373.642C172.163 374.135 171.702 374.788 171.441 375.527C169.328 380.176 165.715 382.341 161.49 381.623C143.097 378.454 119.591 368.871 99.6764 357.377C77.1526 344.094 56.295 328.17 37.5464 309.943C33.3206 305.822 30.0033 299.431 27.827 292.405C27.1758 290.26 26.1764 288.236 24.8689 286.415C22.3123 282.961 19.3648 281.862 17.2519 283.151C16.3079 283.77 15.5949 284.684 15.2235 285.75C13.8818 289.056 14.3467 294.043 16.1321 298.353C16.1297 298.378 16.1297 298.403 16.1321 298.427L16.6814 299.632C17.1591 300.614 17.7249 301.551 18.3718 302.431C18.7519 302.95 19.1685 303.44 19.6184 303.9C43.3146 330.617 73.0432 354.873 99.6447 370.234C126.246 385.595 156.038 395.684 179.756 396.308C179.998 396.33 180.242 396.33 180.485 396.308C181.134 396.261 181.757 396.03 182.281 395.642C182.493 395.517 182.683 395.357 182.84 395.167C184.816 393.181 185.482 388.955 184.319 384.021Z" fill="#37474F"/>
<path d="M193.204 378.886C192.791 377.139 192.163 375.45 191.334 373.857C189.338 369.98 186.411 367.403 183.781 367.603C183.239 367.644 182.715 367.81 182.249 368.089C181.446 368.554 173.882 372.928 173.438 373.171C173.895 372.9 174.408 372.737 174.938 372.695C177.558 372.484 180.485 375.072 182.481 378.939C183.314 380.535 183.945 382.227 184.362 383.978C185.513 388.87 184.858 393.169 182.914 395.145C182.754 395.335 182.565 395.498 182.354 395.631L182.228 395.726C183.569 394.944 190.436 390.972 190.838 390.761C190.978 390.683 191.112 390.594 191.239 390.497C191.453 390.365 191.646 390.201 191.81 390.011C193.701 388.077 194.366 383.778 193.204 378.886Z" fill="#263238"/>
<path d="M74.7231 204.582C70.3388 148.727 54.0589 118.048 49.0724 79.7409C49.0724 79.5084 49.009 79.2655 48.9879 79.033C48.2589 73.7508 48.0371 68.796 44.3501 66.6725C43.9832 66.3764 43.5432 66.1848 43.0765 66.1178C42.6098 66.0509 42.1337 66.1112 41.6984 66.2922L32.8347 71.4054C33.2675 71.2296 33.7392 71.1721 34.2016 71.2389C34.6639 71.3058 35.1001 71.4945 35.4653 71.7858C39.1523 73.8987 39.3742 78.9168 40.1031 84.1568C40.1031 84.3998 40.1559 84.6322 40.1876 84.8752C45.1635 123.193 61.4435 153.862 65.8383 209.716C70.2332 265.571 61.5491 293.673 48.7343 320.359L57.5346 315.277C70.3388 288.591 79.0968 260.447 74.7231 204.582Z" fill="#263238"/>
<path d="M65.8383 209.716C61.4434 153.862 45.1635 123.193 40.1876 84.8753C40.1876 84.6323 40.1242 84.3999 40.103 84.1569C39.3741 78.8746 39.1522 73.9199 35.4652 71.7858C35.1 71.4946 34.6638 71.3058 34.2015 71.239C33.7392 71.1721 33.2674 71.2296 32.8346 71.4055C31.419 72.219 31.1971 75.3038 31.7782 79.3712C31.8521 80.005 31.9261 80.6495 32.0212 81.2939C37.0499 119.611 53.3298 151.728 57.7564 207.593C62.1829 263.458 53.3932 286.14 40.5679 312.826C43.0822 315.235 45.8502 317.76 48.7871 320.359C61.5491 293.673 70.212 265.582 65.8383 209.716Z" fill="#37474F"/>
<path d="M137.519 322.525L63.0386 279.516C63.8098 275.84 64.4542 272.068 64.993 268.265L135.934 309.224C137.054 309.826 138.047 322.884 137.519 322.525Z" fill="#37474F"/>
<path d="M144.787 304.1L73.8355 263.131L64.9824 268.265L135.902 309.224L144.787 304.1Z" fill="#263238"/>
<path d="M150.724 379.203C137.91 337.727 133.43 306.91 133.546 250.665C136.092 251.552 138.765 252.513 141.523 253.528C141.406 309.773 145.072 336.987 159.187 381.189C156.362 380.633 153.542 379.971 150.724 379.203Z" fill="#37474F"/>
<path d="M159.176 381.19C145.062 336.988 141.396 309.773 141.512 253.528L150.397 248.394C150.281 304.639 153.957 331.853 168.071 376.055L159.176 381.19Z" fill="#263238"/>
<path d="M65.7748 261.705C65.5952 263.543 65.3099 265.825 64.9824 268.265L133.493 250.665L122.929 247.041L65.7748 261.705Z" fill="#37474F"/>
<path d="M135.902 309.224L97.3628 259.951L101.515 258.884L135.226 301.998L135.902 309.224Z" fill="#37474F"/>
<path d="M135.237 301.987L101.515 258.884L112.248 256.126L134.106 284.059C134.353 289.848 134.73 295.824 135.237 301.987Z" fill="#263238"/>
<path d="M118.164 245.414L91.3728 252.281L93.2322 254.658L122.929 247.041L118.164 245.414Z" fill="#263238"/>
<path d="M91.3728 252.281L74.6386 256.581L65.7749 261.705L93.2321 254.658L91.3728 252.281Z" fill="#263238"/>
<path opacity="0.15" d="M91.3728 252.281L74.6386 256.581L65.7749 261.705L93.2321 254.658L91.3728 252.281Z" fill="black"/>
<path d="M106.248 248.446L97.3734 253.58L78.0403 228.859C84.5371 232.403 91.2682 235.498 98.1869 238.124L106.248 248.446Z" fill="#263238"/>
<path opacity="0.15" d="M106.248 248.446L97.3734 253.58L78.0403 228.859C84.5371 232.403 91.2682 235.498 98.1869 238.124L106.248 248.446Z" fill="black"/>
<path d="M97.3733 253.602L93.232 254.658L66.5354 220.514C69.9632 223.823 73.8354 226.639 78.0402 228.881L97.3733 253.602Z" fill="#37474F"/>
<path d="M163.772 240.47C138.258 225.743 95.1548 222.965 73.8884 195.624L65.0037 200.758C65.7115 207.72 66.2291 214.354 66.5355 220.566C80.1532 234.49 117.678 244.759 140.836 253.316C144.195 254.563 147.703 257.775 150.344 262.613C151.918 265.519 154.052 267.737 156.334 268.381C156.824 268.534 157.341 268.582 157.85 268.522C158.36 268.462 158.851 268.295 159.292 268.033C160.644 267.219 167.226 263.437 168.061 262.972C169.476 262.191 170.512 260.395 170.85 257.859C171.716 251.267 168.219 243.037 163.772 240.47Z" fill="#455A64"/>
<path d="M154.887 245.604C129.363 230.877 86.2173 228.099 65.0037 200.705C65.7115 207.667 66.2291 214.302 66.5355 220.514C80.1532 234.438 117.678 244.706 140.836 253.264C144.195 254.51 147.703 257.722 150.344 262.56C151.918 265.466 154.052 267.684 156.334 268.329C159.144 269.121 161.416 266.955 161.965 262.941C162.831 256.401 159.324 248.172 154.887 245.604Z" fill="#37474F"/>
</svg>
