<svg width="60" height="60" viewBox="0 0 60 60" fill="none" xmlns="http://www.w3.org/2000/svg">
<path d="M13.3335 31.6666V18.3333H8.3335C7.00741 18.3333 5.73564 18.8601 4.79796 19.7978C3.86028 20.7355 3.3335 22.0072 3.3335 23.3333V53.3333C3.33598 53.6428 3.42461 53.9456 3.58946 54.2076C3.75431 54.4696 3.98886 54.6805 4.26683 54.8166C4.53463 54.9384 4.82989 54.9872 5.12262 54.9579C5.41535 54.9286 5.69512 54.8224 5.9335 54.65L14.5168 48.3333H36.9168C37.5485 48.352 38.1773 48.2408 38.7643 48.0066C39.3512 47.7724 39.8838 47.4201 40.3291 46.9717C40.7744 46.5233 41.1229 45.9882 41.353 45.3996C41.5831 44.8111 41.6899 44.1815 41.6668 43.55V41.6666H23.3335C20.6813 41.6666 18.1378 40.6131 16.2624 38.7377C14.3871 36.8624 13.3335 34.3188 13.3335 31.6666Z" fill="#9A95AE"/>
<path d="M51.6668 6.66669H23.3335C22.0074 6.66669 20.7356 7.19347 19.798 8.13115C18.8603 9.06883 18.3335 10.3406 18.3335 11.6667V31.6667C18.3335 32.9928 18.8603 34.2645 19.798 35.2022C20.7356 36.1399 22.0074 36.6667 23.3335 36.6667H45.9168L53.8835 42.85C54.1203 43.0251 54.3993 43.1343 54.6921 43.1665C54.9849 43.1987 55.2809 43.1528 55.5502 43.0333C55.8338 42.8983 56.0735 42.6858 56.2415 42.4204C56.4096 42.155 56.4993 41.8475 56.5002 41.5334V11.6667C56.5009 10.369 55.997 9.12183 55.0951 8.1888C54.1932 7.25576 52.9638 6.70994 51.6668 6.66669Z" fill="#9A95AE"/>
</svg>
