<svg width="69" height="60" viewBox="0 0 69 60" fill="none" xmlns="http://www.w3.org/2000/svg">
<path d="M69 19.3796C69 41.2597 37.029 58.9702 35.6675 59.7016C35.3086 59.8975 34.9075 60 34.5 60C34.0925 60 33.6914 59.8975 33.3325 59.7016C31.971 58.9702 0 41.2597 0 19.3796C0.00570709 14.2416 2.01967 9.31566 5.60004 5.68254C9.18041 2.04942 14.0348 0.00579117 19.0982 0C25.4592 0 31.0284 2.77565 34.5 7.46739C37.9716 2.77565 43.5408 0 49.9018 0C54.9652 0.00579117 59.8196 2.04942 63.4 5.68254C66.9803 9.31566 68.9943 14.2416 69 19.3796Z" fill="white"/>
<path d="M35.5801 9.99991C37.4523 9.99991 39.2479 10.7374 40.5718 12.0502C41.8957 13.3629 42.6394 15.1434 42.6394 16.9999C42.6394 18.8564 41.8957 20.6369 40.5718 21.9497C39.2479 23.2624 37.4523 23.9999 35.5801 23.9999C33.7079 23.9999 31.9123 23.2624 30.5884 21.9497C29.2645 20.6369 28.5208 18.8564 28.5208 16.9999C28.5208 15.1434 29.2645 13.3629 30.5884 12.0502C31.9123 10.7374 33.7079 9.99991 35.5801 9.99991ZM52.3064 47.7777L49.6987 34.6399C48.8751 32.3299 48.1457 30.3232 44.9925 28.6666C41.7452 27.0332 39.3921 26.3332 35.5801 26.3332C31.7445 26.3332 29.415 27.0332 26.1677 28.6666C23.0145 30.3232 22.2851 32.3299 21.4615 34.6399L17.8064 48.8888C18.9193 49.9999 22.3086 53.0266 26.4265 54.7766V49.6666C26.4265 47.4499 28.4502 45.8866 32.4975 44.9299C32.874 44.8366 33.227 44.7899 33.5094 44.7432C32.2387 42.8299 31.721 41.1266 31.6739 40.9866L35.8389 39.5866C35.8625 39.6332 37.0625 43.2966 39.9098 45.1399C40.404 45.3032 40.8981 45.4899 41.3687 45.6999C43.1806 46.4932 44.2631 47.5199 44.616 48.7566C41.4629 49.9933 38.4509 50.6232 35.5801 50.6232L33.227 50.3899V56.5266L35.5801 56.6666C38.8038 56.6666 41.3201 56.0149 44.5161 54.4444C47.3456 52.2221 49.9533 50.111 52.3064 47.7777ZM43.816 44.9999C42.8798 44.9999 41.9821 44.6312 41.3201 43.9748C40.6582 43.3184 40.2863 42.4282 40.2863 41.4999C40.2863 40.5717 40.6582 39.6814 41.3201 39.025C41.9821 38.3687 42.8798 37.9999 43.816 37.9999C44.7521 37.9999 45.6499 38.3687 46.3118 39.025C46.9737 39.6814 47.3456 40.5717 47.3456 41.4999C47.3456 42.4282 46.9737 43.3184 46.3118 43.9748C45.6499 44.6312 44.7521 44.9999 43.816 44.9999Z" fill="#714AE1"/>
</svg>
