<svg width="57" height="50" viewBox="0 0 57 50" fill="none" xmlns="http://www.w3.org/2000/svg">
<path d="M57 16.1496C57 34.3831 30.5892 49.1418 29.4644 49.7513C29.168 49.9146 28.8366 50 28.5 50C28.1634 50 27.832 49.9146 27.5356 49.7513C26.4108 49.1418 0 34.3831 0 16.1496C0.00471456 11.868 1.66842 7.76305 4.62612 4.73545C7.58382 1.70785 11.594 0.00482597 15.7768 0C21.0315 0 25.6322 2.31305 28.5 6.22282C31.3678 2.31305 35.9685 0 41.2232 0C45.406 0.00482597 49.4162 1.70785 52.3739 4.73545C55.3316 7.76305 56.9953 11.868 57 16.1496Z" fill="#714AE1"/>
<path d="M29.3923 8.33326C30.9389 8.33326 32.4222 8.94784 33.5158 10.0418C34.6095 11.1358 35.2239 12.6195 35.2239 14.1666C35.2239 15.7137 34.6095 17.1974 33.5158 18.2914C32.4222 19.3853 30.9389 19.9999 29.3923 19.9999C27.8456 19.9999 26.3623 19.3853 25.2687 18.2914C24.1751 17.1974 23.5607 15.7137 23.5607 14.1666C23.5607 12.6195 24.1751 11.1358 25.2687 10.0418C26.3623 8.94784 27.8456 8.33326 29.3923 8.33326ZM43.2096 39.8147L41.0555 28.8666C40.3751 26.9416 39.7725 25.2694 37.1677 23.8888C34.4852 22.5277 32.5413 21.9444 29.3923 21.9444C26.2238 21.9444 24.2993 22.5277 21.6168 23.8888C19.012 25.2694 18.4094 26.9416 17.729 28.8666L14.7096 40.7407C15.629 41.6666 18.4288 44.1888 21.8306 45.6472V41.3888C21.8306 39.5416 23.5023 38.2388 26.8458 37.4416C27.1568 37.3638 27.4484 37.3249 27.6817 37.286C26.632 35.6916 26.2043 34.2721 26.1654 34.1555L29.6061 32.9888C29.6255 33.0277 30.6169 36.0805 32.969 37.6166C33.3772 37.7527 33.7854 37.9083 34.1742 38.0833C35.671 38.7444 36.5651 39.5999 36.8567 40.6305C34.2519 41.661 31.7638 42.186 29.3923 42.186L27.4484 41.9916V47.1055L29.3923 47.2221C32.0554 47.2221 34.134 46.6791 36.7741 45.3703C39.1116 43.5184 41.2658 41.7592 43.2096 39.8147ZM36.1958 37.4999C35.4225 37.4999 34.6808 37.1926 34.134 36.6457C33.5872 36.0987 33.28 35.3568 33.28 34.5833C33.28 33.8097 33.5872 33.0678 34.134 32.5209C34.6808 31.9739 35.4225 31.6666 36.1958 31.6666C36.9691 31.6666 37.7108 31.9739 38.2576 32.5209C38.8044 33.0678 39.1116 33.8097 39.1116 34.5833C39.1116 35.3568 38.8044 36.0987 38.2576 36.6457C37.7108 37.1926 36.9691 37.4999 36.1958 37.4999Z" fill="white"/>
</svg>
