<svg width="198" height="60" viewBox="0 0 198 60" fill="none" xmlns="http://www.w3.org/2000/svg">
<path d="M90.464 41.336C89.1387 41.336 87.9067 41.0933 86.768 40.608C85.648 40.1227 84.6773 39.4507 83.856 38.592C83.0533 37.7147 82.4653 36.6973 82.092 35.54L85.256 34.168C85.76 35.3627 86.488 36.3053 87.44 36.996C88.392 37.668 89.4653 38.004 90.66 38.004C91.332 38.004 91.9107 37.9013 92.396 37.696C92.9 37.472 93.2827 37.1733 93.544 36.8C93.824 36.4267 93.964 35.9787 93.964 35.456C93.964 34.84 93.7773 34.336 93.404 33.944C93.0493 33.5333 92.508 33.216 91.78 32.992L87.776 31.704C86.152 31.2 84.9293 30.444 84.108 29.436C83.2867 28.428 82.876 27.2427 82.876 25.88C82.876 24.6853 83.1653 23.6307 83.744 22.716C84.3413 21.8013 85.1627 21.092 86.208 20.588C87.272 20.0653 88.4853 19.804 89.848 19.804C91.0987 19.804 92.2467 20.028 93.292 20.476C94.3373 20.9053 95.2333 21.512 95.98 22.296C96.7453 23.0613 97.3147 23.9667 97.688 25.012L94.552 26.412C94.1413 25.3667 93.5253 24.564 92.704 24.004C91.8827 23.4253 90.9307 23.136 89.848 23.136C89.2133 23.136 88.6533 23.248 88.168 23.472C87.6827 23.6773 87.3 23.976 87.02 24.368C86.7587 24.7413 86.628 25.1893 86.628 25.712C86.628 26.2907 86.8147 26.804 87.188 27.252C87.5613 27.6813 88.1307 28.0173 88.896 28.26L92.732 29.464C94.3933 30.0053 95.6347 30.752 96.456 31.704C97.296 32.656 97.716 33.832 97.716 35.232C97.716 36.4267 97.408 37.4813 96.792 38.396C96.176 39.3107 95.3267 40.0293 94.244 40.552C93.1613 41.0747 91.9013 41.336 90.464 41.336ZM107.781 41.168C106.064 41.168 104.729 40.7013 103.777 39.768C102.844 38.816 102.377 37.4813 102.377 35.764V29.044H99.7449V25.768H100.025C100.772 25.768 101.35 25.572 101.761 25.18C102.172 24.788 102.377 24.2187 102.377 23.472V22.296H106.045V25.768H109.545V29.044H106.045V35.568C106.045 36.072 106.129 36.5013 106.297 36.856C106.484 37.2107 106.764 37.4813 107.137 37.668C107.529 37.8547 108.024 37.948 108.621 37.948C108.752 37.948 108.901 37.9387 109.069 37.92C109.256 37.9013 109.433 37.8827 109.601 37.864V41C109.34 41.0373 109.041 41.0747 108.705 41.112C108.369 41.1493 108.061 41.168 107.781 41.168ZM117.835 41.336C116.659 41.336 115.633 41.0747 114.755 40.552C113.897 40.0293 113.234 39.3013 112.767 38.368C112.319 37.4347 112.095 36.3427 112.095 35.092V25.768H115.763V34.784C115.763 35.4187 115.885 35.9787 116.127 36.464C116.389 36.9307 116.753 37.304 117.219 37.584C117.705 37.8453 118.246 37.976 118.843 37.976C119.441 37.976 119.973 37.8453 120.439 37.584C120.906 37.304 121.27 36.9213 121.531 36.436C121.793 35.9507 121.923 35.372 121.923 34.7V25.768H125.591V41H122.119V38.004L122.427 38.536C122.073 39.4693 121.485 40.1693 120.663 40.636C119.861 41.1027 118.918 41.336 117.835 41.336ZM129.309 41V20.14H138.101C139.482 20.14 140.658 20.3827 141.629 20.868C142.618 21.3347 143.374 22.0067 143.897 22.884C144.438 23.7427 144.709 24.788 144.709 26.02C144.709 26.972 144.448 27.868 143.925 28.708C143.421 29.5293 142.609 30.2107 141.489 30.752V28.988C142.516 29.38 143.328 29.8653 143.925 30.444C144.522 31.0227 144.942 31.6667 145.185 32.376C145.428 33.0853 145.549 33.832 145.549 34.616C145.549 36.6133 144.886 38.1813 143.561 39.32C142.254 40.44 140.434 41 138.101 41H129.309ZM133.117 37.64H138.493C139.482 37.64 140.266 37.3693 140.845 36.828C141.442 36.268 141.741 35.5307 141.741 34.616C141.741 33.7013 141.442 32.964 140.845 32.404C140.266 31.844 139.482 31.564 138.493 31.564H133.117V37.64ZM133.117 28.232H138.297C139.081 28.232 139.706 28.008 140.173 27.56C140.64 27.0933 140.873 26.496 140.873 25.768C140.873 25.04 140.64 24.4613 140.173 24.032C139.706 23.6027 139.081 23.388 138.297 23.388H133.117V28.232ZM152.98 41.336C151.916 41.336 150.992 41.1587 150.208 40.804C149.424 40.4493 148.818 39.9453 148.388 39.292C147.959 38.62 147.744 37.8453 147.744 36.968C147.744 36.128 147.931 35.3813 148.304 34.728C148.678 34.056 149.256 33.496 150.04 33.048C150.824 32.6 151.814 32.2827 153.008 32.096L157.992 31.284V34.084L153.708 34.812C152.98 34.9427 152.439 35.176 152.084 35.512C151.73 35.848 151.552 36.2867 151.552 36.828C151.552 37.3507 151.748 37.7707 152.14 38.088C152.551 38.3867 153.055 38.536 153.652 38.536C154.418 38.536 155.09 38.3773 155.668 38.06C156.266 37.724 156.723 37.2667 157.04 36.688C157.376 36.1093 157.544 35.4747 157.544 34.784V30.864C157.544 30.2107 157.283 29.6693 156.76 29.24C156.256 28.792 155.584 28.568 154.744 28.568C153.96 28.568 153.26 28.7827 152.644 29.212C152.047 29.6227 151.608 30.1733 151.328 30.864L148.332 29.408C148.631 28.6053 149.098 27.9147 149.732 27.336C150.386 26.7387 151.151 26.272 152.028 25.936C152.906 25.6 153.858 25.432 154.884 25.432C156.135 25.432 157.236 25.6653 158.188 26.132C159.14 26.58 159.878 27.2147 160.4 28.036C160.942 28.8387 161.212 29.7813 161.212 30.864V41H157.74V38.396L158.524 38.34C158.132 38.9933 157.666 39.544 157.124 39.992C156.583 40.4213 155.967 40.7573 155.276 41C154.586 41.224 153.82 41.336 152.98 41.336ZM172.919 41.336C171.817 41.336 170.8 41.1213 169.867 40.692C168.952 40.244 168.224 39.6093 167.683 38.788L168.047 38.06V41H164.603V19.804H168.271V28.792L167.711 28.036C168.233 27.2147 168.943 26.58 169.839 26.132C170.735 25.6653 171.771 25.432 172.947 25.432C174.384 25.432 175.681 25.7867 176.839 26.496C177.996 27.2053 178.911 28.1573 179.583 29.352C180.273 30.5467 180.619 31.8907 180.619 33.384C180.619 34.8587 180.283 36.2027 179.611 37.416C178.939 38.6293 178.024 39.5907 176.867 40.3C175.709 40.9907 174.393 41.336 172.919 41.336ZM172.499 37.976C173.339 37.976 174.085 37.78 174.739 37.388C175.392 36.996 175.896 36.4547 176.251 35.764C176.624 35.0733 176.811 34.28 176.811 33.384C176.811 32.488 176.624 31.704 176.251 31.032C175.896 30.3413 175.392 29.8 174.739 29.408C174.085 28.9973 173.339 28.792 172.499 28.792C171.696 28.792 170.968 28.988 170.315 29.38C169.68 29.772 169.176 30.3227 168.803 31.032C168.448 31.7227 168.271 32.5067 168.271 33.384C168.271 34.28 168.448 35.0733 168.803 35.764C169.176 36.4547 169.68 36.996 170.315 37.388C170.968 37.78 171.696 37.976 172.499 37.976ZM184.99 47.188C184.579 47.188 184.178 47.1507 183.786 47.076C183.394 47.02 183.039 46.9173 182.722 46.768V43.688C182.964 43.744 183.254 43.8 183.59 43.856C183.944 43.912 184.271 43.94 184.57 43.94C185.41 43.94 186.016 43.744 186.39 43.352C186.782 42.96 187.127 42.4467 187.426 41.812L188.434 39.46L188.378 42.54L181.742 25.768H185.69L190.338 38.144H188.938L193.558 25.768H197.534L190.898 42.54C190.506 43.5293 190.03 44.3693 189.47 45.06C188.91 45.7507 188.256 46.2733 187.51 46.628C186.782 47.0013 185.942 47.188 184.99 47.188Z" fill="#714AE1"/>
<path d="M69 19.3796C69 41.2597 37.029 58.9702 35.6675 59.7016C35.3086 59.8975 34.9075 60 34.5 60C34.0925 60 33.6914 59.8975 33.3325 59.7016C31.971 58.9702 0 41.2597 0 19.3796C0.00570709 14.2416 2.01967 9.31566 5.60004 5.68254C9.18041 2.04942 14.0348 0.00579117 19.0982 0C25.4592 0 31.0284 2.77565 34.5 7.46739C37.9716 2.77565 43.5408 0 49.9018 0C54.9652 0.00579117 59.8196 2.04942 63.4 5.68254C66.9803 9.31566 68.9943 14.2416 69 19.3796Z" fill="white"/>
<path d="M35.5801 9.99991C37.4523 9.99991 39.2479 10.7374 40.5718 12.0502C41.8957 13.3629 42.6394 15.1434 42.6394 16.9999C42.6394 18.8564 41.8957 20.6369 40.5718 21.9497C39.2479 23.2624 37.4523 23.9999 35.5801 23.9999C33.7079 23.9999 31.9123 23.2624 30.5884 21.9497C29.2645 20.6369 28.5208 18.8564 28.5208 16.9999C28.5208 15.1434 29.2645 13.3629 30.5884 12.0502C31.9123 10.7374 33.7079 9.99991 35.5801 9.99991ZM52.3064 47.7777L49.6987 34.6399C48.8751 32.3299 48.1457 30.3232 44.9925 28.6666C41.7452 27.0332 39.3921 26.3332 35.5801 26.3332C31.7445 26.3332 29.415 27.0332 26.1677 28.6666C23.0145 30.3232 22.2851 32.3299 21.4615 34.6399L17.8064 48.8888C18.9193 49.9999 22.3086 53.0266 26.4265 54.7766V49.6666C26.4265 47.4499 28.4502 45.8866 32.4975 44.9299C32.874 44.8366 33.227 44.7899 33.5094 44.7432C32.2387 42.8299 31.721 41.1266 31.6739 40.9866L35.8389 39.5866C35.8625 39.6332 37.0625 43.2966 39.9098 45.1399C40.404 45.3032 40.8981 45.4899 41.3687 45.6999C43.1806 46.4932 44.2631 47.5199 44.616 48.7566C41.4629 49.9933 38.4509 50.6232 35.5801 50.6232L33.227 50.3899V56.5266L35.5801 56.6666C38.8038 56.6666 41.3201 56.0149 44.5161 54.4444C47.3456 52.2221 49.9533 50.111 52.3064 47.7777ZM43.816 44.9999C42.8798 44.9999 41.9821 44.6312 41.3201 43.9748C40.6582 43.3184 40.2863 42.4282 40.2863 41.4999C40.2863 40.5717 40.6582 39.6814 41.3201 39.025C41.9821 38.3687 42.8798 37.9999 43.816 37.9999C44.7521 37.9999 45.6499 38.3687 46.3118 39.025C46.9737 39.6814 47.3456 40.5717 47.3456 41.4999C47.3456 42.4282 46.9737 43.3184 46.3118 43.9748C45.6499 44.6312 44.7521 44.9999 43.816 44.9999Z" fill="#714AE1"/>
</svg>
