<svg width="431" height="379" viewBox="0 0 431 379" fill="none" xmlns="http://www.w3.org/2000/svg">
<path d="M431 122.395C431 260.583 231.297 372.437 222.792 377.056C220.551 378.293 218.045 378.941 215.5 378.941C212.955 378.941 210.449 378.293 208.208 377.056C199.703 372.437 0 260.583 0 122.395C0.0356487 89.9452 12.6156 58.8348 34.98 35.8891C57.3443 12.9435 87.6667 0.0365752 119.295 0C159.027 0 193.815 17.5302 215.5 47.1616C237.185 17.5302 271.973 0 311.705 0C343.333 0.0365752 373.656 12.9435 396.02 35.8891C418.384 58.8348 430.964 89.9452 431 122.395Z" fill="#714AE1"/>
<path d="M222.247 63.1563C233.941 63.1563 245.157 67.8141 253.427 76.105C261.696 84.396 266.342 95.6409 266.342 107.366C266.342 119.091 261.696 130.336 253.427 138.627C245.157 146.918 233.941 151.576 222.247 151.576C210.552 151.576 199.336 146.918 191.067 138.627C182.797 130.336 178.152 119.091 178.152 107.366C178.152 95.6409 182.797 84.396 191.067 76.105C199.336 67.8141 210.552 63.1563 222.247 63.1563ZM326.725 301.749L310.437 218.775C305.292 204.186 300.736 191.512 281.04 181.049C260.756 170.733 246.058 166.312 222.247 166.312C198.288 166.312 183.737 170.733 163.453 181.049C143.757 191.512 139.201 204.186 134.056 218.775L111.225 308.766C118.177 315.784 139.348 334.899 165.07 345.952V313.678C165.07 299.679 177.711 289.805 202.992 283.763C205.344 283.174 207.548 282.879 209.312 282.584C201.375 270.5 198.141 259.742 197.847 258.858L223.864 250.016C224.011 250.311 231.507 273.447 249.292 285.089C252.378 286.121 255.465 287.3 258.405 288.626C269.722 293.637 276.484 300.121 278.688 307.931C258.993 315.742 240.179 319.72 222.247 319.72L207.548 318.247V357.004L222.247 357.888C242.383 357.888 258.101 353.772 278.064 343.853C295.739 329.819 312.027 316.485 326.725 301.749ZM273.691 284.205C267.844 284.205 262.236 281.876 258.101 277.731C253.966 273.585 251.643 267.963 251.643 262.1C251.643 256.238 253.966 250.615 258.101 246.47C262.236 242.324 267.844 239.995 273.691 239.995C279.538 239.995 285.146 242.324 289.281 246.47C293.416 250.615 295.739 256.238 295.739 262.1C295.739 267.963 293.416 273.585 289.281 277.731C285.146 281.876 279.538 284.205 273.691 284.205Z" fill="white"/>
</svg>
