<svg width="183" height="50" viewBox="0 0 183 50" fill="none" xmlns="http://www.w3.org/2000/svg">
<path d="M75.464 36.336C74.1387 36.336 72.9067 36.0933 71.768 35.608C70.648 35.1227 69.6773 34.4507 68.856 33.592C68.0533 32.7147 67.4653 31.6973 67.092 30.54L70.256 29.168C70.76 30.3627 71.488 31.3053 72.44 31.996C73.392 32.668 74.4653 33.004 75.66 33.004C76.332 33.004 76.9107 32.9013 77.396 32.696C77.9 32.472 78.2827 32.1733 78.544 31.8C78.824 31.4267 78.964 30.9787 78.964 30.456C78.964 29.84 78.7773 29.336 78.404 28.944C78.0493 28.5333 77.508 28.216 76.78 27.992L72.776 26.704C71.152 26.2 69.9293 25.444 69.108 24.436C68.2867 23.428 67.876 22.2427 67.876 20.88C67.876 19.6853 68.1653 18.6307 68.744 17.716C69.3413 16.8013 70.1627 16.092 71.208 15.588C72.272 15.0653 73.4853 14.804 74.848 14.804C76.0987 14.804 77.2467 15.028 78.292 15.476C79.3373 15.9053 80.2333 16.512 80.98 17.296C81.7453 18.0613 82.3147 18.9667 82.688 20.012L79.552 21.412C79.1413 20.3667 78.5253 19.564 77.704 19.004C76.8827 18.4253 75.9307 18.136 74.848 18.136C74.2133 18.136 73.6533 18.248 73.168 18.472C72.6827 18.6773 72.3 18.976 72.02 19.368C71.7587 19.7413 71.628 20.1893 71.628 20.712C71.628 21.2907 71.8147 21.804 72.188 22.252C72.5613 22.6813 73.1307 23.0173 73.896 23.26L77.732 24.464C79.3933 25.0053 80.6347 25.752 81.456 26.704C82.296 27.656 82.716 28.832 82.716 30.232C82.716 31.4267 82.408 32.4813 81.792 33.396C81.176 34.3107 80.3267 35.0293 79.244 35.552C78.1613 36.0747 76.9013 36.336 75.464 36.336ZM92.7809 36.168C91.0636 36.168 89.7289 35.7013 88.7769 34.768C87.8436 33.816 87.3769 32.4813 87.3769 30.764V24.044H84.7449V20.768H85.0249C85.7716 20.768 86.3502 20.572 86.7609 20.18C87.1716 19.788 87.3769 19.2187 87.3769 18.472V17.296H91.0449V20.768H94.5449V24.044H91.0449V30.568C91.0449 31.072 91.1289 31.5013 91.2969 31.856C91.4836 32.2107 91.7636 32.4813 92.1369 32.668C92.5289 32.8547 93.0236 32.948 93.6209 32.948C93.7516 32.948 93.9009 32.9387 94.0689 32.92C94.2556 32.9013 94.4329 32.8827 94.6009 32.864V36C94.3396 36.0373 94.0409 36.0747 93.7049 36.112C93.3689 36.1493 93.0609 36.168 92.7809 36.168ZM102.835 36.336C101.659 36.336 100.633 36.0747 99.7553 35.552C98.8966 35.0293 98.234 34.3013 97.7673 33.368C97.3193 32.4347 97.0953 31.3427 97.0953 30.092V20.768H100.763V29.784C100.763 30.4187 100.885 30.9787 101.127 31.464C101.389 31.9307 101.753 32.304 102.219 32.584C102.705 32.8453 103.246 32.976 103.843 32.976C104.441 32.976 104.973 32.8453 105.439 32.584C105.906 32.304 106.27 31.9213 106.531 31.436C106.793 30.9507 106.923 30.372 106.923 29.7V20.768H110.591V36H107.119V33.004L107.427 33.536C107.073 34.4693 106.485 35.1693 105.663 35.636C104.861 36.1027 103.918 36.336 102.835 36.336ZM114.309 36V15.14H123.101C124.482 15.14 125.658 15.3827 126.629 15.868C127.618 16.3347 128.374 17.0067 128.897 17.884C129.438 18.7427 129.709 19.788 129.709 21.02C129.709 21.972 129.448 22.868 128.925 23.708C128.421 24.5293 127.609 25.2107 126.489 25.752V23.988C127.516 24.38 128.328 24.8653 128.925 25.444C129.522 26.0227 129.942 26.6667 130.185 27.376C130.428 28.0853 130.549 28.832 130.549 29.616C130.549 31.6133 129.886 33.1813 128.561 34.32C127.254 35.44 125.434 36 123.101 36H114.309ZM118.117 32.64H123.493C124.482 32.64 125.266 32.3693 125.845 31.828C126.442 31.268 126.741 30.5307 126.741 29.616C126.741 28.7013 126.442 27.964 125.845 27.404C125.266 26.844 124.482 26.564 123.493 26.564H118.117V32.64ZM118.117 23.232H123.297C124.081 23.232 124.706 23.008 125.173 22.56C125.64 22.0933 125.873 21.496 125.873 20.768C125.873 20.04 125.64 19.4613 125.173 19.032C124.706 18.6027 124.081 18.388 123.297 18.388H118.117V23.232ZM137.98 36.336C136.916 36.336 135.992 36.1587 135.208 35.804C134.424 35.4493 133.818 34.9453 133.388 34.292C132.959 33.62 132.744 32.8453 132.744 31.968C132.744 31.128 132.931 30.3813 133.304 29.728C133.678 29.056 134.256 28.496 135.04 28.048C135.824 27.6 136.814 27.2827 138.008 27.096L142.992 26.284V29.084L138.708 29.812C137.98 29.9427 137.439 30.176 137.084 30.512C136.73 30.848 136.552 31.2867 136.552 31.828C136.552 32.3507 136.748 32.7707 137.14 33.088C137.551 33.3867 138.055 33.536 138.652 33.536C139.418 33.536 140.09 33.3773 140.668 33.06C141.266 32.724 141.723 32.2667 142.04 31.688C142.376 31.1093 142.544 30.4747 142.544 29.784V25.864C142.544 25.2107 142.283 24.6693 141.76 24.24C141.256 23.792 140.584 23.568 139.744 23.568C138.96 23.568 138.26 23.7827 137.644 24.212C137.047 24.6227 136.608 25.1733 136.328 25.864L133.332 24.408C133.631 23.6053 134.098 22.9147 134.732 22.336C135.386 21.7387 136.151 21.272 137.028 20.936C137.906 20.6 138.858 20.432 139.884 20.432C141.135 20.432 142.236 20.6653 143.188 21.132C144.14 21.58 144.878 22.2147 145.4 23.036C145.942 23.8387 146.212 24.7813 146.212 25.864V36H142.74V33.396L143.524 33.34C143.132 33.9933 142.666 34.544 142.124 34.992C141.583 35.4213 140.967 35.7573 140.276 36C139.586 36.224 138.82 36.336 137.98 36.336ZM157.919 36.336C156.817 36.336 155.8 36.1213 154.867 35.692C153.952 35.244 153.224 34.6093 152.683 33.788L153.047 33.06V36H149.603V14.804H153.271V23.792L152.711 23.036C153.233 22.2147 153.943 21.58 154.839 21.132C155.735 20.6653 156.771 20.432 157.947 20.432C159.384 20.432 160.681 20.7867 161.839 21.496C162.996 22.2053 163.911 23.1573 164.583 24.352C165.273 25.5467 165.619 26.8907 165.619 28.384C165.619 29.8587 165.283 31.2027 164.611 32.416C163.939 33.6293 163.024 34.5907 161.867 35.3C160.709 35.9907 159.393 36.336 157.919 36.336ZM157.499 32.976C158.339 32.976 159.085 32.78 159.739 32.388C160.392 31.996 160.896 31.4547 161.251 30.764C161.624 30.0733 161.811 29.28 161.811 28.384C161.811 27.488 161.624 26.704 161.251 26.032C160.896 25.3413 160.392 24.8 159.739 24.408C159.085 23.9973 158.339 23.792 157.499 23.792C156.696 23.792 155.968 23.988 155.315 24.38C154.68 24.772 154.176 25.3227 153.803 26.032C153.448 26.7227 153.271 27.5067 153.271 28.384C153.271 29.28 153.448 30.0733 153.803 30.764C154.176 31.4547 154.68 31.996 155.315 32.388C155.968 32.78 156.696 32.976 157.499 32.976ZM169.99 42.188C169.579 42.188 169.178 42.1507 168.786 42.076C168.394 42.02 168.039 41.9173 167.722 41.768V38.688C167.964 38.744 168.254 38.8 168.59 38.856C168.944 38.912 169.271 38.94 169.57 38.94C170.41 38.94 171.016 38.744 171.39 38.352C171.782 37.96 172.127 37.4467 172.426 36.812L173.434 34.46L173.378 37.54L166.742 20.768H170.69L175.338 33.144H173.938L178.558 20.768H182.534L175.898 37.54C175.506 38.5293 175.03 39.3693 174.47 40.06C173.91 40.7507 173.256 41.2733 172.51 41.628C171.782 42.0013 170.942 42.188 169.99 42.188Z" fill="#714AE1"/>
<path d="M57 16.1496C57 34.3831 30.5892 49.1418 29.4644 49.7513C29.168 49.9146 28.8366 50 28.5 50C28.1634 50 27.832 49.9146 27.5356 49.7513C26.4108 49.1418 0 34.3831 0 16.1496C0.00471456 11.868 1.66842 7.76305 4.62612 4.73545C7.58382 1.70785 11.594 0.00482597 15.7768 0C21.0315 0 25.6322 2.31305 28.5 6.22282C31.3678 2.31305 35.9685 0 41.2232 0C45.406 0.00482597 49.4162 1.70785 52.3739 4.73545C55.3316 7.76305 56.9953 11.868 57 16.1496Z" fill="#714AE1"/>
<path d="M29.3923 8.33326C30.9389 8.33326 32.4222 8.94784 33.5158 10.0418C34.6095 11.1358 35.2239 12.6195 35.2239 14.1666C35.2239 15.7137 34.6095 17.1974 33.5158 18.2914C32.4222 19.3853 30.9389 19.9999 29.3923 19.9999C27.8456 19.9999 26.3623 19.3853 25.2687 18.2914C24.1751 17.1974 23.5607 15.7137 23.5607 14.1666C23.5607 12.6195 24.1751 11.1358 25.2687 10.0418C26.3623 8.94784 27.8456 8.33326 29.3923 8.33326ZM43.2096 39.8147L41.0555 28.8666C40.3751 26.9416 39.7725 25.2694 37.1677 23.8888C34.4852 22.5277 32.5413 21.9444 29.3923 21.9444C26.2238 21.9444 24.2993 22.5277 21.6168 23.8888C19.012 25.2694 18.4094 26.9416 17.729 28.8666L14.7096 40.7407C15.629 41.6666 18.4288 44.1888 21.8306 45.6472V41.3888C21.8306 39.5416 23.5023 38.2388 26.8458 37.4416C27.1568 37.3638 27.4484 37.3249 27.6817 37.286C26.632 35.6916 26.2043 34.2721 26.1654 34.1555L29.6061 32.9888C29.6255 33.0277 30.6169 36.0805 32.969 37.6166C33.3772 37.7527 33.7854 37.9083 34.1742 38.0833C35.671 38.7444 36.5651 39.5999 36.8567 40.6305C34.2519 41.661 31.7638 42.186 29.3923 42.186L27.4484 41.9916V47.1055L29.3923 47.2221C32.0554 47.2221 34.134 46.6791 36.7741 45.3703C39.1116 43.5184 41.2658 41.7592 43.2096 39.8147ZM36.1958 37.4999C35.4225 37.4999 34.6808 37.1926 34.134 36.6457C33.5872 36.0987 33.28 35.3568 33.28 34.5833C33.28 33.8097 33.5872 33.0678 34.134 32.5209C34.6808 31.9739 35.4225 31.6666 36.1958 31.6666C36.9691 31.6666 37.7108 31.9739 38.2576 32.5209C38.8044 33.0678 39.1116 33.8097 39.1116 34.5833C39.1116 35.3568 38.8044 36.0987 38.2576 36.6457C37.7108 37.1926 36.9691 37.4999 36.1958 37.4999Z" fill="white"/>
</svg>
