<svg width="647" height="482" viewBox="0 0 647 482" fill="none" xmlns="http://www.w3.org/2000/svg">
<path d="M647 423.574H0V423.898H647V423.574Z" fill="#E6E6E6"/>
<path d="M161.517 443.149H118.66V443.472H161.517V443.149Z" fill="#E6E6E6"/>
<path d="M105.098 443.149H80.2666V443.472H105.098V443.149Z" fill="#E6E6E6"/>
<path d="M272.452 447.91H247.62V448.233H272.452V447.91Z" fill="#E6E6E6"/>
<path d="M401.929 455.129H346.042V455.452H401.929V455.129Z" fill="#E6E6E6"/>
<path d="M334.525 455.129H326.334V455.452H334.525V455.129Z" fill="#E6E6E6"/>
<path d="M586.635 447.91H465.413V448.233H586.635V447.91Z" fill="#E6E6E6"/>
<path d="M306.678 365.873H56.8196C54.8623 365.869 52.9862 365.09 51.6034 363.705C50.2205 362.32 49.4438 360.443 49.4438 358.486V7.32263C49.4609 5.37686 50.2451 3.51639 51.6261 2.14532C53.0071 0.774256 54.8734 0.00333321 56.8196 0H306.678C308.638 0 310.517 0.778305 311.903 2.1637C313.288 3.54909 314.067 5.42808 314.067 7.38732V358.486C314.067 360.445 313.288 362.324 311.903 363.709C310.517 365.095 308.638 365.873 306.678 365.873ZM56.8196 0.258751C54.9481 0.262178 53.1543 1.00792 51.8321 2.33228C50.5099 3.65664 49.7673 5.45141 49.7673 7.32263V358.486C49.7673 360.357 50.5099 362.152 51.8321 363.476C53.1543 364.8 54.9481 365.546 56.8196 365.549H306.678C308.551 365.546 310.346 364.801 311.67 363.477C312.994 362.153 313.74 360.358 313.743 358.486V7.32263C313.74 5.45022 312.994 3.65548 311.67 2.33149C310.346 1.0075 308.551 0.262171 306.678 0.258751H56.8196Z" fill="#E6E6E6"/>
<path d="M586.583 365.873H336.712C334.753 365.869 332.876 365.09 331.491 363.705C330.106 362.321 329.327 360.444 329.323 358.486V7.32263C329.344 5.37568 330.131 3.51522 331.514 2.14451C332.897 0.773804 334.765 0.00329685 336.712 0H586.583C588.527 0.00673332 590.39 0.779161 591.769 2.14986C593.147 3.52056 593.929 5.3791 593.946 7.32263V358.486C593.946 360.44 593.171 362.315 591.791 363.7C590.411 365.085 588.539 365.866 586.583 365.873ZM336.712 0.258751C334.839 0.262171 333.044 1.0075 331.72 2.33149C330.396 3.65548 329.65 5.45022 329.647 7.32263V358.486C329.65 360.358 330.396 362.153 331.72 363.477C333.044 364.801 334.839 365.546 336.712 365.549H586.583C588.456 365.546 590.251 364.801 591.576 363.477C592.9 362.153 593.645 360.358 593.649 358.486V7.32263C593.645 5.45022 592.9 3.65548 591.576 2.33149C590.251 1.0075 588.456 0.262171 586.583 0.258751H336.712Z" fill="#E6E6E6"/>
<path d="M346.016 313.062H317.561V425.916H346.016V313.062Z" fill="#E0E0E0"/>
<path d="M340.607 425.916H346.016V410.546H334.939L340.607 425.916Z" fill="#FAFAFA"/>
<path d="M221.326 313.062H192.871V425.916H221.326V313.062Z" fill="#E0E0E0"/>
<path d="M346.016 313.062H216.616V416.484H346.016V313.062Z" fill="#FAFAFA"/>
<path d="M341.318 318.146V345.509H221.274V318.146H341.279M341.784 317.642H220.808V346.001H341.823V317.642H341.784Z" fill="#E0E0E0"/>
<path d="M222.012 425.916H216.616V410.546H227.679L222.012 425.916Z" fill="#FAFAFA"/>
<path d="M278.456 331.821C278.456 332.387 278.624 332.94 278.938 333.41C279.252 333.88 279.699 334.246 280.221 334.463C280.744 334.679 281.319 334.736 281.874 334.626C282.428 334.515 282.938 334.243 283.338 333.843C283.738 333.443 284.01 332.934 284.121 332.379C284.231 331.825 284.174 331.25 283.958 330.727C283.741 330.205 283.375 329.758 282.905 329.444C282.434 329.13 281.881 328.962 281.316 328.962C280.557 328.962 279.83 329.263 279.294 329.8C278.757 330.336 278.456 331.063 278.456 331.821Z" fill="#E6E6E6"/>
<path d="M341.318 351.085V378.448H221.274V351.085H341.279M341.784 350.594H220.808V378.953H341.823V350.607L341.784 350.594Z" fill="#E0E0E0"/>
<path d="M278.456 364.838C278.456 365.403 278.624 365.956 278.938 366.426C279.252 366.897 279.699 367.263 280.221 367.479C280.744 367.696 281.319 367.753 281.874 367.642C282.428 367.532 282.938 367.26 283.338 366.86C283.738 366.46 284.01 365.95 284.121 365.396C284.231 364.841 284.174 364.266 283.958 363.744C283.741 363.221 283.375 362.775 282.905 362.461C282.434 362.146 281.881 361.979 281.316 361.979C280.557 361.979 279.83 362.28 279.294 362.816C278.757 363.352 278.456 364.08 278.456 364.838Z" fill="#E6E6E6"/>
<path d="M341.318 384.037V411.413H221.274V384.037H341.279M341.784 383.533H220.808V411.905H341.823V383.533H341.784Z" fill="#E0E0E0"/>
<path d="M278.456 397.725C278.459 398.29 278.629 398.841 278.944 399.31C279.26 399.778 279.708 400.143 280.23 400.357C280.753 400.572 281.328 400.627 281.882 400.515C282.436 400.403 282.944 400.13 283.342 399.729C283.741 399.329 284.012 398.819 284.122 398.265C284.231 397.711 284.173 397.137 283.957 396.615C283.74 396.093 283.373 395.647 282.903 395.334C282.433 395.02 281.881 394.853 281.316 394.853C280.939 394.853 280.566 394.927 280.218 395.072C279.871 395.216 279.555 395.428 279.289 395.695C279.023 395.962 278.813 396.278 278.67 396.627C278.527 396.975 278.454 397.348 278.456 397.725Z" fill="#E6E6E6"/>
<path d="M203.947 247.521H175.492V425.929H203.947V247.521Z" fill="#E0E0E0"/>
<path d="M198.539 425.916H203.947V410.546H192.884L198.539 425.916Z" fill="#FAFAFA"/>
<path d="M97.6064 247.521H69.1514V425.929H97.6064V247.521Z" fill="#E0E0E0"/>
<path d="M203.947 247.521H92.8833V416.497H203.947V247.521Z" fill="#FAFAFA"/>
<path d="M199.159 252.282V290.538H97.6709V252.282H199.159ZM199.755 251.699H97.0498V291.094H199.729V251.712L199.755 251.699Z" fill="#E0E0E0"/>
<path d="M199.16 295.208V396.677H150.816V295.208H199.16ZM199.755 294.613H150.233V397.272H199.755V294.613Z" fill="#E0E0E0"/>
<path d="M146.015 295.208V396.677H97.6709V295.208H146.015ZM146.597 294.613H97.0498V397.272H146.571V294.613H146.597Z" fill="#E0E0E0"/>
<path d="M98.2922 425.916H92.8833V410.546H103.96L98.2922 425.916Z" fill="#FAFAFA"/>
<path d="M145.549 271.429C145.547 271.998 145.713 272.554 146.027 273.028C146.341 273.502 146.789 273.872 147.314 274.092C147.838 274.311 148.416 274.37 148.974 274.26C149.533 274.151 150.046 273.879 150.449 273.477C150.852 273.076 151.127 272.565 151.239 272.007C151.35 271.45 151.294 270.871 151.077 270.346C150.86 269.82 150.492 269.371 150.019 269.055C149.547 268.739 148.991 268.57 148.422 268.57C147.662 268.57 146.934 268.871 146.395 269.406C145.857 269.942 145.553 270.67 145.549 271.429Z" fill="#E6E6E6"/>
<path d="M155.797 343.53C155.797 344.098 155.966 344.654 156.282 345.127C156.599 345.599 157.048 345.967 157.574 346.184C158.099 346.401 158.678 346.458 159.235 346.346C159.793 346.234 160.305 345.959 160.706 345.556C161.107 345.153 161.38 344.64 161.489 344.082C161.598 343.524 161.54 342.946 161.32 342.422C161.101 341.897 160.731 341.449 160.257 341.135C159.782 340.821 159.226 340.655 158.657 340.658C158.28 340.658 157.908 340.732 157.56 340.877C157.212 341.021 156.896 341.233 156.63 341.5C156.365 341.766 156.154 342.083 156.011 342.432C155.868 342.78 155.796 343.153 155.797 343.53Z" fill="#E6E6E6"/>
<path d="M135.314 343.53C135.316 344.095 135.486 344.646 135.802 345.115C136.118 345.583 136.565 345.948 137.088 346.162C137.611 346.377 138.185 346.431 138.739 346.32C139.293 346.208 139.801 345.934 140.2 345.534C140.599 345.134 140.87 344.624 140.979 344.07C141.088 343.516 141.031 342.941 140.814 342.42C140.597 341.898 140.231 341.452 139.761 341.139C139.291 340.825 138.738 340.658 138.173 340.658C137.797 340.658 137.424 340.732 137.076 340.877C136.728 341.021 136.412 341.233 136.147 341.5C135.881 341.767 135.67 342.083 135.527 342.432C135.385 342.78 135.312 343.153 135.314 343.53Z" fill="#E6E6E6"/>
<path d="M132.079 197.776H120.083C121.189 203.593 121.885 209.482 122.167 215.397C122.167 221.865 113.031 247.521 126.049 247.521C139.066 247.521 129.931 221.93 129.931 215.397C130.234 209.48 130.951 203.592 132.079 197.776Z" fill="#E0E0E0"/>
<path d="M86.439 224.013V231.776C86.4526 235.937 88.1121 239.924 91.0551 242.866C93.9982 245.809 97.986 247.468 102.148 247.482H109.912C114.074 247.468 118.062 245.809 121.005 242.866C123.948 239.924 125.608 235.937 125.621 231.776V224.013H86.439Z" fill="#F5F5F5"/>
<path d="M253.197 296.605C253.197 305.662 263.329 313.062 275.712 313.062H286.893C299.276 313.062 309.408 305.662 309.408 296.605H253.197Z" fill="#E0E0E0"/>
<path d="M549.445 283.332C542.665 288.869 533.296 298.999 524.73 313.256C519.011 322.752 515.569 332.662 514.055 345.833C514.055 330.955 514.145 314.977 514.197 299.892C515.918 296.01 519.852 287.058 522.673 279.994C532.08 256.409 535.613 250.6 544.062 230.262C555.359 203.093 566.927 170.93 563.615 173.505C556.86 178.745 530.98 227.196 528.185 234.13C520.566 252.636 515.857 272.209 514.223 292.155C514.223 277.924 514.326 264.986 514.378 254.947C514.559 222.202 515.116 211.632 515.387 208.372C516.435 206.716 517.665 204.788 518.389 203.753C524.471 194.955 526.813 187.478 532.533 174.359C540.659 155.794 547.647 122.816 545.602 124.472C537.088 131.406 530.385 146.284 521.56 165.264C512.735 184.243 515.258 195.149 513.511 211.347C513.149 214.53 512.864 226.536 512.657 243.161C510.38 225.436 506.083 213.767 498.255 203.158C488.627 190.104 479.311 181.293 472.478 176.688C465.646 172.082 484.28 204.141 493.182 218.088C501.115 230.559 508.426 241.543 512.592 252.372C512.372 274.922 512.269 303.462 512.269 329.997C510.224 317.914 506.886 304.885 502.434 294.807C497.077 282.698 488.847 264.119 482.287 257.819C480.721 256.305 489.145 292.44 494.554 302.039C499.963 311.639 503.935 320.708 507.339 326.155C508.128 327.448 510.768 332.326 512.269 335.146C512.269 367.581 512.45 396.198 512.735 405.94H514.132C514.042 403.43 514.016 386.922 514.055 365.084C517.432 353.233 525.144 339.7 531.511 327.358C538.446 313.993 556.226 277.833 549.445 283.332Z" fill="#E0E0E0"/>
<path d="M533.697 425.916H493.143L490.077 386.172H536.764L533.697 425.916Z" fill="#F0F0F0"/>
<path d="M539.779 390.803H487.049L485.548 377.387H541.293L539.779 390.803Z" fill="#F5F5F5"/>
<path d="M160.792 26.5219H88.2637V106.152H160.792V26.5219Z" fill="#E0E0E0"/>
<path d="M168.647 26.5219H93.7246V106.152H168.647V26.5219Z" fill="#F5F5F5"/>
<path d="M162.371 99.8776V32.7966L100 32.7966V99.8776H162.371Z" fill="white"/>
<path d="M147.244 83.6023V49.0461H115.114V83.6023H147.244Z" fill="#F5F5F5"/>
<path d="M530.605 35.7981H463.226V109.775H530.605V35.7981Z" fill="#E0E0E0"/>
<path d="M537.903 35.7981H468.312V109.775H537.903V35.7981Z" fill="#F5F5F5"/>
<path d="M532.08 103.94V41.6329H474.148V103.94H532.08Z" fill="white"/>
<path d="M503.107 90.8602C513.091 90.8602 521.184 82.7683 521.184 72.7865C521.184 62.8046 513.091 54.7128 503.107 54.7128C493.123 54.7128 485.03 62.8046 485.03 72.7865C485.03 82.7683 493.123 90.8602 503.107 90.8602Z" fill="#F5F5F5"/>
<path d="M236.142 74.0026H182.337V133.075H236.142V74.0026Z" fill="#E0E0E0"/>
<path d="M241.965 74.0026H186.388V133.075H241.965V74.0026Z" fill="#F5F5F5"/>
<path d="M237.307 128.418V78.66H191.046V128.418H237.307Z" fill="white"/>
<path d="M214.183 90.9507L201.527 112.867H226.838L214.183 90.9507Z" fill="#F5F5F5"/>
<path d="M323.5 482C462.065 482 574.394 475.443 574.394 467.355C574.394 459.266 462.065 452.709 323.5 452.709C184.935 452.709 72.6064 459.266 72.6064 467.355C72.6064 475.443 184.935 482 323.5 482Z" fill="#F5F5F5"/>
<path d="M451.93 140.281L439.093 135.106C439.093 135.106 422.155 165.988 417.302 167.554C410.703 169.675 397.038 175.575 388.938 176.61C387.838 177.904 386.039 181.927 386.207 183.389C397.09 187.025 421.003 182.199 426.127 178.395C437.786 169.766 451.93 140.281 451.93 140.281Z" fill="#E58A7B"/>
<path d="M455.876 133.256C458.27 142.093 445.304 159.869 445.304 159.869L428.314 150.347C428.314 150.347 431.497 143.037 435.379 135.598C441.603 123.579 453.146 123.178 455.876 133.256Z" fill="#407BFF"/>
<path opacity="0.2" d="M455.876 133.256C458.27 142.093 445.304 159.869 445.304 159.869L428.314 150.347C428.314 150.347 431.497 143.037 435.379 135.598C441.603 123.579 453.146 123.178 455.876 133.256Z" fill="black"/>
<path opacity="0.2" d="M435.056 154.15L441.746 157.902L442.923 137.37C439.028 140.359 436.285 149.364 435.056 154.15Z" fill="black"/>
<path d="M444.696 126.607C444.696 126.607 431.471 156.026 439.184 210.804H491.293C492.121 202.808 489.378 163.789 499.303 126.115C493.587 124.998 487.803 124.259 481.989 123.903C474.615 123.475 467.223 123.475 459.849 123.903C454.737 124.422 449.672 125.325 444.696 126.607Z" fill="#407BFF"/>
<path opacity="0.2" d="M444.696 126.607C444.696 126.607 431.471 156.026 439.184 210.804H491.293C492.121 202.808 489.378 163.789 499.303 126.115C493.587 124.998 487.803 124.259 481.989 123.903C474.615 123.475 467.223 123.475 459.849 123.903C454.737 124.422 449.672 125.325 444.696 126.607Z" fill="black"/>
<g style="mix-blend-mode:multiply">
<path d="M432.61 468.519C432.532 469.916 452.292 471.042 476.735 471.042C501.179 471.042 521.081 469.916 521.158 468.519C521.236 467.122 501.49 466.009 477.033 466.009C452.576 466.009 432.701 467.135 432.61 468.519Z" fill="#E8ECF1"/>
</g>
<path d="M467.394 431.806L458.151 435.383L466.113 455.946L475.355 452.369L467.394 431.806Z" fill="#E58A7B"/>
<path d="M508.607 458.57H498.863L495.292 436.02H505.035L508.607 458.57Z" fill="#E58A7B"/>
<path d="M498.19 457.445H509.137C509.327 457.445 509.511 457.513 509.655 457.636C509.8 457.759 509.896 457.93 509.927 458.117L511.337 466.773C511.367 466.99 511.35 467.211 511.286 467.421C511.223 467.63 511.115 467.824 510.97 467.989C510.825 468.153 510.647 468.284 510.447 468.374C510.247 468.463 510.029 468.508 509.81 468.506C505.993 468.441 504.156 468.209 499.342 468.209C496.379 468.209 490.284 468.519 486.169 468.519C482.054 468.519 481.782 464.483 483.477 464.107C491.086 462.464 494.036 460.226 496.573 458.053C497.02 457.66 497.595 457.444 498.19 457.445Z" fill="#263238"/>
<path d="M465.84 454.107L476.192 451.079C476.377 451.027 476.574 451.04 476.75 451.115C476.927 451.191 477.072 451.324 477.163 451.493L481.045 459.256C481.135 459.453 481.181 459.667 481.18 459.884C481.178 460.1 481.13 460.314 481.037 460.51C480.945 460.706 480.811 460.879 480.644 461.018C480.478 461.157 480.283 461.257 480.074 461.313C476.308 462.348 473.785 462.982 469.075 464.353C465.827 465.298 462.514 466.837 459.305 467.859C457.08 468.571 451.852 468.597 449.147 468.597C445.149 468.597 444.256 464.379 445.977 464.185C450.312 463.706 450.894 463.926 453.288 462.723C457.205 461.011 460.755 458.56 463.744 455.504C464.307 454.862 465.03 454.38 465.84 454.107Z" fill="#263238"/>
<path d="M390.568 176.558L379.854 172.069L375.441 183.946C379.833 184.614 384.3 184.614 388.692 183.946L390.568 176.558Z" fill="#E58A7B"/>
<path d="M371.883 171.758L371.598 179.65L375.441 183.92L379.854 172.043L371.883 171.758Z" fill="#E58A7B"/>
<path d="M468.662 433.552L459.391 437.131L463.496 447.764L472.768 444.185L468.662 433.552Z" fill="#CF6F64"/>
<path d="M505.035 436.02H495.292L497.142 447.651H506.886L505.035 436.02Z" fill="#CF6F64"/>
<path opacity="0.2" d="M437.527 195.99C437.721 198.332 437.941 200.726 438.226 203.184L476.968 190.608C483.019 188.816 488.277 185.014 491.875 179.831C492.031 176.377 492.225 172.742 492.522 168.951C492.652 167.114 492.807 165.225 492.975 163.31C493.143 161.395 493.376 159.274 493.622 157.23L437.527 195.99Z" fill="black"/>
<path d="M450.183 153.555L448.889 153.4C449.652 146.931 454.479 141.834 459.564 141.963V143.257C455.113 143.167 450.868 147.759 450.183 153.555Z" fill="white"/>
<path d="M457.08 165.497H456.86V164.203C461.311 164.371 465.491 159.727 466.177 153.943L467.471 154.099C466.785 160.425 462.114 165.497 457.08 165.497Z" fill="white"/>
<path d="M481.265 98.972C479.44 106.101 477.292 119.155 481.989 123.903C481.989 123.903 478.703 131.135 465.465 131.135C453.366 131.135 459.849 123.903 459.849 123.903C467.898 122.014 468.04 116.14 466.979 110.577L481.265 98.972Z" fill="#E58A7B"/>
<path d="M475.442 103.707L466.992 110.577C467.254 111.855 467.405 113.154 467.445 114.458C469.916 116.916 474.872 110.693 475.377 107.511C475.633 106.258 475.655 104.968 475.442 103.707Z" fill="#CF6F64"/>
<path d="M452.46 98.8815C453.048 99.9003 453.84 100.787 454.786 101.486C455.733 102.185 456.813 102.681 457.96 102.944C461.065 103.63 462.618 100.77 461.764 97.8982C461.001 95.3107 458.452 91.8305 455.294 92.4257C454.618 92.5649 453.985 92.8642 453.448 93.2984C452.911 93.7327 452.486 94.2892 452.209 94.9214C451.931 95.5535 451.809 96.243 451.853 96.932C451.897 97.621 452.105 98.2895 452.46 98.8815Z" fill="#CF6F64"/>
<path d="M457.597 76.0725C452.758 78.2849 451.05 97.51 457.132 100.356C463.213 103.203 466.759 71.8679 457.597 76.0725Z" fill="#263238"/>
<path d="M482.74 88.2468C481.575 97.8981 481.446 103.578 476.27 108.52C474.666 110.16 472.64 111.325 470.416 111.886C468.191 112.447 465.855 112.383 463.665 111.701C461.474 111.018 459.515 109.743 458.004 108.018C456.493 106.292 455.488 104.182 455.1 101.922C453.534 93.2536 455.695 78.9317 465.374 75.0893C467.408 74.1925 469.645 73.8558 471.852 74.1142C474.06 74.3726 476.158 75.2166 477.93 76.5588C479.701 77.9011 481.081 79.6926 481.927 81.7477C482.773 83.8028 483.054 86.0467 482.74 88.2468Z" fill="#E58A7B"/>
<path d="M466.837 81.0665C474.005 79.2423 479.272 78.0003 477.383 83.9645C474.885 91.934 471.883 99.6447 475.907 99.9941C478.366 100.214 489.236 95.6082 487.851 90.9378C486.648 86.8754 491.733 85.7628 492.639 83.7057C495.99 76.2537 486.402 77.237 488.11 72.7088C489.818 68.1807 480.346 60.884 475.17 64.5194C466.746 70.393 452.292 70.3025 459.888 60.6382C465.335 53.7425 455.618 55.1526 455.618 55.1526C455.618 55.1526 461.492 58.6328 451.606 64.0148C441.151 69.7591 450.739 85.1936 466.837 81.0665Z" fill="#263238"/>
<path d="M486.544 98.8815C485.129 100.929 483.003 102.377 480.579 102.944C477.383 103.63 476.153 100.77 477.357 97.8982C478.431 95.3107 481.381 91.8305 484.435 92.4257C487.489 93.0208 488.187 96.3457 486.544 98.8815Z" fill="#E58A7B"/>
<path d="M439.184 210.804C439.184 210.804 430.436 289.076 429.751 318.78C429.052 349.675 459.396 446.073 459.396 446.073L474.924 439.604C474.924 439.604 456.808 351.525 459.396 321.187C462.139 288.105 473.475 210.856 473.475 210.856L439.184 210.804Z" fill="#407BFF"/>
<path opacity="0.2" d="M460.923 232.293C453.948 246.757 458.645 275.362 462.424 292.31C463.86 280.343 465.568 267.354 467.186 255.335C467.031 236.86 465.594 222.59 460.923 232.293Z" fill="black"/>
<path d="M474.238 434.48C474.316 434.48 476.076 439.423 476.076 439.423L458.167 446.952L455.346 441.7L474.238 434.48Z" fill="#407BFF"/>
<path d="M457.675 210.804C457.675 210.804 464.365 285.246 468.79 313.127C473.656 343.672 492.729 445.4 492.729 445.4H510.574C510.574 445.4 499.885 346.143 497.866 315.895C495.667 283.086 491.293 210.804 491.293 210.804H457.675Z" fill="#407BFF"/>
<path d="M510.846 440.755C510.923 440.755 511.441 445.736 511.441 445.736H491.824L490.426 440.018L510.846 440.755Z" fill="#407BFF"/>
<path opacity="0.2" d="M504.013 434.856C503.973 434.856 503.934 434.842 503.903 434.816C503.872 434.79 503.851 434.753 503.845 434.713C503.742 433.808 494.101 344.151 492.29 316.982C490.323 287.51 486.363 222.137 486.324 221.477C486.322 221.456 486.325 221.434 486.332 221.414C486.339 221.394 486.35 221.375 486.365 221.359C486.38 221.343 486.397 221.331 486.417 221.322C486.437 221.313 486.458 221.309 486.48 221.309C486.522 221.309 486.563 221.325 486.594 221.354C486.625 221.382 486.645 221.422 486.648 221.464C486.648 222.124 490.646 287.446 492.613 316.969C494.425 344.138 504.065 433.73 504.156 434.7C504.159 434.722 504.158 434.744 504.153 434.765C504.148 434.786 504.138 434.806 504.125 434.823C504.111 434.84 504.094 434.854 504.075 434.864C504.056 434.874 504.035 434.88 504.013 434.882V434.856Z" fill="black"/>
<path d="M467.936 90.9378C467.936 91.727 467.445 92.3609 466.927 92.3609C466.409 92.3609 466.034 91.727 466.086 90.9378C466.138 90.1486 466.578 89.5146 467.095 89.5146C467.613 89.5146 467.988 90.1615 467.936 90.9378Z" fill="#263238"/>
<path d="M459.059 90.9378C459.059 91.727 458.555 92.3609 458.05 92.3609C457.545 92.3609 457.157 91.727 457.196 90.9378C457.235 90.1486 457.701 89.5146 458.218 89.5146C458.736 89.5146 459.111 90.1615 459.059 90.9378Z" fill="#263238"/>
<path d="M461.855 91.3389C460.775 93.7487 459.382 96.0062 457.714 98.0534C459.008 99.3472 461.428 98.7521 461.428 98.7521L461.855 91.3389Z" fill="#DF5753"/>
<path d="M462.088 102.051C462.058 102.051 462.028 102.045 462 102.033C461.973 102.021 461.948 102.004 461.927 101.982C461.907 101.96 461.891 101.935 461.88 101.906C461.87 101.878 461.866 101.848 461.868 101.818C461.871 101.755 461.898 101.696 461.944 101.653C461.99 101.609 462.05 101.585 462.113 101.585C463.103 101.592 464.082 101.377 464.977 100.956C465.873 100.535 466.663 99.9193 467.289 99.1531C467.334 99.114 467.392 99.0924 467.451 99.0924C467.511 99.0924 467.568 99.114 467.613 99.1531C467.655 99.1965 467.678 99.2545 467.678 99.3148C467.678 99.3751 467.655 99.4331 467.613 99.4765C466.943 100.291 466.098 100.945 465.142 101.39C464.186 101.836 463.142 102.062 462.088 102.051Z" fill="#263238"/>
<path d="M469.515 88.5573C469.453 88.5891 469.384 88.6056 469.315 88.6056C469.245 88.6056 469.176 88.5891 469.114 88.5573C468.63 88.2444 468.079 88.0498 467.506 87.9891C466.933 87.9284 466.353 88.0034 465.814 88.208C465.762 88.2342 465.704 88.2497 465.646 88.2535C465.587 88.2573 465.528 88.2493 465.473 88.23C465.418 88.2107 465.366 88.1805 465.323 88.1412C465.279 88.1018 465.244 88.0541 465.219 88.001C465.171 87.8858 465.17 87.7565 465.216 87.6405C465.262 87.5245 465.351 87.431 465.465 87.38C466.141 87.1037 466.875 86.9947 467.602 87.0623C468.33 87.1299 469.03 87.372 469.645 87.7681C469.694 87.8018 469.737 87.845 469.769 87.8953C469.802 87.9455 469.824 88.0017 469.835 88.0607C469.846 88.1197 469.845 88.1802 469.832 88.2388C469.82 88.2974 469.795 88.3529 469.761 88.402C469.696 88.4762 469.61 88.5301 469.515 88.5573Z" fill="#263238"/>
<path d="M455.631 85.9697C455.562 85.9531 455.499 85.9172 455.449 85.8662C455.406 85.8241 455.372 85.7738 455.349 85.7182C455.325 85.6627 455.313 85.603 455.313 85.5428C455.313 85.4826 455.325 85.4229 455.349 85.3674C455.372 85.3119 455.406 85.2615 455.449 85.2194C455.945 84.6632 456.563 84.2291 457.254 83.9508C457.946 83.6726 458.692 83.5577 459.435 83.6151C459.494 83.6243 459.551 83.6456 459.602 83.6777C459.653 83.7098 459.697 83.752 459.731 83.8018C459.765 83.8515 459.788 83.9077 459.8 83.9668C459.811 84.0259 459.81 84.0868 459.797 84.1456C459.769 84.2653 459.699 84.3709 459.599 84.4424C459.499 84.5138 459.376 84.5463 459.254 84.5337C458.666 84.4966 458.077 84.5939 457.532 84.818C456.988 85.0422 456.501 85.3874 456.109 85.8274C456.05 85.8929 455.974 85.9408 455.89 85.966C455.806 85.9911 455.716 85.9924 455.631 85.9697Z" fill="#263238"/>
<path d="M504.311 138.845L490.853 135.262C490.853 135.262 477.654 167.748 472.983 169.857C466.642 172.755 450.584 182.794 443.751 187.542C443.376 189.159 443.674 193.442 444.528 194.619C456.174 192.497 478.469 183.92 483.128 179.56C493.752 169.611 504.311 138.845 504.311 138.845Z" fill="#E58A7B"/>
<path d="M494.916 459.152C494.26 459.204 493.605 459.026 493.066 458.648C492.899 458.497 492.775 458.306 492.704 458.093C492.634 457.88 492.62 457.652 492.665 457.432C492.673 457.294 492.718 457.161 492.796 457.048C492.873 456.934 492.98 456.843 493.105 456.785C494.192 456.229 497.233 458.156 497.582 458.376C497.62 458.4 497.65 458.435 497.666 458.477C497.683 458.519 497.685 458.566 497.673 458.609C497.661 458.654 497.639 458.696 497.607 458.73C497.576 458.764 497.536 458.789 497.491 458.803C496.648 459.01 495.785 459.127 494.916 459.152ZM493.622 457.134C493.524 457.112 493.423 457.112 493.325 457.134C493.275 457.159 493.234 457.198 493.206 457.247C493.179 457.295 493.166 457.35 493.169 457.406C493.135 457.556 493.141 457.713 493.186 457.861C493.232 458.009 493.315 458.142 493.428 458.247C493.933 458.7 495.201 458.751 496.87 458.428C495.876 457.773 494.757 457.333 493.583 457.134H493.622Z" fill="#407BFF"/>
<path d="M497.427 458.803C497.393 458.814 497.357 458.814 497.323 458.803C496.353 458.26 494.528 456.125 494.8 455.038C494.84 454.866 494.938 454.712 495.076 454.602C495.215 454.492 495.386 454.431 495.563 454.43C495.737 454.407 495.913 454.422 496.081 454.473C496.248 454.524 496.403 454.611 496.534 454.728C497.608 455.646 497.672 458.467 497.672 458.609C497.679 458.651 497.671 458.695 497.65 458.732C497.628 458.77 497.596 458.799 497.556 458.816C497.513 458.825 497.467 458.82 497.427 458.803ZM495.693 454.857H495.602C495.304 454.857 495.266 455.025 495.253 455.09C495.097 455.724 496.249 457.341 497.207 458.104C497.202 457.011 496.864 455.946 496.236 455.051C496.086 454.92 495.892 454.851 495.693 454.857Z" fill="#407BFF"/>
<path d="M460.56 457.535C459.769 457.811 458.907 457.811 458.115 457.535C457.935 457.438 457.783 457.297 457.672 457.125C457.561 456.953 457.495 456.756 457.481 456.552C457.464 456.424 457.481 456.294 457.528 456.174C457.576 456.054 457.653 455.948 457.752 455.866C458.788 454.935 463.019 455.866 463.498 456.047C463.543 456.059 463.584 456.086 463.612 456.124C463.64 456.161 463.655 456.207 463.653 456.254C463.655 456.303 463.643 456.351 463.617 456.392C463.592 456.434 463.555 456.467 463.511 456.487C462.558 456.917 461.571 457.268 460.56 457.535ZM458.451 455.996C458.303 456.025 458.165 456.092 458.05 456.19C458.009 456.221 457.977 456.263 457.959 456.311C457.941 456.359 457.936 456.411 457.947 456.461C457.955 456.597 457.997 456.729 458.07 456.844C458.142 456.959 458.242 457.055 458.361 457.121C459.046 457.484 460.638 457.199 462.696 456.332C461.31 455.983 459.875 455.869 458.451 455.996Z" fill="#407BFF"/>
<path d="M463.472 456.487H463.369C462.075 456.254 459.487 454.767 459.409 453.654C459.409 453.395 459.526 453.033 460.147 452.826C460.357 452.751 460.579 452.72 460.802 452.733C461.024 452.746 461.241 452.804 461.441 452.904C462.838 453.589 463.576 456.073 463.615 456.19C463.624 456.229 463.623 456.27 463.611 456.308C463.6 456.347 463.579 456.382 463.55 456.41C463.531 456.441 463.504 456.468 463.472 456.487ZM460.406 453.214H460.276C459.875 453.356 459.875 453.525 459.875 453.576C459.875 454.249 461.751 455.478 463.058 455.892C462.757 454.853 462.12 453.943 461.247 453.305C460.987 453.173 460.688 453.14 460.406 453.214Z" fill="#407BFF"/>
<path d="M444.852 186.779L431.355 192.989L429.79 196.87L434.771 200.221C434.771 200.221 444.088 199.212 446.741 193.222L444.852 186.779Z" fill="#E58A7B"/>
<path d="M445.421 194.839C445.119 192.246 444.263 189.749 442.911 187.516L445.046 185.912C446.652 188.484 447.676 191.377 448.048 194.386L445.421 194.839Z" fill="#263238"/>
<path d="M447.724 188.616C448.009 189.065 448.15 189.59 448.126 190.121C448.101 190.653 447.914 191.163 447.59 191.585C447.265 192.006 446.818 192.316 446.31 192.475C445.803 192.633 445.259 192.631 444.752 192.469C444.246 192.307 443.801 191.993 443.48 191.57C443.158 191.146 442.974 190.634 442.954 190.103C442.934 189.572 443.078 189.047 443.366 188.6C443.655 188.154 444.074 187.807 444.567 187.607C445.12 187.325 445.762 187.273 446.353 187.462C446.944 187.651 447.437 188.066 447.724 188.616Z" fill="#263238"/>
<path d="M422.232 198.009L424.031 199.82L436.143 194.645L431.355 192.989L422.232 198.009Z" fill="#E58A7B"/>
<path opacity="0.2" d="M474.238 434.48C474.316 434.48 476.076 439.423 476.076 439.423L458.167 446.952L455.346 441.7L474.238 434.48Z" fill="black"/>
<path opacity="0.2" d="M510.846 440.755C510.923 440.755 511.441 445.736 511.441 445.736H491.824L490.426 440.018L510.846 440.755Z" fill="black"/>
<path d="M507.817 135.119C511.376 146.595 497.465 162.288 497.465 162.288L478.25 154.448C480.527 147.815 483.153 141.307 486.117 134.951C492.018 122.234 504.22 123.54 507.817 135.119Z" fill="#407BFF"/>
<path opacity="0.2" d="M507.817 135.119C511.376 146.595 497.465 162.288 497.465 162.288L478.25 154.448C480.527 147.815 483.153 141.307 486.117 134.951C492.018 122.234 504.22 123.54 507.817 135.119Z" fill="black"/>
<path d="M316.875 20.1437H308.606V21.4762H316.875V20.1437Z" fill="#407BFF"/>
<path d="M423.912 72.8854L422.911 95.0895L424.243 95.1495L425.243 72.9453L423.912 72.8854Z" fill="#407BFF"/>
<path d="M421.339 26.1208H268.647L254.439 344.021H407.131L421.339 26.1208Z" fill="#407BFF"/>
<path opacity="0.56" d="M416.784 30.4937H264.092L249.884 348.394H402.576L416.784 30.4937Z" fill="#FAFAFA"/>
<path opacity="0.07" d="M412.229 34.8536H259.537L245.316 352.754H398.008L412.229 34.8536Z" fill="#407BFF"/>
<path d="M394.851 173.505H264.52L263.433 197.828H393.764L394.851 173.505Z" fill="white"/>
<path d="M336.194 155.755H265.309L264.83 166.635H335.715L336.194 155.755Z" fill="#407BFF"/>
<path d="M391.914 239.15H261.582L260.495 263.472H390.827L391.914 239.15Z" fill="white"/>
<path opacity="0.47" d="M368.013 296.321H280.371L279.064 325.469H366.707L368.013 296.321Z" fill="#407BFF"/>
<path d="M362.151 329.997H274.509C274.471 330.007 274.431 330.007 274.392 329.997C274.38 329.959 274.38 329.918 274.392 329.881L275.686 300.72C275.686 300.7 275.69 300.68 275.698 300.662C275.706 300.644 275.718 300.627 275.733 300.614C275.747 300.601 275.764 300.59 275.783 300.584C275.802 300.578 275.822 300.575 275.842 300.577H363.484C363.5 300.569 363.518 300.565 363.536 300.565C363.554 300.565 363.572 300.569 363.588 300.577C363.597 300.593 363.602 300.611 363.602 300.629C363.602 300.647 363.597 300.665 363.588 300.681L362.32 329.907C362.304 329.937 362.28 329.962 362.25 329.978C362.22 329.994 362.185 330.001 362.151 329.997ZM274.664 329.687H361.996L363.29 300.836H275.958L274.664 329.687Z" fill="white"/>
<path d="M320.886 221.4H262.371L261.893 232.293H320.394L320.886 221.4Z" fill="#407BFF"/>
<path d="M366.344 94.9355C366.01 102.014 363.492 108.816 359.137 114.406C355.913 118.629 351.764 122.058 347.008 124.428C342.253 126.799 337.017 128.048 331.704 128.081C327.41 128.114 323.155 127.268 319.2 125.594C315.246 123.92 311.677 121.455 308.711 118.35C305.746 115.244 303.448 111.565 301.959 107.538C300.47 103.511 299.821 99.2225 300.053 94.9355C300.508 86.0397 304.345 77.6537 310.779 71.4925C317.213 65.3313 325.758 61.8604 334.667 61.7896C338.964 61.7495 343.224 62.5909 347.183 64.2617C351.142 65.9325 354.717 68.3973 357.685 71.5037C360.654 74.6101 362.954 78.2922 364.443 82.3224C365.933 86.3527 366.58 90.6454 366.344 94.9355Z" fill="white"/>
<path d="M369.463 68.724C369.378 70.6062 368.709 72.4152 367.548 73.899C366.688 75.0206 365.584 75.9312 364.319 76.5613C363.055 77.1913 361.662 77.5242 360.249 77.5345C358.88 77.5428 357.53 77.2158 356.316 76.5821C355.103 75.9483 354.063 75.0272 353.288 73.899C352.261 72.3745 351.753 70.5599 351.838 68.724C351.964 66.3621 352.985 64.1369 354.695 62.5022C356.404 60.8674 358.673 59.9462 361.039 59.9265C362.18 59.9161 363.311 60.1394 364.363 60.5827C365.414 61.026 366.364 61.68 367.153 62.5042C367.942 63.3284 368.555 64.3055 368.952 65.3752C369.349 66.4449 369.523 67.5846 369.463 68.724Z" fill="#407BFF"/>
<path d="M278.559 185.666C278.497 186.709 278.042 187.689 277.286 188.409C276.529 189.13 275.528 189.536 274.483 189.548C273.979 189.554 273.479 189.456 273.014 189.261C272.548 189.066 272.128 188.778 271.779 188.414C271.43 188.05 271.159 187.619 270.983 187.146C270.807 186.674 270.73 186.17 270.757 185.666C270.813 184.622 271.266 183.638 272.024 182.916C272.781 182.195 273.786 181.79 274.833 181.785C275.336 181.781 275.836 181.88 276.3 182.075C276.764 182.271 277.184 182.559 277.533 182.923C277.882 183.286 278.153 183.717 278.329 184.189C278.506 184.66 278.584 185.163 278.559 185.666Z" fill="#263238"/>
<path d="M296.003 185.666C295.943 186.71 295.489 187.692 294.732 188.413C293.975 189.134 292.972 189.539 291.926 189.547C291.423 189.552 290.924 189.453 290.461 189.257C289.997 189.061 289.578 188.773 289.231 188.409C288.883 188.046 288.613 187.615 288.438 187.143C288.263 186.671 288.186 186.169 288.213 185.666C288.269 184.624 288.72 183.642 289.475 182.921C290.23 182.199 291.232 181.793 292.276 181.785C292.78 181.779 293.28 181.876 293.745 182.071C294.211 182.266 294.631 182.555 294.98 182.918C295.329 183.282 295.6 183.714 295.776 184.186C295.952 184.659 296.029 185.163 296.003 185.666Z" fill="#263238"/>
<path d="M313.459 185.666C313.399 186.71 312.945 187.692 312.188 188.413C311.431 189.134 310.428 189.539 309.383 189.547C308.879 189.552 308.379 189.453 307.915 189.257C307.451 189.062 307.031 188.773 306.682 188.41C306.334 188.047 306.063 187.616 305.886 187.144C305.709 186.672 305.631 186.169 305.656 185.666C305.715 184.623 306.169 183.641 306.926 182.92C307.683 182.199 308.686 181.793 309.732 181.785C310.236 181.779 310.736 181.876 311.202 182.071C311.667 182.266 312.087 182.555 312.436 182.918C312.786 183.282 313.056 183.714 313.232 184.186C313.408 184.659 313.485 185.163 313.459 185.666Z" fill="#263238"/>
<path d="M275.622 251.311C275.56 252.354 275.104 253.334 274.348 254.054C273.592 254.774 272.59 255.181 271.546 255.192C271.042 255.197 270.542 255.098 270.078 254.902C269.614 254.707 269.194 254.418 268.846 254.055C268.497 253.692 268.226 253.261 268.049 252.789C267.873 252.317 267.794 251.814 267.819 251.311C267.878 250.268 268.332 249.286 269.089 248.565C269.846 247.844 270.85 247.438 271.895 247.43C272.399 247.426 272.898 247.525 273.362 247.72C273.827 247.916 274.246 248.204 274.595 248.567C274.944 248.931 275.215 249.362 275.392 249.833C275.568 250.305 275.646 250.808 275.622 251.311Z" fill="#263238"/>
<path d="M293.065 251.311C293.006 252.353 292.554 253.333 291.799 254.053C291.045 254.774 290.045 255.181 289.002 255.192C288.498 255.198 287.997 255.101 287.532 254.906C287.067 254.711 286.647 254.423 286.298 254.059C285.948 253.695 285.677 253.264 285.501 252.791C285.326 252.318 285.249 251.815 285.275 251.311C285.334 250.268 285.789 249.286 286.546 248.565C287.303 247.844 288.306 247.438 289.351 247.43C289.854 247.426 290.353 247.525 290.817 247.72C291.281 247.916 291.699 248.205 292.047 248.568C292.395 248.932 292.665 249.363 292.84 249.834C293.015 250.306 293.092 250.809 293.065 251.311Z" fill="#263238"/>
<path d="M310.56 251.311C310.501 252.355 310.047 253.337 309.29 254.058C308.533 254.779 307.529 255.184 306.484 255.192C305.981 255.195 305.482 255.095 305.019 254.898C304.555 254.702 304.137 254.414 303.788 254.051C303.44 253.688 303.168 253.258 302.991 252.787C302.814 252.316 302.734 251.814 302.757 251.311C302.819 250.269 303.275 249.288 304.031 248.568C304.787 247.848 305.789 247.441 306.833 247.43C307.338 247.424 307.838 247.521 308.303 247.716C308.768 247.911 309.188 248.2 309.538 248.563C309.887 248.927 310.158 249.359 310.334 249.831C310.51 250.304 310.587 250.808 310.56 251.311Z" fill="#263238"/>
<path d="M327.977 251.311C327.915 252.354 327.46 253.334 326.703 254.054C325.947 254.774 324.945 255.181 323.901 255.192C323.398 255.195 322.899 255.095 322.436 254.898C321.972 254.702 321.554 254.414 321.205 254.051C320.857 253.688 320.585 253.258 320.408 252.787C320.231 252.316 320.151 251.814 320.174 251.311C320.236 250.269 320.692 249.288 321.448 248.568C322.204 247.848 323.206 247.441 324.25 247.43C324.754 247.426 325.253 247.525 325.718 247.72C326.182 247.916 326.601 248.204 326.95 248.567C327.299 248.931 327.57 249.362 327.747 249.833C327.923 250.305 328.002 250.808 327.977 251.311Z" fill="#263238"/>
<path d="M345.498 251.311C345.436 252.354 344.981 253.334 344.224 254.054C343.468 254.774 342.466 255.181 341.422 255.192C340.917 255.198 340.417 255.101 339.952 254.906C339.487 254.711 339.067 254.423 338.717 254.059C338.368 253.695 338.097 253.264 337.921 252.791C337.745 252.318 337.668 251.815 337.695 251.311C337.754 250.268 338.208 249.286 338.966 248.565C339.723 247.844 340.726 247.438 341.771 247.43C342.275 247.426 342.774 247.525 343.239 247.72C343.703 247.916 344.122 248.204 344.471 248.567C344.82 248.931 345.091 249.362 345.268 249.833C345.444 250.305 345.523 250.808 345.498 251.311Z" fill="#263238"/>
<path d="M342.85 93.2091C348.266 87.9137 348.553 79.4258 343.492 74.2508C338.43 69.0759 329.936 69.1736 324.52 74.469C319.104 79.7644 318.817 88.2522 323.878 93.4272C328.94 98.6021 337.434 98.5045 342.85 93.2091Z" fill="#407BFF"/>
<path d="M359.137 114.406C355.912 118.629 351.764 122.058 347.008 124.428C342.253 126.799 337.017 128.048 331.704 128.081C326.551 128.125 321.467 126.901 316.899 124.516C312.332 122.131 308.422 118.659 305.513 114.406C311.802 108.145 321.753 104.056 332.778 104.056C343.803 104.056 353.404 108.145 359.137 114.406Z" fill="#407BFF"/>
<path opacity="0.1" d="M342.85 93.2091C348.266 87.9137 348.553 79.4258 343.492 74.2508C338.43 69.0759 329.936 69.1736 324.52 74.469C319.104 79.7644 318.817 88.2522 323.878 93.4272C328.94 98.6021 337.434 98.5045 342.85 93.2091Z" fill="white"/>
<path opacity="0.1" d="M359.137 114.406C355.912 118.629 351.764 122.058 347.008 124.428C342.253 126.799 337.017 128.048 331.704 128.081C326.551 128.125 321.467 126.901 316.899 124.516C312.332 122.131 308.422 118.659 305.513 114.406C311.802 108.145 321.753 104.056 332.778 104.056C343.803 104.056 353.404 108.145 359.137 114.406Z" fill="white"/>
<path d="M168.75 203.688C167.521 206.379 166.227 209.342 165.101 212.214C163.976 215.086 162.824 218.049 161.827 220.999C159.793 226.812 158.244 232.784 157.195 238.852L156.91 240.754C156.883 241.08 156.914 241.409 157.001 241.725C157.306 242.797 157.787 243.811 158.424 244.726C160.086 247.095 162.014 249.265 164.17 251.195C166.443 253.309 168.827 255.3 171.313 257.159C173.797 259.074 176.411 260.937 178.986 262.696L176.566 267.237C170.417 264.559 164.581 261.214 159.162 257.263C156.271 255.154 153.661 252.685 151.398 249.914C150.056 248.265 149.01 246.396 148.305 244.39C147.896 243.137 147.686 241.827 147.684 240.508C147.684 240.198 147.684 239.745 147.684 239.525V238.891L147.813 237.597C148.555 230.857 149.973 224.208 152.045 217.751C153.054 214.569 154.128 211.399 155.358 208.307C156.587 205.215 157.855 202.188 159.421 199.044L168.75 203.688Z" fill="#E58A7B"/>
<path d="M177.161 261.894L186.31 257.262L183.942 267.302C183.942 267.302 177.666 269.061 174.754 266.008L177.161 261.894Z" fill="#E58A7B"/>
<path d="M194.682 258.906L192.249 267.211L183.942 267.302L186.31 257.262L194.682 258.906Z" fill="#E58A7B"/>
<path d="M207.596 155.25C208.086 157.043 208.767 158.778 209.628 160.425C209.376 160.71 209.052 160.922 208.69 161.039C208.328 161.155 207.941 161.171 207.57 161.085L207.596 155.25Z" fill="#DF5753"/>
<path d="M207.325 155.328C207.86 155.328 208.295 154.662 208.295 153.84C208.295 153.018 207.86 152.352 207.325 152.352C206.789 152.352 206.354 153.018 206.354 153.84C206.354 154.662 206.789 155.328 207.325 155.328Z" fill="#263238"/>
<path d="M207.04 152.404L209.007 151.848C209.007 151.848 208.049 153.374 207.04 152.404Z" fill="#263238"/>
<path d="M182.324 164.746C183.502 170.762 184.679 181.798 180.461 185.822C180.461 185.822 182.117 191.928 193.31 191.928C205.616 191.928 199.185 185.822 199.185 185.822C192.469 184.217 192.637 179.236 193.815 174.553L182.324 164.746Z" fill="#E58A7B"/>
<path d="M179.051 151.033C179.672 161.085 179.724 165.354 184.796 170.517C192.444 178.279 204.659 175.329 207.053 165.341C209.214 156.285 207.842 141.381 197.995 137.384C195.833 136.493 193.48 136.169 191.158 136.441C188.837 136.714 186.623 137.574 184.726 138.941C182.829 140.307 181.313 142.135 180.32 144.251C179.327 146.367 178.89 148.701 179.051 151.033Z" fill="#E58A7B"/>
<path d="M180.047 139.725C175 141.562 168.271 140.191 170.911 155.755C173.706 172.237 169.41 177.658 169.41 177.658C169.41 177.658 188.548 181.733 208.088 177.412C208.088 177.412 202.122 166.985 203.792 159.3C205.927 149.597 204.245 146.013 204.245 146.013C204.245 146.013 187.138 137.138 180.047 139.725Z" fill="#263238"/>
<path d="M201.398 156.272C201.403 158.184 201.951 160.054 202.977 161.667C204.348 163.763 205.966 162.961 206.367 160.736C206.729 158.782 206.457 155.328 204.711 153.982C202.964 152.637 201.424 153.956 201.398 156.272Z" fill="#E58A7B"/>
<path d="M175.661 141.42C174.211 137.345 181.121 131.07 195.743 133.657C210.366 136.245 211 148.419 211 148.419L208.049 144.9L208.179 148.6L193.155 151.485L175.661 141.42Z" fill="#263238"/>
<path d="M176.902 186.507C176.816 185.917 176.964 185.315 177.314 184.832C177.665 184.349 178.19 184.021 178.779 183.92C183.334 183.169 193.686 181.643 198.888 182.367C202.77 182.911 203.779 185.162 203.947 187.012C203.973 187.336 203.93 187.662 203.82 187.967C203.71 188.273 203.536 188.552 203.309 188.785C203.082 189.018 202.808 189.199 202.505 189.317C202.202 189.436 201.878 189.488 201.553 189.47L179.063 188.461C178.533 188.434 178.029 188.225 177.635 187.869C177.241 187.513 176.982 187.032 176.902 186.507Z" fill="#407BFF"/>
<path opacity="0.6" d="M176.902 186.507C176.816 185.917 176.964 185.315 177.314 184.832C177.665 184.349 178.19 184.021 178.779 183.92C183.334 183.169 193.686 181.643 198.888 182.367C202.77 182.911 203.779 185.162 203.947 187.012C203.973 187.336 203.93 187.662 203.82 187.967C203.71 188.273 203.536 188.552 203.309 188.785C203.082 189.018 202.808 189.199 202.505 189.317C202.202 189.436 201.878 189.488 201.553 189.47L179.063 188.461C178.533 188.434 178.029 188.225 177.635 187.869C177.241 187.513 176.982 187.032 176.902 186.507Z" fill="black"/>
<path d="M189.907 412.526L198.254 418.322L212.216 399.394L203.869 393.611L189.907 412.526Z" fill="#E58A7B"/>
<path d="M170.446 412.15L179.258 417.17L191.616 397.156L182.804 392.136L170.446 412.15Z" fill="#E58A7B"/>
<path d="M212.203 399.394L205.008 409.149L196.662 403.366L203.857 393.611L212.203 399.394Z" fill="#CF6F64"/>
<path d="M182.79 392.136L191.615 397.169L185.249 407.48L176.424 402.447L182.79 392.136Z" fill="#CF6F64"/>
<path d="M196.947 249.694C196.947 249.694 229.529 290.745 223.409 330.01C218.479 361.72 189.881 404.66 189.881 404.66L176.437 397.984C185.913 378.998 194 359.351 200.634 339.196C202.68 332.938 203.277 326.298 202.381 319.776C201.484 313.254 199.117 307.021 195.458 301.548C178.947 277.445 152.498 291.793 170.29 249.694H196.947Z" fill="#407BFF"/>
<path opacity="0.6" d="M196.947 249.694C196.947 249.694 229.529 290.745 223.409 330.01C218.479 361.72 189.881 404.66 189.881 404.66L176.437 397.984C185.913 378.998 194 359.351 200.634 339.196C202.68 332.938 203.277 326.298 202.381 319.776C201.484 313.254 199.117 307.021 195.458 301.548C178.947 277.445 152.498 291.793 170.29 249.694H196.947Z" fill="black"/>
<path opacity="0.4" d="M212.927 276.061L208.191 271.351C208.191 271.727 217.366 328.354 219.941 344.267C221.461 339.619 222.624 334.861 223.422 330.036C226.45 310.772 220.122 291.094 212.927 276.061Z" fill="black"/>
<path d="M211.491 249.694C211.491 249.694 250.725 301.289 251.838 332.223C252.757 358.098 209.136 408.23 209.136 408.23L196.455 400.028C196.455 400.028 221.986 364.424 228.417 335.34C225.932 306.516 173.396 249.694 173.396 249.694H211.491Z" fill="#407BFF"/>
<path opacity="0.6" d="M211.491 249.694C211.491 249.694 250.725 301.289 251.838 332.223C252.757 358.098 209.136 408.23 209.136 408.23L196.455 400.028C196.455 400.028 221.986 364.424 228.417 335.34C225.932 306.516 173.396 249.694 173.396 249.694H211.491Z" fill="black"/>
<path d="M162.953 188.124C158.761 189.121 154.736 204.361 154.736 204.361L171.131 215.306C171.131 215.306 176.592 203.248 174.677 197.97C172.697 192.471 168.22 186.869 162.953 188.124Z" fill="#407BFF"/>
<path opacity="0.2" d="M166.163 197.944L165.024 211.231L171.119 215.319C172.802 211.531 174.047 207.564 174.832 203.494L166.163 197.944Z" fill="black"/>
<path d="M216.344 188.422C216.344 188.422 221.183 190.117 211.491 249.681H170.264C170.963 232.862 170.976 222.512 162.953 188.124C168.726 186.935 174.577 186.165 180.461 185.821C186.694 185.375 192.952 185.375 199.185 185.821C207.234 186.559 216.344 188.422 216.344 188.422Z" fill="#407BFF"/>
<path d="M220.537 197.944C221.468 200.531 222.452 203.313 223.487 205.991C224.522 208.669 225.506 211.425 226.554 214.142L229.724 222.266L230.526 224.298L230.94 225.307L231.134 225.811C231.134 225.902 231.134 225.902 231.134 225.889C230.898 225.556 230.588 225.281 230.229 225.087C229.717 224.786 229.14 224.613 228.546 224.582C228.054 224.567 227.563 224.66 227.11 224.854C226.515 225.126 226.515 225.242 226.528 225.229C226.635 225.143 226.731 225.043 226.812 224.932C227.529 223.991 228.149 222.981 228.663 221.917C229.271 220.727 229.853 219.459 230.436 218.178C231.574 215.591 232.623 212.913 233.671 210.209C234.719 207.505 235.715 204.775 236.686 202.019L239.636 193.765L244.618 195.059C243.634 200.958 242.366 206.703 240.839 212.55C240.102 215.461 239.235 218.346 238.251 221.257C237.76 222.719 237.216 224.168 236.595 225.656C235.948 227.271 235.151 228.822 234.214 230.288C233.87 230.781 233.489 231.248 233.075 231.685C232.415 232.399 231.613 232.967 230.72 233.354C229.929 233.694 229.071 233.853 228.21 233.82C227.245 233.784 226.306 233.503 225.48 233.005C224.505 232.396 223.696 231.556 223.125 230.559C222.93 230.223 222.762 229.887 222.646 229.641L222.4 229.149L221.908 228.14L220.925 226.135C219.631 223.444 218.337 220.727 217.211 217.997C216.085 215.267 214.895 212.499 213.782 209.717C212.669 206.936 211.673 204.154 210.728 201.152L220.537 197.944Z" fill="#E58A7B"/>
<path d="M216.344 188.422C221.3 189.599 226.877 204.245 226.877 204.245L212.138 216.781C212.138 216.781 202.601 200.816 204.529 195.551C206.535 190.065 209.874 186.882 216.344 188.422Z" fill="#407BFF"/>
<path d="M241.978 189.134L247.154 184.812L250.751 190.414L248.098 195.085C248.098 195.085 243.88 198.966 240.153 196.987C239.562 195.657 239.42 194.171 239.749 192.754C240.078 191.337 240.861 190.066 241.978 189.134Z" fill="#E58A7B"/>
<path d="M256.497 184.825L256.109 186.235L247.918 187.607L247.115 184.812L256.497 184.825Z" fill="#E58A7B"/>
<path d="M210.146 408.89L195.368 399.342L198.021 394.736L214.623 404.944L210.146 408.89Z" fill="#407BFF"/>
<path d="M185.042 416.497C183.745 416.339 182.499 415.897 181.393 415.204C181.347 415.188 181.307 415.158 181.279 415.119C181.251 415.079 181.236 415.032 181.236 414.984C181.236 414.935 181.251 414.888 181.279 414.849C181.307 414.809 181.347 414.78 181.393 414.764C181.794 414.634 185.275 413.561 186.284 414.389C186.397 414.483 186.484 414.606 186.534 414.744C186.584 414.883 186.596 415.033 186.569 415.178C186.551 415.411 186.474 415.635 186.344 415.83C186.215 416.025 186.039 416.183 185.831 416.29C185.589 416.423 185.318 416.494 185.042 416.497ZM182.13 415.074C183.748 415.902 185.042 416.2 185.663 415.889C185.798 415.814 185.912 415.706 185.993 415.575C186.075 415.443 186.122 415.293 186.129 415.139C186.129 414.932 186.129 414.841 186.012 414.79C185.469 414.35 183.528 414.686 182.104 415.074H182.13Z" fill="#263238"/>
<path d="M181.483 415.294C181.415 415.293 181.35 415.265 181.302 415.217C181.283 415.181 181.273 415.141 181.273 415.1C181.273 415.06 181.283 415.02 181.302 414.984C181.302 414.867 182.143 412.06 183.463 411.426C183.632 411.349 183.815 411.309 184 411.309C184.186 411.309 184.369 411.349 184.537 411.426C184.719 411.483 184.876 411.6 184.984 411.757C185.092 411.914 185.144 412.103 185.133 412.293C185.042 413.457 182.674 415.061 181.587 415.333L181.483 415.294ZM183.994 411.762C183.868 411.766 183.744 411.797 183.632 411.853C182.829 412.241 182.169 413.755 181.846 414.673C182.984 414.195 184.55 412.927 184.602 412.215C184.602 412.099 184.602 411.956 184.304 411.827C184.208 411.775 184.103 411.74 183.994 411.724V411.762Z" fill="#263238"/>
<path d="M203.507 422.086C202.045 422.086 200.014 420.21 198.901 419.059C198.872 419.019 198.857 418.972 198.857 418.923C198.857 418.874 198.872 418.827 198.901 418.787C198.926 418.746 198.963 418.712 199.006 418.689C199.049 418.666 199.098 418.655 199.147 418.658C199.664 418.658 204.154 419.331 204.788 420.599C204.856 420.712 204.891 420.842 204.891 420.974C204.891 421.106 204.856 421.235 204.788 421.349C204.693 421.546 204.55 421.716 204.371 421.843C204.192 421.97 203.984 422.049 203.766 422.073L203.507 422.086ZM199.755 419.24C201.385 420.819 202.821 421.698 203.637 421.595C203.779 421.576 203.915 421.523 204.033 421.439C204.15 421.356 204.245 421.245 204.31 421.116C204.339 421.072 204.354 421.02 204.354 420.967C204.354 420.914 204.339 420.863 204.31 420.819C203.973 420.12 201.579 419.525 199.755 419.24Z" fill="#263238"/>
<path d="M199.897 419.175C199.606 419.184 199.316 419.162 199.03 419.111C198.99 419.105 198.952 419.088 198.92 419.064C198.889 419.039 198.864 419.006 198.849 418.968C198.829 418.93 198.819 418.888 198.819 418.846C198.819 418.803 198.829 418.761 198.849 418.723C198.926 418.632 200.673 416.523 202.33 416.381C202.798 416.344 203.263 416.493 203.624 416.795C204.128 417.235 204.102 417.623 203.973 417.869C203.649 418.748 201.411 419.175 199.897 419.175ZM199.56 418.697C201.01 418.774 203.326 418.296 203.624 417.662C203.624 417.662 203.727 417.455 203.391 417.17C203.257 417.054 203.1 416.966 202.931 416.913C202.762 416.859 202.584 416.841 202.407 416.86C201.292 417.171 200.298 417.817 199.56 418.71V418.697Z" fill="#263238"/>
<path d="M181.833 413.897L170.859 410.792C170.67 410.735 170.467 410.749 170.288 410.833C170.108 410.916 169.967 411.063 169.889 411.245L166.188 419.564C166.101 419.777 166.06 420.006 166.068 420.236C166.076 420.466 166.133 420.691 166.234 420.898C166.336 421.104 166.48 421.287 166.657 421.434C166.834 421.581 167.04 421.689 167.262 421.75C171.144 422.759 173.007 423.044 177.834 424.428C180.81 425.256 185.055 426.796 189.157 427.96C193.259 429.124 194.63 425.127 193.039 424.273C185.844 420.469 185.275 417.804 183.308 414.958C182.955 414.442 182.433 414.067 181.833 413.897Z" fill="#407BFF"/>
<path d="M199.198 417.545L189.829 411.077C189.671 410.961 189.475 410.908 189.279 410.927C189.084 410.946 188.902 411.036 188.768 411.18L182.557 417.856C182.406 418.028 182.293 418.231 182.226 418.451C182.159 418.67 182.14 418.902 182.169 419.129C182.198 419.357 182.276 419.576 182.396 419.771C182.517 419.966 182.678 420.134 182.868 420.262C186.167 422.475 187.876 423.367 192.003 426.226C194.591 427.986 199.599 431.893 203.093 434.325C206.587 436.758 209.188 433.42 207.945 432.1C202.381 426.162 201.165 422.436 200.246 419.059C200.087 418.447 199.715 417.91 199.198 417.545Z" fill="#407BFF"/>
<path d="M191.603 405.513L174.716 397.117L176.463 392.537L194.501 401.386L191.603 405.513Z" fill="#407BFF"/>
<path d="M169.643 247.262L168.22 250.988C168.078 251.272 168.414 251.57 168.893 251.57H211.698C212.074 251.57 212.384 251.389 212.41 251.156L212.772 247.456C212.772 247.21 212.475 246.99 212.074 246.99H170.316C170.191 246.978 170.064 246.997 169.947 247.044C169.83 247.091 169.726 247.166 169.643 247.262Z" fill="#407BFF"/>
<path opacity="0.4" d="M169.643 247.262L168.22 250.988C168.078 251.272 168.414 251.57 168.893 251.57H211.698C212.074 251.57 212.384 251.389 212.41 251.156L212.772 247.456C212.772 247.21 212.475 246.99 212.074 246.99H170.316C170.191 246.978 170.064 246.997 169.947 247.044C169.83 247.091 169.726 247.166 169.643 247.262Z" fill="white"/>
<path d="M176.385 251.932H175.259C175.039 251.932 174.871 251.816 174.884 251.673L175.415 246.874C175.415 246.744 175.622 246.628 175.842 246.628H176.967C177.187 246.628 177.356 246.744 177.343 246.874L176.812 251.673C176.799 251.816 176.605 251.932 176.385 251.932Z" fill="#407BFF"/>
<path d="M202.783 251.932H201.67C201.45 251.932 201.282 251.816 201.295 251.673L201.812 246.874C201.812 246.744 202.032 246.628 202.252 246.628H203.365C203.585 246.628 203.766 246.744 203.74 246.874L203.223 251.673C203.158 251.816 203.016 251.932 202.783 251.932Z" fill="#407BFF"/>
<g style="mix-blend-mode:multiply">
<path d="M175.402 471.029C194.547 471.029 210.068 469.905 210.068 468.519C210.068 467.133 194.547 466.009 175.402 466.009C156.256 466.009 140.735 467.133 140.735 468.519C140.735 469.905 156.256 471.029 175.402 471.029Z" fill="#F5F5F5"/>
</g>
<path d="M196.52 464.974C190.386 463.189 183.58 460.899 179.465 458.506C179.348 458.428 179.219 458.389 179.103 458.324V430.56H191.512C192.454 430.505 193.339 430.091 193.986 429.405C194.634 428.718 194.994 427.81 194.994 426.867C194.994 425.923 194.634 425.016 193.986 424.329C193.339 423.642 192.454 423.229 191.512 423.173H179.167V296.618H171.714V423.173H159.382C158.878 423.143 158.374 423.217 157.9 423.389C157.426 423.561 156.992 423.828 156.625 424.174C156.258 424.52 155.965 424.937 155.765 425.4C155.566 425.864 155.462 426.363 155.462 426.867C155.462 427.371 155.566 427.87 155.765 428.333C155.965 428.796 156.258 429.214 156.625 429.559C156.992 429.905 157.426 430.173 157.9 430.345C158.374 430.517 158.878 430.59 159.382 430.56H171.714V458.286C171.597 458.286 171.481 458.389 171.364 458.467C167.185 460.899 160.43 463.189 154.297 464.935C153.882 465.061 153.526 465.33 153.294 465.695C153.061 466.06 152.966 466.496 153.027 466.924C153.088 467.353 153.301 467.745 153.626 468.031C153.952 468.316 154.368 468.476 154.801 468.48H196.015C196.429 468.452 196.82 468.283 197.124 468.001C197.428 467.719 197.626 467.342 197.685 466.931C197.744 466.521 197.661 466.103 197.449 465.747C197.236 465.391 196.909 465.118 196.52 464.974Z" fill="#E0E0E0"/>
<path d="M198.422 283.733H152.407C148.705 283.733 145.704 286.733 145.704 290.434V304.109C145.704 307.81 148.705 310.811 152.407 310.811H198.422C202.124 310.811 205.125 307.81 205.125 304.109V290.434C205.125 286.733 202.124 283.733 198.422 283.733Z" fill="#407BFF"/>
<path d="M151.98 310.824V313.178C151.98 315.119 154.089 316.697 156.677 316.697H194.203C196.791 316.697 198.9 315.119 198.9 313.178V310.824H151.98Z" fill="#407BFF"/>
<path opacity="0.3" d="M151.98 310.824V313.178C151.98 315.119 154.089 316.697 156.677 316.697H194.203C196.791 316.697 198.9 315.119 198.9 313.178V310.824H151.98Z" fill="white"/>
</svg>
